<?xml version="1.0" encoding="UTF-8" standalone="no"?>
<svg
   xmlns:dc="http://purl.org/dc/elements/1.1/"
   xmlns:cc="http://creativecommons.org/ns#"
   xmlns:rdf="http://www.w3.org/1999/02/22-rdf-syntax-ns#"
   xmlns:svg="http://www.w3.org/2000/svg"
   xmlns="http://www.w3.org/2000/svg"
   width="43.391613mm"
   height="43.391613mm"
   viewBox="0 0 43.391613 43.391613"
   version="1.1"
   id="svg2804">
  <defs
     id="defs2798" />
  <metadata
     id="metadata2801">
    <rdf:RDF>
      <cc:Work
         rdf:about="">
        <dc:format>image/svg+xml</dc:format>
        <dc:type
           rdf:resource="http://purl.org/dc/dcmitype/StillImage" />
        <dc:title></dc:title>
      </cc:Work>
    </rdf:RDF>
  </metadata>
  <g
     id="layer1"
     transform="translate(-83.644589,-59.274797)">
    <g
       transform="matrix(0.264583,0,0,0.264583,83.644589,59.274797)"
       id="g3376">
      <rect
         x="0"
         y="0"
         width="164"
         height="164"
         style="fill:#ffffff;stroke:none"
         id="rect3370" />
      <g
         style="fill:#000000;stroke:none"
         id="g3374">
        <path
           d="m 135.6,148 h -7.2 c -0.22091,0 -0.4,-0.17909 -0.4,-0.4 v -3.2 c 0,-0.22091 0.17909,-0.4 0.4,-0.4 h 3.2 c 0.22091,0 0.4,-0.17909 0.4,-0.4 V 140 h 3.6 c 0.22091,0 0.4,-0.17909 0.4,-0.4 V 136 h 3.6 c 0.22091,0 0.4,-0.17909 0.4,-0.4 v -3.2 c 0,-0.22091 0.17909,-0.4 0.4,-0.4 h 7.2 c 0.22091,0 0.4,0.17909 0.4,0.4 v 11.2 c 0,0.22091 -0.17909,0.4 -0.4,0.4 h -11.2 c -0.22091,0 -0.4,0.17909 -0.4,0.4 v 3.2 c 0,0.22091 -0.17909,0.4 -0.4,0.4 z m -12,0 h -3.2 c -0.22091,0 -0.4,-0.17909 -0.4,-0.4 v -7.2 c 0,-0.22091 0.17909,-0.4 0.4,-0.4 h 3.2 c 0.22091,0 0.4,0.17909 0.4,0.4 v 7.2 c 0,0.22091 -0.17909,0.4 -0.4,0.4 z m -8,0 h -7.2 c -0.22091,0 -0.4,-0.17909 -0.4,-0.4 V 144 h 7.6 c 0.22091,0 0.4,0.17909 0.4,0.4 v 3.2 c 0,0.22091 -0.17909,0.4 -0.4,0.4 z m -20,0 h -3.2 c -0.220914,0 -0.4,-0.17909 -0.4,-0.4 v -11.2 c 0,-0.22091 -0.179086,-0.4 -0.4,-0.4 h -3.2 c -0.220914,0 -0.4,0.17909 -0.4,0.4 v 3.2 c 0,0.22091 -0.179086,0.4 -0.4,0.4 H 84.4 C 84.179086,140 84,139.82091 84,139.6 V 132 h 7.6 c 0.220914,0 0.4,-0.17909 0.4,-0.4 v -3.2 c 0,-0.22091 -0.179086,-0.4 -0.4,-0.4 h -3.2 c -0.220914,0 -0.4,-0.17909 -0.4,-0.4 v -3.2 C 88,124.17909 87.820914,124 87.6,124 H 76.4 c -0.220914,0 -0.4,-0.17909 -0.4,-0.4 v -3.2 c 0,-0.22091 -0.179086,-0.4 -0.4,-0.4 h -3.2 c -0.220914,0 -0.4,0.17909 -0.4,0.4 v 3.2 c 0,0.22091 -0.179086,0.4 -0.4,0.4 h -7.2 c -0.220914,0 -0.4,0.17909 -0.4,0.4 v 3.2 c 0,0.22091 -0.179086,0.4 -0.4,0.4 h -7.2 c -0.220914,0 -0.4,0.17909 -0.4,0.4 V 140 h -4 v -3.6 c 0,-0.22091 -0.179086,-0.4 -0.4,-0.4 h -3.2 c -0.220914,0 -0.4,-0.17909 -0.4,-0.4 v -7.2 c 0,-0.22091 0.179086,-0.4 0.4,-0.4 h 3.2 c 0.220914,0 0.4,-0.17909 0.4,-0.4 v -3.2 c 0,-0.22091 0.179086,-0.4 0.4,-0.4 h 7.2 c 0.220914,0 0.4,-0.17909 0.4,-0.4 v -3.2 c 0,-0.22091 0.179086,-0.4 0.4,-0.4 h 7.2 c 0.220914,0 0.4,-0.17909 0.4,-0.4 v -3.2 c 0,-0.22091 -0.179086,-0.4 -0.4,-0.4 h -7.2 c -0.220914,0 -0.4,-0.17909 -0.4,-0.4 v -3.2 C 60,112.17909 59.820914,112 59.6,112 H 56 v -4 h 3.6 c 0.220914,0 0.4,-0.17909 0.4,-0.4 v -3.2 c 0,-0.22091 0.179086,-0.4 0.4,-0.4 H 64 v 3.6 c 0,0.22091 0.179086,0.4 0.4,0.4 h 3.2 c 0.220914,0 0.4,-0.17909 0.4,-0.4 v -3.2 C 68,104.17909 67.820914,104 67.6,104 H 64 v -4 h 3.6 c 0.220914,0 0.4,-0.179086 0.4,-0.4 V 92.4 C 68,92.179086 67.820914,92 67.6,92 H 64 V 88 H 75.6 C 75.820914,88 76,87.820914 76,87.6 V 80.4 C 76,80.179086 75.820914,80 75.6,80 H 68.4 C 68.179086,80 68,80.179086 68,80.4 v 3.2 C 68,83.820914 67.820914,84 67.6,84 H 64.4 C 64.179086,84 64,84.179086 64,84.4 V 88 H 60.4 C 60.179086,88 60,88.179086 60,88.4 v 3.2 c 0,0.220914 0.179086,0.4 0.4,0.4 H 64 v 8 H 60.4 C 60.179086,100 60,99.820914 60,99.6 V 96.4 C 60,96.179086 59.820914,96 59.6,96 H 56.4 C 56.179086,96 56,95.820914 56,95.6 V 76.4 C 56,76.179086 56.179086,76 56.4,76 h 3.2 c 0.220914,0 0.4,0.179086 0.4,0.4 v 3.2 c 0,0.220914 0.179086,0.4 0.4,0.4 h 3.2 C 63.820914,80 64,79.820914 64,79.6 V 76.4 C 64,76.179086 64.179086,76 64.4,76 h 7.2 C 71.820914,76 72,75.820914 72,75.6 V 72.4 C 72,72.179086 72.179086,72 72.4,72 h 11.2 c 0.220914,0 0.4,0.179086 0.4,0.4 v 11.2 c 0,0.220914 0.179086,0.4 0.4,0.4 h 3.2 c 0.220914,0 0.4,0.179086 0.4,0.4 V 88 H 84.4 C 84.179086,88 84,88.179086 84,88.4 V 96 H 80.4 C 80.179086,96 80,96.179086 80,96.4 v 7.2 c 0,0.22091 0.179086,0.4 0.4,0.4 H 84 v 4 H 76.4 C 76.179086,108 76,107.82091 76,107.6 V 92.4 C 76,92.179086 75.820914,92 75.6,92 H 72.4 C 72.179086,92 72,92.179086 72,92.4 v 23.2 c 0,0.22091 0.179086,0.4 0.4,0.4 H 80 v 3.6 c 0,0.22091 0.179086,0.4 0.4,0.4 h 3.2 c 0.220914,0 0.4,-0.17909 0.4,-0.4 V 116 h 8 v 3.6 c 0,0.22091 0.179086,0.4 0.4,0.4 h 3.2 c 0.220914,0 0.4,0.17909 0.4,0.4 v 7.2 c 0,0.22091 0.179086,0.4 0.4,0.4 h 3.2 c 0.220914,0 0.4,0.17909 0.4,0.4 v 7.2 c 0,0.22091 -0.179086,0.4 -0.4,0.4 h -3.2 c -0.220914,0 -0.4,0.17909 -0.4,0.4 v 11.2 c 0,0.22091 -0.179086,0.4 -0.4,0.4 z m -8,0 H 64.4 C 64.179086,148 64,147.82091 64,147.6 V 140 h 3.6 c 0.220914,0 0.4,0.17909 0.4,0.4 v 3.2 c 0,0.22091 0.179086,0.4 0.4,0.4 h 3.2 c 0.220914,0 0.4,-0.17909 0.4,-0.4 v -3.2 c 0,-0.22091 0.179086,-0.4 0.4,-0.4 h 3.2 c 0.220914,0 0.4,-0.17909 0.4,-0.4 v -3.2 C 76,136.17909 75.820914,136 75.6,136 H 64.4 c -0.220914,0 -0.4,0.17909 -0.4,0.4 v 3.6 h -4 v -7.6 c 0,-0.22091 0.179086,-0.4 0.4,-0.4 h 11.2 c 0.220914,0 0.4,-0.17909 0.4,-0.4 v -3.2 c 0,-0.22091 0.179086,-0.4 0.4,-0.4 h 11.2 c 0.220914,0 0.4,0.17909 0.4,0.4 v 3.6 h -3.6 c -0.220914,0 -0.4,0.17909 -0.4,0.4 v 11.2 c 0,0.22091 0.179086,0.4 0.4,0.4 h 7.2 c 0.220914,0 0.4,0.17909 0.4,0.4 v 3.2 c 0,0.22091 -0.179086,0.4 -0.4,0.4 z m -28,0 H 48.4 c -0.220914,0 -0.4,-0.17909 -0.4,-0.4 v -7.2 c 0,-0.22091 0.179086,-0.4 0.4,-0.4 H 52 v 3.6 c 0,0.22091 0.179086,0.4 0.4,0.4 h 3.2 c 0.220914,0 0.4,-0.17909 0.4,-0.4 V 140 h 4 v 7.6 c 0,0.22091 -0.179086,0.4 -0.4,0.4 z m -16,0 H 16.4 c -0.220914,0 -0.4,-0.17909 -0.4,-0.4 v -27.2 c 0,-0.22091 0.179086,-0.4 0.4,-0.4 h 27.2 c 0.220914,0 0.4,0.17909 0.4,0.4 v 27.2 c 0,0.22091 -0.179086,0.4 -0.4,0.4 z m 64,-4 h -3.2 c -0.22091,0 -0.4,-0.17909 -0.4,-0.4 v -3.2 c 0,-0.22091 0.17909,-0.4 0.4,-0.4 h 3.6 v 4 z M 40,143.6 V 124.4 C 40,124.17909 39.820914,124 39.6,124 H 20.4 c -0.220914,0 -0.4,0.17909 -0.4,0.4 v 19.2 c 0,0.22091 0.179086,0.4 0.4,0.4 h 19.2 c 0.220914,0 0.4,-0.17909 0.4,-0.4 z m 91.6,-3.6 h -3.2 c -0.22091,0 -0.4,-0.17909 -0.4,-0.4 v -3.2 c 0,-0.22091 0.17909,-0.4 0.4,-0.4 h 3.6 v 4 z m -16,0 H 108 v -4 h 3.6 c 0.22091,0 0.4,-0.17909 0.4,-0.4 v -3.2 c 0,-0.22091 -0.17909,-0.4 -0.4,-0.4 h -3.2 c -0.22091,0 -0.4,0.17909 -0.4,0.4 v 3.6 h -3.6 c -0.22091,0 -0.4,-0.17909 -0.4,-0.4 v -19.2 c 0,-0.22091 0.17909,-0.4 0.4,-0.4 h 3.2 c 0.22091,0 0.4,0.17909 0.4,0.4 v 3.2 c 0,0.22091 0.17909,0.4 0.4,0.4 h 3.2 c 0.22091,0 0.4,-0.17909 0.4,-0.4 v -7.2 c 0,-0.22091 -0.17909,-0.4 -0.4,-0.4 h -3.2 c -0.22091,0 -0.4,-0.17909 -0.4,-0.4 v -3.2 c 0,-0.22091 -0.17909,-0.4 -0.4,-0.4 h -7.2 c -0.22091,0 -0.4,-0.17909 -0.4,-0.4 v -3.2 c 0,-0.22091 0.17909,-0.4 0.4,-0.4 h 3.2 c 0.22091,0 0.4,-0.17909 0.4,-0.4 v -3.2 c 0,-0.22091 0.17909,-0.4 0.4,-0.4 h 7.6 v 7.6 c 0,0.22091 0.17909,0.4 0.4,0.4 h 3.2 c 0.22091,0 0.4,-0.17909 0.4,-0.4 v -3.2 c 0,-0.22091 0.17909,-0.4 0.4,-0.4 h 3.2 c 0.22091,0 0.4,0.17909 0.4,0.4 v 3.2 c 0,0.22091 0.17909,0.4 0.4,0.4 h 3.6 v 3.6 c 0,0.22091 0.17909,0.4 0.4,0.4 H 136 v 3.6 c 0,0.22091 0.17909,0.4 0.4,0.4 h 3.2 c 0.22091,0 0.4,-0.17909 0.4,-0.4 V 112 h 3.6 c 0.22091,0 0.4,0.17909 0.4,0.4 v 7.2 c 0,0.22091 -0.17909,0.4 -0.4,0.4 h -7.2 c -0.22091,0 -0.4,0.17909 -0.4,0.4 v 3.2 c 0,0.22091 0.17909,0.4 0.4,0.4 h 3.2 c 0.22091,0 0.4,0.17909 0.4,0.4 v 3.2 c 0,0.22091 -0.17909,0.4 -0.4,0.4 h -3.2 c -0.22091,0 -0.4,0.17909 -0.4,0.4 v 7.6 h -4 v -3.6 c 0,-0.22091 -0.17909,-0.4 -0.4,-0.4 h -11.2 c -0.22091,0 -0.4,0.17909 -0.4,0.4 v 3.2 c 0,0.22091 -0.17909,0.4 -0.4,0.4 h -3.2 c -0.22091,0 -0.4,0.17909 -0.4,0.4 v 3.2 c 0,0.22091 -0.17909,0.4 -0.4,0.4 z m -80,0 H 24.4 c -0.220914,0 -0.4,-0.17909 -0.4,-0.4 v -11.2 c 0,-0.22091 0.179086,-0.4 0.4,-0.4 h 11.2 c 0.220914,0 0.4,0.17909 0.4,0.4 v 11.2 c 0,0.22091 -0.179086,0.4 -0.4,0.4 z m 112,-12 h -3.2 c -0.22091,0 -0.4,-0.17909 -0.4,-0.4 v -3.2 c 0,-0.22091 0.17909,-0.4 0.4,-0.4 h 3.2 c 0.22091,0 0.4,0.17909 0.4,0.4 v 3.2 c 0,0.22091 -0.17909,0.4 -0.4,0.4 z M 128,127.6 v -11.2 c 0,-0.22091 -0.17909,-0.4 -0.4,-0.4 h -11.2 c -0.22091,0 -0.4,0.17909 -0.4,0.4 v 11.2 c 0,0.22091 0.17909,0.4 0.4,0.4 h 11.2 c 0.22091,0 0.4,-0.17909 0.4,-0.4 z m -4.4,-3.6 h -3.2 c -0.22091,0 -0.4,-0.17909 -0.4,-0.4 v -3.2 c 0,-0.22091 0.17909,-0.4 0.4,-0.4 h 3.2 c 0.22091,0 0.4,0.17909 0.4,0.4 v 3.2 c 0,0.22091 -0.17909,0.4 -0.4,0.4 z m -72,-4 h -3.2 c -0.220914,0 -0.4,-0.17909 -0.4,-0.4 v -3.2 c 0,-0.22091 0.179086,-0.4 0.4,-0.4 H 52 v 3.6 c 0,0.22091 -0.179086,0.4 -0.4,0.4 z m 48,-4 H 92 v -7.6 c 0,-0.22091 0.179086,-0.4 0.4,-0.4 h 3.2 c 0.220914,0 0.4,0.17909 0.4,0.4 v 3.2 c 0,0.22091 0.179086,0.4 0.4,0.4 h 3.2 c 0.220914,0 0.4,0.17909 0.4,0.4 v 3.2 c 0,0.22091 -0.179086,0.4 -0.4,0.4 z m -16,0 H 80 v -3.6 c 0,-0.22091 0.179086,-0.4 0.4,-0.4 H 84 v 4 z m -28,0 H 52 v -4 h 4 v 3.6 c 0,0.22091 -0.179086,0.4 -0.4,0.4 z m -12,0 H 32.4 C 32.179086,116 32,115.82091 32,115.6 V 112 h 11.6 c 0.220914,0 0.4,0.17909 0.4,0.4 v 3.2 c 0,0.22091 -0.179086,0.4 -0.4,0.4 z m -20,0 H 16.4 C 16.179086,116 16,115.82091 16,115.6 V 92.4 C 16,92.179086 16.179086,92 16.4,92 H 24 v 3.6 C 24,95.820914 23.820914,96 23.6,96 H 20.4 C 20.179086,96 20,96.179086 20,96.4 v 15.2 c 0,0.22091 0.179086,0.4 0.4,0.4 h 3.2 c 0.220914,0 0.4,0.17909 0.4,0.4 v 3.2 c 0,0.22091 -0.179086,0.4 -0.4,0.4 z m 116,-4 H 136 v -3.6 c 0,-0.22091 0.17909,-0.4 0.4,-0.4 h 3.6 v 4 z m -52,0 H 84 v -4 h 3.6 c 0.220914,0 0.4,0.17909 0.4,0.4 v 3.2 c 0,0.22091 -0.179086,0.4 -0.4,0.4 z m -36,0 H 48.4 C 48.179086,112 48,111.82091 48,111.6 V 96.4 C 48,96.179086 48.179086,96 48.4,96 h 3.2 c 0.220914,0 0.4,0.179086 0.4,0.4 v 3.2 c 0,0.220914 0.179086,0.4 0.4,0.4 h 3.2 c 0.220914,0 0.4,0.17909 0.4,0.4 v 7.6 h -3.6 c -0.220914,0 -0.4,0.17909 -0.4,0.4 v 3.6 z m -20,0 H 28.4 C 28.179086,112 28,111.82091 28,111.6 V 108 h 3.6 c 0.220914,0 0.4,0.17909 0.4,0.4 v 3.6 z m 116,-4 H 140 v -7.6 c 0,-0.22091 0.17909,-0.4 0.4,-0.4 h 3.2 c 0.22091,0 0.4,0.17909 0.4,0.4 v 3.2 c 0,0.22091 0.17909,0.4 0.4,0.4 h 3.2 c 0.22091,0 0.4,0.17909 0.4,0.4 v 3.2 c 0,0.22091 -0.17909,0.4 -0.4,0.4 z m -20,0 H 124 v -7.6 c 0,-0.22091 0.17909,-0.4 0.4,-0.4 h 11.2 c 0.22091,0 0.4,0.17909 0.4,0.4 v 3.2 c 0,0.22091 -0.17909,0.4 -0.4,0.4 h -7.2 c -0.22091,0 -0.4,0.17909 -0.4,0.4 v 3.2 c 0,0.22091 -0.17909,0.4 -0.4,0.4 z m -84,0 h -7.2 c -0.220914,0 -0.4,-0.17909 -0.4,-0.4 v -3.2 C 36,104.17909 35.820914,104 35.6,104 H 28 V 92 h 3.6 c 0.220914,0 0.4,0.179086 0.4,0.4 v 3.2 c 0,0.220914 0.179086,0.4 0.4,0.4 h 3.2 c 0.220914,0 0.4,0.179086 0.4,0.4 v 3.2 c 0,0.220914 0.179086,0.4 0.4,0.4 H 40 v 3.6 c 0,0.22091 0.179086,0.4 0.4,0.4 h 3.2 c 0.220914,0 0.4,0.17909 0.4,0.4 v 3.2 c 0,0.22091 -0.179086,0.4 -0.4,0.4 z m -16,0 h -3.2 c -0.220914,0 -0.4,-0.17909 -0.4,-0.4 v -3.2 c 0,-0.22091 0.179086,-0.4 0.4,-0.4 H 28 v 4 z m 68,-4 H 84 v -8 h 4 v 3.6 c 0,0.220914 0.179086,0.4 0.4,0.4 h 3.2 c 0.220914,0 0.4,-0.179086 0.4,-0.4 V 96.4 C 92,96.179086 91.820914,96 91.6,96 H 88 v -8 h 3.6 C 91.820914,88 92,87.820914 92,87.6 V 80 h 7.6 c 0.220914,0 0.4,0.179086 0.4,0.4 v 3.2 c 0,0.220914 -0.179086,0.4 -0.4,0.4 H 96.4 C 96.179086,84 96,84.179086 96,84.4 v 19.2 c 0,0.22091 -0.179086,0.4 -0.4,0.4 z m 24,-4 H 112 v -3.6 c 0,-0.220914 -0.17909,-0.4 -0.4,-0.4 h -3.2 c -0.22091,0 -0.4,-0.179086 -0.4,-0.4 v -7.2 c 0,-0.220914 0.17909,-0.4 0.4,-0.4 h 3.2 c 0.22091,0 0.4,0.179086 0.4,0.4 v 3.2 c 0,0.220914 0.17909,0.4 0.4,0.4 h 3.2 c 0.22091,0 0.4,0.179086 0.4,0.4 v 3.2 c 0,0.220914 0.17909,0.4 0.4,0.4 h 3.6 v 3.6 c 0,0.220914 -0.17909,0.4 -0.4,0.4 z m -76,0 H 40 V 96.4 C 40,96.179086 40.179086,96 40.4,96 h 3.2 c 0.220914,0 0.4,0.179086 0.4,0.4 v 3.2 c 0,0.220914 -0.179086,0.4 -0.4,0.4 z m 104,-4 h -11.2 c -0.22091,0 -0.4,-0.179086 -0.4,-0.4 v -3.2 c 0,-0.220914 0.17909,-0.4 0.4,-0.4 h 7.2 c 0.22091,0 0.4,-0.179086 0.4,-0.4 v -3.2 c 0,-0.220914 -0.17909,-0.4 -0.4,-0.4 h -3.2 C 140.17909,88 140,87.820914 140,87.6 V 80 h 3.6 c 0.22091,0 0.4,-0.179086 0.4,-0.4 v -3.2 c 0,-0.220914 0.17909,-0.4 0.4,-0.4 h 3.2 c 0.22091,0 0.4,0.179086 0.4,0.4 v 19.2 c 0,0.220914 -0.17909,0.4 -0.4,0.4 z m -20,0 H 120 v -3.6 c 0,-0.220914 0.17909,-0.4 0.4,-0.4 h 7.6 v 3.6 c 0,0.220914 -0.17909,0.4 -0.4,0.4 z m 4,-4 H 128 v -3.6 c 0,-0.220914 -0.17909,-0.4 -0.4,-0.4 h -7.2 c -0.22091,0 -0.4,-0.179086 -0.4,-0.4 v -3.2 c 0,-0.220914 -0.17909,-0.4 -0.4,-0.4 h -7.2 C 112.17909,84 112,83.820914 112,83.6 V 80 h 3.6 c 0.22091,0 0.4,-0.179086 0.4,-0.4 v -3.2 c 0,-0.220914 0.17909,-0.4 0.4,-0.4 h 3.6 v 3.6 c 0,0.220914 0.17909,0.4 0.4,0.4 h 7.2 c 0.22091,0 0.4,-0.179086 0.4,-0.4 V 76 h 3.6 c 0.22091,0 0.4,0.179086 0.4,0.4 v 3.2 c 0,0.220914 0.17909,0.4 0.4,0.4 h 3.6 v 3.6 c 0,0.220914 -0.17909,0.4 -0.4,0.4 h -3.2 c -0.22091,0 -0.4,0.179086 -0.4,0.4 v 7.2 c 0,0.220914 -0.17909,0.4 -0.4,0.4 z m -80,0 H 40.4 C 40.179086,92 40,91.820914 40,91.6 V 88 h 11.6 c 0.220914,0 0.4,0.179086 0.4,0.4 v 3.2 c 0,0.220914 -0.179086,0.4 -0.4,0.4 z m -24,0 H 24 v -4 h 4 v 4 z m 12,-4 H 36.4 C 36.179086,88 36,87.820914 36,87.6 V 80 h 7.6 c 0.220914,0 0.4,0.179086 0.4,0.4 v 3.2 C 44,83.820914 43.820914,84 43.6,84 H 40.4 C 40.179086,84 40,84.179086 40,84.4 V 88 Z m -8,0 H 28 v -4 h 3.6 c 0.220914,0 0.4,0.179086 0.4,0.4 v 3.2 c 0,0.220914 -0.179086,0.4 -0.4,0.4 z m -8,0 H 20.4 C 20.179086,88 20,87.820914 20,87.6 V 80.4 C 20,80.179086 19.820914,80 19.6,80 H 16.4 C 16.179086,80 16,79.820914 16,79.6 V 48.4 C 16,48.179086 16.179086,48 16.4,48 h 7.2 c 0.220914,0 0.4,0.179086 0.4,0.4 v 7.2 c 0,0.220914 0.179086,0.4 0.4,0.4 H 28 v 7.6 C 28,63.820914 27.820914,64 27.6,64 H 20.4 C 20.179086,64 20,64.179086 20,64.4 v 7.2 c 0,0.220914 0.179086,0.4 0.4,0.4 H 24 v 7.6 c 0,0.220914 0.179086,0.4 0.4,0.4 H 28 v 4 H 24.4 C 24.179086,84 24,84.179086 24,84.4 V 88 Z m 84,-4 h -3.2 c -0.22091,0 -0.4,-0.179086 -0.4,-0.4 v -3.2 c 0,-0.220914 0.17909,-0.4 0.4,-0.4 h 3.6 v 3.6 c 0,0.220914 -0.17909,0.4 -0.4,0.4 z m -56,0 H 48.4 C 48.179086,84 48,83.820914 48,83.6 V 80.4 C 48,80.179086 48.179086,80 48.4,80 h 3.2 c 0.220914,0 0.4,0.179086 0.4,0.4 v 3.2 c 0,0.220914 -0.179086,0.4 -0.4,0.4 z m 88,-4 H 136 v -3.6 c 0,-0.220914 0.17909,-0.4 0.4,-0.4 h 3.2 c 0.22091,0 0.4,0.179086 0.4,0.4 V 80 Z m -28,0 H 108 v -4 h 3.6 c 0.22091,0 0.4,0.179086 0.4,0.4 V 80 Z m -20,0 H 88.4 C 88.179086,80 88,79.820914 88,79.6 V 72.4 C 88,72.179086 88.179086,72 88.4,72 h 3.2 C 91.820914,72 92,71.820914 92,71.6 V 68.4 C 92,68.179086 92.179086,68 92.4,68 H 96 v 3.6 c 0,0.220914 0.179086,0.4 0.4,0.4 h 3.2 c 0.220914,0 0.4,-0.179086 0.4,-0.4 V 68 h 3.6 c 0.22091,0 0.4,0.179086 0.4,0.4 v 3.2 c 0,0.220914 0.17909,0.4 0.4,0.4 h 3.6 v 4 H 92.4 C 92.179086,76 92,76.179086 92,76.4 V 80 Z m -56,0 H 28 V 76.4 C 28,76.179086 28.179086,76 28.4,76 H 36 v 4 z m 92,-4 H 120 v -4 h 7.6 c 0.22091,0 0.4,0.179086 0.4,0.4 V 76 Z m -76,0 H 48.4 C 48.179086,76 48,75.820914 48,75.6 V 72.4 C 48,72.179086 47.820914,72 47.6,72 H 44 v -4 h 8 v 7.6 c 0,0.220914 -0.179086,0.4 -0.4,0.4 z m -8,0 H 36 V 60.4 C 36,60.179086 36.179086,60 36.4,60 H 40 v 3.6 c 0,0.220914 0.179086,0.4 0.4,0.4 H 44 v 4 H 40.4 C 40.179086,68 40,68.179086 40,68.4 v 3.2 c 0,0.220914 0.179086,0.4 0.4,0.4 H 44 v 3.6 c 0,0.220914 -0.179086,0.4 -0.4,0.4 z m 76,-4 h -3.2 C 116.17909,72 116,71.820914 116,71.6 V 68 h 4 v 4 z m -8,0 H 108 v -3.6 c 0,-0.220914 0.17909,-0.4 0.4,-0.4 h 3.6 v 3.6 c 0,0.220914 -0.17909,0.4 -0.4,0.4 z m -44,0 H 64.4 C 64.179086,72 64,71.820914 64,71.6 V 68.4 C 64,68.179086 64.179086,68 64.4,68 H 68 v 3.6 c 0,0.220914 -0.179086,0.4 -0.4,0.4 z m -8,0 H 56.4 C 56.179086,72 56,71.820914 56,71.6 V 68.4 C 56,68.179086 55.820914,68 55.6,68 H 52 V 64.4 C 52,64.179086 52.179086,64 52.4,64 h 7.2 c 0.220914,0 0.4,0.179086 0.4,0.4 v 7.2 c 0,0.220914 -0.179086,0.4 -0.4,0.4 z m -32,0 H 24 V 68.4 C 24,68.179086 24.179086,68 24.4,68 h 3.2 c 0.220914,0 0.4,0.179086 0.4,0.4 v 3.2 c 0,0.220914 -0.179086,0.4 -0.4,0.4 z m 120,-4 h -7.2 C 140.17909,68 140,67.820914 140,67.6 V 64 h 7.6 c 0.22091,0 0.4,0.179086 0.4,0.4 v 3.2 c 0,0.220914 -0.17909,0.4 -0.4,0.4 z m -20,0 H 120 V 64.4 C 120,64.179086 119.82091,64 119.6,64 H 116 v -3.6 c 0,-0.220914 0.17909,-0.4 0.4,-0.4 h 3.2 c 0.22091,0 0.4,-0.179086 0.4,-0.4 v -3.2 c 0,-0.220914 0.17909,-0.4 0.4,-0.4 h 3.2 c 0.22091,0 0.4,-0.179086 0.4,-0.4 V 52 h 7.6 c 0.22091,0 0.4,0.179086 0.4,0.4 V 60 h -3.6 c -0.22091,0 -0.4,0.179086 -0.4,0.4 v 7.2 c 0,0.220914 -0.17909,0.4 -0.4,0.4 z m -12,0 H 112 v -3.6 c 0,-0.220914 0.17909,-0.4 0.4,-0.4 h 3.6 v 4 z m -16,0 H 96 V 60.4 C 96,60.179086 96.179086,60 96.4,60 h 3.6 v 8 z m -12,0 H 80.4 C 80.179086,68 80,67.820914 80,67.6 V 64 h 3.6 C 83.820914,64 84,63.820914 84,63.6 V 52.4 C 84,52.179086 83.820914,52 83.6,52 H 76.4 C 76.179086,52 76,52.179086 76,52.4 v 7.2 c 0,0.220914 0.179086,0.4 0.4,0.4 h 3.2 c 0.220914,0 0.4,0.179086 0.4,0.4 V 64 H 76.4 C 76.179086,64 76,64.179086 76,64.4 v 3.2 C 76,67.820914 75.820914,68 75.6,68 H 68 V 64.4 C 68,64.179086 68.179086,64 68.4,64 h 3.2 C 71.820914,64 72,63.820914 72,63.6 V 52.4 C 72,52.179086 71.820914,52 71.6,52 H 64.4 C 64.179086,52 64,51.820914 64,51.6 V 40 h 4 v 7.6 c 0,0.220914 0.179086,0.4 0.4,0.4 h 3.2 C 71.820914,48 72,47.820914 72,47.6 V 40.4 C 72,40.179086 71.820914,40 71.6,40 H 68 V 36.4 C 68,36.179086 67.820914,36 67.6,36 H 64.4 C 64.179086,36 64,36.179086 64,36.4 V 40 H 60 V 36.4 C 60,36.179086 59.820914,36 59.6,36 H 56 v -8 h 3.6 C 59.820914,28 60,27.820914 60,27.6 V 20.4 C 60,20.179086 59.820914,20 59.6,20 H 48.4 C 48.179086,20 48,19.820914 48,19.6 V 16.4 C 48,16.179086 48.179086,16 48.4,16 h 15.2 c 0.220914,0 0.4,0.179086 0.4,0.4 v 3.2 c 0,0.220914 0.179086,0.4 0.4,0.4 h 3.2 C 67.820914,20 68,19.820914 68,19.6 V 16.4 C 68,16.179086 68.179086,16 68.4,16 h 11.2 c 0.220914,0 0.4,0.179086 0.4,0.4 v 7.2 C 80,23.820914 79.820914,24 79.6,24 H 76.4 C 76.179086,24 76,24.179086 76,24.4 v 3.2 c 0,0.220914 0.179086,0.4 0.4,0.4 h 3.2 c 0.220914,0 0.4,0.179086 0.4,0.4 v 7.2 C 80,35.820914 79.820914,36 79.6,36 H 76 V 32.4 C 76,32.179086 75.820914,32 75.6,32 H 72 V 28.4 C 72,28.179086 71.820914,28 71.6,28 H 68.4 C 68.179086,28 68,27.820914 68,27.6 V 24.4 C 68,24.179086 67.820914,24 67.6,24 H 64.4 C 64.179086,24 64,24.179086 64,24.4 v 7.2 c 0,0.220914 0.179086,0.4 0.4,0.4 H 72 v 3.6 c 0,0.220914 0.179086,0.4 0.4,0.4 H 76 v 11.6 c 0,0.220914 0.179086,0.4 0.4,0.4 H 87.6 C 87.820914,48 88,47.820914 88,47.6 V 36 h 4 v 7.6 c 0,0.220914 0.179086,0.4 0.4,0.4 H 96 V 55.6 C 96,55.820914 95.820914,56 95.6,56 H 88.4 C 88.179086,56 88,56.179086 88,56.4 v 11.2 c 0,0.220914 -0.179086,0.4 -0.4,0.4 z m 52,-4 h -7.2 C 132.17909,64 132,63.820914 132,63.6 V 60 h 8 v 4 z m -32,0 h -3.2 C 104.17909,64 104,63.820914 104,63.6 V 60.4 C 104,60.179086 103.82091,60 103.6,60 H 100 v -3.6 c 0,-0.220914 0.17909,-0.4 0.4,-0.4 h 3.2 c 0.22091,0 0.4,-0.179086 0.4,-0.4 V 52 h 3.6 c 0.22091,0 0.4,-0.179086 0.4,-0.4 V 48 h 7.6 c 0.22091,0 0.4,0.179086 0.4,0.4 v 3.2 c 0,0.220914 -0.17909,0.4 -0.4,0.4 h -3.2 c -0.22091,0 -0.4,0.179086 -0.4,0.4 v 7.2 c 0,0.220914 -0.17909,0.4 -0.4,0.4 h -3.2 c -0.22091,0 -0.4,0.179086 -0.4,0.4 v 3.2 c 0,0.220914 -0.17909,0.4 -0.4,0.4 z m -60,0 H 44 V 60.4 C 44,60.179086 43.820914,60 43.6,60 H 40 V 56.4 C 40,56.179086 40.179086,56 40.4,56 H 48 v 7.6 c 0,0.220914 -0.179086,0.4 -0.4,0.4 z m 100,-4 H 140 v -3.6 c 0,-0.220914 -0.17909,-0.4 -0.4,-0.4 h -3.2 c -0.22091,0 -0.4,-0.179086 -0.4,-0.4 v -3.2 c 0,-0.220914 0.17909,-0.4 0.4,-0.4 h 7.6 v 3.6 c 0,0.220914 0.17909,0.4 0.4,0.4 h 3.2 c 0.22091,0 0.4,0.179086 0.4,0.4 v 3.2 c 0,0.220914 -0.17909,0.4 -0.4,0.4 z m -80,0 H 64.4 C 64.179086,60 64,59.820914 64,59.6 V 56.4 C 64,56.179086 64.179086,56 64.4,56 h 3.2 c 0.220914,0 0.4,0.179086 0.4,0.4 v 3.2 c 0,0.220914 -0.179086,0.4 -0.4,0.4 z m -12,0 H 52.4 C 52.179086,60 52,59.820914 52,59.6 V 56 h 4 v 3.6 c 0,0.220914 -0.179086,0.4 -0.4,0.4 z m 4,-4 H 56 v -4 h 3.6 c 0.220914,0 0.4,0.179086 0.4,0.4 v 3.2 c 0,0.220914 -0.179086,0.4 -0.4,0.4 z m -8,0 H 48 V 52.4 C 48,52.179086 48.179086,52 48.4,52 H 52 v 4 z m -16,0 H 28 V 48.4 C 28,48.179086 28.179086,48 28.4,48 h 7.2 c 0.220914,0 0.4,0.179086 0.4,0.4 v 7.2 c 0,0.220914 -0.179086,0.4 -0.4,0.4 z m 112,-4 H 144 v -3.6 c 0,-0.220914 0.17909,-0.4 0.4,-0.4 h 3.2 c 0.22091,0 0.4,0.179086 0.4,0.4 v 3.2 c 0,0.220914 -0.17909,0.4 -0.4,0.4 z m -24,0 h -3.2 c -0.22091,0 -0.4,-0.179086 -0.4,-0.4 v -3.2 c 0,-0.220914 0.17909,-0.4 0.4,-0.4 h 3.2 c 0.22091,0 0.4,0.179086 0.4,0.4 V 52 Z m -20,0 h -3.2 c -0.22091,0 -0.4,-0.179086 -0.4,-0.4 v -3.2 c 0,-0.220914 0.17909,-0.4 0.4,-0.4 h 3.6 v 4 z m -48,0 H 52 V 48.4 C 52,48.179086 51.820914,48 51.6,48 H 48.4 C 48.179086,48 48,47.820914 48,47.6 V 40.4 C 48,40.179086 48.179086,40 48.4,40 H 52 v 3.6 c 0,0.220914 0.179086,0.4 0.4,0.4 H 56 v 8 z m -12,0 H 40.4 C 40.179086,52 40,51.820914 40,51.6 V 48.4 C 40,48.179086 40.179086,48 40.4,48 h 3.2 c 0.220914,0 0.4,0.179086 0.4,0.4 v 3.2 c 0,0.220914 -0.179086,0.4 -0.4,0.4 z m 64,-4 H 104 v -8 h 4 v 8 z m 40,-4 H 120.4 C 120.17909,44 120,43.820914 120,43.6 V 16.4 c 0,-0.220914 0.17909,-0.4 0.4,-0.4 h 27.2 c 0.22091,0 0.4,0.179086 0.4,0.4 v 27.2 c 0,0.220914 -0.17909,0.4 -0.4,0.4 z m -32,0 h -3.2 C 112.17909,44 112,43.820914 112,43.6 V 40.4 C 112,40.179086 111.82091,40 111.6,40 H 108 v -3.6 c 0,-0.220914 0.17909,-0.4 0.4,-0.4 h 3.2 c 0.22091,0 0.4,-0.179086 0.4,-0.4 v -3.2 c 0,-0.220914 0.17909,-0.4 0.4,-0.4 h 3.2 c 0.22091,0 0.4,0.179086 0.4,0.4 v 11.2 c 0,0.220914 -0.17909,0.4 -0.4,0.4 z m -16,0 H 96 v -8 h 7.6 c 0.22091,0 0.4,0.179086 0.4,0.4 V 40 h -3.6 c -0.22091,0 -0.4,0.179086 -0.4,0.4 v 3.2 c 0,0.220914 -0.179086,0.4 -0.4,0.4 z m -16,0 H 80.4 C 80.179086,44 80,43.820914 80,43.6 V 40.4 C 80,40.179086 80.179086,40 80.4,40 h 3.2 c 0.220914,0 0.4,0.179086 0.4,0.4 v 3.2 c 0,0.220914 -0.179086,0.4 -0.4,0.4 z m -24,0 H 56 v -4 h 4 v 3.6 c 0,0.220914 -0.179086,0.4 -0.4,0.4 z m -16,0 H 16.4 C 16.179086,44 16,43.820914 16,43.6 V 16.4 C 16,16.179086 16.179086,16 16.4,16 h 27.2 c 0.220914,0 0.4,0.179086 0.4,0.4 V 43.6 C 44,43.820914 43.820914,44 43.6,44 Z M 144,39.6 V 20.4 c 0,-0.220914 -0.17909,-0.4 -0.4,-0.4 h -19.2 c -0.22091,0 -0.4,0.179086 -0.4,0.4 v 19.2 c 0,0.220914 0.17909,0.4 0.4,0.4 h 19.2 c 0.22091,0 0.4,-0.179086 0.4,-0.4 z M 55.6,40 H 52 V 36.4 C 52,36.179086 52.179086,36 52.4,36 H 56 v 4 z M 40,39.6 V 20.4 C 40,20.179086 39.820914,20 39.6,20 H 20.4 C 20.179086,20 20,20.179086 20,20.4 v 19.2 c 0,0.220914 0.179086,0.4 0.4,0.4 H 39.6 C 39.820914,40 40,39.820914 40,39.6 Z M 139.6,36 H 128.4 C 128.17909,36 128,35.820914 128,35.6 V 24.4 c 0,-0.220914 0.17909,-0.4 0.4,-0.4 h 11.2 c 0.22091,0 0.4,0.179086 0.4,0.4 v 11.2 c 0,0.220914 -0.17909,0.4 -0.4,0.4 z m -44,0 H 92 V 32.4 C 92,32.179086 92.179086,32 92.4,32 h 3.2 c 0.220914,0 0.4,0.179086 0.4,0.4 V 36 Z m -8,0 H 84.4 C 84.179086,36 84,35.820914 84,35.6 V 28.4 C 84,28.179086 84.179086,28 84.4,28 h 3.2 c 0.220914,0 0.4,0.179086 0.4,0.4 V 36 Z m -52,0 H 24.4 C 24.179086,36 24,35.820914 24,35.6 V 24.4 C 24,24.179086 24.179086,24 24.4,24 h 11.2 c 0.220914,0 0.4,0.179086 0.4,0.4 v 11.2 c 0,0.220914 -0.179086,0.4 -0.4,0.4 z m 72,-4 h -7.2 C 100.17909,32 100,31.820914 100,31.6 V 28.4 C 100,28.179086 99.820914,28 99.6,28 H 92.4 C 92.179086,28 92,27.820914 92,27.6 V 20 h 8 v 3.6 c 0,0.220914 0.17909,0.4 0.4,0.4 h 11.2 c 0.22091,0 0.4,-0.179086 0.4,-0.4 v -7.2 c 0,-0.220914 0.17909,-0.4 0.4,-0.4 h 3.2 c 0.22091,0 0.4,0.179086 0.4,0.4 v 11.2 c 0,0.220914 -0.17909,0.4 -0.4,0.4 h -7.2 c -0.22091,0 -0.4,0.179086 -0.4,0.4 v 3.2 c 0,0.220914 -0.17909,0.4 -0.4,0.4 z m -52,-4 H 52.4 C 52.179086,28 52,27.820914 52,27.6 V 24.4 C 52,24.179086 52.179086,24 52.4,24 h 3.2 c 0.220914,0 0.4,0.179086 0.4,0.4 V 28 Z m 48,-8 H 100 v -3.6 c 0,-0.220914 0.17909,-0.4 0.4,-0.4 h 3.2 c 0.22091,0 0.4,0.179086 0.4,0.4 v 3.2 c 0,0.220914 -0.17909,0.4 -0.4,0.4 z m -12,0 H 84.4 C 84.179086,20 84,19.820914 84,19.6 V 16.4 C 84,16.179086 84.179086,16 84.4,16 h 7.2 c 0.220914,0 0.4,0.179086 0.4,0.4 V 20 Z"
           id="path3372" />
      </g>
    </g>
  </g>
</svg>
