G04 #@! TF.GenerationSoftware,KiCad,Pcbnew,5.1.8*
G04 #@! TF.CreationDate,2020-11-19T15:54:23+08:00*
G04 #@! TF.ProjectId,Main,4d61696e-2e6b-4696-9361-645f70636258,rev?*
G04 #@! TF.SameCoordinates,Original*
G04 #@! TF.FileFunction,Paste,Bot*
G04 #@! TF.FilePolarity,Positive*
%FSLAX46Y46*%
G04 Gerber Fmt 4.6, Leading zero omitted, Abs format (unit mm)*
G04 Created by KiCad (PCBNEW 5.1.8) date 2020-11-19 15:54:23*
%MOMM*%
%LPD*%
G01*
G04 APERTURE LIST*
%ADD10R,1.200000X0.900000*%
%ADD11R,0.630000X0.350000*%
%ADD12R,0.250000X0.575000*%
%ADD13R,0.300000X0.575000*%
%ADD14R,0.510000X0.700000*%
%ADD15R,1.200000X2.200000*%
%ADD16R,1.550000X1.300000*%
%ADD17R,0.800000X0.900000*%
%ADD18R,0.300000X1.150000*%
G04 APERTURE END LIST*
G04 #@! TO.C,U2*
G36*
G01*
X185457000Y-98640500D02*
X185457000Y-97240500D01*
G75*
G02*
X185532000Y-97165500I75000J0D01*
G01*
X185682000Y-97165500D01*
G75*
G02*
X185757000Y-97240500I0J-75000D01*
G01*
X185757000Y-98640500D01*
G75*
G02*
X185682000Y-98715500I-75000J0D01*
G01*
X185532000Y-98715500D01*
G75*
G02*
X185457000Y-98640500I0J75000D01*
G01*
G37*
G36*
G01*
X185957000Y-98640500D02*
X185957000Y-97240500D01*
G75*
G02*
X186032000Y-97165500I75000J0D01*
G01*
X186182000Y-97165500D01*
G75*
G02*
X186257000Y-97240500I0J-75000D01*
G01*
X186257000Y-98640500D01*
G75*
G02*
X186182000Y-98715500I-75000J0D01*
G01*
X186032000Y-98715500D01*
G75*
G02*
X185957000Y-98640500I0J75000D01*
G01*
G37*
G36*
G01*
X186457000Y-98640500D02*
X186457000Y-97240500D01*
G75*
G02*
X186532000Y-97165500I75000J0D01*
G01*
X186682000Y-97165500D01*
G75*
G02*
X186757000Y-97240500I0J-75000D01*
G01*
X186757000Y-98640500D01*
G75*
G02*
X186682000Y-98715500I-75000J0D01*
G01*
X186532000Y-98715500D01*
G75*
G02*
X186457000Y-98640500I0J75000D01*
G01*
G37*
G36*
G01*
X186957000Y-98640500D02*
X186957000Y-97240500D01*
G75*
G02*
X187032000Y-97165500I75000J0D01*
G01*
X187182000Y-97165500D01*
G75*
G02*
X187257000Y-97240500I0J-75000D01*
G01*
X187257000Y-98640500D01*
G75*
G02*
X187182000Y-98715500I-75000J0D01*
G01*
X187032000Y-98715500D01*
G75*
G02*
X186957000Y-98640500I0J75000D01*
G01*
G37*
G36*
G01*
X187457000Y-98640500D02*
X187457000Y-97240500D01*
G75*
G02*
X187532000Y-97165500I75000J0D01*
G01*
X187682000Y-97165500D01*
G75*
G02*
X187757000Y-97240500I0J-75000D01*
G01*
X187757000Y-98640500D01*
G75*
G02*
X187682000Y-98715500I-75000J0D01*
G01*
X187532000Y-98715500D01*
G75*
G02*
X187457000Y-98640500I0J75000D01*
G01*
G37*
G36*
G01*
X187957000Y-98640500D02*
X187957000Y-97240500D01*
G75*
G02*
X188032000Y-97165500I75000J0D01*
G01*
X188182000Y-97165500D01*
G75*
G02*
X188257000Y-97240500I0J-75000D01*
G01*
X188257000Y-98640500D01*
G75*
G02*
X188182000Y-98715500I-75000J0D01*
G01*
X188032000Y-98715500D01*
G75*
G02*
X187957000Y-98640500I0J75000D01*
G01*
G37*
G36*
G01*
X188457000Y-98640500D02*
X188457000Y-97240500D01*
G75*
G02*
X188532000Y-97165500I75000J0D01*
G01*
X188682000Y-97165500D01*
G75*
G02*
X188757000Y-97240500I0J-75000D01*
G01*
X188757000Y-98640500D01*
G75*
G02*
X188682000Y-98715500I-75000J0D01*
G01*
X188532000Y-98715500D01*
G75*
G02*
X188457000Y-98640500I0J75000D01*
G01*
G37*
G36*
G01*
X188957000Y-98640500D02*
X188957000Y-97240500D01*
G75*
G02*
X189032000Y-97165500I75000J0D01*
G01*
X189182000Y-97165500D01*
G75*
G02*
X189257000Y-97240500I0J-75000D01*
G01*
X189257000Y-98640500D01*
G75*
G02*
X189182000Y-98715500I-75000J0D01*
G01*
X189032000Y-98715500D01*
G75*
G02*
X188957000Y-98640500I0J75000D01*
G01*
G37*
G36*
G01*
X189457000Y-98640500D02*
X189457000Y-97240500D01*
G75*
G02*
X189532000Y-97165500I75000J0D01*
G01*
X189682000Y-97165500D01*
G75*
G02*
X189757000Y-97240500I0J-75000D01*
G01*
X189757000Y-98640500D01*
G75*
G02*
X189682000Y-98715500I-75000J0D01*
G01*
X189532000Y-98715500D01*
G75*
G02*
X189457000Y-98640500I0J75000D01*
G01*
G37*
G36*
G01*
X189957000Y-98640500D02*
X189957000Y-97240500D01*
G75*
G02*
X190032000Y-97165500I75000J0D01*
G01*
X190182000Y-97165500D01*
G75*
G02*
X190257000Y-97240500I0J-75000D01*
G01*
X190257000Y-98640500D01*
G75*
G02*
X190182000Y-98715500I-75000J0D01*
G01*
X190032000Y-98715500D01*
G75*
G02*
X189957000Y-98640500I0J75000D01*
G01*
G37*
G36*
G01*
X190457000Y-98640500D02*
X190457000Y-97240500D01*
G75*
G02*
X190532000Y-97165500I75000J0D01*
G01*
X190682000Y-97165500D01*
G75*
G02*
X190757000Y-97240500I0J-75000D01*
G01*
X190757000Y-98640500D01*
G75*
G02*
X190682000Y-98715500I-75000J0D01*
G01*
X190532000Y-98715500D01*
G75*
G02*
X190457000Y-98640500I0J75000D01*
G01*
G37*
G36*
G01*
X190957000Y-98640500D02*
X190957000Y-97240500D01*
G75*
G02*
X191032000Y-97165500I75000J0D01*
G01*
X191182000Y-97165500D01*
G75*
G02*
X191257000Y-97240500I0J-75000D01*
G01*
X191257000Y-98640500D01*
G75*
G02*
X191182000Y-98715500I-75000J0D01*
G01*
X191032000Y-98715500D01*
G75*
G02*
X190957000Y-98640500I0J75000D01*
G01*
G37*
G36*
G01*
X191457000Y-98640500D02*
X191457000Y-97240500D01*
G75*
G02*
X191532000Y-97165500I75000J0D01*
G01*
X191682000Y-97165500D01*
G75*
G02*
X191757000Y-97240500I0J-75000D01*
G01*
X191757000Y-98640500D01*
G75*
G02*
X191682000Y-98715500I-75000J0D01*
G01*
X191532000Y-98715500D01*
G75*
G02*
X191457000Y-98640500I0J75000D01*
G01*
G37*
G36*
G01*
X191957000Y-98640500D02*
X191957000Y-97240500D01*
G75*
G02*
X192032000Y-97165500I75000J0D01*
G01*
X192182000Y-97165500D01*
G75*
G02*
X192257000Y-97240500I0J-75000D01*
G01*
X192257000Y-98640500D01*
G75*
G02*
X192182000Y-98715500I-75000J0D01*
G01*
X192032000Y-98715500D01*
G75*
G02*
X191957000Y-98640500I0J75000D01*
G01*
G37*
G36*
G01*
X192457000Y-98640500D02*
X192457000Y-97240500D01*
G75*
G02*
X192532000Y-97165500I75000J0D01*
G01*
X192682000Y-97165500D01*
G75*
G02*
X192757000Y-97240500I0J-75000D01*
G01*
X192757000Y-98640500D01*
G75*
G02*
X192682000Y-98715500I-75000J0D01*
G01*
X192532000Y-98715500D01*
G75*
G02*
X192457000Y-98640500I0J75000D01*
G01*
G37*
G36*
G01*
X192957000Y-98640500D02*
X192957000Y-97240500D01*
G75*
G02*
X193032000Y-97165500I75000J0D01*
G01*
X193182000Y-97165500D01*
G75*
G02*
X193257000Y-97240500I0J-75000D01*
G01*
X193257000Y-98640500D01*
G75*
G02*
X193182000Y-98715500I-75000J0D01*
G01*
X193032000Y-98715500D01*
G75*
G02*
X192957000Y-98640500I0J75000D01*
G01*
G37*
G36*
G01*
X194257000Y-96090500D02*
X194257000Y-95940500D01*
G75*
G02*
X194332000Y-95865500I75000J0D01*
G01*
X195732000Y-95865500D01*
G75*
G02*
X195807000Y-95940500I0J-75000D01*
G01*
X195807000Y-96090500D01*
G75*
G02*
X195732000Y-96165500I-75000J0D01*
G01*
X194332000Y-96165500D01*
G75*
G02*
X194257000Y-96090500I0J75000D01*
G01*
G37*
G36*
G01*
X194257000Y-95590500D02*
X194257000Y-95440500D01*
G75*
G02*
X194332000Y-95365500I75000J0D01*
G01*
X195732000Y-95365500D01*
G75*
G02*
X195807000Y-95440500I0J-75000D01*
G01*
X195807000Y-95590500D01*
G75*
G02*
X195732000Y-95665500I-75000J0D01*
G01*
X194332000Y-95665500D01*
G75*
G02*
X194257000Y-95590500I0J75000D01*
G01*
G37*
G36*
G01*
X194257000Y-95090500D02*
X194257000Y-94940500D01*
G75*
G02*
X194332000Y-94865500I75000J0D01*
G01*
X195732000Y-94865500D01*
G75*
G02*
X195807000Y-94940500I0J-75000D01*
G01*
X195807000Y-95090500D01*
G75*
G02*
X195732000Y-95165500I-75000J0D01*
G01*
X194332000Y-95165500D01*
G75*
G02*
X194257000Y-95090500I0J75000D01*
G01*
G37*
G36*
G01*
X194257000Y-94590500D02*
X194257000Y-94440500D01*
G75*
G02*
X194332000Y-94365500I75000J0D01*
G01*
X195732000Y-94365500D01*
G75*
G02*
X195807000Y-94440500I0J-75000D01*
G01*
X195807000Y-94590500D01*
G75*
G02*
X195732000Y-94665500I-75000J0D01*
G01*
X194332000Y-94665500D01*
G75*
G02*
X194257000Y-94590500I0J75000D01*
G01*
G37*
G36*
G01*
X194257000Y-94090500D02*
X194257000Y-93940500D01*
G75*
G02*
X194332000Y-93865500I75000J0D01*
G01*
X195732000Y-93865500D01*
G75*
G02*
X195807000Y-93940500I0J-75000D01*
G01*
X195807000Y-94090500D01*
G75*
G02*
X195732000Y-94165500I-75000J0D01*
G01*
X194332000Y-94165500D01*
G75*
G02*
X194257000Y-94090500I0J75000D01*
G01*
G37*
G36*
G01*
X194257000Y-93590500D02*
X194257000Y-93440500D01*
G75*
G02*
X194332000Y-93365500I75000J0D01*
G01*
X195732000Y-93365500D01*
G75*
G02*
X195807000Y-93440500I0J-75000D01*
G01*
X195807000Y-93590500D01*
G75*
G02*
X195732000Y-93665500I-75000J0D01*
G01*
X194332000Y-93665500D01*
G75*
G02*
X194257000Y-93590500I0J75000D01*
G01*
G37*
G36*
G01*
X194257000Y-93090500D02*
X194257000Y-92940500D01*
G75*
G02*
X194332000Y-92865500I75000J0D01*
G01*
X195732000Y-92865500D01*
G75*
G02*
X195807000Y-92940500I0J-75000D01*
G01*
X195807000Y-93090500D01*
G75*
G02*
X195732000Y-93165500I-75000J0D01*
G01*
X194332000Y-93165500D01*
G75*
G02*
X194257000Y-93090500I0J75000D01*
G01*
G37*
G36*
G01*
X194257000Y-92590500D02*
X194257000Y-92440500D01*
G75*
G02*
X194332000Y-92365500I75000J0D01*
G01*
X195732000Y-92365500D01*
G75*
G02*
X195807000Y-92440500I0J-75000D01*
G01*
X195807000Y-92590500D01*
G75*
G02*
X195732000Y-92665500I-75000J0D01*
G01*
X194332000Y-92665500D01*
G75*
G02*
X194257000Y-92590500I0J75000D01*
G01*
G37*
G36*
G01*
X194257000Y-92090500D02*
X194257000Y-91940500D01*
G75*
G02*
X194332000Y-91865500I75000J0D01*
G01*
X195732000Y-91865500D01*
G75*
G02*
X195807000Y-91940500I0J-75000D01*
G01*
X195807000Y-92090500D01*
G75*
G02*
X195732000Y-92165500I-75000J0D01*
G01*
X194332000Y-92165500D01*
G75*
G02*
X194257000Y-92090500I0J75000D01*
G01*
G37*
G36*
G01*
X194257000Y-91590500D02*
X194257000Y-91440500D01*
G75*
G02*
X194332000Y-91365500I75000J0D01*
G01*
X195732000Y-91365500D01*
G75*
G02*
X195807000Y-91440500I0J-75000D01*
G01*
X195807000Y-91590500D01*
G75*
G02*
X195732000Y-91665500I-75000J0D01*
G01*
X194332000Y-91665500D01*
G75*
G02*
X194257000Y-91590500I0J75000D01*
G01*
G37*
G36*
G01*
X194257000Y-91090500D02*
X194257000Y-90940500D01*
G75*
G02*
X194332000Y-90865500I75000J0D01*
G01*
X195732000Y-90865500D01*
G75*
G02*
X195807000Y-90940500I0J-75000D01*
G01*
X195807000Y-91090500D01*
G75*
G02*
X195732000Y-91165500I-75000J0D01*
G01*
X194332000Y-91165500D01*
G75*
G02*
X194257000Y-91090500I0J75000D01*
G01*
G37*
G36*
G01*
X194257000Y-90590500D02*
X194257000Y-90440500D01*
G75*
G02*
X194332000Y-90365500I75000J0D01*
G01*
X195732000Y-90365500D01*
G75*
G02*
X195807000Y-90440500I0J-75000D01*
G01*
X195807000Y-90590500D01*
G75*
G02*
X195732000Y-90665500I-75000J0D01*
G01*
X194332000Y-90665500D01*
G75*
G02*
X194257000Y-90590500I0J75000D01*
G01*
G37*
G36*
G01*
X194257000Y-90090500D02*
X194257000Y-89940500D01*
G75*
G02*
X194332000Y-89865500I75000J0D01*
G01*
X195732000Y-89865500D01*
G75*
G02*
X195807000Y-89940500I0J-75000D01*
G01*
X195807000Y-90090500D01*
G75*
G02*
X195732000Y-90165500I-75000J0D01*
G01*
X194332000Y-90165500D01*
G75*
G02*
X194257000Y-90090500I0J75000D01*
G01*
G37*
G36*
G01*
X194257000Y-89590500D02*
X194257000Y-89440500D01*
G75*
G02*
X194332000Y-89365500I75000J0D01*
G01*
X195732000Y-89365500D01*
G75*
G02*
X195807000Y-89440500I0J-75000D01*
G01*
X195807000Y-89590500D01*
G75*
G02*
X195732000Y-89665500I-75000J0D01*
G01*
X194332000Y-89665500D01*
G75*
G02*
X194257000Y-89590500I0J75000D01*
G01*
G37*
G36*
G01*
X194257000Y-89090500D02*
X194257000Y-88940500D01*
G75*
G02*
X194332000Y-88865500I75000J0D01*
G01*
X195732000Y-88865500D01*
G75*
G02*
X195807000Y-88940500I0J-75000D01*
G01*
X195807000Y-89090500D01*
G75*
G02*
X195732000Y-89165500I-75000J0D01*
G01*
X194332000Y-89165500D01*
G75*
G02*
X194257000Y-89090500I0J75000D01*
G01*
G37*
G36*
G01*
X194257000Y-88590500D02*
X194257000Y-88440500D01*
G75*
G02*
X194332000Y-88365500I75000J0D01*
G01*
X195732000Y-88365500D01*
G75*
G02*
X195807000Y-88440500I0J-75000D01*
G01*
X195807000Y-88590500D01*
G75*
G02*
X195732000Y-88665500I-75000J0D01*
G01*
X194332000Y-88665500D01*
G75*
G02*
X194257000Y-88590500I0J75000D01*
G01*
G37*
G36*
G01*
X192957000Y-87290500D02*
X192957000Y-85890500D01*
G75*
G02*
X193032000Y-85815500I75000J0D01*
G01*
X193182000Y-85815500D01*
G75*
G02*
X193257000Y-85890500I0J-75000D01*
G01*
X193257000Y-87290500D01*
G75*
G02*
X193182000Y-87365500I-75000J0D01*
G01*
X193032000Y-87365500D01*
G75*
G02*
X192957000Y-87290500I0J75000D01*
G01*
G37*
G36*
G01*
X192457000Y-87290500D02*
X192457000Y-85890500D01*
G75*
G02*
X192532000Y-85815500I75000J0D01*
G01*
X192682000Y-85815500D01*
G75*
G02*
X192757000Y-85890500I0J-75000D01*
G01*
X192757000Y-87290500D01*
G75*
G02*
X192682000Y-87365500I-75000J0D01*
G01*
X192532000Y-87365500D01*
G75*
G02*
X192457000Y-87290500I0J75000D01*
G01*
G37*
G36*
G01*
X191957000Y-87290500D02*
X191957000Y-85890500D01*
G75*
G02*
X192032000Y-85815500I75000J0D01*
G01*
X192182000Y-85815500D01*
G75*
G02*
X192257000Y-85890500I0J-75000D01*
G01*
X192257000Y-87290500D01*
G75*
G02*
X192182000Y-87365500I-75000J0D01*
G01*
X192032000Y-87365500D01*
G75*
G02*
X191957000Y-87290500I0J75000D01*
G01*
G37*
G36*
G01*
X191457000Y-87290500D02*
X191457000Y-85890500D01*
G75*
G02*
X191532000Y-85815500I75000J0D01*
G01*
X191682000Y-85815500D01*
G75*
G02*
X191757000Y-85890500I0J-75000D01*
G01*
X191757000Y-87290500D01*
G75*
G02*
X191682000Y-87365500I-75000J0D01*
G01*
X191532000Y-87365500D01*
G75*
G02*
X191457000Y-87290500I0J75000D01*
G01*
G37*
G36*
G01*
X190957000Y-87290500D02*
X190957000Y-85890500D01*
G75*
G02*
X191032000Y-85815500I75000J0D01*
G01*
X191182000Y-85815500D01*
G75*
G02*
X191257000Y-85890500I0J-75000D01*
G01*
X191257000Y-87290500D01*
G75*
G02*
X191182000Y-87365500I-75000J0D01*
G01*
X191032000Y-87365500D01*
G75*
G02*
X190957000Y-87290500I0J75000D01*
G01*
G37*
G36*
G01*
X190457000Y-87290500D02*
X190457000Y-85890500D01*
G75*
G02*
X190532000Y-85815500I75000J0D01*
G01*
X190682000Y-85815500D01*
G75*
G02*
X190757000Y-85890500I0J-75000D01*
G01*
X190757000Y-87290500D01*
G75*
G02*
X190682000Y-87365500I-75000J0D01*
G01*
X190532000Y-87365500D01*
G75*
G02*
X190457000Y-87290500I0J75000D01*
G01*
G37*
G36*
G01*
X189957000Y-87290500D02*
X189957000Y-85890500D01*
G75*
G02*
X190032000Y-85815500I75000J0D01*
G01*
X190182000Y-85815500D01*
G75*
G02*
X190257000Y-85890500I0J-75000D01*
G01*
X190257000Y-87290500D01*
G75*
G02*
X190182000Y-87365500I-75000J0D01*
G01*
X190032000Y-87365500D01*
G75*
G02*
X189957000Y-87290500I0J75000D01*
G01*
G37*
G36*
G01*
X189457000Y-87290500D02*
X189457000Y-85890500D01*
G75*
G02*
X189532000Y-85815500I75000J0D01*
G01*
X189682000Y-85815500D01*
G75*
G02*
X189757000Y-85890500I0J-75000D01*
G01*
X189757000Y-87290500D01*
G75*
G02*
X189682000Y-87365500I-75000J0D01*
G01*
X189532000Y-87365500D01*
G75*
G02*
X189457000Y-87290500I0J75000D01*
G01*
G37*
G36*
G01*
X188957000Y-87290500D02*
X188957000Y-85890500D01*
G75*
G02*
X189032000Y-85815500I75000J0D01*
G01*
X189182000Y-85815500D01*
G75*
G02*
X189257000Y-85890500I0J-75000D01*
G01*
X189257000Y-87290500D01*
G75*
G02*
X189182000Y-87365500I-75000J0D01*
G01*
X189032000Y-87365500D01*
G75*
G02*
X188957000Y-87290500I0J75000D01*
G01*
G37*
G36*
G01*
X188457000Y-87290500D02*
X188457000Y-85890500D01*
G75*
G02*
X188532000Y-85815500I75000J0D01*
G01*
X188682000Y-85815500D01*
G75*
G02*
X188757000Y-85890500I0J-75000D01*
G01*
X188757000Y-87290500D01*
G75*
G02*
X188682000Y-87365500I-75000J0D01*
G01*
X188532000Y-87365500D01*
G75*
G02*
X188457000Y-87290500I0J75000D01*
G01*
G37*
G36*
G01*
X187957000Y-87290500D02*
X187957000Y-85890500D01*
G75*
G02*
X188032000Y-85815500I75000J0D01*
G01*
X188182000Y-85815500D01*
G75*
G02*
X188257000Y-85890500I0J-75000D01*
G01*
X188257000Y-87290500D01*
G75*
G02*
X188182000Y-87365500I-75000J0D01*
G01*
X188032000Y-87365500D01*
G75*
G02*
X187957000Y-87290500I0J75000D01*
G01*
G37*
G36*
G01*
X187457000Y-87290500D02*
X187457000Y-85890500D01*
G75*
G02*
X187532000Y-85815500I75000J0D01*
G01*
X187682000Y-85815500D01*
G75*
G02*
X187757000Y-85890500I0J-75000D01*
G01*
X187757000Y-87290500D01*
G75*
G02*
X187682000Y-87365500I-75000J0D01*
G01*
X187532000Y-87365500D01*
G75*
G02*
X187457000Y-87290500I0J75000D01*
G01*
G37*
G36*
G01*
X186957000Y-87290500D02*
X186957000Y-85890500D01*
G75*
G02*
X187032000Y-85815500I75000J0D01*
G01*
X187182000Y-85815500D01*
G75*
G02*
X187257000Y-85890500I0J-75000D01*
G01*
X187257000Y-87290500D01*
G75*
G02*
X187182000Y-87365500I-75000J0D01*
G01*
X187032000Y-87365500D01*
G75*
G02*
X186957000Y-87290500I0J75000D01*
G01*
G37*
G36*
G01*
X186457000Y-87290500D02*
X186457000Y-85890500D01*
G75*
G02*
X186532000Y-85815500I75000J0D01*
G01*
X186682000Y-85815500D01*
G75*
G02*
X186757000Y-85890500I0J-75000D01*
G01*
X186757000Y-87290500D01*
G75*
G02*
X186682000Y-87365500I-75000J0D01*
G01*
X186532000Y-87365500D01*
G75*
G02*
X186457000Y-87290500I0J75000D01*
G01*
G37*
G36*
G01*
X185957000Y-87290500D02*
X185957000Y-85890500D01*
G75*
G02*
X186032000Y-85815500I75000J0D01*
G01*
X186182000Y-85815500D01*
G75*
G02*
X186257000Y-85890500I0J-75000D01*
G01*
X186257000Y-87290500D01*
G75*
G02*
X186182000Y-87365500I-75000J0D01*
G01*
X186032000Y-87365500D01*
G75*
G02*
X185957000Y-87290500I0J75000D01*
G01*
G37*
G36*
G01*
X185457000Y-87290500D02*
X185457000Y-85890500D01*
G75*
G02*
X185532000Y-85815500I75000J0D01*
G01*
X185682000Y-85815500D01*
G75*
G02*
X185757000Y-85890500I0J-75000D01*
G01*
X185757000Y-87290500D01*
G75*
G02*
X185682000Y-87365500I-75000J0D01*
G01*
X185532000Y-87365500D01*
G75*
G02*
X185457000Y-87290500I0J75000D01*
G01*
G37*
G36*
G01*
X182907000Y-88590500D02*
X182907000Y-88440500D01*
G75*
G02*
X182982000Y-88365500I75000J0D01*
G01*
X184382000Y-88365500D01*
G75*
G02*
X184457000Y-88440500I0J-75000D01*
G01*
X184457000Y-88590500D01*
G75*
G02*
X184382000Y-88665500I-75000J0D01*
G01*
X182982000Y-88665500D01*
G75*
G02*
X182907000Y-88590500I0J75000D01*
G01*
G37*
G36*
G01*
X182907000Y-89090500D02*
X182907000Y-88940500D01*
G75*
G02*
X182982000Y-88865500I75000J0D01*
G01*
X184382000Y-88865500D01*
G75*
G02*
X184457000Y-88940500I0J-75000D01*
G01*
X184457000Y-89090500D01*
G75*
G02*
X184382000Y-89165500I-75000J0D01*
G01*
X182982000Y-89165500D01*
G75*
G02*
X182907000Y-89090500I0J75000D01*
G01*
G37*
G36*
G01*
X182907000Y-89590500D02*
X182907000Y-89440500D01*
G75*
G02*
X182982000Y-89365500I75000J0D01*
G01*
X184382000Y-89365500D01*
G75*
G02*
X184457000Y-89440500I0J-75000D01*
G01*
X184457000Y-89590500D01*
G75*
G02*
X184382000Y-89665500I-75000J0D01*
G01*
X182982000Y-89665500D01*
G75*
G02*
X182907000Y-89590500I0J75000D01*
G01*
G37*
G36*
G01*
X182907000Y-90090500D02*
X182907000Y-89940500D01*
G75*
G02*
X182982000Y-89865500I75000J0D01*
G01*
X184382000Y-89865500D01*
G75*
G02*
X184457000Y-89940500I0J-75000D01*
G01*
X184457000Y-90090500D01*
G75*
G02*
X184382000Y-90165500I-75000J0D01*
G01*
X182982000Y-90165500D01*
G75*
G02*
X182907000Y-90090500I0J75000D01*
G01*
G37*
G36*
G01*
X182907000Y-90590500D02*
X182907000Y-90440500D01*
G75*
G02*
X182982000Y-90365500I75000J0D01*
G01*
X184382000Y-90365500D01*
G75*
G02*
X184457000Y-90440500I0J-75000D01*
G01*
X184457000Y-90590500D01*
G75*
G02*
X184382000Y-90665500I-75000J0D01*
G01*
X182982000Y-90665500D01*
G75*
G02*
X182907000Y-90590500I0J75000D01*
G01*
G37*
G36*
G01*
X182907000Y-91090500D02*
X182907000Y-90940500D01*
G75*
G02*
X182982000Y-90865500I75000J0D01*
G01*
X184382000Y-90865500D01*
G75*
G02*
X184457000Y-90940500I0J-75000D01*
G01*
X184457000Y-91090500D01*
G75*
G02*
X184382000Y-91165500I-75000J0D01*
G01*
X182982000Y-91165500D01*
G75*
G02*
X182907000Y-91090500I0J75000D01*
G01*
G37*
G36*
G01*
X182907000Y-91590500D02*
X182907000Y-91440500D01*
G75*
G02*
X182982000Y-91365500I75000J0D01*
G01*
X184382000Y-91365500D01*
G75*
G02*
X184457000Y-91440500I0J-75000D01*
G01*
X184457000Y-91590500D01*
G75*
G02*
X184382000Y-91665500I-75000J0D01*
G01*
X182982000Y-91665500D01*
G75*
G02*
X182907000Y-91590500I0J75000D01*
G01*
G37*
G36*
G01*
X182907000Y-92090500D02*
X182907000Y-91940500D01*
G75*
G02*
X182982000Y-91865500I75000J0D01*
G01*
X184382000Y-91865500D01*
G75*
G02*
X184457000Y-91940500I0J-75000D01*
G01*
X184457000Y-92090500D01*
G75*
G02*
X184382000Y-92165500I-75000J0D01*
G01*
X182982000Y-92165500D01*
G75*
G02*
X182907000Y-92090500I0J75000D01*
G01*
G37*
G36*
G01*
X182907000Y-92590500D02*
X182907000Y-92440500D01*
G75*
G02*
X182982000Y-92365500I75000J0D01*
G01*
X184382000Y-92365500D01*
G75*
G02*
X184457000Y-92440500I0J-75000D01*
G01*
X184457000Y-92590500D01*
G75*
G02*
X184382000Y-92665500I-75000J0D01*
G01*
X182982000Y-92665500D01*
G75*
G02*
X182907000Y-92590500I0J75000D01*
G01*
G37*
G36*
G01*
X182907000Y-93090500D02*
X182907000Y-92940500D01*
G75*
G02*
X182982000Y-92865500I75000J0D01*
G01*
X184382000Y-92865500D01*
G75*
G02*
X184457000Y-92940500I0J-75000D01*
G01*
X184457000Y-93090500D01*
G75*
G02*
X184382000Y-93165500I-75000J0D01*
G01*
X182982000Y-93165500D01*
G75*
G02*
X182907000Y-93090500I0J75000D01*
G01*
G37*
G36*
G01*
X182907000Y-93590500D02*
X182907000Y-93440500D01*
G75*
G02*
X182982000Y-93365500I75000J0D01*
G01*
X184382000Y-93365500D01*
G75*
G02*
X184457000Y-93440500I0J-75000D01*
G01*
X184457000Y-93590500D01*
G75*
G02*
X184382000Y-93665500I-75000J0D01*
G01*
X182982000Y-93665500D01*
G75*
G02*
X182907000Y-93590500I0J75000D01*
G01*
G37*
G36*
G01*
X182907000Y-94090500D02*
X182907000Y-93940500D01*
G75*
G02*
X182982000Y-93865500I75000J0D01*
G01*
X184382000Y-93865500D01*
G75*
G02*
X184457000Y-93940500I0J-75000D01*
G01*
X184457000Y-94090500D01*
G75*
G02*
X184382000Y-94165500I-75000J0D01*
G01*
X182982000Y-94165500D01*
G75*
G02*
X182907000Y-94090500I0J75000D01*
G01*
G37*
G36*
G01*
X182907000Y-94590500D02*
X182907000Y-94440500D01*
G75*
G02*
X182982000Y-94365500I75000J0D01*
G01*
X184382000Y-94365500D01*
G75*
G02*
X184457000Y-94440500I0J-75000D01*
G01*
X184457000Y-94590500D01*
G75*
G02*
X184382000Y-94665500I-75000J0D01*
G01*
X182982000Y-94665500D01*
G75*
G02*
X182907000Y-94590500I0J75000D01*
G01*
G37*
G36*
G01*
X182907000Y-95090500D02*
X182907000Y-94940500D01*
G75*
G02*
X182982000Y-94865500I75000J0D01*
G01*
X184382000Y-94865500D01*
G75*
G02*
X184457000Y-94940500I0J-75000D01*
G01*
X184457000Y-95090500D01*
G75*
G02*
X184382000Y-95165500I-75000J0D01*
G01*
X182982000Y-95165500D01*
G75*
G02*
X182907000Y-95090500I0J75000D01*
G01*
G37*
G36*
G01*
X182907000Y-95590500D02*
X182907000Y-95440500D01*
G75*
G02*
X182982000Y-95365500I75000J0D01*
G01*
X184382000Y-95365500D01*
G75*
G02*
X184457000Y-95440500I0J-75000D01*
G01*
X184457000Y-95590500D01*
G75*
G02*
X184382000Y-95665500I-75000J0D01*
G01*
X182982000Y-95665500D01*
G75*
G02*
X182907000Y-95590500I0J75000D01*
G01*
G37*
G36*
G01*
X182907000Y-96090500D02*
X182907000Y-95940500D01*
G75*
G02*
X182982000Y-95865500I75000J0D01*
G01*
X184382000Y-95865500D01*
G75*
G02*
X184457000Y-95940500I0J-75000D01*
G01*
X184457000Y-96090500D01*
G75*
G02*
X184382000Y-96165500I-75000J0D01*
G01*
X182982000Y-96165500D01*
G75*
G02*
X182907000Y-96090500I0J75000D01*
G01*
G37*
G04 #@! TD*
G04 #@! TO.C,R39*
G36*
G01*
X196488000Y-111321001D02*
X196488000Y-110420999D01*
G75*
G02*
X196737999Y-110171000I249999J0D01*
G01*
X197438001Y-110171000D01*
G75*
G02*
X197688000Y-110420999I0J-249999D01*
G01*
X197688000Y-111321001D01*
G75*
G02*
X197438001Y-111571000I-249999J0D01*
G01*
X196737999Y-111571000D01*
G75*
G02*
X196488000Y-111321001I0J249999D01*
G01*
G37*
G36*
G01*
X194488000Y-111321001D02*
X194488000Y-110420999D01*
G75*
G02*
X194737999Y-110171000I249999J0D01*
G01*
X195438001Y-110171000D01*
G75*
G02*
X195688000Y-110420999I0J-249999D01*
G01*
X195688000Y-111321001D01*
G75*
G02*
X195438001Y-111571000I-249999J0D01*
G01*
X194737999Y-111571000D01*
G75*
G02*
X194488000Y-111321001I0J249999D01*
G01*
G37*
G04 #@! TD*
G04 #@! TO.C,R38*
G36*
G01*
X200425000Y-111321001D02*
X200425000Y-110420999D01*
G75*
G02*
X200674999Y-110171000I249999J0D01*
G01*
X201375001Y-110171000D01*
G75*
G02*
X201625000Y-110420999I0J-249999D01*
G01*
X201625000Y-111321001D01*
G75*
G02*
X201375001Y-111571000I-249999J0D01*
G01*
X200674999Y-111571000D01*
G75*
G02*
X200425000Y-111321001I0J249999D01*
G01*
G37*
G36*
G01*
X198425000Y-111321001D02*
X198425000Y-110420999D01*
G75*
G02*
X198674999Y-110171000I249999J0D01*
G01*
X199375001Y-110171000D01*
G75*
G02*
X199625000Y-110420999I0J-249999D01*
G01*
X199625000Y-111321001D01*
G75*
G02*
X199375001Y-111571000I-249999J0D01*
G01*
X198674999Y-111571000D01*
G75*
G02*
X198425000Y-111321001I0J249999D01*
G01*
G37*
G04 #@! TD*
G04 #@! TO.C,R37*
G36*
G01*
X204362000Y-111321001D02*
X204362000Y-110420999D01*
G75*
G02*
X204611999Y-110171000I249999J0D01*
G01*
X205312001Y-110171000D01*
G75*
G02*
X205562000Y-110420999I0J-249999D01*
G01*
X205562000Y-111321001D01*
G75*
G02*
X205312001Y-111571000I-249999J0D01*
G01*
X204611999Y-111571000D01*
G75*
G02*
X204362000Y-111321001I0J249999D01*
G01*
G37*
G36*
G01*
X202362000Y-111321001D02*
X202362000Y-110420999D01*
G75*
G02*
X202611999Y-110171000I249999J0D01*
G01*
X203312001Y-110171000D01*
G75*
G02*
X203562000Y-110420999I0J-249999D01*
G01*
X203562000Y-111321001D01*
G75*
G02*
X203312001Y-111571000I-249999J0D01*
G01*
X202611999Y-111571000D01*
G75*
G02*
X202362000Y-111321001I0J249999D01*
G01*
G37*
G04 #@! TD*
G04 #@! TO.C,R36*
G36*
G01*
X208299000Y-111321001D02*
X208299000Y-110420999D01*
G75*
G02*
X208548999Y-110171000I249999J0D01*
G01*
X209249001Y-110171000D01*
G75*
G02*
X209499000Y-110420999I0J-249999D01*
G01*
X209499000Y-111321001D01*
G75*
G02*
X209249001Y-111571000I-249999J0D01*
G01*
X208548999Y-111571000D01*
G75*
G02*
X208299000Y-111321001I0J249999D01*
G01*
G37*
G36*
G01*
X206299000Y-111321001D02*
X206299000Y-110420999D01*
G75*
G02*
X206548999Y-110171000I249999J0D01*
G01*
X207249001Y-110171000D01*
G75*
G02*
X207499000Y-110420999I0J-249999D01*
G01*
X207499000Y-111321001D01*
G75*
G02*
X207249001Y-111571000I-249999J0D01*
G01*
X206548999Y-111571000D01*
G75*
G02*
X206299000Y-111321001I0J249999D01*
G01*
G37*
G04 #@! TD*
G04 #@! TO.C,R28*
G36*
G01*
X210115999Y-102517000D02*
X211016001Y-102517000D01*
G75*
G02*
X211266000Y-102766999I0J-249999D01*
G01*
X211266000Y-103467001D01*
G75*
G02*
X211016001Y-103717000I-249999J0D01*
G01*
X210115999Y-103717000D01*
G75*
G02*
X209866000Y-103467001I0J249999D01*
G01*
X209866000Y-102766999D01*
G75*
G02*
X210115999Y-102517000I249999J0D01*
G01*
G37*
G36*
G01*
X210115999Y-100517000D02*
X211016001Y-100517000D01*
G75*
G02*
X211266000Y-100766999I0J-249999D01*
G01*
X211266000Y-101467001D01*
G75*
G02*
X211016001Y-101717000I-249999J0D01*
G01*
X210115999Y-101717000D01*
G75*
G02*
X209866000Y-101467001I0J249999D01*
G01*
X209866000Y-100766999D01*
G75*
G02*
X210115999Y-100517000I249999J0D01*
G01*
G37*
G04 #@! TD*
G04 #@! TO.C,R26*
G36*
G01*
X215461001Y-101708000D02*
X214560999Y-101708000D01*
G75*
G02*
X214311000Y-101458001I0J249999D01*
G01*
X214311000Y-100757999D01*
G75*
G02*
X214560999Y-100508000I249999J0D01*
G01*
X215461001Y-100508000D01*
G75*
G02*
X215711000Y-100757999I0J-249999D01*
G01*
X215711000Y-101458001D01*
G75*
G02*
X215461001Y-101708000I-249999J0D01*
G01*
G37*
G36*
G01*
X215461001Y-103708000D02*
X214560999Y-103708000D01*
G75*
G02*
X214311000Y-103458001I0J249999D01*
G01*
X214311000Y-102757999D01*
G75*
G02*
X214560999Y-102508000I249999J0D01*
G01*
X215461001Y-102508000D01*
G75*
G02*
X215711000Y-102757999I0J-249999D01*
G01*
X215711000Y-103458001D01*
G75*
G02*
X215461001Y-103708000I-249999J0D01*
G01*
G37*
G04 #@! TD*
G04 #@! TO.C,R25*
G36*
G01*
X215461001Y-97644000D02*
X214560999Y-97644000D01*
G75*
G02*
X214311000Y-97394001I0J249999D01*
G01*
X214311000Y-96693999D01*
G75*
G02*
X214560999Y-96444000I249999J0D01*
G01*
X215461001Y-96444000D01*
G75*
G02*
X215711000Y-96693999I0J-249999D01*
G01*
X215711000Y-97394001D01*
G75*
G02*
X215461001Y-97644000I-249999J0D01*
G01*
G37*
G36*
G01*
X215461001Y-99644000D02*
X214560999Y-99644000D01*
G75*
G02*
X214311000Y-99394001I0J249999D01*
G01*
X214311000Y-98693999D01*
G75*
G02*
X214560999Y-98444000I249999J0D01*
G01*
X215461001Y-98444000D01*
G75*
G02*
X215711000Y-98693999I0J-249999D01*
G01*
X215711000Y-99394001D01*
G75*
G02*
X215461001Y-99644000I-249999J0D01*
G01*
G37*
G04 #@! TD*
G04 #@! TO.C,R9*
G36*
G01*
X175038599Y-96869200D02*
X175938601Y-96869200D01*
G75*
G02*
X176188600Y-97119199I0J-249999D01*
G01*
X176188600Y-97819201D01*
G75*
G02*
X175938601Y-98069200I-249999J0D01*
G01*
X175038599Y-98069200D01*
G75*
G02*
X174788600Y-97819201I0J249999D01*
G01*
X174788600Y-97119199D01*
G75*
G02*
X175038599Y-96869200I249999J0D01*
G01*
G37*
G36*
G01*
X175038599Y-94869200D02*
X175938601Y-94869200D01*
G75*
G02*
X176188600Y-95119199I0J-249999D01*
G01*
X176188600Y-95819201D01*
G75*
G02*
X175938601Y-96069200I-249999J0D01*
G01*
X175038599Y-96069200D01*
G75*
G02*
X174788600Y-95819201I0J249999D01*
G01*
X174788600Y-95119199D01*
G75*
G02*
X175038599Y-94869200I249999J0D01*
G01*
G37*
G04 #@! TD*
G04 #@! TO.C,R8*
G36*
G01*
X174186001Y-76181000D02*
X173285999Y-76181000D01*
G75*
G02*
X173036000Y-75931001I0J249999D01*
G01*
X173036000Y-75230999D01*
G75*
G02*
X173285999Y-74981000I249999J0D01*
G01*
X174186001Y-74981000D01*
G75*
G02*
X174436000Y-75230999I0J-249999D01*
G01*
X174436000Y-75931001D01*
G75*
G02*
X174186001Y-76181000I-249999J0D01*
G01*
G37*
G36*
G01*
X174186001Y-78181000D02*
X173285999Y-78181000D01*
G75*
G02*
X173036000Y-77931001I0J249999D01*
G01*
X173036000Y-77230999D01*
G75*
G02*
X173285999Y-76981000I249999J0D01*
G01*
X174186001Y-76981000D01*
G75*
G02*
X174436000Y-77230999I0J-249999D01*
G01*
X174436000Y-77931001D01*
G75*
G02*
X174186001Y-78181000I-249999J0D01*
G01*
G37*
G04 #@! TD*
G04 #@! TO.C,R7*
G36*
G01*
X176853001Y-76181000D02*
X175952999Y-76181000D01*
G75*
G02*
X175703000Y-75931001I0J249999D01*
G01*
X175703000Y-75230999D01*
G75*
G02*
X175952999Y-74981000I249999J0D01*
G01*
X176853001Y-74981000D01*
G75*
G02*
X177103000Y-75230999I0J-249999D01*
G01*
X177103000Y-75931001D01*
G75*
G02*
X176853001Y-76181000I-249999J0D01*
G01*
G37*
G36*
G01*
X176853001Y-78181000D02*
X175952999Y-78181000D01*
G75*
G02*
X175703000Y-77931001I0J249999D01*
G01*
X175703000Y-77230999D01*
G75*
G02*
X175952999Y-76981000I249999J0D01*
G01*
X176853001Y-76981000D01*
G75*
G02*
X177103000Y-77230999I0J-249999D01*
G01*
X177103000Y-77931001D01*
G75*
G02*
X176853001Y-78181000I-249999J0D01*
G01*
G37*
G04 #@! TD*
G04 #@! TO.C,R6*
G36*
G01*
X179393001Y-76181000D02*
X178492999Y-76181000D01*
G75*
G02*
X178243000Y-75931001I0J249999D01*
G01*
X178243000Y-75230999D01*
G75*
G02*
X178492999Y-74981000I249999J0D01*
G01*
X179393001Y-74981000D01*
G75*
G02*
X179643000Y-75230999I0J-249999D01*
G01*
X179643000Y-75931001D01*
G75*
G02*
X179393001Y-76181000I-249999J0D01*
G01*
G37*
G36*
G01*
X179393001Y-78181000D02*
X178492999Y-78181000D01*
G75*
G02*
X178243000Y-77931001I0J249999D01*
G01*
X178243000Y-77230999D01*
G75*
G02*
X178492999Y-76981000I249999J0D01*
G01*
X179393001Y-76981000D01*
G75*
G02*
X179643000Y-77230999I0J-249999D01*
G01*
X179643000Y-77931001D01*
G75*
G02*
X179393001Y-78181000I-249999J0D01*
G01*
G37*
G04 #@! TD*
G04 #@! TO.C,R5*
G36*
G01*
X181933001Y-76181000D02*
X181032999Y-76181000D01*
G75*
G02*
X180783000Y-75931001I0J249999D01*
G01*
X180783000Y-75230999D01*
G75*
G02*
X181032999Y-74981000I249999J0D01*
G01*
X181933001Y-74981000D01*
G75*
G02*
X182183000Y-75230999I0J-249999D01*
G01*
X182183000Y-75931001D01*
G75*
G02*
X181933001Y-76181000I-249999J0D01*
G01*
G37*
G36*
G01*
X181933001Y-78181000D02*
X181032999Y-78181000D01*
G75*
G02*
X180783000Y-77931001I0J249999D01*
G01*
X180783000Y-77230999D01*
G75*
G02*
X181032999Y-76981000I249999J0D01*
G01*
X181933001Y-76981000D01*
G75*
G02*
X182183000Y-77230999I0J-249999D01*
G01*
X182183000Y-77931001D01*
G75*
G02*
X181933001Y-78181000I-249999J0D01*
G01*
G37*
G04 #@! TD*
G04 #@! TO.C,R4*
G36*
G01*
X184473001Y-76181000D02*
X183572999Y-76181000D01*
G75*
G02*
X183323000Y-75931001I0J249999D01*
G01*
X183323000Y-75230999D01*
G75*
G02*
X183572999Y-74981000I249999J0D01*
G01*
X184473001Y-74981000D01*
G75*
G02*
X184723000Y-75230999I0J-249999D01*
G01*
X184723000Y-75931001D01*
G75*
G02*
X184473001Y-76181000I-249999J0D01*
G01*
G37*
G36*
G01*
X184473001Y-78181000D02*
X183572999Y-78181000D01*
G75*
G02*
X183323000Y-77931001I0J249999D01*
G01*
X183323000Y-77230999D01*
G75*
G02*
X183572999Y-76981000I249999J0D01*
G01*
X184473001Y-76981000D01*
G75*
G02*
X184723000Y-77230999I0J-249999D01*
G01*
X184723000Y-77931001D01*
G75*
G02*
X184473001Y-78181000I-249999J0D01*
G01*
G37*
G04 #@! TD*
G04 #@! TO.C,C42*
G36*
G01*
X149497200Y-100525600D02*
X149497200Y-99575600D01*
G75*
G02*
X149747200Y-99325600I250000J0D01*
G01*
X150422200Y-99325600D01*
G75*
G02*
X150672200Y-99575600I0J-250000D01*
G01*
X150672200Y-100525600D01*
G75*
G02*
X150422200Y-100775600I-250000J0D01*
G01*
X149747200Y-100775600D01*
G75*
G02*
X149497200Y-100525600I0J250000D01*
G01*
G37*
G36*
G01*
X147422200Y-100525600D02*
X147422200Y-99575600D01*
G75*
G02*
X147672200Y-99325600I250000J0D01*
G01*
X148347200Y-99325600D01*
G75*
G02*
X148597200Y-99575600I0J-250000D01*
G01*
X148597200Y-100525600D01*
G75*
G02*
X148347200Y-100775600I-250000J0D01*
G01*
X147672200Y-100775600D01*
G75*
G02*
X147422200Y-100525600I0J250000D01*
G01*
G37*
G04 #@! TD*
G04 #@! TO.C,C34*
G36*
G01*
X211041000Y-97594000D02*
X210091000Y-97594000D01*
G75*
G02*
X209841000Y-97344000I0J250000D01*
G01*
X209841000Y-96669000D01*
G75*
G02*
X210091000Y-96419000I250000J0D01*
G01*
X211041000Y-96419000D01*
G75*
G02*
X211291000Y-96669000I0J-250000D01*
G01*
X211291000Y-97344000D01*
G75*
G02*
X211041000Y-97594000I-250000J0D01*
G01*
G37*
G36*
G01*
X211041000Y-99669000D02*
X210091000Y-99669000D01*
G75*
G02*
X209841000Y-99419000I0J250000D01*
G01*
X209841000Y-98744000D01*
G75*
G02*
X210091000Y-98494000I250000J0D01*
G01*
X211041000Y-98494000D01*
G75*
G02*
X211291000Y-98744000I0J-250000D01*
G01*
X211291000Y-99419000D01*
G75*
G02*
X211041000Y-99669000I-250000J0D01*
G01*
G37*
G04 #@! TD*
G04 #@! TO.C,C30*
G36*
G01*
X180351000Y-112410003D02*
X180351000Y-111109997D01*
G75*
G02*
X180600997Y-110860000I249997J0D01*
G01*
X181426003Y-110860000D01*
G75*
G02*
X181676000Y-111109997I0J-249997D01*
G01*
X181676000Y-112410003D01*
G75*
G02*
X181426003Y-112660000I-249997J0D01*
G01*
X180600997Y-112660000D01*
G75*
G02*
X180351000Y-112410003I0J249997D01*
G01*
G37*
G36*
G01*
X177226000Y-112410003D02*
X177226000Y-111109997D01*
G75*
G02*
X177475997Y-110860000I249997J0D01*
G01*
X178301003Y-110860000D01*
G75*
G02*
X178551000Y-111109997I0J-249997D01*
G01*
X178551000Y-112410003D01*
G75*
G02*
X178301003Y-112660000I-249997J0D01*
G01*
X177475997Y-112660000D01*
G75*
G02*
X177226000Y-112410003I0J249997D01*
G01*
G37*
G04 #@! TD*
G04 #@! TO.C,C13*
G36*
G01*
X177096400Y-96944600D02*
X178046400Y-96944600D01*
G75*
G02*
X178296400Y-97194600I0J-250000D01*
G01*
X178296400Y-97869600D01*
G75*
G02*
X178046400Y-98119600I-250000J0D01*
G01*
X177096400Y-98119600D01*
G75*
G02*
X176846400Y-97869600I0J250000D01*
G01*
X176846400Y-97194600D01*
G75*
G02*
X177096400Y-96944600I250000J0D01*
G01*
G37*
G36*
G01*
X177096400Y-94869600D02*
X178046400Y-94869600D01*
G75*
G02*
X178296400Y-95119600I0J-250000D01*
G01*
X178296400Y-95794600D01*
G75*
G02*
X178046400Y-96044600I-250000J0D01*
G01*
X177096400Y-96044600D01*
G75*
G02*
X176846400Y-95794600I0J250000D01*
G01*
X176846400Y-95119600D01*
G75*
G02*
X177096400Y-94869600I250000J0D01*
G01*
G37*
G04 #@! TD*
D10*
G04 #@! TO.C,D2*
X180086000Y-98627200D03*
X180086000Y-95327200D03*
G04 #@! TD*
D11*
G04 #@! TO.C,U6*
X211839600Y-86715600D03*
X213559600Y-86715600D03*
D12*
X212949600Y-87353100D03*
X212449600Y-87353100D03*
X212449600Y-86078100D03*
X212949600Y-86078100D03*
D13*
X213449600Y-86078100D03*
X211949600Y-86078100D03*
X211949600Y-87353100D03*
X213449600Y-87353100D03*
G04 #@! TD*
D14*
G04 #@! TO.C,U5*
X211394000Y-83608400D03*
X212344000Y-83608400D03*
X213294000Y-83608400D03*
X213294000Y-81288400D03*
X212344000Y-81288400D03*
X211394000Y-81288400D03*
G04 #@! TD*
D15*
G04 #@! TO.C,U1*
X147464000Y-91717000D03*
X147464000Y-78717000D03*
X148964000Y-91717000D03*
X148964000Y-78717000D03*
X150464000Y-91717000D03*
X150464000Y-78717000D03*
X151964000Y-91717000D03*
X151964000Y-78717000D03*
X153464000Y-91717000D03*
X153464000Y-78717000D03*
X154964000Y-91717000D03*
X154964000Y-78717000D03*
X156464000Y-91717000D03*
X156464000Y-78717000D03*
X157964000Y-91717000D03*
X157964000Y-78717000D03*
X159464000Y-91717000D03*
X159464000Y-78717000D03*
X160964000Y-91717000D03*
X160964000Y-78717000D03*
X162464000Y-91717000D03*
X162464000Y-78717000D03*
X163964000Y-91717000D03*
X163964000Y-78717000D03*
X165464000Y-91717000D03*
X165464000Y-78717000D03*
G04 #@! TD*
D16*
G04 #@! TO.C,SW2*
X163718000Y-114320000D03*
X163718000Y-118820000D03*
X155758000Y-118820000D03*
X155758000Y-114320000D03*
G04 #@! TD*
G04 #@! TO.C,SW1*
X174868000Y-114320000D03*
X174868000Y-118820000D03*
X166908000Y-118820000D03*
X166908000Y-114320000D03*
G04 #@! TD*
D17*
G04 #@! TO.C,Q7*
X194884000Y-113808000D03*
X196784000Y-113808000D03*
X195834000Y-115808000D03*
G04 #@! TD*
G04 #@! TO.C,Q6*
X199202000Y-113808000D03*
X201102000Y-113808000D03*
X200152000Y-115808000D03*
G04 #@! TD*
G04 #@! TO.C,Q5*
X203139000Y-113808000D03*
X205039000Y-113808000D03*
X204089000Y-115808000D03*
G04 #@! TD*
G04 #@! TO.C,Q4*
X207076000Y-113808000D03*
X208976000Y-113808000D03*
X208026000Y-115808000D03*
G04 #@! TD*
D18*
G04 #@! TO.C,P1*
X216981500Y-77076000D03*
X216181500Y-77076000D03*
X215681500Y-77076000D03*
X215181500Y-77076000D03*
X214681500Y-77076000D03*
X214181500Y-77076000D03*
X213681500Y-77076000D03*
X213181500Y-77076000D03*
X212681500Y-77076000D03*
X212181500Y-77076000D03*
X211381500Y-77076000D03*
X210581500Y-77076000D03*
X210881500Y-77076000D03*
X211681500Y-77076000D03*
X216481500Y-77076000D03*
X217281500Y-77076000D03*
G04 #@! TD*
M02*
