M48
INCH,TZ
T1C0.0079
T2C0.0118
T3C0.0157
T4C0.0197
T5C0.0236
T6C0.0276
T7C0.0315
T8C0.0374
T9C0.0394
T10C0.1260
%
G90
G05
T1
X69776Y-39566
X69776Y-39950
X69776Y-40334
X70160Y-39566
X70160Y-39950
X70160Y-40334
X70544Y-39566
X70544Y-39950
X70544Y-40334
T2
X56120Y-43290
X56210Y-42230
X56840Y-44510
X58020Y-42230
X58150Y-32350
X58300Y-34600
X58500Y-35300
X58900Y-33450
X58960Y-46260
X59380Y-45210
X59550Y-32350
X59750Y-34600
X59910Y-44150
X59950Y-47040
X60160Y-36860
X60175Y-37513
X60280Y-39210
X60280Y-45990
X60300Y-35300
X60300Y-42380
X60400Y-33400
X60950Y-38583
X61227Y-38823
X61322Y-46780
X61400Y-34600
X61500Y-32350
X61650Y-39350
X62300Y-35250
X62360Y-40400
X62500Y-39160
X62650Y-32350
X62650Y-33450
X62770Y-45780
X62820Y-37260
X62825Y-37726
X62900Y-44500
X63290Y-39710
X63342Y-37500
X63385Y-42110
X63650Y-43525
X63850Y-34600
X63950Y-33450
X64456Y-46780
X64490Y-44575
X64510Y-34050
X64550Y-30300
X64575Y-31825
X64675Y-29646
X64690Y-37125
X64700Y-38150
X64750Y-42650
X64808Y-39367
X64900Y-35050
X64975Y-40725
X65150Y-31625
X65450Y-43650
X65712Y-46780
X65801Y-45222
X65908Y-45636
X66195Y-36535
X66600Y-35350
X66625Y-33125
X66625Y-34500
X66710Y-37365
X66985Y-39575
X67210Y-43120
X67225Y-32325
X67325Y-44150
X67445Y-36250
X67450Y-33450
X67500Y-38069
X67775Y-36480
X67850Y-29750
X67850Y-31383
X68200Y-39035
X68200Y-39325
X68200Y-39600
X68205Y-38745
X68325Y-33950
X68400Y-30544
X68510Y-36720
X68550Y-39320
X68550Y-39600
X68555Y-38745
X68555Y-39035
X68810Y-46270
X68825Y-40825
X68900Y-39600
X68900Y-42200
X68905Y-38745
X68905Y-39040
X68910Y-39320
X69000Y-32275
X69220Y-35525
X69320Y-38820
X69450Y-30544
X69480Y-46900
X69715Y-36515
X69730Y-33920
X69760Y-38490
X69880Y-33090
X69940Y-43570
X70050Y-35550
X70370Y-38690
X70450Y-30544
X70620Y-36505
X70762Y-42708
X70775Y-41605
X71350Y-33275
X71400Y-38050
X71450Y-30544
X71475Y-35525
X71780Y-44020
X72045Y-38790
X72060Y-44310
X72125Y-40495
X72450Y-30544
X72450Y-43770
X72505Y-38900
X72560Y-39875
X72685Y-38555
X72950Y-34575
X73125Y-35450
X73125Y-36250
X73133Y-37050
X73150Y-37875
X73150Y-41350
X73275Y-39233
X73400Y-40250
X73425Y-34600
X73448Y-37458
X73575Y-39350
X73775Y-31575
X73825Y-30050
X73839Y-36250
X73839Y-37050
X74240Y-41350
X74322Y-40253
X74550Y-37825
X74555Y-32325
X74675Y-34900
X74775Y-36700
X74830Y-46820
X74900Y-41350
X75125Y-39625
X75250Y-45180
X75340Y-43960
X75400Y-33526
X75425Y-36225
X75625Y-35100
X75860Y-40350
X75975Y-39500
X76025Y-28650
X76050Y-30375
X76075Y-37825
X76200Y-31600
X76275Y-34075
X76400Y-32950
X76580Y-41090
X76640Y-33800
X76675Y-39075
X76700Y-38325
X76950Y-40050
X77125Y-38275
X77254Y-37427
X77625Y-35150
X77970Y-33930
X78185Y-30095
X78230Y-42480
X78675Y-32825
X78700Y-34450
X79075Y-42500
X79575Y-34438
X79588Y-34744
X80175Y-38425
X80580Y-33900
X80725Y-41925
X80820Y-40635
X80902Y-39373
X80910Y-40380
X81550Y-31750
X81605Y-32655
X81685Y-37055
X82150Y-39475
X82150Y-40300
X82450Y-37550
X82710Y-34425
X82827Y-31577
X82855Y-32845
X83000Y-30890
X83000Y-31160
X83000Y-36800
X83270Y-30890
X83270Y-31160
X83383Y-31577
X83540Y-30890
X83540Y-31160
X83810Y-34871
X83925Y-38950
X84125Y-33706
X84225Y-37550
X84310Y-34900
X84400Y-31160
X84670Y-30890
X84670Y-31160
X84750Y-36800
X84940Y-30890
X84940Y-31160
X85000Y-42700
X85090Y-36530
X85210Y-30890
X85210Y-31160
X85480Y-30890
X85480Y-31160
X85490Y-39270
X85500Y-38190
X85580Y-36880
X85760Y-30890
X85760Y-31160
X85875Y-44800
X86760Y-29550
X86850Y-34100
X86850Y-42500
X86850Y-42950
X86850Y-43450
X87070Y-30550
X87145Y-38600
X87145Y-38930
X87145Y-39255
X87300Y-42500
X87300Y-42950
X87300Y-43450
X87400Y-33050
X87500Y-38605
X87500Y-38940
X87500Y-39260
X87750Y-42950
X87750Y-42500
X87750Y-43450
X87830Y-30510
X87850Y-38600
X87850Y-38945
X87855Y-39260
X61196Y-37303
X61196Y-37697
X61550Y-37303
X61550Y-37697
X61904Y-37303
X61904Y-37697
T3
X58250Y-38586
X59120Y-38586
X59670Y-40380
X59670Y-40700
X59670Y-41020
X59670Y-41340
X60010Y-40380
X60010Y-40700
X60010Y-41020
X60010Y-41340
X82797Y-40690
X82803Y-41147
X83100Y-43350
X83740Y-29910
X84920Y-29910
T4
X67900Y-35430
X68648Y-35430
T6
X56080Y-36700
X56080Y-37700
T7
X87922Y-35400
X89300Y-35400
X70330Y-32360
X70330Y-34281
T8
X77350Y-29000
X78334Y-29000
X79319Y-29000
X80303Y-29000
X77350Y-31700
X78334Y-31700
X79319Y-31700
X80303Y-31700
T9
X86080Y-33710
X68510Y-43910
X56200Y-39000
X56200Y-40000
X56200Y-41000
X89000Y-43950
X63850Y-29050
X64834Y-29050
X61150Y-42950
X86060Y-31960
X78369Y-46800
X79369Y-46800
X80369Y-46800
X81369Y-46800
X82369Y-46800
X83369Y-46800
X84369Y-46800
X85369Y-46800
X67425Y-28525
X68425Y-28525
X69425Y-28525
X70425Y-28525
X71425Y-28525
X72425Y-28525
X73425Y-28525
X74425Y-28525
X59730Y-29040
X60714Y-29040
X58600Y-42950
X58600Y-43934
X86070Y-35370
X83350Y-45250
X61100Y-41150
T10
X89275Y-46600
X56675Y-28700
X89275Y-28700
X56675Y-46625
T5
G00X82524Y-28359
M15
G01X82524Y-28595
M16
G05
G00X82524Y-29906
M15
G01X82524Y-30339
M16
G05
G00X85926Y-28359
M15
G01X85926Y-28595
M16
G05
G00X85926Y-29906
M15
G01X85926Y-30339
M16
G05
T0
M30
