G04 #@! TF.GenerationSoftware,KiCad,Pcbnew,5.1.8*
G04 #@! TF.CreationDate,2020-11-19T15:54:23+08:00*
G04 #@! TF.ProjectId,Main,4d61696e-2e6b-4696-9361-645f70636258,rev?*
G04 #@! TF.SameCoordinates,Original*
G04 #@! TF.FileFunction,Paste,Top*
G04 #@! TF.FilePolarity,Positive*
%FSLAX46Y46*%
G04 Gerber Fmt 4.6, Leading zero omitted, Abs format (unit mm)*
G04 Created by KiCad (PCBNEW 5.1.8) date 2020-11-19 15:54:23*
%MOMM*%
%LPD*%
G01*
G04 APERTURE LIST*
%ADD10R,0.900000X1.200000*%
%ADD11R,1.300000X1.700000*%
%ADD12R,2.250000X5.500000*%
%ADD13C,0.100000*%
%ADD14R,0.650000X1.060000*%
%ADD15R,0.200000X0.200000*%
%ADD16O,0.850000X0.200000*%
%ADD17R,1.100000X0.775000*%
%ADD18R,0.400000X0.575000*%
%ADD19R,1.600000X0.700000*%
%ADD20R,0.700000X1.450000*%
%ADD21R,5.500000X2.250000*%
%ADD22R,1.220000X0.650000*%
%ADD23R,2.200000X1.200000*%
%ADD24R,3.050000X2.750000*%
%ADD25R,0.900000X0.800000*%
%ADD26R,0.800000X0.900000*%
%ADD27R,2.300000X3.500000*%
G04 APERTURE END LIST*
D10*
G04 #@! TO.C,D7*
X200051400Y-85039200D03*
X203351400Y-85039200D03*
G04 #@! TD*
D11*
G04 #@! TO.C,D6*
X215021100Y-84861400D03*
X211521100Y-84861400D03*
G04 #@! TD*
G04 #@! TO.C,R19*
G36*
G01*
X186890100Y-98811501D02*
X186890100Y-97911499D01*
G75*
G02*
X187140099Y-97661500I249999J0D01*
G01*
X187840101Y-97661500D01*
G75*
G02*
X188090100Y-97911499I0J-249999D01*
G01*
X188090100Y-98811501D01*
G75*
G02*
X187840101Y-99061500I-249999J0D01*
G01*
X187140099Y-99061500D01*
G75*
G02*
X186890100Y-98811501I0J249999D01*
G01*
G37*
G36*
G01*
X184890100Y-98811501D02*
X184890100Y-97911499D01*
G75*
G02*
X185140099Y-97661500I249999J0D01*
G01*
X185840101Y-97661500D01*
G75*
G02*
X186090100Y-97911499I0J-249999D01*
G01*
X186090100Y-98811501D01*
G75*
G02*
X185840101Y-99061500I-249999J0D01*
G01*
X185140099Y-99061500D01*
G75*
G02*
X184890100Y-98811501I0J249999D01*
G01*
G37*
G04 #@! TD*
G04 #@! TO.C,C43*
G36*
G01*
X193617000Y-90518000D02*
X193617000Y-89568000D01*
G75*
G02*
X193867000Y-89318000I250000J0D01*
G01*
X194542000Y-89318000D01*
G75*
G02*
X194792000Y-89568000I0J-250000D01*
G01*
X194792000Y-90518000D01*
G75*
G02*
X194542000Y-90768000I-250000J0D01*
G01*
X193867000Y-90768000D01*
G75*
G02*
X193617000Y-90518000I0J250000D01*
G01*
G37*
G36*
G01*
X191542000Y-90518000D02*
X191542000Y-89568000D01*
G75*
G02*
X191792000Y-89318000I250000J0D01*
G01*
X192467000Y-89318000D01*
G75*
G02*
X192717000Y-89568000I0J-250000D01*
G01*
X192717000Y-90518000D01*
G75*
G02*
X192467000Y-90768000I-250000J0D01*
G01*
X191792000Y-90768000D01*
G75*
G02*
X191542000Y-90518000I0J250000D01*
G01*
G37*
G04 #@! TD*
G04 #@! TO.C,R49*
G36*
G01*
X146488999Y-92475000D02*
X147389001Y-92475000D01*
G75*
G02*
X147639000Y-92724999I0J-249999D01*
G01*
X147639000Y-93425001D01*
G75*
G02*
X147389001Y-93675000I-249999J0D01*
G01*
X146488999Y-93675000D01*
G75*
G02*
X146239000Y-93425001I0J249999D01*
G01*
X146239000Y-92724999D01*
G75*
G02*
X146488999Y-92475000I249999J0D01*
G01*
G37*
G36*
G01*
X146488999Y-90475000D02*
X147389001Y-90475000D01*
G75*
G02*
X147639000Y-90724999I0J-249999D01*
G01*
X147639000Y-91425001D01*
G75*
G02*
X147389001Y-91675000I-249999J0D01*
G01*
X146488999Y-91675000D01*
G75*
G02*
X146239000Y-91425001I0J249999D01*
G01*
X146239000Y-90724999D01*
G75*
G02*
X146488999Y-90475000I249999J0D01*
G01*
G37*
G04 #@! TD*
G04 #@! TO.C,R12*
G36*
G01*
X144329999Y-92475000D02*
X145230001Y-92475000D01*
G75*
G02*
X145480000Y-92724999I0J-249999D01*
G01*
X145480000Y-93425001D01*
G75*
G02*
X145230001Y-93675000I-249999J0D01*
G01*
X144329999Y-93675000D01*
G75*
G02*
X144080000Y-93425001I0J249999D01*
G01*
X144080000Y-92724999D01*
G75*
G02*
X144329999Y-92475000I249999J0D01*
G01*
G37*
G36*
G01*
X144329999Y-90475000D02*
X145230001Y-90475000D01*
G75*
G02*
X145480000Y-90724999I0J-249999D01*
G01*
X145480000Y-91425001D01*
G75*
G02*
X145230001Y-91675000I-249999J0D01*
G01*
X144329999Y-91675000D01*
G75*
G02*
X144080000Y-91425001I0J249999D01*
G01*
X144080000Y-90724999D01*
G75*
G02*
X144329999Y-90475000I249999J0D01*
G01*
G37*
G04 #@! TD*
G04 #@! TO.C,R11*
G36*
G01*
X162325000Y-93668001D02*
X162325000Y-92767999D01*
G75*
G02*
X162574999Y-92518000I249999J0D01*
G01*
X163275001Y-92518000D01*
G75*
G02*
X163525000Y-92767999I0J-249999D01*
G01*
X163525000Y-93668001D01*
G75*
G02*
X163275001Y-93918000I-249999J0D01*
G01*
X162574999Y-93918000D01*
G75*
G02*
X162325000Y-93668001I0J249999D01*
G01*
G37*
G36*
G01*
X160325000Y-93668001D02*
X160325000Y-92767999D01*
G75*
G02*
X160574999Y-92518000I249999J0D01*
G01*
X161275001Y-92518000D01*
G75*
G02*
X161525000Y-92767999I0J-249999D01*
G01*
X161525000Y-93668001D01*
G75*
G02*
X161275001Y-93918000I-249999J0D01*
G01*
X160574999Y-93918000D01*
G75*
G02*
X160325000Y-93668001I0J249999D01*
G01*
G37*
G04 #@! TD*
G04 #@! TO.C,C25*
G36*
G01*
X156787000Y-91407000D02*
X156787000Y-90457000D01*
G75*
G02*
X157037000Y-90207000I250000J0D01*
G01*
X157712000Y-90207000D01*
G75*
G02*
X157962000Y-90457000I0J-250000D01*
G01*
X157962000Y-91407000D01*
G75*
G02*
X157712000Y-91657000I-250000J0D01*
G01*
X157037000Y-91657000D01*
G75*
G02*
X156787000Y-91407000I0J250000D01*
G01*
G37*
G36*
G01*
X154712000Y-91407000D02*
X154712000Y-90457000D01*
G75*
G02*
X154962000Y-90207000I250000J0D01*
G01*
X155637000Y-90207000D01*
G75*
G02*
X155887000Y-90457000I0J-250000D01*
G01*
X155887000Y-91407000D01*
G75*
G02*
X155637000Y-91657000I-250000J0D01*
G01*
X154962000Y-91657000D01*
G75*
G02*
X154712000Y-91407000I0J250000D01*
G01*
G37*
G04 #@! TD*
G04 #@! TO.C,C22*
G36*
G01*
X162375000Y-99916000D02*
X162375000Y-98966000D01*
G75*
G02*
X162625000Y-98716000I250000J0D01*
G01*
X163300000Y-98716000D01*
G75*
G02*
X163550000Y-98966000I0J-250000D01*
G01*
X163550000Y-99916000D01*
G75*
G02*
X163300000Y-100166000I-250000J0D01*
G01*
X162625000Y-100166000D01*
G75*
G02*
X162375000Y-99916000I0J250000D01*
G01*
G37*
G36*
G01*
X160300000Y-99916000D02*
X160300000Y-98966000D01*
G75*
G02*
X160550000Y-98716000I250000J0D01*
G01*
X161225000Y-98716000D01*
G75*
G02*
X161475000Y-98966000I0J-250000D01*
G01*
X161475000Y-99916000D01*
G75*
G02*
X161225000Y-100166000I-250000J0D01*
G01*
X160550000Y-100166000D01*
G75*
G02*
X160300000Y-99916000I0J250000D01*
G01*
G37*
G04 #@! TD*
G04 #@! TO.C,R48*
G36*
G01*
X206991000Y-86964099D02*
X206991000Y-87864101D01*
G75*
G02*
X206741001Y-88114100I-249999J0D01*
G01*
X206040999Y-88114100D01*
G75*
G02*
X205791000Y-87864101I0J249999D01*
G01*
X205791000Y-86964099D01*
G75*
G02*
X206040999Y-86714100I249999J0D01*
G01*
X206741001Y-86714100D01*
G75*
G02*
X206991000Y-86964099I0J-249999D01*
G01*
G37*
G36*
G01*
X208991000Y-86964099D02*
X208991000Y-87864101D01*
G75*
G02*
X208741001Y-88114100I-249999J0D01*
G01*
X208040999Y-88114100D01*
G75*
G02*
X207791000Y-87864101I0J249999D01*
G01*
X207791000Y-86964099D01*
G75*
G02*
X208040999Y-86714100I249999J0D01*
G01*
X208741001Y-86714100D01*
G75*
G02*
X208991000Y-86964099I0J-249999D01*
G01*
G37*
G04 #@! TD*
G04 #@! TO.C,R46*
G36*
G01*
X207003700Y-84601899D02*
X207003700Y-85501901D01*
G75*
G02*
X206753701Y-85751900I-249999J0D01*
G01*
X206053699Y-85751900D01*
G75*
G02*
X205803700Y-85501901I0J249999D01*
G01*
X205803700Y-84601899D01*
G75*
G02*
X206053699Y-84351900I249999J0D01*
G01*
X206753701Y-84351900D01*
G75*
G02*
X207003700Y-84601899I0J-249999D01*
G01*
G37*
G36*
G01*
X209003700Y-84601899D02*
X209003700Y-85501901D01*
G75*
G02*
X208753701Y-85751900I-249999J0D01*
G01*
X208053699Y-85751900D01*
G75*
G02*
X207803700Y-85501901I0J249999D01*
G01*
X207803700Y-84601899D01*
G75*
G02*
X208053699Y-84351900I249999J0D01*
G01*
X208753701Y-84351900D01*
G75*
G02*
X209003700Y-84601899I0J-249999D01*
G01*
G37*
G04 #@! TD*
G04 #@! TO.C,R47*
G36*
G01*
X169348999Y-79521000D02*
X170249001Y-79521000D01*
G75*
G02*
X170499000Y-79770999I0J-249999D01*
G01*
X170499000Y-80471001D01*
G75*
G02*
X170249001Y-80721000I-249999J0D01*
G01*
X169348999Y-80721000D01*
G75*
G02*
X169099000Y-80471001I0J249999D01*
G01*
X169099000Y-79770999D01*
G75*
G02*
X169348999Y-79521000I249999J0D01*
G01*
G37*
G36*
G01*
X169348999Y-77521000D02*
X170249001Y-77521000D01*
G75*
G02*
X170499000Y-77770999I0J-249999D01*
G01*
X170499000Y-78471001D01*
G75*
G02*
X170249001Y-78721000I-249999J0D01*
G01*
X169348999Y-78721000D01*
G75*
G02*
X169099000Y-78471001I0J249999D01*
G01*
X169099000Y-77770999D01*
G75*
G02*
X169348999Y-77521000I249999J0D01*
G01*
G37*
G04 #@! TD*
G04 #@! TO.C,R43*
G36*
G01*
X200971999Y-115462000D02*
X201872001Y-115462000D01*
G75*
G02*
X202122000Y-115711999I0J-249999D01*
G01*
X202122000Y-116412001D01*
G75*
G02*
X201872001Y-116662000I-249999J0D01*
G01*
X200971999Y-116662000D01*
G75*
G02*
X200722000Y-116412001I0J249999D01*
G01*
X200722000Y-115711999D01*
G75*
G02*
X200971999Y-115462000I249999J0D01*
G01*
G37*
G36*
G01*
X200971999Y-113462000D02*
X201872001Y-113462000D01*
G75*
G02*
X202122000Y-113711999I0J-249999D01*
G01*
X202122000Y-114412001D01*
G75*
G02*
X201872001Y-114662000I-249999J0D01*
G01*
X200971999Y-114662000D01*
G75*
G02*
X200722000Y-114412001I0J249999D01*
G01*
X200722000Y-113711999D01*
G75*
G02*
X200971999Y-113462000I249999J0D01*
G01*
G37*
G04 #@! TD*
G04 #@! TO.C,R42*
G36*
G01*
X203384999Y-115462000D02*
X204285001Y-115462000D01*
G75*
G02*
X204535000Y-115711999I0J-249999D01*
G01*
X204535000Y-116412001D01*
G75*
G02*
X204285001Y-116662000I-249999J0D01*
G01*
X203384999Y-116662000D01*
G75*
G02*
X203135000Y-116412001I0J249999D01*
G01*
X203135000Y-115711999D01*
G75*
G02*
X203384999Y-115462000I249999J0D01*
G01*
G37*
G36*
G01*
X203384999Y-113462000D02*
X204285001Y-113462000D01*
G75*
G02*
X204535000Y-113711999I0J-249999D01*
G01*
X204535000Y-114412001D01*
G75*
G02*
X204285001Y-114662000I-249999J0D01*
G01*
X203384999Y-114662000D01*
G75*
G02*
X203135000Y-114412001I0J249999D01*
G01*
X203135000Y-113711999D01*
G75*
G02*
X203384999Y-113462000I249999J0D01*
G01*
G37*
G04 #@! TD*
G04 #@! TO.C,R41*
G36*
G01*
X205924999Y-115462000D02*
X206825001Y-115462000D01*
G75*
G02*
X207075000Y-115711999I0J-249999D01*
G01*
X207075000Y-116412001D01*
G75*
G02*
X206825001Y-116662000I-249999J0D01*
G01*
X205924999Y-116662000D01*
G75*
G02*
X205675000Y-116412001I0J249999D01*
G01*
X205675000Y-115711999D01*
G75*
G02*
X205924999Y-115462000I249999J0D01*
G01*
G37*
G36*
G01*
X205924999Y-113462000D02*
X206825001Y-113462000D01*
G75*
G02*
X207075000Y-113711999I0J-249999D01*
G01*
X207075000Y-114412001D01*
G75*
G02*
X206825001Y-114662000I-249999J0D01*
G01*
X205924999Y-114662000D01*
G75*
G02*
X205675000Y-114412001I0J249999D01*
G01*
X205675000Y-113711999D01*
G75*
G02*
X205924999Y-113462000I249999J0D01*
G01*
G37*
G04 #@! TD*
G04 #@! TO.C,R40*
G36*
G01*
X208464999Y-115462000D02*
X209365001Y-115462000D01*
G75*
G02*
X209615000Y-115711999I0J-249999D01*
G01*
X209615000Y-116412001D01*
G75*
G02*
X209365001Y-116662000I-249999J0D01*
G01*
X208464999Y-116662000D01*
G75*
G02*
X208215000Y-116412001I0J249999D01*
G01*
X208215000Y-115711999D01*
G75*
G02*
X208464999Y-115462000I249999J0D01*
G01*
G37*
G36*
G01*
X208464999Y-113462000D02*
X209365001Y-113462000D01*
G75*
G02*
X209615000Y-113711999I0J-249999D01*
G01*
X209615000Y-114412001D01*
G75*
G02*
X209365001Y-114662000I-249999J0D01*
G01*
X208464999Y-114662000D01*
G75*
G02*
X208215000Y-114412001I0J249999D01*
G01*
X208215000Y-113711999D01*
G75*
G02*
X208464999Y-113462000I249999J0D01*
G01*
G37*
G04 #@! TD*
G04 #@! TO.C,R35*
G36*
G01*
X206952001Y-109074000D02*
X206051999Y-109074000D01*
G75*
G02*
X205802000Y-108824001I0J249999D01*
G01*
X205802000Y-108123999D01*
G75*
G02*
X206051999Y-107874000I249999J0D01*
G01*
X206952001Y-107874000D01*
G75*
G02*
X207202000Y-108123999I0J-249999D01*
G01*
X207202000Y-108824001D01*
G75*
G02*
X206952001Y-109074000I-249999J0D01*
G01*
G37*
G36*
G01*
X206952001Y-111074000D02*
X206051999Y-111074000D01*
G75*
G02*
X205802000Y-110824001I0J249999D01*
G01*
X205802000Y-110123999D01*
G75*
G02*
X206051999Y-109874000I249999J0D01*
G01*
X206952001Y-109874000D01*
G75*
G02*
X207202000Y-110123999I0J-249999D01*
G01*
X207202000Y-110824001D01*
G75*
G02*
X206952001Y-111074000I-249999J0D01*
G01*
G37*
G04 #@! TD*
G04 #@! TO.C,R34*
G36*
G01*
X202622999Y-109874000D02*
X203523001Y-109874000D01*
G75*
G02*
X203773000Y-110123999I0J-249999D01*
G01*
X203773000Y-110824001D01*
G75*
G02*
X203523001Y-111074000I-249999J0D01*
G01*
X202622999Y-111074000D01*
G75*
G02*
X202373000Y-110824001I0J249999D01*
G01*
X202373000Y-110123999D01*
G75*
G02*
X202622999Y-109874000I249999J0D01*
G01*
G37*
G36*
G01*
X202622999Y-107874000D02*
X203523001Y-107874000D01*
G75*
G02*
X203773000Y-108123999I0J-249999D01*
G01*
X203773000Y-108824001D01*
G75*
G02*
X203523001Y-109074000I-249999J0D01*
G01*
X202622999Y-109074000D01*
G75*
G02*
X202373000Y-108824001I0J249999D01*
G01*
X202373000Y-108123999D01*
G75*
G02*
X202622999Y-107874000I249999J0D01*
G01*
G37*
G04 #@! TD*
G04 #@! TO.C,R33*
G36*
G01*
X218377000Y-111153001D02*
X218377000Y-108302999D01*
G75*
G02*
X218626999Y-108053000I249999J0D01*
G01*
X219527001Y-108053000D01*
G75*
G02*
X219777000Y-108302999I0J-249999D01*
G01*
X219777000Y-111153001D01*
G75*
G02*
X219527001Y-111403000I-249999J0D01*
G01*
X218626999Y-111403000D01*
G75*
G02*
X218377000Y-111153001I0J249999D01*
G01*
G37*
G36*
G01*
X212277000Y-111153001D02*
X212277000Y-108302999D01*
G75*
G02*
X212526999Y-108053000I249999J0D01*
G01*
X213427001Y-108053000D01*
G75*
G02*
X213677000Y-108302999I0J-249999D01*
G01*
X213677000Y-111153001D01*
G75*
G02*
X213427001Y-111403000I-249999J0D01*
G01*
X212526999Y-111403000D01*
G75*
G02*
X212277000Y-111153001I0J249999D01*
G01*
G37*
G04 #@! TD*
G04 #@! TO.C,R32*
G36*
G01*
X177019000Y-116008999D02*
X177019000Y-116909001D01*
G75*
G02*
X176769001Y-117159000I-249999J0D01*
G01*
X176068999Y-117159000D01*
G75*
G02*
X175819000Y-116909001I0J249999D01*
G01*
X175819000Y-116008999D01*
G75*
G02*
X176068999Y-115759000I249999J0D01*
G01*
X176769001Y-115759000D01*
G75*
G02*
X177019000Y-116008999I0J-249999D01*
G01*
G37*
G36*
G01*
X179019000Y-116008999D02*
X179019000Y-116909001D01*
G75*
G02*
X178769001Y-117159000I-249999J0D01*
G01*
X178068999Y-117159000D01*
G75*
G02*
X177819000Y-116909001I0J249999D01*
G01*
X177819000Y-116008999D01*
G75*
G02*
X178068999Y-115759000I249999J0D01*
G01*
X178769001Y-115759000D01*
G75*
G02*
X179019000Y-116008999I0J-249999D01*
G01*
G37*
G04 #@! TD*
G04 #@! TO.C,R31*
G36*
G01*
X181092000Y-116008999D02*
X181092000Y-116909001D01*
G75*
G02*
X180842001Y-117159000I-249999J0D01*
G01*
X180141999Y-117159000D01*
G75*
G02*
X179892000Y-116909001I0J249999D01*
G01*
X179892000Y-116008999D01*
G75*
G02*
X180141999Y-115759000I249999J0D01*
G01*
X180842001Y-115759000D01*
G75*
G02*
X181092000Y-116008999I0J-249999D01*
G01*
G37*
G36*
G01*
X183092000Y-116008999D02*
X183092000Y-116909001D01*
G75*
G02*
X182842001Y-117159000I-249999J0D01*
G01*
X182141999Y-117159000D01*
G75*
G02*
X181892000Y-116909001I0J249999D01*
G01*
X181892000Y-116008999D01*
G75*
G02*
X182141999Y-115759000I249999J0D01*
G01*
X182842001Y-115759000D01*
G75*
G02*
X183092000Y-116008999I0J-249999D01*
G01*
G37*
G04 #@! TD*
G04 #@! TO.C,R30*
G36*
G01*
X201999001Y-95205600D02*
X201098999Y-95205600D01*
G75*
G02*
X200849000Y-94955601I0J249999D01*
G01*
X200849000Y-94255599D01*
G75*
G02*
X201098999Y-94005600I249999J0D01*
G01*
X201999001Y-94005600D01*
G75*
G02*
X202249000Y-94255599I0J-249999D01*
G01*
X202249000Y-94955601D01*
G75*
G02*
X201999001Y-95205600I-249999J0D01*
G01*
G37*
G36*
G01*
X201999001Y-97205600D02*
X201098999Y-97205600D01*
G75*
G02*
X200849000Y-96955601I0J249999D01*
G01*
X200849000Y-96255599D01*
G75*
G02*
X201098999Y-96005600I249999J0D01*
G01*
X201999001Y-96005600D01*
G75*
G02*
X202249000Y-96255599I0J-249999D01*
G01*
X202249000Y-96955601D01*
G75*
G02*
X201999001Y-97205600I-249999J0D01*
G01*
G37*
G04 #@! TD*
G04 #@! TO.C,R29*
G36*
G01*
X201999001Y-99396600D02*
X201098999Y-99396600D01*
G75*
G02*
X200849000Y-99146601I0J249999D01*
G01*
X200849000Y-98446599D01*
G75*
G02*
X201098999Y-98196600I249999J0D01*
G01*
X201999001Y-98196600D01*
G75*
G02*
X202249000Y-98446599I0J-249999D01*
G01*
X202249000Y-99146601D01*
G75*
G02*
X201999001Y-99396600I-249999J0D01*
G01*
G37*
G36*
G01*
X201999001Y-101396600D02*
X201098999Y-101396600D01*
G75*
G02*
X200849000Y-101146601I0J249999D01*
G01*
X200849000Y-100446599D01*
G75*
G02*
X201098999Y-100196600I249999J0D01*
G01*
X201999001Y-100196600D01*
G75*
G02*
X202249000Y-100446599I0J-249999D01*
G01*
X202249000Y-101146601D01*
G75*
G02*
X201999001Y-101396600I-249999J0D01*
G01*
G37*
G04 #@! TD*
G04 #@! TO.C,R27*
G36*
G01*
X205732801Y-95231000D02*
X204832799Y-95231000D01*
G75*
G02*
X204582800Y-94981001I0J249999D01*
G01*
X204582800Y-94280999D01*
G75*
G02*
X204832799Y-94031000I249999J0D01*
G01*
X205732801Y-94031000D01*
G75*
G02*
X205982800Y-94280999I0J-249999D01*
G01*
X205982800Y-94981001D01*
G75*
G02*
X205732801Y-95231000I-249999J0D01*
G01*
G37*
G36*
G01*
X205732801Y-97231000D02*
X204832799Y-97231000D01*
G75*
G02*
X204582800Y-96981001I0J249999D01*
G01*
X204582800Y-96280999D01*
G75*
G02*
X204832799Y-96031000I249999J0D01*
G01*
X205732801Y-96031000D01*
G75*
G02*
X205982800Y-96280999I0J-249999D01*
G01*
X205982800Y-96981001D01*
G75*
G02*
X205732801Y-97231000I-249999J0D01*
G01*
G37*
G04 #@! TD*
G04 #@! TO.C,R18*
G36*
G01*
X170999999Y-94094500D02*
X171900001Y-94094500D01*
G75*
G02*
X172150000Y-94344499I0J-249999D01*
G01*
X172150000Y-95044501D01*
G75*
G02*
X171900001Y-95294500I-249999J0D01*
G01*
X170999999Y-95294500D01*
G75*
G02*
X170750000Y-95044501I0J249999D01*
G01*
X170750000Y-94344499D01*
G75*
G02*
X170999999Y-94094500I249999J0D01*
G01*
G37*
G36*
G01*
X170999999Y-96094500D02*
X171900001Y-96094500D01*
G75*
G02*
X172150000Y-96344499I0J-249999D01*
G01*
X172150000Y-97044501D01*
G75*
G02*
X171900001Y-97294500I-249999J0D01*
G01*
X170999999Y-97294500D01*
G75*
G02*
X170750000Y-97044501I0J249999D01*
G01*
X170750000Y-96344499D01*
G75*
G02*
X170999999Y-96094500I249999J0D01*
G01*
G37*
G04 #@! TD*
G04 #@! TO.C,R16*
G36*
G01*
X151371800Y-105311001D02*
X151371800Y-102460999D01*
G75*
G02*
X151621799Y-102211000I249999J0D01*
G01*
X152521801Y-102211000D01*
G75*
G02*
X152771800Y-102460999I0J-249999D01*
G01*
X152771800Y-105311001D01*
G75*
G02*
X152521801Y-105561000I-249999J0D01*
G01*
X151621799Y-105561000D01*
G75*
G02*
X151371800Y-105311001I0J249999D01*
G01*
G37*
G36*
G01*
X145271800Y-105311001D02*
X145271800Y-102460999D01*
G75*
G02*
X145521799Y-102211000I249999J0D01*
G01*
X146421801Y-102211000D01*
G75*
G02*
X146671800Y-102460999I0J-249999D01*
G01*
X146671800Y-105311001D01*
G75*
G02*
X146421801Y-105561000I-249999J0D01*
G01*
X145521799Y-105561000D01*
G75*
G02*
X145271800Y-105311001I0J249999D01*
G01*
G37*
G04 #@! TD*
G04 #@! TO.C,R15*
G36*
G01*
X213048001Y-73006000D02*
X212147999Y-73006000D01*
G75*
G02*
X211898000Y-72756001I0J249999D01*
G01*
X211898000Y-72055999D01*
G75*
G02*
X212147999Y-71806000I249999J0D01*
G01*
X213048001Y-71806000D01*
G75*
G02*
X213298000Y-72055999I0J-249999D01*
G01*
X213298000Y-72756001D01*
G75*
G02*
X213048001Y-73006000I-249999J0D01*
G01*
G37*
G36*
G01*
X213048001Y-75006000D02*
X212147999Y-75006000D01*
G75*
G02*
X211898000Y-74756001I0J249999D01*
G01*
X211898000Y-74055999D01*
G75*
G02*
X212147999Y-73806000I249999J0D01*
G01*
X213048001Y-73806000D01*
G75*
G02*
X213298000Y-74055999I0J-249999D01*
G01*
X213298000Y-74756001D01*
G75*
G02*
X213048001Y-75006000I-249999J0D01*
G01*
G37*
G04 #@! TD*
G04 #@! TO.C,R14*
G36*
G01*
X216350001Y-73006000D02*
X215449999Y-73006000D01*
G75*
G02*
X215200000Y-72756001I0J249999D01*
G01*
X215200000Y-72055999D01*
G75*
G02*
X215449999Y-71806000I249999J0D01*
G01*
X216350001Y-71806000D01*
G75*
G02*
X216600000Y-72055999I0J-249999D01*
G01*
X216600000Y-72756001D01*
G75*
G02*
X216350001Y-73006000I-249999J0D01*
G01*
G37*
G36*
G01*
X216350001Y-75006000D02*
X215449999Y-75006000D01*
G75*
G02*
X215200000Y-74756001I0J249999D01*
G01*
X215200000Y-74055999D01*
G75*
G02*
X215449999Y-73806000I249999J0D01*
G01*
X216350001Y-73806000D01*
G75*
G02*
X216600000Y-74055999I0J-249999D01*
G01*
X216600000Y-74756001D01*
G75*
G02*
X216350001Y-75006000I-249999J0D01*
G01*
G37*
G04 #@! TD*
G04 #@! TO.C,R13*
G36*
G01*
X186950300Y-92525001D02*
X186950300Y-91624999D01*
G75*
G02*
X187200299Y-91375000I249999J0D01*
G01*
X187900301Y-91375000D01*
G75*
G02*
X188150300Y-91624999I0J-249999D01*
G01*
X188150300Y-92525001D01*
G75*
G02*
X187900301Y-92775000I-249999J0D01*
G01*
X187200299Y-92775000D01*
G75*
G02*
X186950300Y-92525001I0J249999D01*
G01*
G37*
G36*
G01*
X184950300Y-92525001D02*
X184950300Y-91624999D01*
G75*
G02*
X185200299Y-91375000I249999J0D01*
G01*
X185900301Y-91375000D01*
G75*
G02*
X186150300Y-91624999I0J-249999D01*
G01*
X186150300Y-92525001D01*
G75*
G02*
X185900301Y-92775000I-249999J0D01*
G01*
X185200299Y-92775000D01*
G75*
G02*
X184950300Y-92525001I0J249999D01*
G01*
G37*
G04 #@! TD*
G04 #@! TO.C,R10*
G36*
G01*
X186950300Y-94557001D02*
X186950300Y-93656999D01*
G75*
G02*
X187200299Y-93407000I249999J0D01*
G01*
X187900301Y-93407000D01*
G75*
G02*
X188150300Y-93656999I0J-249999D01*
G01*
X188150300Y-94557001D01*
G75*
G02*
X187900301Y-94807000I-249999J0D01*
G01*
X187200299Y-94807000D01*
G75*
G02*
X186950300Y-94557001I0J249999D01*
G01*
G37*
G36*
G01*
X184950300Y-94557001D02*
X184950300Y-93656999D01*
G75*
G02*
X185200299Y-93407000I249999J0D01*
G01*
X185900301Y-93407000D01*
G75*
G02*
X186150300Y-93656999I0J-249999D01*
G01*
X186150300Y-94557001D01*
G75*
G02*
X185900301Y-94807000I-249999J0D01*
G01*
X185200299Y-94807000D01*
G75*
G02*
X184950300Y-94557001I0J249999D01*
G01*
G37*
G04 #@! TD*
G04 #@! TO.C,R3*
G36*
G01*
X157372000Y-119322001D02*
X157372000Y-118421999D01*
G75*
G02*
X157621999Y-118172000I249999J0D01*
G01*
X158322001Y-118172000D01*
G75*
G02*
X158572000Y-118421999I0J-249999D01*
G01*
X158572000Y-119322001D01*
G75*
G02*
X158322001Y-119572000I-249999J0D01*
G01*
X157621999Y-119572000D01*
G75*
G02*
X157372000Y-119322001I0J249999D01*
G01*
G37*
G36*
G01*
X155372000Y-119322001D02*
X155372000Y-118421999D01*
G75*
G02*
X155621999Y-118172000I249999J0D01*
G01*
X156322001Y-118172000D01*
G75*
G02*
X156572000Y-118421999I0J-249999D01*
G01*
X156572000Y-119322001D01*
G75*
G02*
X156322001Y-119572000I-249999J0D01*
G01*
X155621999Y-119572000D01*
G75*
G02*
X155372000Y-119322001I0J249999D01*
G01*
G37*
G04 #@! TD*
G04 #@! TO.C,R2*
G36*
G01*
X173463000Y-118421999D02*
X173463000Y-119322001D01*
G75*
G02*
X173213001Y-119572000I-249999J0D01*
G01*
X172512999Y-119572000D01*
G75*
G02*
X172263000Y-119322001I0J249999D01*
G01*
X172263000Y-118421999D01*
G75*
G02*
X172512999Y-118172000I249999J0D01*
G01*
X173213001Y-118172000D01*
G75*
G02*
X173463000Y-118421999I0J-249999D01*
G01*
G37*
G36*
G01*
X175463000Y-118421999D02*
X175463000Y-119322001D01*
G75*
G02*
X175213001Y-119572000I-249999J0D01*
G01*
X174512999Y-119572000D01*
G75*
G02*
X174263000Y-119322001I0J249999D01*
G01*
X174263000Y-118421999D01*
G75*
G02*
X174512999Y-118172000I249999J0D01*
G01*
X175213001Y-118172000D01*
G75*
G02*
X175463000Y-118421999I0J-249999D01*
G01*
G37*
G04 #@! TD*
G04 #@! TO.C,R1*
G36*
G01*
X160636000Y-80575999D02*
X160636000Y-81476001D01*
G75*
G02*
X160386001Y-81726000I-249999J0D01*
G01*
X159685999Y-81726000D01*
G75*
G02*
X159436000Y-81476001I0J249999D01*
G01*
X159436000Y-80575999D01*
G75*
G02*
X159685999Y-80326000I249999J0D01*
G01*
X160386001Y-80326000D01*
G75*
G02*
X160636000Y-80575999I0J-249999D01*
G01*
G37*
G36*
G01*
X162636000Y-80575999D02*
X162636000Y-81476001D01*
G75*
G02*
X162386001Y-81726000I-249999J0D01*
G01*
X161685999Y-81726000D01*
G75*
G02*
X161436000Y-81476001I0J249999D01*
G01*
X161436000Y-80575999D01*
G75*
G02*
X161685999Y-80326000I249999J0D01*
G01*
X162386001Y-80326000D01*
G75*
G02*
X162636000Y-80575999I0J-249999D01*
G01*
G37*
G04 #@! TD*
G04 #@! TO.C,C41*
G36*
G01*
X145219400Y-99484600D02*
X146169400Y-99484600D01*
G75*
G02*
X146419400Y-99734600I0J-250000D01*
G01*
X146419400Y-100409600D01*
G75*
G02*
X146169400Y-100659600I-250000J0D01*
G01*
X145219400Y-100659600D01*
G75*
G02*
X144969400Y-100409600I0J250000D01*
G01*
X144969400Y-99734600D01*
G75*
G02*
X145219400Y-99484600I250000J0D01*
G01*
G37*
G36*
G01*
X145219400Y-97409600D02*
X146169400Y-97409600D01*
G75*
G02*
X146419400Y-97659600I0J-250000D01*
G01*
X146419400Y-98334600D01*
G75*
G02*
X146169400Y-98584600I-250000J0D01*
G01*
X145219400Y-98584600D01*
G75*
G02*
X144969400Y-98334600I0J250000D01*
G01*
X144969400Y-97659600D01*
G75*
G02*
X145219400Y-97409600I250000J0D01*
G01*
G37*
G04 #@! TD*
G04 #@! TO.C,C40*
G36*
G01*
X151899600Y-99459200D02*
X152849600Y-99459200D01*
G75*
G02*
X153099600Y-99709200I0J-250000D01*
G01*
X153099600Y-100384200D01*
G75*
G02*
X152849600Y-100634200I-250000J0D01*
G01*
X151899600Y-100634200D01*
G75*
G02*
X151649600Y-100384200I0J250000D01*
G01*
X151649600Y-99709200D01*
G75*
G02*
X151899600Y-99459200I250000J0D01*
G01*
G37*
G36*
G01*
X151899600Y-97384200D02*
X152849600Y-97384200D01*
G75*
G02*
X153099600Y-97634200I0J-250000D01*
G01*
X153099600Y-98309200D01*
G75*
G02*
X152849600Y-98559200I-250000J0D01*
G01*
X151899600Y-98559200D01*
G75*
G02*
X151649600Y-98309200I0J250000D01*
G01*
X151649600Y-97634200D01*
G75*
G02*
X151899600Y-97384200I250000J0D01*
G01*
G37*
G04 #@! TD*
G04 #@! TO.C,C39*
G36*
G01*
X186113000Y-81757500D02*
X186113000Y-82707500D01*
G75*
G02*
X185863000Y-82957500I-250000J0D01*
G01*
X185188000Y-82957500D01*
G75*
G02*
X184938000Y-82707500I0J250000D01*
G01*
X184938000Y-81757500D01*
G75*
G02*
X185188000Y-81507500I250000J0D01*
G01*
X185863000Y-81507500D01*
G75*
G02*
X186113000Y-81757500I0J-250000D01*
G01*
G37*
G36*
G01*
X188188000Y-81757500D02*
X188188000Y-82707500D01*
G75*
G02*
X187938000Y-82957500I-250000J0D01*
G01*
X187263000Y-82957500D01*
G75*
G02*
X187013000Y-82707500I0J250000D01*
G01*
X187013000Y-81757500D01*
G75*
G02*
X187263000Y-81507500I250000J0D01*
G01*
X187938000Y-81507500D01*
G75*
G02*
X188188000Y-81757500I0J-250000D01*
G01*
G37*
G04 #@! TD*
G04 #@! TO.C,C38*
G36*
G01*
X219879997Y-119137000D02*
X222080003Y-119137000D01*
G75*
G02*
X222330000Y-119386997I0J-249997D01*
G01*
X222330000Y-120212003D01*
G75*
G02*
X222080003Y-120462000I-249997J0D01*
G01*
X219879997Y-120462000D01*
G75*
G02*
X219630000Y-120212003I0J249997D01*
G01*
X219630000Y-119386997D01*
G75*
G02*
X219879997Y-119137000I249997J0D01*
G01*
G37*
G36*
G01*
X219879997Y-116012000D02*
X222080003Y-116012000D01*
G75*
G02*
X222330000Y-116261997I0J-249997D01*
G01*
X222330000Y-117087003D01*
G75*
G02*
X222080003Y-117337000I-249997J0D01*
G01*
X219879997Y-117337000D01*
G75*
G02*
X219630000Y-117087003I0J249997D01*
G01*
X219630000Y-116261997D01*
G75*
G02*
X219879997Y-116012000I249997J0D01*
G01*
G37*
G04 #@! TD*
G04 #@! TO.C,C37*
G36*
G01*
X209202000Y-109924000D02*
X210152000Y-109924000D01*
G75*
G02*
X210402000Y-110174000I0J-250000D01*
G01*
X210402000Y-110849000D01*
G75*
G02*
X210152000Y-111099000I-250000J0D01*
G01*
X209202000Y-111099000D01*
G75*
G02*
X208952000Y-110849000I0J250000D01*
G01*
X208952000Y-110174000D01*
G75*
G02*
X209202000Y-109924000I250000J0D01*
G01*
G37*
G36*
G01*
X209202000Y-107849000D02*
X210152000Y-107849000D01*
G75*
G02*
X210402000Y-108099000I0J-250000D01*
G01*
X210402000Y-108774000D01*
G75*
G02*
X210152000Y-109024000I-250000J0D01*
G01*
X209202000Y-109024000D01*
G75*
G02*
X208952000Y-108774000I0J250000D01*
G01*
X208952000Y-108099000D01*
G75*
G02*
X209202000Y-107849000I250000J0D01*
G01*
G37*
G04 #@! TD*
G04 #@! TO.C,C36*
G36*
G01*
X196182000Y-83370000D02*
X195232000Y-83370000D01*
G75*
G02*
X194982000Y-83120000I0J250000D01*
G01*
X194982000Y-82445000D01*
G75*
G02*
X195232000Y-82195000I250000J0D01*
G01*
X196182000Y-82195000D01*
G75*
G02*
X196432000Y-82445000I0J-250000D01*
G01*
X196432000Y-83120000D01*
G75*
G02*
X196182000Y-83370000I-250000J0D01*
G01*
G37*
G36*
G01*
X196182000Y-85445000D02*
X195232000Y-85445000D01*
G75*
G02*
X194982000Y-85195000I0J250000D01*
G01*
X194982000Y-84520000D01*
G75*
G02*
X195232000Y-84270000I250000J0D01*
G01*
X196182000Y-84270000D01*
G75*
G02*
X196432000Y-84520000I0J-250000D01*
G01*
X196432000Y-85195000D01*
G75*
G02*
X196182000Y-85445000I-250000J0D01*
G01*
G37*
G04 #@! TD*
G04 #@! TO.C,C33*
G36*
G01*
X194706003Y-112130000D02*
X193405997Y-112130000D01*
G75*
G02*
X193156000Y-111880003I0J249997D01*
G01*
X193156000Y-111054997D01*
G75*
G02*
X193405997Y-110805000I249997J0D01*
G01*
X194706003Y-110805000D01*
G75*
G02*
X194956000Y-111054997I0J-249997D01*
G01*
X194956000Y-111880003D01*
G75*
G02*
X194706003Y-112130000I-249997J0D01*
G01*
G37*
G36*
G01*
X194706003Y-115255000D02*
X193405997Y-115255000D01*
G75*
G02*
X193156000Y-115005003I0J249997D01*
G01*
X193156000Y-114179997D01*
G75*
G02*
X193405997Y-113930000I249997J0D01*
G01*
X194706003Y-113930000D01*
G75*
G02*
X194956000Y-114179997I0J-249997D01*
G01*
X194956000Y-115005003D01*
G75*
G02*
X194706003Y-115255000I-249997J0D01*
G01*
G37*
G04 #@! TD*
G04 #@! TO.C,C32*
G36*
G01*
X224906000Y-83931997D02*
X224906000Y-85232003D01*
G75*
G02*
X224656003Y-85482000I-249997J0D01*
G01*
X223830997Y-85482000D01*
G75*
G02*
X223581000Y-85232003I0J249997D01*
G01*
X223581000Y-83931997D01*
G75*
G02*
X223830997Y-83682000I249997J0D01*
G01*
X224656003Y-83682000D01*
G75*
G02*
X224906000Y-83931997I0J-249997D01*
G01*
G37*
G36*
G01*
X228031000Y-83931997D02*
X228031000Y-85232003D01*
G75*
G02*
X227781003Y-85482000I-249997J0D01*
G01*
X226955997Y-85482000D01*
G75*
G02*
X226706000Y-85232003I0J249997D01*
G01*
X226706000Y-83931997D01*
G75*
G02*
X226955997Y-83682000I249997J0D01*
G01*
X227781003Y-83682000D01*
G75*
G02*
X228031000Y-83931997I0J-249997D01*
G01*
G37*
G04 #@! TD*
G04 #@! TO.C,C31*
G36*
G01*
X202024000Y-103563000D02*
X201074000Y-103563000D01*
G75*
G02*
X200824000Y-103313000I0J250000D01*
G01*
X200824000Y-102638000D01*
G75*
G02*
X201074000Y-102388000I250000J0D01*
G01*
X202024000Y-102388000D01*
G75*
G02*
X202274000Y-102638000I0J-250000D01*
G01*
X202274000Y-103313000D01*
G75*
G02*
X202024000Y-103563000I-250000J0D01*
G01*
G37*
G36*
G01*
X202024000Y-105638000D02*
X201074000Y-105638000D01*
G75*
G02*
X200824000Y-105388000I0J250000D01*
G01*
X200824000Y-104713000D01*
G75*
G02*
X201074000Y-104463000I250000J0D01*
G01*
X202024000Y-104463000D01*
G75*
G02*
X202274000Y-104713000I0J-250000D01*
G01*
X202274000Y-105388000D01*
G75*
G02*
X202024000Y-105638000I-250000J0D01*
G01*
G37*
G04 #@! TD*
G04 #@! TO.C,C29*
G36*
G01*
X168090000Y-99789000D02*
X168090000Y-98839000D01*
G75*
G02*
X168340000Y-98589000I250000J0D01*
G01*
X169015000Y-98589000D01*
G75*
G02*
X169265000Y-98839000I0J-250000D01*
G01*
X169265000Y-99789000D01*
G75*
G02*
X169015000Y-100039000I-250000J0D01*
G01*
X168340000Y-100039000D01*
G75*
G02*
X168090000Y-99789000I0J250000D01*
G01*
G37*
G36*
G01*
X166015000Y-99789000D02*
X166015000Y-98839000D01*
G75*
G02*
X166265000Y-98589000I250000J0D01*
G01*
X166940000Y-98589000D01*
G75*
G02*
X167190000Y-98839000I0J-250000D01*
G01*
X167190000Y-99789000D01*
G75*
G02*
X166940000Y-100039000I-250000J0D01*
G01*
X166265000Y-100039000D01*
G75*
G02*
X166015000Y-99789000I0J250000D01*
G01*
G37*
G04 #@! TD*
G04 #@! TO.C,C28*
G36*
G01*
X178264800Y-107892000D02*
X179214800Y-107892000D01*
G75*
G02*
X179464800Y-108142000I0J-250000D01*
G01*
X179464800Y-108817000D01*
G75*
G02*
X179214800Y-109067000I-250000J0D01*
G01*
X178264800Y-109067000D01*
G75*
G02*
X178014800Y-108817000I0J250000D01*
G01*
X178014800Y-108142000D01*
G75*
G02*
X178264800Y-107892000I250000J0D01*
G01*
G37*
G36*
G01*
X178264800Y-105817000D02*
X179214800Y-105817000D01*
G75*
G02*
X179464800Y-106067000I0J-250000D01*
G01*
X179464800Y-106742000D01*
G75*
G02*
X179214800Y-106992000I-250000J0D01*
G01*
X178264800Y-106992000D01*
G75*
G02*
X178014800Y-106742000I0J250000D01*
G01*
X178014800Y-106067000D01*
G75*
G02*
X178264800Y-105817000I250000J0D01*
G01*
G37*
G04 #@! TD*
G04 #@! TO.C,C26*
G36*
G01*
X180423800Y-107892000D02*
X181373800Y-107892000D01*
G75*
G02*
X181623800Y-108142000I0J-250000D01*
G01*
X181623800Y-108817000D01*
G75*
G02*
X181373800Y-109067000I-250000J0D01*
G01*
X180423800Y-109067000D01*
G75*
G02*
X180173800Y-108817000I0J250000D01*
G01*
X180173800Y-108142000D01*
G75*
G02*
X180423800Y-107892000I250000J0D01*
G01*
G37*
G36*
G01*
X180423800Y-105817000D02*
X181373800Y-105817000D01*
G75*
G02*
X181623800Y-106067000I0J-250000D01*
G01*
X181623800Y-106742000D01*
G75*
G02*
X181373800Y-106992000I-250000J0D01*
G01*
X180423800Y-106992000D01*
G75*
G02*
X180173800Y-106742000I0J250000D01*
G01*
X180173800Y-106067000D01*
G75*
G02*
X180423800Y-105817000I250000J0D01*
G01*
G37*
G04 #@! TD*
G04 #@! TO.C,C24*
G36*
G01*
X157894000Y-109162000D02*
X158844000Y-109162000D01*
G75*
G02*
X159094000Y-109412000I0J-250000D01*
G01*
X159094000Y-110087000D01*
G75*
G02*
X158844000Y-110337000I-250000J0D01*
G01*
X157894000Y-110337000D01*
G75*
G02*
X157644000Y-110087000I0J250000D01*
G01*
X157644000Y-109412000D01*
G75*
G02*
X157894000Y-109162000I250000J0D01*
G01*
G37*
G36*
G01*
X157894000Y-107087000D02*
X158844000Y-107087000D01*
G75*
G02*
X159094000Y-107337000I0J-250000D01*
G01*
X159094000Y-108012000D01*
G75*
G02*
X158844000Y-108262000I-250000J0D01*
G01*
X157894000Y-108262000D01*
G75*
G02*
X157644000Y-108012000I0J250000D01*
G01*
X157644000Y-107337000D01*
G75*
G02*
X157894000Y-107087000I250000J0D01*
G01*
G37*
G04 #@! TD*
G04 #@! TO.C,C23*
G36*
G01*
X162375000Y-95725000D02*
X162375000Y-94775000D01*
G75*
G02*
X162625000Y-94525000I250000J0D01*
G01*
X163300000Y-94525000D01*
G75*
G02*
X163550000Y-94775000I0J-250000D01*
G01*
X163550000Y-95725000D01*
G75*
G02*
X163300000Y-95975000I-250000J0D01*
G01*
X162625000Y-95975000D01*
G75*
G02*
X162375000Y-95725000I0J250000D01*
G01*
G37*
G36*
G01*
X160300000Y-95725000D02*
X160300000Y-94775000D01*
G75*
G02*
X160550000Y-94525000I250000J0D01*
G01*
X161225000Y-94525000D01*
G75*
G02*
X161475000Y-94775000I0J-250000D01*
G01*
X161475000Y-95725000D01*
G75*
G02*
X161225000Y-95975000I-250000J0D01*
G01*
X160550000Y-95975000D01*
G75*
G02*
X160300000Y-95725000I0J250000D01*
G01*
G37*
G04 #@! TD*
G04 #@! TO.C,C21*
G36*
G01*
X208770200Y-81730000D02*
X209720200Y-81730000D01*
G75*
G02*
X209970200Y-81980000I0J-250000D01*
G01*
X209970200Y-82655000D01*
G75*
G02*
X209720200Y-82905000I-250000J0D01*
G01*
X208770200Y-82905000D01*
G75*
G02*
X208520200Y-82655000I0J250000D01*
G01*
X208520200Y-81980000D01*
G75*
G02*
X208770200Y-81730000I250000J0D01*
G01*
G37*
G36*
G01*
X208770200Y-79655000D02*
X209720200Y-79655000D01*
G75*
G02*
X209970200Y-79905000I0J-250000D01*
G01*
X209970200Y-80580000D01*
G75*
G02*
X209720200Y-80830000I-250000J0D01*
G01*
X208770200Y-80830000D01*
G75*
G02*
X208520200Y-80580000I0J250000D01*
G01*
X208520200Y-79905000D01*
G75*
G02*
X208770200Y-79655000I250000J0D01*
G01*
G37*
G04 #@! TD*
G04 #@! TO.C,C20*
G36*
G01*
X222791000Y-80714000D02*
X223741000Y-80714000D01*
G75*
G02*
X223991000Y-80964000I0J-250000D01*
G01*
X223991000Y-81639000D01*
G75*
G02*
X223741000Y-81889000I-250000J0D01*
G01*
X222791000Y-81889000D01*
G75*
G02*
X222541000Y-81639000I0J250000D01*
G01*
X222541000Y-80964000D01*
G75*
G02*
X222791000Y-80714000I250000J0D01*
G01*
G37*
G36*
G01*
X222791000Y-78639000D02*
X223741000Y-78639000D01*
G75*
G02*
X223991000Y-78889000I0J-250000D01*
G01*
X223991000Y-79564000D01*
G75*
G02*
X223741000Y-79814000I-250000J0D01*
G01*
X222791000Y-79814000D01*
G75*
G02*
X222541000Y-79564000I0J250000D01*
G01*
X222541000Y-78889000D01*
G75*
G02*
X222791000Y-78639000I250000J0D01*
G01*
G37*
G04 #@! TD*
G04 #@! TO.C,C19*
G36*
G01*
X220632000Y-80714000D02*
X221582000Y-80714000D01*
G75*
G02*
X221832000Y-80964000I0J-250000D01*
G01*
X221832000Y-81639000D01*
G75*
G02*
X221582000Y-81889000I-250000J0D01*
G01*
X220632000Y-81889000D01*
G75*
G02*
X220382000Y-81639000I0J250000D01*
G01*
X220382000Y-80964000D01*
G75*
G02*
X220632000Y-80714000I250000J0D01*
G01*
G37*
G36*
G01*
X220632000Y-78639000D02*
X221582000Y-78639000D01*
G75*
G02*
X221832000Y-78889000I0J-250000D01*
G01*
X221832000Y-79564000D01*
G75*
G02*
X221582000Y-79814000I-250000J0D01*
G01*
X220632000Y-79814000D01*
G75*
G02*
X220382000Y-79564000I0J250000D01*
G01*
X220382000Y-78889000D01*
G75*
G02*
X220632000Y-78639000I250000J0D01*
G01*
G37*
G04 #@! TD*
G04 #@! TO.C,C18*
G36*
G01*
X162375000Y-97858600D02*
X162375000Y-96908600D01*
G75*
G02*
X162625000Y-96658600I250000J0D01*
G01*
X163300000Y-96658600D01*
G75*
G02*
X163550000Y-96908600I0J-250000D01*
G01*
X163550000Y-97858600D01*
G75*
G02*
X163300000Y-98108600I-250000J0D01*
G01*
X162625000Y-98108600D01*
G75*
G02*
X162375000Y-97858600I0J250000D01*
G01*
G37*
G36*
G01*
X160300000Y-97858600D02*
X160300000Y-96908600D01*
G75*
G02*
X160550000Y-96658600I250000J0D01*
G01*
X161225000Y-96658600D01*
G75*
G02*
X161475000Y-96908600I0J-250000D01*
G01*
X161475000Y-97858600D01*
G75*
G02*
X161225000Y-98108600I-250000J0D01*
G01*
X160550000Y-98108600D01*
G75*
G02*
X160300000Y-97858600I0J250000D01*
G01*
G37*
G04 #@! TD*
G04 #@! TO.C,C17*
G36*
G01*
X186991500Y-90518000D02*
X186991500Y-89568000D01*
G75*
G02*
X187241500Y-89318000I250000J0D01*
G01*
X187916500Y-89318000D01*
G75*
G02*
X188166500Y-89568000I0J-250000D01*
G01*
X188166500Y-90518000D01*
G75*
G02*
X187916500Y-90768000I-250000J0D01*
G01*
X187241500Y-90768000D01*
G75*
G02*
X186991500Y-90518000I0J250000D01*
G01*
G37*
G36*
G01*
X184916500Y-90518000D02*
X184916500Y-89568000D01*
G75*
G02*
X185166500Y-89318000I250000J0D01*
G01*
X185841500Y-89318000D01*
G75*
G02*
X186091500Y-89568000I0J-250000D01*
G01*
X186091500Y-90518000D01*
G75*
G02*
X185841500Y-90768000I-250000J0D01*
G01*
X185166500Y-90768000D01*
G75*
G02*
X184916500Y-90518000I0J250000D01*
G01*
G37*
G04 #@! TD*
G04 #@! TO.C,C16*
G36*
G01*
X192717000Y-87409000D02*
X192717000Y-88359000D01*
G75*
G02*
X192467000Y-88609000I-250000J0D01*
G01*
X191792000Y-88609000D01*
G75*
G02*
X191542000Y-88359000I0J250000D01*
G01*
X191542000Y-87409000D01*
G75*
G02*
X191792000Y-87159000I250000J0D01*
G01*
X192467000Y-87159000D01*
G75*
G02*
X192717000Y-87409000I0J-250000D01*
G01*
G37*
G36*
G01*
X194792000Y-87409000D02*
X194792000Y-88359000D01*
G75*
G02*
X194542000Y-88609000I-250000J0D01*
G01*
X193867000Y-88609000D01*
G75*
G02*
X193617000Y-88359000I0J250000D01*
G01*
X193617000Y-87409000D01*
G75*
G02*
X193867000Y-87159000I250000J0D01*
G01*
X194542000Y-87159000D01*
G75*
G02*
X194792000Y-87409000I0J-250000D01*
G01*
G37*
G04 #@! TD*
G04 #@! TO.C,C15*
G36*
G01*
X187013000Y-96677500D02*
X187013000Y-95727500D01*
G75*
G02*
X187263000Y-95477500I250000J0D01*
G01*
X187938000Y-95477500D01*
G75*
G02*
X188188000Y-95727500I0J-250000D01*
G01*
X188188000Y-96677500D01*
G75*
G02*
X187938000Y-96927500I-250000J0D01*
G01*
X187263000Y-96927500D01*
G75*
G02*
X187013000Y-96677500I0J250000D01*
G01*
G37*
G36*
G01*
X184938000Y-96677500D02*
X184938000Y-95727500D01*
G75*
G02*
X185188000Y-95477500I250000J0D01*
G01*
X185863000Y-95477500D01*
G75*
G02*
X186113000Y-95727500I0J-250000D01*
G01*
X186113000Y-96677500D01*
G75*
G02*
X185863000Y-96927500I-250000J0D01*
G01*
X185188000Y-96927500D01*
G75*
G02*
X184938000Y-96677500I0J250000D01*
G01*
G37*
G04 #@! TD*
G04 #@! TO.C,C14*
G36*
G01*
X191764500Y-95600500D02*
X191764500Y-96550500D01*
G75*
G02*
X191514500Y-96800500I-250000J0D01*
G01*
X190839500Y-96800500D01*
G75*
G02*
X190589500Y-96550500I0J250000D01*
G01*
X190589500Y-95600500D01*
G75*
G02*
X190839500Y-95350500I250000J0D01*
G01*
X191514500Y-95350500D01*
G75*
G02*
X191764500Y-95600500I0J-250000D01*
G01*
G37*
G36*
G01*
X193839500Y-95600500D02*
X193839500Y-96550500D01*
G75*
G02*
X193589500Y-96800500I-250000J0D01*
G01*
X192914500Y-96800500D01*
G75*
G02*
X192664500Y-96550500I0J250000D01*
G01*
X192664500Y-95600500D01*
G75*
G02*
X192914500Y-95350500I250000J0D01*
G01*
X193589500Y-95350500D01*
G75*
G02*
X193839500Y-95600500I0J-250000D01*
G01*
G37*
G04 #@! TD*
G04 #@! TO.C,C12*
G36*
G01*
X174277000Y-87699000D02*
X175227000Y-87699000D01*
G75*
G02*
X175477000Y-87949000I0J-250000D01*
G01*
X175477000Y-88624000D01*
G75*
G02*
X175227000Y-88874000I-250000J0D01*
G01*
X174277000Y-88874000D01*
G75*
G02*
X174027000Y-88624000I0J250000D01*
G01*
X174027000Y-87949000D01*
G75*
G02*
X174277000Y-87699000I250000J0D01*
G01*
G37*
G36*
G01*
X174277000Y-85624000D02*
X175227000Y-85624000D01*
G75*
G02*
X175477000Y-85874000I0J-250000D01*
G01*
X175477000Y-86549000D01*
G75*
G02*
X175227000Y-86799000I-250000J0D01*
G01*
X174277000Y-86799000D01*
G75*
G02*
X174027000Y-86549000I0J250000D01*
G01*
X174027000Y-85874000D01*
G75*
G02*
X174277000Y-85624000I250000J0D01*
G01*
G37*
G04 #@! TD*
G04 #@! TO.C,C11*
G36*
G01*
X171864000Y-87699000D02*
X172814000Y-87699000D01*
G75*
G02*
X173064000Y-87949000I0J-250000D01*
G01*
X173064000Y-88624000D01*
G75*
G02*
X172814000Y-88874000I-250000J0D01*
G01*
X171864000Y-88874000D01*
G75*
G02*
X171614000Y-88624000I0J250000D01*
G01*
X171614000Y-87949000D01*
G75*
G02*
X171864000Y-87699000I250000J0D01*
G01*
G37*
G36*
G01*
X171864000Y-85624000D02*
X172814000Y-85624000D01*
G75*
G02*
X173064000Y-85874000I0J-250000D01*
G01*
X173064000Y-86549000D01*
G75*
G02*
X172814000Y-86799000I-250000J0D01*
G01*
X171864000Y-86799000D01*
G75*
G02*
X171614000Y-86549000I0J250000D01*
G01*
X171614000Y-85874000D01*
G75*
G02*
X171864000Y-85624000I250000J0D01*
G01*
G37*
G04 #@! TD*
G04 #@! TO.C,C10*
G36*
G01*
X181011500Y-81719400D02*
X181011500Y-82669400D01*
G75*
G02*
X180761500Y-82919400I-250000J0D01*
G01*
X180086500Y-82919400D01*
G75*
G02*
X179836500Y-82669400I0J250000D01*
G01*
X179836500Y-81719400D01*
G75*
G02*
X180086500Y-81469400I250000J0D01*
G01*
X180761500Y-81469400D01*
G75*
G02*
X181011500Y-81719400I0J-250000D01*
G01*
G37*
G36*
G01*
X183086500Y-81719400D02*
X183086500Y-82669400D01*
G75*
G02*
X182836500Y-82919400I-250000J0D01*
G01*
X182161500Y-82919400D01*
G75*
G02*
X181911500Y-82669400I0J250000D01*
G01*
X181911500Y-81719400D01*
G75*
G02*
X182161500Y-81469400I250000J0D01*
G01*
X182836500Y-81469400D01*
G75*
G02*
X183086500Y-81719400I0J-250000D01*
G01*
G37*
G04 #@! TD*
G04 #@! TO.C,C9*
G36*
G01*
X181109200Y-86621600D02*
X181109200Y-87571600D01*
G75*
G02*
X180859200Y-87821600I-250000J0D01*
G01*
X180184200Y-87821600D01*
G75*
G02*
X179934200Y-87571600I0J250000D01*
G01*
X179934200Y-86621600D01*
G75*
G02*
X180184200Y-86371600I250000J0D01*
G01*
X180859200Y-86371600D01*
G75*
G02*
X181109200Y-86621600I0J-250000D01*
G01*
G37*
G36*
G01*
X183184200Y-86621600D02*
X183184200Y-87571600D01*
G75*
G02*
X182934200Y-87821600I-250000J0D01*
G01*
X182259200Y-87821600D01*
G75*
G02*
X182009200Y-87571600I0J250000D01*
G01*
X182009200Y-86621600D01*
G75*
G02*
X182259200Y-86371600I250000J0D01*
G01*
X182934200Y-86371600D01*
G75*
G02*
X183184200Y-86621600I0J-250000D01*
G01*
G37*
G04 #@! TD*
G04 #@! TO.C,C8*
G36*
G01*
X184498000Y-76131000D02*
X183548000Y-76131000D01*
G75*
G02*
X183298000Y-75881000I0J250000D01*
G01*
X183298000Y-75206000D01*
G75*
G02*
X183548000Y-74956000I250000J0D01*
G01*
X184498000Y-74956000D01*
G75*
G02*
X184748000Y-75206000I0J-250000D01*
G01*
X184748000Y-75881000D01*
G75*
G02*
X184498000Y-76131000I-250000J0D01*
G01*
G37*
G36*
G01*
X184498000Y-78206000D02*
X183548000Y-78206000D01*
G75*
G02*
X183298000Y-77956000I0J250000D01*
G01*
X183298000Y-77281000D01*
G75*
G02*
X183548000Y-77031000I250000J0D01*
G01*
X184498000Y-77031000D01*
G75*
G02*
X184748000Y-77281000I0J-250000D01*
G01*
X184748000Y-77956000D01*
G75*
G02*
X184498000Y-78206000I-250000J0D01*
G01*
G37*
G04 #@! TD*
G04 #@! TO.C,C7*
G36*
G01*
X181958000Y-76122000D02*
X181008000Y-76122000D01*
G75*
G02*
X180758000Y-75872000I0J250000D01*
G01*
X180758000Y-75197000D01*
G75*
G02*
X181008000Y-74947000I250000J0D01*
G01*
X181958000Y-74947000D01*
G75*
G02*
X182208000Y-75197000I0J-250000D01*
G01*
X182208000Y-75872000D01*
G75*
G02*
X181958000Y-76122000I-250000J0D01*
G01*
G37*
G36*
G01*
X181958000Y-78197000D02*
X181008000Y-78197000D01*
G75*
G02*
X180758000Y-77947000I0J250000D01*
G01*
X180758000Y-77272000D01*
G75*
G02*
X181008000Y-77022000I250000J0D01*
G01*
X181958000Y-77022000D01*
G75*
G02*
X182208000Y-77272000I0J-250000D01*
G01*
X182208000Y-77947000D01*
G75*
G02*
X181958000Y-78197000I-250000J0D01*
G01*
G37*
G04 #@! TD*
G04 #@! TO.C,C6*
G36*
G01*
X164802400Y-82329000D02*
X164802400Y-83279000D01*
G75*
G02*
X164552400Y-83529000I-250000J0D01*
G01*
X163877400Y-83529000D01*
G75*
G02*
X163627400Y-83279000I0J250000D01*
G01*
X163627400Y-82329000D01*
G75*
G02*
X163877400Y-82079000I250000J0D01*
G01*
X164552400Y-82079000D01*
G75*
G02*
X164802400Y-82329000I0J-250000D01*
G01*
G37*
G36*
G01*
X166877400Y-82329000D02*
X166877400Y-83279000D01*
G75*
G02*
X166627400Y-83529000I-250000J0D01*
G01*
X165952400Y-83529000D01*
G75*
G02*
X165702400Y-83279000I0J250000D01*
G01*
X165702400Y-82329000D01*
G75*
G02*
X165952400Y-82079000I250000J0D01*
G01*
X166627400Y-82079000D01*
G75*
G02*
X166877400Y-82329000I0J-250000D01*
G01*
G37*
G04 #@! TD*
G04 #@! TO.C,C5*
G36*
G01*
X179418000Y-76131000D02*
X178468000Y-76131000D01*
G75*
G02*
X178218000Y-75881000I0J250000D01*
G01*
X178218000Y-75206000D01*
G75*
G02*
X178468000Y-74956000I250000J0D01*
G01*
X179418000Y-74956000D01*
G75*
G02*
X179668000Y-75206000I0J-250000D01*
G01*
X179668000Y-75881000D01*
G75*
G02*
X179418000Y-76131000I-250000J0D01*
G01*
G37*
G36*
G01*
X179418000Y-78206000D02*
X178468000Y-78206000D01*
G75*
G02*
X178218000Y-77956000I0J250000D01*
G01*
X178218000Y-77281000D01*
G75*
G02*
X178468000Y-77031000I250000J0D01*
G01*
X179418000Y-77031000D01*
G75*
G02*
X179668000Y-77281000I0J-250000D01*
G01*
X179668000Y-77956000D01*
G75*
G02*
X179418000Y-78206000I-250000J0D01*
G01*
G37*
G04 #@! TD*
G04 #@! TO.C,C4*
G36*
G01*
X176878000Y-76131000D02*
X175928000Y-76131000D01*
G75*
G02*
X175678000Y-75881000I0J250000D01*
G01*
X175678000Y-75206000D01*
G75*
G02*
X175928000Y-74956000I250000J0D01*
G01*
X176878000Y-74956000D01*
G75*
G02*
X177128000Y-75206000I0J-250000D01*
G01*
X177128000Y-75881000D01*
G75*
G02*
X176878000Y-76131000I-250000J0D01*
G01*
G37*
G36*
G01*
X176878000Y-78206000D02*
X175928000Y-78206000D01*
G75*
G02*
X175678000Y-77956000I0J250000D01*
G01*
X175678000Y-77281000D01*
G75*
G02*
X175928000Y-77031000I250000J0D01*
G01*
X176878000Y-77031000D01*
G75*
G02*
X177128000Y-77281000I0J-250000D01*
G01*
X177128000Y-77956000D01*
G75*
G02*
X176878000Y-78206000I-250000J0D01*
G01*
G37*
G04 #@! TD*
G04 #@! TO.C,C3*
G36*
G01*
X174211000Y-76131000D02*
X173261000Y-76131000D01*
G75*
G02*
X173011000Y-75881000I0J250000D01*
G01*
X173011000Y-75206000D01*
G75*
G02*
X173261000Y-74956000I250000J0D01*
G01*
X174211000Y-74956000D01*
G75*
G02*
X174461000Y-75206000I0J-250000D01*
G01*
X174461000Y-75881000D01*
G75*
G02*
X174211000Y-76131000I-250000J0D01*
G01*
G37*
G36*
G01*
X174211000Y-78206000D02*
X173261000Y-78206000D01*
G75*
G02*
X173011000Y-77956000I0J250000D01*
G01*
X173011000Y-77281000D01*
G75*
G02*
X173261000Y-77031000I250000J0D01*
G01*
X174211000Y-77031000D01*
G75*
G02*
X174461000Y-77281000I0J-250000D01*
G01*
X174461000Y-77956000D01*
G75*
G02*
X174211000Y-78206000I-250000J0D01*
G01*
G37*
G04 #@! TD*
G04 #@! TO.C,C2*
G36*
G01*
X162110000Y-118397000D02*
X162110000Y-119347000D01*
G75*
G02*
X161860000Y-119597000I-250000J0D01*
G01*
X161185000Y-119597000D01*
G75*
G02*
X160935000Y-119347000I0J250000D01*
G01*
X160935000Y-118397000D01*
G75*
G02*
X161185000Y-118147000I250000J0D01*
G01*
X161860000Y-118147000D01*
G75*
G02*
X162110000Y-118397000I0J-250000D01*
G01*
G37*
G36*
G01*
X164185000Y-118397000D02*
X164185000Y-119347000D01*
G75*
G02*
X163935000Y-119597000I-250000J0D01*
G01*
X163260000Y-119597000D01*
G75*
G02*
X163010000Y-119347000I0J250000D01*
G01*
X163010000Y-118397000D01*
G75*
G02*
X163260000Y-118147000I250000J0D01*
G01*
X163935000Y-118147000D01*
G75*
G02*
X164185000Y-118397000I0J-250000D01*
G01*
G37*
G04 #@! TD*
G04 #@! TO.C,C1*
G36*
G01*
X167444000Y-118397000D02*
X167444000Y-119347000D01*
G75*
G02*
X167194000Y-119597000I-250000J0D01*
G01*
X166519000Y-119597000D01*
G75*
G02*
X166269000Y-119347000I0J250000D01*
G01*
X166269000Y-118397000D01*
G75*
G02*
X166519000Y-118147000I250000J0D01*
G01*
X167194000Y-118147000D01*
G75*
G02*
X167444000Y-118397000I0J-250000D01*
G01*
G37*
G36*
G01*
X169519000Y-118397000D02*
X169519000Y-119347000D01*
G75*
G02*
X169269000Y-119597000I-250000J0D01*
G01*
X168594000Y-119597000D01*
G75*
G02*
X168344000Y-119347000I0J250000D01*
G01*
X168344000Y-118397000D01*
G75*
G02*
X168594000Y-118147000I250000J0D01*
G01*
X169269000Y-118147000D01*
G75*
G02*
X169519000Y-118397000I0J-250000D01*
G01*
G37*
G04 #@! TD*
D12*
G04 #@! TO.C,L1*
X168783000Y-105562400D03*
X172593000Y-105562400D03*
G04 #@! TD*
G04 #@! TO.C,C27*
G36*
G01*
X177030400Y-106966600D02*
X176080400Y-106966600D01*
G75*
G02*
X175830400Y-106716600I0J250000D01*
G01*
X175830400Y-106041600D01*
G75*
G02*
X176080400Y-105791600I250000J0D01*
G01*
X177030400Y-105791600D01*
G75*
G02*
X177280400Y-106041600I0J-250000D01*
G01*
X177280400Y-106716600D01*
G75*
G02*
X177030400Y-106966600I-250000J0D01*
G01*
G37*
G36*
G01*
X177030400Y-109041600D02*
X176080400Y-109041600D01*
G75*
G02*
X175830400Y-108791600I0J250000D01*
G01*
X175830400Y-108116600D01*
G75*
G02*
X176080400Y-107866600I250000J0D01*
G01*
X177030400Y-107866600D01*
G75*
G02*
X177280400Y-108116600I0J-250000D01*
G01*
X177280400Y-108791600D01*
G75*
G02*
X177030400Y-109041600I-250000J0D01*
G01*
G37*
G04 #@! TD*
G04 #@! TO.C,R44*
G36*
G01*
X148405001Y-98609200D02*
X147504999Y-98609200D01*
G75*
G02*
X147255000Y-98359201I0J249999D01*
G01*
X147255000Y-97659199D01*
G75*
G02*
X147504999Y-97409200I249999J0D01*
G01*
X148405001Y-97409200D01*
G75*
G02*
X148655000Y-97659199I0J-249999D01*
G01*
X148655000Y-98359201D01*
G75*
G02*
X148405001Y-98609200I-249999J0D01*
G01*
G37*
G36*
G01*
X148405001Y-100609200D02*
X147504999Y-100609200D01*
G75*
G02*
X147255000Y-100359201I0J249999D01*
G01*
X147255000Y-99659199D01*
G75*
G02*
X147504999Y-99409200I249999J0D01*
G01*
X148405001Y-99409200D01*
G75*
G02*
X148655000Y-99659199I0J-249999D01*
G01*
X148655000Y-100359201D01*
G75*
G02*
X148405001Y-100609200I-249999J0D01*
G01*
G37*
G04 #@! TD*
G04 #@! TO.C,R45*
G36*
G01*
X150614801Y-98609200D02*
X149714799Y-98609200D01*
G75*
G02*
X149464800Y-98359201I0J249999D01*
G01*
X149464800Y-97659199D01*
G75*
G02*
X149714799Y-97409200I249999J0D01*
G01*
X150614801Y-97409200D01*
G75*
G02*
X150864800Y-97659199I0J-249999D01*
G01*
X150864800Y-98359201D01*
G75*
G02*
X150614801Y-98609200I-249999J0D01*
G01*
G37*
G36*
G01*
X150614801Y-100609200D02*
X149714799Y-100609200D01*
G75*
G02*
X149464800Y-100359201I0J249999D01*
G01*
X149464800Y-99659199D01*
G75*
G02*
X149714799Y-99409200I249999J0D01*
G01*
X150614801Y-99409200D01*
G75*
G02*
X150864800Y-99659199I0J-249999D01*
G01*
X150864800Y-100359201D01*
G75*
G02*
X150614801Y-100609200I-249999J0D01*
G01*
G37*
G04 #@! TD*
D13*
G04 #@! TO.C,U7*
G36*
X177514504Y-101436803D02*
G01*
X177485808Y-101428098D01*
X177459363Y-101413963D01*
X177436183Y-101394939D01*
X177309461Y-101268217D01*
X177290437Y-101245037D01*
X177276302Y-101218592D01*
X177267597Y-101189896D01*
X177264658Y-101160054D01*
X177264658Y-100810946D01*
X177267597Y-100781104D01*
X177276302Y-100752408D01*
X177290437Y-100725963D01*
X177309461Y-100702783D01*
X177436183Y-100576061D01*
X177459363Y-100557037D01*
X177485808Y-100542902D01*
X177514504Y-100534197D01*
X177544346Y-100531258D01*
X177893454Y-100531258D01*
X177923296Y-100534197D01*
X177951992Y-100542902D01*
X177978437Y-100557037D01*
X178001617Y-100576061D01*
X178128339Y-100702783D01*
X178147363Y-100725963D01*
X178161498Y-100752408D01*
X178170203Y-100781104D01*
X178173142Y-100810946D01*
X178173142Y-101160054D01*
X178170203Y-101189896D01*
X178161498Y-101218592D01*
X178147363Y-101245037D01*
X178128339Y-101268217D01*
X178001617Y-101394939D01*
X177978437Y-101413963D01*
X177951992Y-101428098D01*
X177923296Y-101436803D01*
X177893454Y-101439742D01*
X177544346Y-101439742D01*
X177514504Y-101436803D01*
G37*
G36*
X177514504Y-102411803D02*
G01*
X177485808Y-102403098D01*
X177459363Y-102388963D01*
X177436183Y-102369939D01*
X177309461Y-102243217D01*
X177290437Y-102220037D01*
X177276302Y-102193592D01*
X177267597Y-102164896D01*
X177264658Y-102135054D01*
X177264658Y-101785946D01*
X177267597Y-101756104D01*
X177276302Y-101727408D01*
X177290437Y-101700963D01*
X177309461Y-101677783D01*
X177436183Y-101551061D01*
X177459363Y-101532037D01*
X177485808Y-101517902D01*
X177514504Y-101509197D01*
X177544346Y-101506258D01*
X177893454Y-101506258D01*
X177923296Y-101509197D01*
X177951992Y-101517902D01*
X177978437Y-101532037D01*
X178001617Y-101551061D01*
X178128339Y-101677783D01*
X178147363Y-101700963D01*
X178161498Y-101727408D01*
X178170203Y-101756104D01*
X178173142Y-101785946D01*
X178173142Y-102135054D01*
X178170203Y-102164896D01*
X178161498Y-102193592D01*
X178147363Y-102220037D01*
X178128339Y-102243217D01*
X178001617Y-102369939D01*
X177978437Y-102388963D01*
X177951992Y-102403098D01*
X177923296Y-102411803D01*
X177893454Y-102414742D01*
X177544346Y-102414742D01*
X177514504Y-102411803D01*
G37*
G36*
X178489504Y-101436803D02*
G01*
X178460808Y-101428098D01*
X178434363Y-101413963D01*
X178411183Y-101394939D01*
X178284461Y-101268217D01*
X178265437Y-101245037D01*
X178251302Y-101218592D01*
X178242597Y-101189896D01*
X178239658Y-101160054D01*
X178239658Y-100810946D01*
X178242597Y-100781104D01*
X178251302Y-100752408D01*
X178265437Y-100725963D01*
X178284461Y-100702783D01*
X178411183Y-100576061D01*
X178434363Y-100557037D01*
X178460808Y-100542902D01*
X178489504Y-100534197D01*
X178519346Y-100531258D01*
X178868454Y-100531258D01*
X178898296Y-100534197D01*
X178926992Y-100542902D01*
X178953437Y-100557037D01*
X178976617Y-100576061D01*
X179103339Y-100702783D01*
X179122363Y-100725963D01*
X179136498Y-100752408D01*
X179145203Y-100781104D01*
X179148142Y-100810946D01*
X179148142Y-101160054D01*
X179145203Y-101189896D01*
X179136498Y-101218592D01*
X179122363Y-101245037D01*
X179103339Y-101268217D01*
X178976617Y-101394939D01*
X178953437Y-101413963D01*
X178926992Y-101428098D01*
X178898296Y-101436803D01*
X178868454Y-101439742D01*
X178519346Y-101439742D01*
X178489504Y-101436803D01*
G37*
G36*
X178489504Y-102411803D02*
G01*
X178460808Y-102403098D01*
X178434363Y-102388963D01*
X178411183Y-102369939D01*
X178284461Y-102243217D01*
X178265437Y-102220037D01*
X178251302Y-102193592D01*
X178242597Y-102164896D01*
X178239658Y-102135054D01*
X178239658Y-101785946D01*
X178242597Y-101756104D01*
X178251302Y-101727408D01*
X178265437Y-101700963D01*
X178284461Y-101677783D01*
X178411183Y-101551061D01*
X178434363Y-101532037D01*
X178460808Y-101517902D01*
X178489504Y-101509197D01*
X178519346Y-101506258D01*
X178868454Y-101506258D01*
X178898296Y-101509197D01*
X178926992Y-101517902D01*
X178953437Y-101532037D01*
X178976617Y-101551061D01*
X179103339Y-101677783D01*
X179122363Y-101700963D01*
X179136498Y-101727408D01*
X179145203Y-101756104D01*
X179148142Y-101785946D01*
X179148142Y-102135054D01*
X179145203Y-102164896D01*
X179136498Y-102193592D01*
X179122363Y-102220037D01*
X179103339Y-102243217D01*
X178976617Y-102369939D01*
X178953437Y-102388963D01*
X178926992Y-102403098D01*
X178898296Y-102411803D01*
X178868454Y-102414742D01*
X178519346Y-102414742D01*
X178489504Y-102411803D01*
G37*
G36*
G01*
X179581400Y-103135500D02*
X179581400Y-103785500D01*
G75*
G02*
X179518900Y-103848000I-62500J0D01*
G01*
X179393900Y-103848000D01*
G75*
G02*
X179331400Y-103785500I0J62500D01*
G01*
X179331400Y-103135500D01*
G75*
G02*
X179393900Y-103073000I62500J0D01*
G01*
X179518900Y-103073000D01*
G75*
G02*
X179581400Y-103135500I0J-62500D01*
G01*
G37*
G36*
G01*
X179081400Y-103135500D02*
X179081400Y-103785500D01*
G75*
G02*
X179018900Y-103848000I-62500J0D01*
G01*
X178893900Y-103848000D01*
G75*
G02*
X178831400Y-103785500I0J62500D01*
G01*
X178831400Y-103135500D01*
G75*
G02*
X178893900Y-103073000I62500J0D01*
G01*
X179018900Y-103073000D01*
G75*
G02*
X179081400Y-103135500I0J-62500D01*
G01*
G37*
G36*
G01*
X178581400Y-103135500D02*
X178581400Y-103785500D01*
G75*
G02*
X178518900Y-103848000I-62500J0D01*
G01*
X178393900Y-103848000D01*
G75*
G02*
X178331400Y-103785500I0J62500D01*
G01*
X178331400Y-103135500D01*
G75*
G02*
X178393900Y-103073000I62500J0D01*
G01*
X178518900Y-103073000D01*
G75*
G02*
X178581400Y-103135500I0J-62500D01*
G01*
G37*
G36*
G01*
X178081400Y-103135500D02*
X178081400Y-103785500D01*
G75*
G02*
X178018900Y-103848000I-62500J0D01*
G01*
X177893900Y-103848000D01*
G75*
G02*
X177831400Y-103785500I0J62500D01*
G01*
X177831400Y-103135500D01*
G75*
G02*
X177893900Y-103073000I62500J0D01*
G01*
X178018900Y-103073000D01*
G75*
G02*
X178081400Y-103135500I0J-62500D01*
G01*
G37*
G36*
G01*
X177581400Y-103135500D02*
X177581400Y-103785500D01*
G75*
G02*
X177518900Y-103848000I-62500J0D01*
G01*
X177393900Y-103848000D01*
G75*
G02*
X177331400Y-103785500I0J62500D01*
G01*
X177331400Y-103135500D01*
G75*
G02*
X177393900Y-103073000I62500J0D01*
G01*
X177518900Y-103073000D01*
G75*
G02*
X177581400Y-103135500I0J-62500D01*
G01*
G37*
G36*
G01*
X177081400Y-103135500D02*
X177081400Y-103785500D01*
G75*
G02*
X177018900Y-103848000I-62500J0D01*
G01*
X176893900Y-103848000D01*
G75*
G02*
X176831400Y-103785500I0J62500D01*
G01*
X176831400Y-103135500D01*
G75*
G02*
X176893900Y-103073000I62500J0D01*
G01*
X177018900Y-103073000D01*
G75*
G02*
X177081400Y-103135500I0J-62500D01*
G01*
G37*
G36*
G01*
X176606400Y-102660500D02*
X176606400Y-102785500D01*
G75*
G02*
X176543900Y-102848000I-62500J0D01*
G01*
X175893900Y-102848000D01*
G75*
G02*
X175831400Y-102785500I0J62500D01*
G01*
X175831400Y-102660500D01*
G75*
G02*
X175893900Y-102598000I62500J0D01*
G01*
X176543900Y-102598000D01*
G75*
G02*
X176606400Y-102660500I0J-62500D01*
G01*
G37*
G36*
G01*
X176606400Y-102160500D02*
X176606400Y-102285500D01*
G75*
G02*
X176543900Y-102348000I-62500J0D01*
G01*
X175893900Y-102348000D01*
G75*
G02*
X175831400Y-102285500I0J62500D01*
G01*
X175831400Y-102160500D01*
G75*
G02*
X175893900Y-102098000I62500J0D01*
G01*
X176543900Y-102098000D01*
G75*
G02*
X176606400Y-102160500I0J-62500D01*
G01*
G37*
G36*
G01*
X176606400Y-101660500D02*
X176606400Y-101785500D01*
G75*
G02*
X176543900Y-101848000I-62500J0D01*
G01*
X175893900Y-101848000D01*
G75*
G02*
X175831400Y-101785500I0J62500D01*
G01*
X175831400Y-101660500D01*
G75*
G02*
X175893900Y-101598000I62500J0D01*
G01*
X176543900Y-101598000D01*
G75*
G02*
X176606400Y-101660500I0J-62500D01*
G01*
G37*
G36*
G01*
X176606400Y-101160500D02*
X176606400Y-101285500D01*
G75*
G02*
X176543900Y-101348000I-62500J0D01*
G01*
X175893900Y-101348000D01*
G75*
G02*
X175831400Y-101285500I0J62500D01*
G01*
X175831400Y-101160500D01*
G75*
G02*
X175893900Y-101098000I62500J0D01*
G01*
X176543900Y-101098000D01*
G75*
G02*
X176606400Y-101160500I0J-62500D01*
G01*
G37*
G36*
G01*
X176606400Y-100660500D02*
X176606400Y-100785500D01*
G75*
G02*
X176543900Y-100848000I-62500J0D01*
G01*
X175893900Y-100848000D01*
G75*
G02*
X175831400Y-100785500I0J62500D01*
G01*
X175831400Y-100660500D01*
G75*
G02*
X175893900Y-100598000I62500J0D01*
G01*
X176543900Y-100598000D01*
G75*
G02*
X176606400Y-100660500I0J-62500D01*
G01*
G37*
G36*
G01*
X176606400Y-100160500D02*
X176606400Y-100285500D01*
G75*
G02*
X176543900Y-100348000I-62500J0D01*
G01*
X175893900Y-100348000D01*
G75*
G02*
X175831400Y-100285500I0J62500D01*
G01*
X175831400Y-100160500D01*
G75*
G02*
X175893900Y-100098000I62500J0D01*
G01*
X176543900Y-100098000D01*
G75*
G02*
X176606400Y-100160500I0J-62500D01*
G01*
G37*
G36*
G01*
X177081400Y-99160500D02*
X177081400Y-99810500D01*
G75*
G02*
X177018900Y-99873000I-62500J0D01*
G01*
X176893900Y-99873000D01*
G75*
G02*
X176831400Y-99810500I0J62500D01*
G01*
X176831400Y-99160500D01*
G75*
G02*
X176893900Y-99098000I62500J0D01*
G01*
X177018900Y-99098000D01*
G75*
G02*
X177081400Y-99160500I0J-62500D01*
G01*
G37*
G36*
G01*
X177581400Y-99160500D02*
X177581400Y-99810500D01*
G75*
G02*
X177518900Y-99873000I-62500J0D01*
G01*
X177393900Y-99873000D01*
G75*
G02*
X177331400Y-99810500I0J62500D01*
G01*
X177331400Y-99160500D01*
G75*
G02*
X177393900Y-99098000I62500J0D01*
G01*
X177518900Y-99098000D01*
G75*
G02*
X177581400Y-99160500I0J-62500D01*
G01*
G37*
G36*
G01*
X178081400Y-99160500D02*
X178081400Y-99810500D01*
G75*
G02*
X178018900Y-99873000I-62500J0D01*
G01*
X177893900Y-99873000D01*
G75*
G02*
X177831400Y-99810500I0J62500D01*
G01*
X177831400Y-99160500D01*
G75*
G02*
X177893900Y-99098000I62500J0D01*
G01*
X178018900Y-99098000D01*
G75*
G02*
X178081400Y-99160500I0J-62500D01*
G01*
G37*
G36*
G01*
X178581400Y-99160500D02*
X178581400Y-99810500D01*
G75*
G02*
X178518900Y-99873000I-62500J0D01*
G01*
X178393900Y-99873000D01*
G75*
G02*
X178331400Y-99810500I0J62500D01*
G01*
X178331400Y-99160500D01*
G75*
G02*
X178393900Y-99098000I62500J0D01*
G01*
X178518900Y-99098000D01*
G75*
G02*
X178581400Y-99160500I0J-62500D01*
G01*
G37*
G36*
G01*
X179081400Y-99160500D02*
X179081400Y-99810500D01*
G75*
G02*
X179018900Y-99873000I-62500J0D01*
G01*
X178893900Y-99873000D01*
G75*
G02*
X178831400Y-99810500I0J62500D01*
G01*
X178831400Y-99160500D01*
G75*
G02*
X178893900Y-99098000I62500J0D01*
G01*
X179018900Y-99098000D01*
G75*
G02*
X179081400Y-99160500I0J-62500D01*
G01*
G37*
G36*
G01*
X179581400Y-99160500D02*
X179581400Y-99810500D01*
G75*
G02*
X179518900Y-99873000I-62500J0D01*
G01*
X179393900Y-99873000D01*
G75*
G02*
X179331400Y-99810500I0J62500D01*
G01*
X179331400Y-99160500D01*
G75*
G02*
X179393900Y-99098000I62500J0D01*
G01*
X179518900Y-99098000D01*
G75*
G02*
X179581400Y-99160500I0J-62500D01*
G01*
G37*
G36*
G01*
X180581400Y-100160500D02*
X180581400Y-100285500D01*
G75*
G02*
X180518900Y-100348000I-62500J0D01*
G01*
X179868900Y-100348000D01*
G75*
G02*
X179806400Y-100285500I0J62500D01*
G01*
X179806400Y-100160500D01*
G75*
G02*
X179868900Y-100098000I62500J0D01*
G01*
X180518900Y-100098000D01*
G75*
G02*
X180581400Y-100160500I0J-62500D01*
G01*
G37*
G36*
G01*
X180581400Y-100660500D02*
X180581400Y-100785500D01*
G75*
G02*
X180518900Y-100848000I-62500J0D01*
G01*
X179868900Y-100848000D01*
G75*
G02*
X179806400Y-100785500I0J62500D01*
G01*
X179806400Y-100660500D01*
G75*
G02*
X179868900Y-100598000I62500J0D01*
G01*
X180518900Y-100598000D01*
G75*
G02*
X180581400Y-100660500I0J-62500D01*
G01*
G37*
G36*
G01*
X180581400Y-101160500D02*
X180581400Y-101285500D01*
G75*
G02*
X180518900Y-101348000I-62500J0D01*
G01*
X179868900Y-101348000D01*
G75*
G02*
X179806400Y-101285500I0J62500D01*
G01*
X179806400Y-101160500D01*
G75*
G02*
X179868900Y-101098000I62500J0D01*
G01*
X180518900Y-101098000D01*
G75*
G02*
X180581400Y-101160500I0J-62500D01*
G01*
G37*
G36*
G01*
X180581400Y-101660500D02*
X180581400Y-101785500D01*
G75*
G02*
X180518900Y-101848000I-62500J0D01*
G01*
X179868900Y-101848000D01*
G75*
G02*
X179806400Y-101785500I0J62500D01*
G01*
X179806400Y-101660500D01*
G75*
G02*
X179868900Y-101598000I62500J0D01*
G01*
X180518900Y-101598000D01*
G75*
G02*
X180581400Y-101660500I0J-62500D01*
G01*
G37*
G36*
G01*
X180581400Y-102160500D02*
X180581400Y-102285500D01*
G75*
G02*
X180518900Y-102348000I-62500J0D01*
G01*
X179868900Y-102348000D01*
G75*
G02*
X179806400Y-102285500I0J62500D01*
G01*
X179806400Y-102160500D01*
G75*
G02*
X179868900Y-102098000I62500J0D01*
G01*
X180518900Y-102098000D01*
G75*
G02*
X180581400Y-102160500I0J-62500D01*
G01*
G37*
G36*
G01*
X180581400Y-102660500D02*
X180581400Y-102785500D01*
G75*
G02*
X180518900Y-102848000I-62500J0D01*
G01*
X179868900Y-102848000D01*
G75*
G02*
X179806400Y-102785500I0J62500D01*
G01*
X179806400Y-102660500D01*
G75*
G02*
X179868900Y-102598000I62500J0D01*
G01*
X180518900Y-102598000D01*
G75*
G02*
X180581400Y-102660500I0J-62500D01*
G01*
G37*
G04 #@! TD*
D14*
G04 #@! TO.C,U3*
X212664000Y-80205400D03*
X214564000Y-80205400D03*
X214564000Y-82405400D03*
X213614000Y-82405400D03*
X212664000Y-82405400D03*
G04 #@! TD*
G04 #@! TO.C,R24*
G36*
G01*
X176192601Y-95307200D02*
X175292599Y-95307200D01*
G75*
G02*
X175042600Y-95057201I0J249999D01*
G01*
X175042600Y-94357199D01*
G75*
G02*
X175292599Y-94107200I249999J0D01*
G01*
X176192601Y-94107200D01*
G75*
G02*
X176442600Y-94357199I0J-249999D01*
G01*
X176442600Y-95057201D01*
G75*
G02*
X176192601Y-95307200I-249999J0D01*
G01*
G37*
G36*
G01*
X176192601Y-97307200D02*
X175292599Y-97307200D01*
G75*
G02*
X175042600Y-97057201I0J249999D01*
G01*
X175042600Y-96357199D01*
G75*
G02*
X175292599Y-96107200I249999J0D01*
G01*
X176192601Y-96107200D01*
G75*
G02*
X176442600Y-96357199I0J-249999D01*
G01*
X176442600Y-97057201D01*
G75*
G02*
X176192601Y-97307200I-249999J0D01*
G01*
G37*
G04 #@! TD*
G04 #@! TO.C,R23*
G36*
G01*
X173982801Y-95307200D02*
X173082799Y-95307200D01*
G75*
G02*
X172832800Y-95057201I0J249999D01*
G01*
X172832800Y-94357199D01*
G75*
G02*
X173082799Y-94107200I249999J0D01*
G01*
X173982801Y-94107200D01*
G75*
G02*
X174232800Y-94357199I0J-249999D01*
G01*
X174232800Y-95057201D01*
G75*
G02*
X173982801Y-95307200I-249999J0D01*
G01*
G37*
G36*
G01*
X173982801Y-97307200D02*
X173082799Y-97307200D01*
G75*
G02*
X172832800Y-97057201I0J249999D01*
G01*
X172832800Y-96357199D01*
G75*
G02*
X173082799Y-96107200I249999J0D01*
G01*
X173982801Y-96107200D01*
G75*
G02*
X174232800Y-96357199I0J-249999D01*
G01*
X174232800Y-97057201D01*
G75*
G02*
X173982801Y-97307200I-249999J0D01*
G01*
G37*
G04 #@! TD*
G04 #@! TO.C,R22*
G36*
G01*
X186048700Y-102978799D02*
X186048700Y-103878801D01*
G75*
G02*
X185798701Y-104128800I-249999J0D01*
G01*
X185098699Y-104128800D01*
G75*
G02*
X184848700Y-103878801I0J249999D01*
G01*
X184848700Y-102978799D01*
G75*
G02*
X185098699Y-102728800I249999J0D01*
G01*
X185798701Y-102728800D01*
G75*
G02*
X186048700Y-102978799I0J-249999D01*
G01*
G37*
G36*
G01*
X188048700Y-102978799D02*
X188048700Y-103878801D01*
G75*
G02*
X187798701Y-104128800I-249999J0D01*
G01*
X187098699Y-104128800D01*
G75*
G02*
X186848700Y-103878801I0J249999D01*
G01*
X186848700Y-102978799D01*
G75*
G02*
X187098699Y-102728800I249999J0D01*
G01*
X187798701Y-102728800D01*
G75*
G02*
X188048700Y-102978799I0J-249999D01*
G01*
G37*
G04 #@! TD*
G04 #@! TO.C,R21*
G36*
G01*
X177349999Y-96107200D02*
X178250001Y-96107200D01*
G75*
G02*
X178500000Y-96357199I0J-249999D01*
G01*
X178500000Y-97057201D01*
G75*
G02*
X178250001Y-97307200I-249999J0D01*
G01*
X177349999Y-97307200D01*
G75*
G02*
X177100000Y-97057201I0J249999D01*
G01*
X177100000Y-96357199D01*
G75*
G02*
X177349999Y-96107200I249999J0D01*
G01*
G37*
G36*
G01*
X177349999Y-94107200D02*
X178250001Y-94107200D01*
G75*
G02*
X178500000Y-94357199I0J-249999D01*
G01*
X178500000Y-95057201D01*
G75*
G02*
X178250001Y-95307200I-249999J0D01*
G01*
X177349999Y-95307200D01*
G75*
G02*
X177100000Y-95057201I0J249999D01*
G01*
X177100000Y-94357199D01*
G75*
G02*
X177349999Y-94107200I249999J0D01*
G01*
G37*
G04 #@! TD*
G04 #@! TO.C,R20*
G36*
G01*
X179458199Y-96107200D02*
X180358201Y-96107200D01*
G75*
G02*
X180608200Y-96357199I0J-249999D01*
G01*
X180608200Y-97057201D01*
G75*
G02*
X180358201Y-97307200I-249999J0D01*
G01*
X179458199Y-97307200D01*
G75*
G02*
X179208200Y-97057201I0J249999D01*
G01*
X179208200Y-96357199D01*
G75*
G02*
X179458199Y-96107200I249999J0D01*
G01*
G37*
G36*
G01*
X179458199Y-94107200D02*
X180358201Y-94107200D01*
G75*
G02*
X180608200Y-94357199I0J-249999D01*
G01*
X180608200Y-95057201D01*
G75*
G02*
X180358201Y-95307200I-249999J0D01*
G01*
X179458199Y-95307200D01*
G75*
G02*
X179208200Y-95057201I0J249999D01*
G01*
X179208200Y-94357199D01*
G75*
G02*
X179458199Y-94107200I249999J0D01*
G01*
G37*
G04 #@! TD*
G04 #@! TO.C,R17*
G36*
G01*
X213036100Y-87876801D02*
X213036100Y-86976799D01*
G75*
G02*
X213286099Y-86726800I249999J0D01*
G01*
X213986101Y-86726800D01*
G75*
G02*
X214236100Y-86976799I0J-249999D01*
G01*
X214236100Y-87876801D01*
G75*
G02*
X213986101Y-88126800I-249999J0D01*
G01*
X213286099Y-88126800D01*
G75*
G02*
X213036100Y-87876801I0J249999D01*
G01*
G37*
G36*
G01*
X211036100Y-87876801D02*
X211036100Y-86976799D01*
G75*
G02*
X211286099Y-86726800I249999J0D01*
G01*
X211986101Y-86726800D01*
G75*
G02*
X212236100Y-86976799I0J-249999D01*
G01*
X212236100Y-87876801D01*
G75*
G02*
X211986101Y-88126800I-249999J0D01*
G01*
X211286099Y-88126800D01*
G75*
G02*
X211036100Y-87876801I0J249999D01*
G01*
G37*
G04 #@! TD*
G04 #@! TO.C,D3*
G36*
G01*
X185998700Y-100845199D02*
X185998700Y-101745201D01*
G75*
G02*
X185748701Y-101995200I-249999J0D01*
G01*
X185098699Y-101995200D01*
G75*
G02*
X184848700Y-101745201I0J249999D01*
G01*
X184848700Y-100845199D01*
G75*
G02*
X185098699Y-100595200I249999J0D01*
G01*
X185748701Y-100595200D01*
G75*
G02*
X185998700Y-100845199I0J-249999D01*
G01*
G37*
G36*
G01*
X188048700Y-100845199D02*
X188048700Y-101745201D01*
G75*
G02*
X187798701Y-101995200I-249999J0D01*
G01*
X187148699Y-101995200D01*
G75*
G02*
X186898700Y-101745201I0J249999D01*
G01*
X186898700Y-100845199D01*
G75*
G02*
X187148699Y-100595200I249999J0D01*
G01*
X187798701Y-100595200D01*
G75*
G02*
X188048700Y-100845199I0J-249999D01*
G01*
G37*
G04 #@! TD*
D15*
G04 #@! TO.C,U4*
X158637000Y-95450000D03*
D16*
X158312000Y-95450000D03*
X158312000Y-95850000D03*
X158312000Y-96250000D03*
X158312000Y-95050000D03*
X158312000Y-94650000D03*
X158312000Y-94250000D03*
X154362000Y-96250000D03*
X154362000Y-95850000D03*
X154362000Y-95450000D03*
X154362000Y-95050000D03*
X154362000Y-94650000D03*
X154362000Y-94250000D03*
D15*
X158637000Y-95050000D03*
X158637000Y-94650000D03*
X158637000Y-94250000D03*
X158637000Y-95850000D03*
X158637000Y-96250000D03*
X154037000Y-96250000D03*
X154037000Y-95850000D03*
X154037000Y-95450000D03*
X154037000Y-95050000D03*
X154037000Y-94650000D03*
X154037000Y-94250000D03*
D17*
X155687000Y-95737500D03*
X156987000Y-95737500D03*
X156987000Y-94762500D03*
X155687000Y-94762500D03*
D18*
X155237000Y-93885000D03*
X155237000Y-96615000D03*
X157437000Y-96615000D03*
X157437000Y-93885000D03*
G04 #@! TD*
D19*
G04 #@! TO.C,T1*
X226051800Y-96924600D03*
X221851800Y-96924600D03*
X226051800Y-93524600D03*
D20*
X223951800Y-96699600D03*
D19*
X221851800Y-93524600D03*
G04 #@! TD*
D21*
G04 #@! TO.C,L2*
X187452000Y-110236000D03*
X187452000Y-114046000D03*
G04 #@! TD*
D14*
G04 #@! TO.C,U10*
X190566000Y-84234200D03*
X191516000Y-84234200D03*
X192466000Y-84234200D03*
X192466000Y-82034200D03*
X190566000Y-82034200D03*
G04 #@! TD*
D22*
G04 #@! TO.C,U9*
X180634000Y-112710000D03*
X180634000Y-111760000D03*
X180634000Y-110810000D03*
X178014000Y-110810000D03*
X178014000Y-111760000D03*
X178014000Y-112710000D03*
G04 #@! TD*
G04 #@! TO.C,U8*
G36*
G01*
X209173000Y-104938000D02*
X209173000Y-105088000D01*
G75*
G02*
X209098000Y-105163000I-75000J0D01*
G01*
X207798000Y-105163000D01*
G75*
G02*
X207723000Y-105088000I0J75000D01*
G01*
X207723000Y-104938000D01*
G75*
G02*
X207798000Y-104863000I75000J0D01*
G01*
X209098000Y-104863000D01*
G75*
G02*
X209173000Y-104938000I0J-75000D01*
G01*
G37*
G36*
G01*
X209173000Y-104438000D02*
X209173000Y-104588000D01*
G75*
G02*
X209098000Y-104663000I-75000J0D01*
G01*
X207798000Y-104663000D01*
G75*
G02*
X207723000Y-104588000I0J75000D01*
G01*
X207723000Y-104438000D01*
G75*
G02*
X207798000Y-104363000I75000J0D01*
G01*
X209098000Y-104363000D01*
G75*
G02*
X209173000Y-104438000I0J-75000D01*
G01*
G37*
G36*
G01*
X209173000Y-103938000D02*
X209173000Y-104088000D01*
G75*
G02*
X209098000Y-104163000I-75000J0D01*
G01*
X207798000Y-104163000D01*
G75*
G02*
X207723000Y-104088000I0J75000D01*
G01*
X207723000Y-103938000D01*
G75*
G02*
X207798000Y-103863000I75000J0D01*
G01*
X209098000Y-103863000D01*
G75*
G02*
X209173000Y-103938000I0J-75000D01*
G01*
G37*
G36*
G01*
X209173000Y-103438000D02*
X209173000Y-103588000D01*
G75*
G02*
X209098000Y-103663000I-75000J0D01*
G01*
X207798000Y-103663000D01*
G75*
G02*
X207723000Y-103588000I0J75000D01*
G01*
X207723000Y-103438000D01*
G75*
G02*
X207798000Y-103363000I75000J0D01*
G01*
X209098000Y-103363000D01*
G75*
G02*
X209173000Y-103438000I0J-75000D01*
G01*
G37*
G36*
G01*
X209173000Y-102938000D02*
X209173000Y-103088000D01*
G75*
G02*
X209098000Y-103163000I-75000J0D01*
G01*
X207798000Y-103163000D01*
G75*
G02*
X207723000Y-103088000I0J75000D01*
G01*
X207723000Y-102938000D01*
G75*
G02*
X207798000Y-102863000I75000J0D01*
G01*
X209098000Y-102863000D01*
G75*
G02*
X209173000Y-102938000I0J-75000D01*
G01*
G37*
G36*
G01*
X204773000Y-102938000D02*
X204773000Y-103088000D01*
G75*
G02*
X204698000Y-103163000I-75000J0D01*
G01*
X203398000Y-103163000D01*
G75*
G02*
X203323000Y-103088000I0J75000D01*
G01*
X203323000Y-102938000D01*
G75*
G02*
X203398000Y-102863000I75000J0D01*
G01*
X204698000Y-102863000D01*
G75*
G02*
X204773000Y-102938000I0J-75000D01*
G01*
G37*
G36*
G01*
X204773000Y-103438000D02*
X204773000Y-103588000D01*
G75*
G02*
X204698000Y-103663000I-75000J0D01*
G01*
X203398000Y-103663000D01*
G75*
G02*
X203323000Y-103588000I0J75000D01*
G01*
X203323000Y-103438000D01*
G75*
G02*
X203398000Y-103363000I75000J0D01*
G01*
X204698000Y-103363000D01*
G75*
G02*
X204773000Y-103438000I0J-75000D01*
G01*
G37*
G36*
G01*
X204773000Y-103938000D02*
X204773000Y-104088000D01*
G75*
G02*
X204698000Y-104163000I-75000J0D01*
G01*
X203398000Y-104163000D01*
G75*
G02*
X203323000Y-104088000I0J75000D01*
G01*
X203323000Y-103938000D01*
G75*
G02*
X203398000Y-103863000I75000J0D01*
G01*
X204698000Y-103863000D01*
G75*
G02*
X204773000Y-103938000I0J-75000D01*
G01*
G37*
G36*
G01*
X204773000Y-104438000D02*
X204773000Y-104588000D01*
G75*
G02*
X204698000Y-104663000I-75000J0D01*
G01*
X203398000Y-104663000D01*
G75*
G02*
X203323000Y-104588000I0J75000D01*
G01*
X203323000Y-104438000D01*
G75*
G02*
X203398000Y-104363000I75000J0D01*
G01*
X204698000Y-104363000D01*
G75*
G02*
X204773000Y-104438000I0J-75000D01*
G01*
G37*
G36*
G01*
X204773000Y-104938000D02*
X204773000Y-105088000D01*
G75*
G02*
X204698000Y-105163000I-75000J0D01*
G01*
X203398000Y-105163000D01*
G75*
G02*
X203323000Y-105088000I0J75000D01*
G01*
X203323000Y-104938000D01*
G75*
G02*
X203398000Y-104863000I75000J0D01*
G01*
X204698000Y-104863000D01*
G75*
G02*
X204773000Y-104938000I0J-75000D01*
G01*
G37*
G04 #@! TD*
D23*
G04 #@! TO.C,Q3*
X212970000Y-101225000D03*
X212970000Y-105785000D03*
D24*
X220945000Y-105030000D03*
X217595000Y-101980000D03*
X220945000Y-101980000D03*
X217595000Y-105030000D03*
G04 #@! TD*
D25*
G04 #@! TO.C,Q2*
X206308200Y-100822800D03*
X206308200Y-98922800D03*
X204308200Y-99872800D03*
G04 #@! TD*
D26*
G04 #@! TO.C,Q1*
X166624000Y-80121000D03*
X165674000Y-78121000D03*
X167574000Y-78121000D03*
G04 #@! TD*
D27*
G04 #@! TO.C,D5*
X226060000Y-107475000D03*
X226060000Y-102075000D03*
G04 #@! TD*
D13*
G04 #@! TO.C,D4*
G36*
X194946000Y-117214000D02*
G01*
X194946000Y-119514000D01*
X191346000Y-118914000D01*
X191346000Y-117814000D01*
X194946000Y-117214000D01*
G37*
G36*
X185546000Y-119514000D02*
G01*
X185546000Y-117214000D01*
X189146000Y-117814000D01*
X189146000Y-118914000D01*
X185546000Y-119514000D01*
G37*
G04 #@! TD*
D11*
G04 #@! TO.C,D1*
X163548000Y-78613000D03*
X160048000Y-78613000D03*
G04 #@! TD*
M02*
