G04 #@! TF.GenerationSoftware,KiCad,Pcbnew,5.1.7*
G04 #@! TF.CreationDate,2020-10-09T13:13:43+08:00*
G04 #@! TF.ProjectId,Nixie,4e697869-652e-46b6-9963-61645f706362,rev?*
G04 #@! TF.SameCoordinates,Original*
G04 #@! TF.FileFunction,Soldermask,Bot*
G04 #@! TF.FilePolarity,Negative*
%FSLAX46Y46*%
G04 Gerber Fmt 4.6, Leading zero omitted, Abs format (unit mm)*
G04 Created by KiCad (PCBNEW 5.1.7) date 2020-10-09 13:13:43*
%MOMM*%
%LPD*%
G01*
G04 APERTURE LIST*
%ADD10C,1.400000*%
%ADD11R,1.400000X1.400000*%
%ADD12C,5.700000*%
%ADD13O,2.000000X2.000000*%
%ADD14O,1.600000X1.600000*%
%ADD15C,1.600000*%
%ADD16O,1.700000X1.700000*%
%ADD17R,1.700000X1.700000*%
G04 APERTURE END LIST*
D10*
G04 #@! TO.C,RV1*
X79692500Y-86550500D03*
X77152500Y-84010500D03*
D11*
X82232500Y-84010500D03*
G04 #@! TD*
D10*
G04 #@! TO.C,RV8*
X205422500Y-78422500D03*
X202882500Y-75882500D03*
D11*
X207962500Y-75882500D03*
G04 #@! TD*
D10*
G04 #@! TO.C,RV7*
X205422500Y-86550500D03*
X202882500Y-84010500D03*
D11*
X207962500Y-84010500D03*
G04 #@! TD*
D10*
G04 #@! TO.C,RV6*
X184467500Y-86550500D03*
X181927500Y-84010500D03*
D11*
X187007500Y-84010500D03*
G04 #@! TD*
D10*
G04 #@! TO.C,RV5*
X163512500Y-86550500D03*
X160972500Y-84010500D03*
D11*
X166052500Y-84010500D03*
G04 #@! TD*
D10*
G04 #@! TO.C,RV4*
X142557500Y-86550500D03*
X140017500Y-84010500D03*
D11*
X145097500Y-84010500D03*
G04 #@! TD*
D10*
G04 #@! TO.C,RV3*
X121602500Y-86550500D03*
X119062500Y-84010500D03*
D11*
X124142500Y-84010500D03*
G04 #@! TD*
D10*
G04 #@! TO.C,RV2*
X100647500Y-86550500D03*
X98107500Y-84010500D03*
D11*
X103187500Y-84010500D03*
G04 #@! TD*
D12*
G04 #@! TO.C,H6*
X143954500Y-118427500D03*
G04 #@! TD*
G04 #@! TO.C,H5*
X143954500Y-72898000D03*
G04 #@! TD*
G04 #@! TO.C,H4*
X226758500Y-118364000D03*
G04 #@! TD*
G04 #@! TO.C,H3*
X61087000Y-118427500D03*
G04 #@! TD*
G04 #@! TO.C,H2*
X226758500Y-72898000D03*
G04 #@! TD*
G04 #@! TO.C,H1*
X61150500Y-72898000D03*
G04 #@! TD*
D13*
G04 #@! TO.C,N1*
X73040977Y-90760992D03*
X75011411Y-92506644D03*
X75944898Y-94968049D03*
X75627589Y-97581326D03*
X74132174Y-99747809D03*
X71801236Y-100971179D03*
X69168764Y-100971179D03*
X66837826Y-99747809D03*
X65342411Y-97581326D03*
X65025102Y-94968049D03*
X65958589Y-92506644D03*
X67929023Y-90760992D03*
X70485000Y-90131000D03*
G04 #@! TD*
D14*
G04 #@! TO.C,R3*
X84836000Y-84010500D03*
D15*
X94996000Y-84010500D03*
G04 #@! TD*
D14*
G04 #@! TO.C,R4*
X105875666Y-84010500D03*
D15*
X116035666Y-84010500D03*
G04 #@! TD*
D14*
G04 #@! TO.C,R5*
X126915332Y-84010500D03*
D15*
X137075332Y-84010500D03*
G04 #@! TD*
D14*
G04 #@! TO.C,R6*
X147954998Y-84010500D03*
D15*
X158114998Y-84010500D03*
G04 #@! TD*
D14*
G04 #@! TO.C,R7*
X168994664Y-84010500D03*
D15*
X179154664Y-84010500D03*
G04 #@! TD*
D14*
G04 #@! TO.C,R8*
X190034330Y-84010500D03*
D15*
X200194330Y-84010500D03*
G04 #@! TD*
D14*
G04 #@! TO.C,R9*
X211074000Y-84010500D03*
D15*
X221234000Y-84010500D03*
G04 #@! TD*
D14*
G04 #@! TO.C,R10*
X211074000Y-75946000D03*
D15*
X221234000Y-75946000D03*
G04 #@! TD*
G04 #@! TO.C,R1*
X61531500Y-83312000D03*
X61531500Y-78232000D03*
G04 #@! TD*
D13*
G04 #@! TO.C,N2*
X93977834Y-90760992D03*
X95948268Y-92506644D03*
X96881755Y-94968049D03*
X96564446Y-97581326D03*
X95069031Y-99747809D03*
X92738093Y-100971179D03*
X90105621Y-100971179D03*
X87774683Y-99747809D03*
X86279268Y-97581326D03*
X85961959Y-94968049D03*
X86895446Y-92506644D03*
X88865880Y-90760992D03*
X91421857Y-90131000D03*
G04 #@! TD*
G04 #@! TO.C,N3*
X114914691Y-90760992D03*
X116885125Y-92506644D03*
X117818612Y-94968049D03*
X117501303Y-97581326D03*
X116005888Y-99747809D03*
X113674950Y-100971179D03*
X111042478Y-100971179D03*
X108711540Y-99747809D03*
X107216125Y-97581326D03*
X106898816Y-94968049D03*
X107832303Y-92506644D03*
X109802737Y-90760992D03*
X112358714Y-90131000D03*
G04 #@! TD*
G04 #@! TO.C,N4*
X135851548Y-90760992D03*
X137821982Y-92506644D03*
X138755469Y-94968049D03*
X138438160Y-97581326D03*
X136942745Y-99747809D03*
X134611807Y-100971179D03*
X131979335Y-100971179D03*
X129648397Y-99747809D03*
X128152982Y-97581326D03*
X127835673Y-94968049D03*
X128769160Y-92506644D03*
X130739594Y-90760992D03*
X133295571Y-90131000D03*
G04 #@! TD*
G04 #@! TO.C,N5*
X156788405Y-90760992D03*
X158758839Y-92506644D03*
X159692326Y-94968049D03*
X159375017Y-97581326D03*
X157879602Y-99747809D03*
X155548664Y-100971179D03*
X152916192Y-100971179D03*
X150585254Y-99747809D03*
X149089839Y-97581326D03*
X148772530Y-94968049D03*
X149706017Y-92506644D03*
X151676451Y-90760992D03*
X154232428Y-90131000D03*
G04 #@! TD*
G04 #@! TO.C,N6*
X177725262Y-90760992D03*
X179695696Y-92506644D03*
X180629183Y-94968049D03*
X180311874Y-97581326D03*
X178816459Y-99747809D03*
X176485521Y-100971179D03*
X173853049Y-100971179D03*
X171522111Y-99747809D03*
X170026696Y-97581326D03*
X169709387Y-94968049D03*
X170642874Y-92506644D03*
X172613308Y-90760992D03*
X175169285Y-90131000D03*
G04 #@! TD*
G04 #@! TO.C,N7*
X198662119Y-90760992D03*
X200632553Y-92506644D03*
X201566040Y-94968049D03*
X201248731Y-97581326D03*
X199753316Y-99747809D03*
X197422378Y-100971179D03*
X194789906Y-100971179D03*
X192458968Y-99747809D03*
X190963553Y-97581326D03*
X190646244Y-94968049D03*
X191579731Y-92506644D03*
X193550165Y-90760992D03*
X196106142Y-90131000D03*
G04 #@! TD*
G04 #@! TO.C,N8*
X219598977Y-90760992D03*
X221569411Y-92506644D03*
X222502898Y-94968049D03*
X222185589Y-97581326D03*
X220690174Y-99747809D03*
X218359236Y-100971179D03*
X215726764Y-100971179D03*
X213395826Y-99747809D03*
X211900411Y-97581326D03*
X211583102Y-94968049D03*
X212516589Y-92506644D03*
X214487023Y-90760992D03*
X217043000Y-90131000D03*
G04 #@! TD*
D16*
G04 #@! TO.C,J2*
X189039500Y-72453500D03*
X186499500Y-72453500D03*
X183959500Y-72453500D03*
X181419500Y-72453500D03*
X178879500Y-72453500D03*
X176339500Y-72453500D03*
X173799500Y-72453500D03*
D17*
X171259500Y-72453500D03*
G04 #@! TD*
D16*
G04 #@! TO.C,J1*
X216836500Y-118872000D03*
X214296500Y-118872000D03*
X211756500Y-118872000D03*
X209216500Y-118872000D03*
X206676500Y-118872000D03*
X204136500Y-118872000D03*
X201596500Y-118872000D03*
D17*
X199056500Y-118872000D03*
G04 #@! TD*
M02*
