G04 #@! TF.GenerationSoftware,KiCad,Pcbnew,5.1.7*
G04 #@! TF.CreationDate,2020-10-09T13:13:43+08:00*
G04 #@! TF.ProjectId,Nixie,4e697869-652e-46b6-9963-61645f706362,rev?*
G04 #@! TF.SameCoordinates,Original*
G04 #@! TF.FileFunction,Legend,Bot*
G04 #@! TF.FilePolarity,Positive*
%FSLAX46Y46*%
G04 Gerber Fmt 4.6, Leading zero omitted, Abs format (unit mm)*
G04 Created by KiCad (PCBNEW 5.1.7) date 2020-10-09 13:13:43*
%MOMM*%
%LPD*%
G01*
G04 APERTURE LIST*
%ADD10C,0.150000*%
%ADD11C,0.200000*%
%ADD12C,0.120000*%
G04 APERTURE END LIST*
D10*
X193016142Y-71159904D02*
X193063761Y-71112285D01*
X193111380Y-70969428D01*
X193111380Y-70874190D01*
X193063761Y-70731333D01*
X192968523Y-70636095D01*
X192873285Y-70588476D01*
X192682809Y-70540857D01*
X192539952Y-70540857D01*
X192349476Y-70588476D01*
X192254238Y-70636095D01*
X192159000Y-70731333D01*
X192111380Y-70874190D01*
X192111380Y-70969428D01*
X192159000Y-71112285D01*
X192206619Y-71159904D01*
X192111380Y-71778952D02*
X192111380Y-71969428D01*
X192159000Y-72064666D01*
X192254238Y-72159904D01*
X192444714Y-72207523D01*
X192778047Y-72207523D01*
X192968523Y-72159904D01*
X193063761Y-72064666D01*
X193111380Y-71969428D01*
X193111380Y-71778952D01*
X193063761Y-71683714D01*
X192968523Y-71588476D01*
X192778047Y-71540857D01*
X192444714Y-71540857D01*
X192254238Y-71588476D01*
X192159000Y-71683714D01*
X192111380Y-71778952D01*
X193111380Y-72636095D02*
X192111380Y-72636095D01*
X193111380Y-73207523D01*
X192111380Y-73207523D01*
X193111380Y-73683714D02*
X192111380Y-73683714D01*
X193111380Y-74255142D01*
X192111380Y-74255142D01*
X192206619Y-74683714D02*
X192159000Y-74731333D01*
X192111380Y-74826571D01*
X192111380Y-75064666D01*
X192159000Y-75159904D01*
X192206619Y-75207523D01*
X192301857Y-75255142D01*
X192397095Y-75255142D01*
X192539952Y-75207523D01*
X193111380Y-74636095D01*
X193111380Y-75255142D01*
X219876642Y-116879904D02*
X219924261Y-116832285D01*
X219971880Y-116689428D01*
X219971880Y-116594190D01*
X219924261Y-116451333D01*
X219829023Y-116356095D01*
X219733785Y-116308476D01*
X219543309Y-116260857D01*
X219400452Y-116260857D01*
X219209976Y-116308476D01*
X219114738Y-116356095D01*
X219019500Y-116451333D01*
X218971880Y-116594190D01*
X218971880Y-116689428D01*
X219019500Y-116832285D01*
X219067119Y-116879904D01*
X218971880Y-117498952D02*
X218971880Y-117689428D01*
X219019500Y-117784666D01*
X219114738Y-117879904D01*
X219305214Y-117927523D01*
X219638547Y-117927523D01*
X219829023Y-117879904D01*
X219924261Y-117784666D01*
X219971880Y-117689428D01*
X219971880Y-117498952D01*
X219924261Y-117403714D01*
X219829023Y-117308476D01*
X219638547Y-117260857D01*
X219305214Y-117260857D01*
X219114738Y-117308476D01*
X219019500Y-117403714D01*
X218971880Y-117498952D01*
X219971880Y-118356095D02*
X218971880Y-118356095D01*
X219971880Y-118927523D01*
X218971880Y-118927523D01*
X219971880Y-119403714D02*
X218971880Y-119403714D01*
X219971880Y-119975142D01*
X218971880Y-119975142D01*
X219971880Y-120975142D02*
X219971880Y-120403714D01*
X219971880Y-120689428D02*
X218971880Y-120689428D01*
X219114738Y-120594190D01*
X219209976Y-120498952D01*
X219257595Y-120403714D01*
X217304880Y-115363714D02*
X216304880Y-115363714D01*
X216781071Y-115363714D02*
X216781071Y-115935142D01*
X217304880Y-115935142D02*
X216304880Y-115935142D01*
X216304880Y-116268476D02*
X217304880Y-116601809D01*
X216304880Y-116935142D01*
X214764880Y-114196976D02*
X213764880Y-114196976D01*
X214764880Y-114768404D01*
X213764880Y-114768404D01*
X213717261Y-115958880D02*
X215002976Y-115101738D01*
X214669642Y-116863642D02*
X214717261Y-116816023D01*
X214764880Y-116673166D01*
X214764880Y-116577928D01*
X214717261Y-116435071D01*
X214622023Y-116339833D01*
X214526785Y-116292214D01*
X214336309Y-116244595D01*
X214193452Y-116244595D01*
X214002976Y-116292214D01*
X213907738Y-116339833D01*
X213812500Y-116435071D01*
X213764880Y-116577928D01*
X213764880Y-116673166D01*
X213812500Y-116816023D01*
X213860119Y-116863642D01*
X212224880Y-115014452D02*
X212224880Y-114443023D01*
X212224880Y-114728738D02*
X211224880Y-114728738D01*
X211367738Y-114633500D01*
X211462976Y-114538261D01*
X211510595Y-114443023D01*
X211320119Y-115395404D02*
X211272500Y-115443023D01*
X211224880Y-115538261D01*
X211224880Y-115776357D01*
X211272500Y-115871595D01*
X211320119Y-115919214D01*
X211415357Y-115966833D01*
X211510595Y-115966833D01*
X211653452Y-115919214D01*
X212224880Y-115347785D01*
X212224880Y-115966833D01*
X211224880Y-116252547D02*
X212224880Y-116585880D01*
X211224880Y-116919214D01*
X209672180Y-114711290D02*
X208672180Y-114711290D01*
X208672180Y-114949385D01*
X208719800Y-115092242D01*
X208815038Y-115187480D01*
X208910276Y-115235100D01*
X209100752Y-115282719D01*
X209243609Y-115282719D01*
X209434085Y-115235100D01*
X209529323Y-115187480D01*
X209624561Y-115092242D01*
X209672180Y-114949385D01*
X209672180Y-114711290D01*
X209672180Y-115711290D02*
X208672180Y-115711290D01*
X209672180Y-116187480D02*
X208672180Y-116187480D01*
X209672180Y-116758909D01*
X208672180Y-116758909D01*
X207049642Y-114974761D02*
X207097261Y-114927142D01*
X207144880Y-114784285D01*
X207144880Y-114689047D01*
X207097261Y-114546190D01*
X207002023Y-114450952D01*
X206906785Y-114403333D01*
X206716309Y-114355714D01*
X206573452Y-114355714D01*
X206382976Y-114403333D01*
X206287738Y-114450952D01*
X206192500Y-114546190D01*
X206144880Y-114689047D01*
X206144880Y-114784285D01*
X206192500Y-114927142D01*
X206240119Y-114974761D01*
X207144880Y-115879523D02*
X207144880Y-115403333D01*
X206144880Y-115403333D01*
X207144880Y-116212857D02*
X206144880Y-116212857D01*
X207144880Y-116784285D02*
X206573452Y-116355714D01*
X206144880Y-116784285D02*
X206716309Y-116212857D01*
X203174000Y-115093857D02*
X203174000Y-115903380D01*
X204541380Y-115808142D02*
X204541380Y-115331952D01*
X203541380Y-115331952D01*
X203174000Y-115903380D02*
X203174000Y-116808142D01*
X204017571Y-116141476D02*
X204017571Y-116474809D01*
X204541380Y-116617666D02*
X204541380Y-116141476D01*
X203541380Y-116141476D01*
X203541380Y-116617666D01*
X200761000Y-114982738D02*
X200761000Y-115982738D01*
X201604571Y-115554166D02*
X201652190Y-115697023D01*
X201699809Y-115744642D01*
X201795047Y-115792261D01*
X201937904Y-115792261D01*
X202033142Y-115744642D01*
X202080761Y-115697023D01*
X202128380Y-115601785D01*
X202128380Y-115220833D01*
X201128380Y-115220833D01*
X201128380Y-115554166D01*
X201176000Y-115649404D01*
X201223619Y-115697023D01*
X201318857Y-115744642D01*
X201414095Y-115744642D01*
X201509333Y-115697023D01*
X201556952Y-115649404D01*
X201604571Y-115554166D01*
X201604571Y-115220833D01*
X200761000Y-115982738D02*
X200761000Y-116792261D01*
X202128380Y-116697023D02*
X202128380Y-116220833D01*
X201128380Y-116220833D01*
X198572500Y-114744595D02*
X198524880Y-114649357D01*
X198524880Y-114506500D01*
X198572500Y-114363642D01*
X198667738Y-114268404D01*
X198762976Y-114220785D01*
X198953452Y-114173166D01*
X199096309Y-114173166D01*
X199286785Y-114220785D01*
X199382023Y-114268404D01*
X199477261Y-114363642D01*
X199524880Y-114506500D01*
X199524880Y-114601738D01*
X199477261Y-114744595D01*
X199429642Y-114792214D01*
X199096309Y-114792214D01*
X199096309Y-114601738D01*
X199524880Y-115220785D02*
X198524880Y-115220785D01*
X199524880Y-115792214D01*
X198524880Y-115792214D01*
X199524880Y-116268404D02*
X198524880Y-116268404D01*
X198524880Y-116506500D01*
X198572500Y-116649357D01*
X198667738Y-116744595D01*
X198762976Y-116792214D01*
X198953452Y-116839833D01*
X199096309Y-116839833D01*
X199286785Y-116792214D01*
X199382023Y-116744595D01*
X199477261Y-116649357D01*
X199524880Y-116506500D01*
X199524880Y-116268404D01*
X188491880Y-74326904D02*
X188491880Y-74945952D01*
X188872833Y-74612619D01*
X188872833Y-74755476D01*
X188920452Y-74850714D01*
X188968071Y-74898333D01*
X189063309Y-74945952D01*
X189301404Y-74945952D01*
X189396642Y-74898333D01*
X189444261Y-74850714D01*
X189491880Y-74755476D01*
X189491880Y-74469761D01*
X189444261Y-74374523D01*
X189396642Y-74326904D01*
X188491880Y-75231666D02*
X189491880Y-75565000D01*
X188491880Y-75898333D01*
X188491880Y-76136428D02*
X188491880Y-76755476D01*
X188872833Y-76422142D01*
X188872833Y-76565000D01*
X188920452Y-76660238D01*
X188968071Y-76707857D01*
X189063309Y-76755476D01*
X189301404Y-76755476D01*
X189396642Y-76707857D01*
X189444261Y-76660238D01*
X189491880Y-76565000D01*
X189491880Y-76279285D01*
X189444261Y-76184047D01*
X189396642Y-76136428D01*
X187015380Y-74938023D02*
X187015380Y-74461833D01*
X186015380Y-74461833D01*
X187015380Y-75271357D02*
X186015380Y-75271357D01*
X186015380Y-75509452D01*
X186063000Y-75652309D01*
X186158238Y-75747547D01*
X186253476Y-75795166D01*
X186443952Y-75842785D01*
X186586809Y-75842785D01*
X186777285Y-75795166D01*
X186872523Y-75747547D01*
X186967761Y-75652309D01*
X187015380Y-75509452D01*
X187015380Y-75271357D01*
X187015380Y-76842785D02*
X186539190Y-76509452D01*
X187015380Y-76271357D02*
X186015380Y-76271357D01*
X186015380Y-76652309D01*
X186063000Y-76747547D01*
X186110619Y-76795166D01*
X186205857Y-76842785D01*
X186348714Y-76842785D01*
X186443952Y-76795166D01*
X186491571Y-76747547D01*
X186539190Y-76652309D01*
X186539190Y-76271357D01*
X183888071Y-74731904D02*
X183935690Y-74874761D01*
X183983309Y-74922380D01*
X184078547Y-74970000D01*
X184221404Y-74970000D01*
X184316642Y-74922380D01*
X184364261Y-74874761D01*
X184411880Y-74779523D01*
X184411880Y-74398571D01*
X183411880Y-74398571D01*
X183411880Y-74731904D01*
X183459500Y-74827142D01*
X183507119Y-74874761D01*
X183602357Y-74922380D01*
X183697595Y-74922380D01*
X183792833Y-74874761D01*
X183840452Y-74827142D01*
X183888071Y-74731904D01*
X183888071Y-74398571D01*
X183411880Y-75398571D02*
X184221404Y-75398571D01*
X184316642Y-75446190D01*
X184364261Y-75493809D01*
X184411880Y-75589047D01*
X184411880Y-75779523D01*
X184364261Y-75874761D01*
X184316642Y-75922380D01*
X184221404Y-75970000D01*
X183411880Y-75970000D01*
X183411880Y-76303333D02*
X183411880Y-76874761D01*
X184411880Y-76589047D02*
X183411880Y-76589047D01*
X183411880Y-77065238D02*
X183411880Y-77636666D01*
X184411880Y-77350952D02*
X183411880Y-77350952D01*
X183411880Y-78160476D02*
X183411880Y-78350952D01*
X183459500Y-78446190D01*
X183554738Y-78541428D01*
X183745214Y-78589047D01*
X184078547Y-78589047D01*
X184269023Y-78541428D01*
X184364261Y-78446190D01*
X184411880Y-78350952D01*
X184411880Y-78160476D01*
X184364261Y-78065238D01*
X184269023Y-77970000D01*
X184078547Y-77922380D01*
X183745214Y-77922380D01*
X183554738Y-77970000D01*
X183459500Y-78065238D01*
X183411880Y-78160476D01*
X184411880Y-79017619D02*
X183411880Y-79017619D01*
X184411880Y-79589047D01*
X183411880Y-79589047D01*
X183411880Y-80541428D02*
X183411880Y-80065238D01*
X183888071Y-80017619D01*
X183840452Y-80065238D01*
X183792833Y-80160476D01*
X183792833Y-80398571D01*
X183840452Y-80493809D01*
X183888071Y-80541428D01*
X183983309Y-80589047D01*
X184221404Y-80589047D01*
X184316642Y-80541428D01*
X184364261Y-80493809D01*
X184411880Y-80398571D01*
X184411880Y-80160476D01*
X184364261Y-80065238D01*
X184316642Y-80017619D01*
X181284571Y-74731904D02*
X181332190Y-74874761D01*
X181379809Y-74922380D01*
X181475047Y-74970000D01*
X181617904Y-74970000D01*
X181713142Y-74922380D01*
X181760761Y-74874761D01*
X181808380Y-74779523D01*
X181808380Y-74398571D01*
X180808380Y-74398571D01*
X180808380Y-74731904D01*
X180856000Y-74827142D01*
X180903619Y-74874761D01*
X180998857Y-74922380D01*
X181094095Y-74922380D01*
X181189333Y-74874761D01*
X181236952Y-74827142D01*
X181284571Y-74731904D01*
X181284571Y-74398571D01*
X180808380Y-75398571D02*
X181617904Y-75398571D01*
X181713142Y-75446190D01*
X181760761Y-75493809D01*
X181808380Y-75589047D01*
X181808380Y-75779523D01*
X181760761Y-75874761D01*
X181713142Y-75922380D01*
X181617904Y-75970000D01*
X180808380Y-75970000D01*
X180808380Y-76303333D02*
X180808380Y-76874761D01*
X181808380Y-76589047D02*
X180808380Y-76589047D01*
X180808380Y-77065238D02*
X180808380Y-77636666D01*
X181808380Y-77350952D02*
X180808380Y-77350952D01*
X180808380Y-78160476D02*
X180808380Y-78350952D01*
X180856000Y-78446190D01*
X180951238Y-78541428D01*
X181141714Y-78589047D01*
X181475047Y-78589047D01*
X181665523Y-78541428D01*
X181760761Y-78446190D01*
X181808380Y-78350952D01*
X181808380Y-78160476D01*
X181760761Y-78065238D01*
X181665523Y-77970000D01*
X181475047Y-77922380D01*
X181141714Y-77922380D01*
X180951238Y-77970000D01*
X180856000Y-78065238D01*
X180808380Y-78160476D01*
X181808380Y-79017619D02*
X180808380Y-79017619D01*
X181808380Y-79589047D01*
X180808380Y-79589047D01*
X181141714Y-80493809D02*
X181808380Y-80493809D01*
X180760761Y-80255714D02*
X181475047Y-80017619D01*
X181475047Y-80636666D01*
X178744571Y-74795404D02*
X178792190Y-74938261D01*
X178839809Y-74985880D01*
X178935047Y-75033500D01*
X179077904Y-75033500D01*
X179173142Y-74985880D01*
X179220761Y-74938261D01*
X179268380Y-74843023D01*
X179268380Y-74462071D01*
X178268380Y-74462071D01*
X178268380Y-74795404D01*
X178316000Y-74890642D01*
X178363619Y-74938261D01*
X178458857Y-74985880D01*
X178554095Y-74985880D01*
X178649333Y-74938261D01*
X178696952Y-74890642D01*
X178744571Y-74795404D01*
X178744571Y-74462071D01*
X178268380Y-75462071D02*
X179077904Y-75462071D01*
X179173142Y-75509690D01*
X179220761Y-75557309D01*
X179268380Y-75652547D01*
X179268380Y-75843023D01*
X179220761Y-75938261D01*
X179173142Y-75985880D01*
X179077904Y-76033500D01*
X178268380Y-76033500D01*
X178268380Y-76366833D02*
X178268380Y-76938261D01*
X179268380Y-76652547D02*
X178268380Y-76652547D01*
X178268380Y-77128738D02*
X178268380Y-77700166D01*
X179268380Y-77414452D02*
X178268380Y-77414452D01*
X178268380Y-78223976D02*
X178268380Y-78414452D01*
X178316000Y-78509690D01*
X178411238Y-78604928D01*
X178601714Y-78652547D01*
X178935047Y-78652547D01*
X179125523Y-78604928D01*
X179220761Y-78509690D01*
X179268380Y-78414452D01*
X179268380Y-78223976D01*
X179220761Y-78128738D01*
X179125523Y-78033500D01*
X178935047Y-77985880D01*
X178601714Y-77985880D01*
X178411238Y-78033500D01*
X178316000Y-78128738D01*
X178268380Y-78223976D01*
X179268380Y-79081119D02*
X178268380Y-79081119D01*
X179268380Y-79652547D01*
X178268380Y-79652547D01*
X178268380Y-80033500D02*
X178268380Y-80652547D01*
X178649333Y-80319214D01*
X178649333Y-80462071D01*
X178696952Y-80557309D01*
X178744571Y-80604928D01*
X178839809Y-80652547D01*
X179077904Y-80652547D01*
X179173142Y-80604928D01*
X179220761Y-80557309D01*
X179268380Y-80462071D01*
X179268380Y-80176357D01*
X179220761Y-80081119D01*
X179173142Y-80033500D01*
X176204571Y-74795404D02*
X176252190Y-74938261D01*
X176299809Y-74985880D01*
X176395047Y-75033500D01*
X176537904Y-75033500D01*
X176633142Y-74985880D01*
X176680761Y-74938261D01*
X176728380Y-74843023D01*
X176728380Y-74462071D01*
X175728380Y-74462071D01*
X175728380Y-74795404D01*
X175776000Y-74890642D01*
X175823619Y-74938261D01*
X175918857Y-74985880D01*
X176014095Y-74985880D01*
X176109333Y-74938261D01*
X176156952Y-74890642D01*
X176204571Y-74795404D01*
X176204571Y-74462071D01*
X175728380Y-75462071D02*
X176537904Y-75462071D01*
X176633142Y-75509690D01*
X176680761Y-75557309D01*
X176728380Y-75652547D01*
X176728380Y-75843023D01*
X176680761Y-75938261D01*
X176633142Y-75985880D01*
X176537904Y-76033500D01*
X175728380Y-76033500D01*
X175728380Y-76366833D02*
X175728380Y-76938261D01*
X176728380Y-76652547D02*
X175728380Y-76652547D01*
X175728380Y-77128738D02*
X175728380Y-77700166D01*
X176728380Y-77414452D02*
X175728380Y-77414452D01*
X175728380Y-78223976D02*
X175728380Y-78414452D01*
X175776000Y-78509690D01*
X175871238Y-78604928D01*
X176061714Y-78652547D01*
X176395047Y-78652547D01*
X176585523Y-78604928D01*
X176680761Y-78509690D01*
X176728380Y-78414452D01*
X176728380Y-78223976D01*
X176680761Y-78128738D01*
X176585523Y-78033500D01*
X176395047Y-77985880D01*
X176061714Y-77985880D01*
X175871238Y-78033500D01*
X175776000Y-78128738D01*
X175728380Y-78223976D01*
X176728380Y-79081119D02*
X175728380Y-79081119D01*
X176728380Y-79652547D01*
X175728380Y-79652547D01*
X175823619Y-80081119D02*
X175776000Y-80128738D01*
X175728380Y-80223976D01*
X175728380Y-80462071D01*
X175776000Y-80557309D01*
X175823619Y-80604928D01*
X175918857Y-80652547D01*
X176014095Y-80652547D01*
X176156952Y-80604928D01*
X176728380Y-80033500D01*
X176728380Y-80652547D01*
X173728071Y-74795404D02*
X173775690Y-74938261D01*
X173823309Y-74985880D01*
X173918547Y-75033500D01*
X174061404Y-75033500D01*
X174156642Y-74985880D01*
X174204261Y-74938261D01*
X174251880Y-74843023D01*
X174251880Y-74462071D01*
X173251880Y-74462071D01*
X173251880Y-74795404D01*
X173299500Y-74890642D01*
X173347119Y-74938261D01*
X173442357Y-74985880D01*
X173537595Y-74985880D01*
X173632833Y-74938261D01*
X173680452Y-74890642D01*
X173728071Y-74795404D01*
X173728071Y-74462071D01*
X173251880Y-75462071D02*
X174061404Y-75462071D01*
X174156642Y-75509690D01*
X174204261Y-75557309D01*
X174251880Y-75652547D01*
X174251880Y-75843023D01*
X174204261Y-75938261D01*
X174156642Y-75985880D01*
X174061404Y-76033500D01*
X173251880Y-76033500D01*
X173251880Y-76366833D02*
X173251880Y-76938261D01*
X174251880Y-76652547D02*
X173251880Y-76652547D01*
X173251880Y-77128738D02*
X173251880Y-77700166D01*
X174251880Y-77414452D02*
X173251880Y-77414452D01*
X173251880Y-78223976D02*
X173251880Y-78414452D01*
X173299500Y-78509690D01*
X173394738Y-78604928D01*
X173585214Y-78652547D01*
X173918547Y-78652547D01*
X174109023Y-78604928D01*
X174204261Y-78509690D01*
X174251880Y-78414452D01*
X174251880Y-78223976D01*
X174204261Y-78128738D01*
X174109023Y-78033500D01*
X173918547Y-77985880D01*
X173585214Y-77985880D01*
X173394738Y-78033500D01*
X173299500Y-78128738D01*
X173251880Y-78223976D01*
X174251880Y-79081119D02*
X173251880Y-79081119D01*
X174251880Y-79652547D01*
X173251880Y-79652547D01*
X174251880Y-80652547D02*
X174251880Y-80081119D01*
X174251880Y-80366833D02*
X173251880Y-80366833D01*
X173394738Y-80271595D01*
X173489976Y-80176357D01*
X173537595Y-80081119D01*
X170759500Y-75120595D02*
X170711880Y-75025357D01*
X170711880Y-74882500D01*
X170759500Y-74739642D01*
X170854738Y-74644404D01*
X170949976Y-74596785D01*
X171140452Y-74549166D01*
X171283309Y-74549166D01*
X171473785Y-74596785D01*
X171569023Y-74644404D01*
X171664261Y-74739642D01*
X171711880Y-74882500D01*
X171711880Y-74977738D01*
X171664261Y-75120595D01*
X171616642Y-75168214D01*
X171283309Y-75168214D01*
X171283309Y-74977738D01*
X171711880Y-75596785D02*
X170711880Y-75596785D01*
X171711880Y-76168214D01*
X170711880Y-76168214D01*
X171711880Y-76644404D02*
X170711880Y-76644404D01*
X170711880Y-76882500D01*
X170759500Y-77025357D01*
X170854738Y-77120595D01*
X170949976Y-77168214D01*
X171140452Y-77215833D01*
X171283309Y-77215833D01*
X171473785Y-77168214D01*
X171569023Y-77120595D01*
X171664261Y-77025357D01*
X171711880Y-76882500D01*
X171711880Y-76644404D01*
D11*
X94863661Y-111969057D02*
X94944614Y-111888104D01*
X94863661Y-111807152D01*
X94782709Y-111888104D01*
X94863661Y-111969057D01*
X94863661Y-111807152D01*
X94863661Y-112454771D02*
X94782709Y-113426200D01*
X94863661Y-113507152D01*
X94944614Y-113426200D01*
X94863661Y-112454771D01*
X94863661Y-113507152D01*
X95673185Y-111969057D02*
X95754138Y-111888104D01*
X95673185Y-111807152D01*
X95592233Y-111888104D01*
X95673185Y-111969057D01*
X95673185Y-111807152D01*
X95673185Y-112454771D02*
X95592233Y-113426200D01*
X95673185Y-113507152D01*
X95754138Y-113426200D01*
X95673185Y-112454771D01*
X95673185Y-113507152D01*
X97616042Y-113507152D02*
X98020804Y-111807152D01*
X98344614Y-113021438D01*
X98668423Y-111807152D01*
X99073185Y-113507152D01*
X99639852Y-112292866D02*
X100449376Y-112292866D01*
X99477947Y-111807152D02*
X100044614Y-113507152D01*
X100611280Y-111807152D01*
X102149376Y-111807152D02*
X101582709Y-112616676D01*
X101177947Y-111807152D02*
X101177947Y-113507152D01*
X101825566Y-113507152D01*
X101987471Y-113426200D01*
X102068423Y-113345247D01*
X102149376Y-113183342D01*
X102149376Y-112940485D01*
X102068423Y-112778580D01*
X101987471Y-112697628D01*
X101825566Y-112616676D01*
X101177947Y-112616676D01*
X102877947Y-111807152D02*
X102877947Y-113507152D01*
X103849376Y-111807152D01*
X103849376Y-113507152D01*
X104658900Y-111807152D02*
X104658900Y-113507152D01*
X105468423Y-111807152D02*
X105468423Y-113507152D01*
X106439852Y-111807152D01*
X106439852Y-113507152D01*
X108139852Y-113426200D02*
X107977947Y-113507152D01*
X107735090Y-113507152D01*
X107492233Y-113426200D01*
X107330328Y-113264295D01*
X107249376Y-113102390D01*
X107168423Y-112778580D01*
X107168423Y-112535723D01*
X107249376Y-112211914D01*
X107330328Y-112050009D01*
X107492233Y-111888104D01*
X107735090Y-111807152D01*
X107896995Y-111807152D01*
X108139852Y-111888104D01*
X108220804Y-111969057D01*
X108220804Y-112535723D01*
X107896995Y-112535723D01*
X110244614Y-111969057D02*
X110325566Y-111888104D01*
X110244614Y-111807152D01*
X110163661Y-111888104D01*
X110244614Y-111969057D01*
X110244614Y-111807152D01*
X110244614Y-112454771D02*
X110163661Y-113426200D01*
X110244614Y-113507152D01*
X110325566Y-113426200D01*
X110244614Y-112454771D01*
X110244614Y-113507152D01*
X111054138Y-111969057D02*
X111135090Y-111888104D01*
X111054138Y-111807152D01*
X110973185Y-111888104D01*
X111054138Y-111969057D01*
X111054138Y-111807152D01*
X111054138Y-112454771D02*
X110973185Y-113426200D01*
X111054138Y-113507152D01*
X111135090Y-113426200D01*
X111054138Y-112454771D01*
X111054138Y-113507152D01*
X91463661Y-109219057D02*
X91544614Y-109138104D01*
X91463661Y-109057152D01*
X91382709Y-109138104D01*
X91463661Y-109219057D01*
X91463661Y-109057152D01*
X91463661Y-109704771D02*
X91382709Y-110676200D01*
X91463661Y-110757152D01*
X91544614Y-110676200D01*
X91463661Y-109704771D01*
X91463661Y-110757152D01*
X92273185Y-109219057D02*
X92354138Y-109138104D01*
X92273185Y-109057152D01*
X92192233Y-109138104D01*
X92273185Y-109219057D01*
X92273185Y-109057152D01*
X92273185Y-109704771D02*
X92192233Y-110676200D01*
X92273185Y-110757152D01*
X92354138Y-110676200D01*
X92273185Y-109704771D01*
X92273185Y-110757152D01*
X94377947Y-109057152D02*
X94377947Y-110757152D01*
X94377947Y-109947628D02*
X95349376Y-109947628D01*
X95349376Y-109057152D02*
X95349376Y-110757152D01*
X96158900Y-109057152D02*
X96158900Y-110757152D01*
X97858900Y-110676200D02*
X97696995Y-110757152D01*
X97454138Y-110757152D01*
X97211280Y-110676200D01*
X97049376Y-110514295D01*
X96968423Y-110352390D01*
X96887471Y-110028580D01*
X96887471Y-109785723D01*
X96968423Y-109461914D01*
X97049376Y-109300009D01*
X97211280Y-109138104D01*
X97454138Y-109057152D01*
X97616042Y-109057152D01*
X97858900Y-109138104D01*
X97939852Y-109219057D01*
X97939852Y-109785723D01*
X97616042Y-109785723D01*
X98668423Y-109057152D02*
X98668423Y-110757152D01*
X98668423Y-109947628D02*
X99639852Y-109947628D01*
X99639852Y-109057152D02*
X99639852Y-110757152D01*
X101501757Y-110757152D02*
X102068423Y-109057152D01*
X102635090Y-110757152D01*
X103525566Y-110757152D02*
X103849376Y-110757152D01*
X104011280Y-110676200D01*
X104173185Y-110514295D01*
X104254138Y-110190485D01*
X104254138Y-109623819D01*
X104173185Y-109300009D01*
X104011280Y-109138104D01*
X103849376Y-109057152D01*
X103525566Y-109057152D01*
X103363661Y-109138104D01*
X103201757Y-109300009D01*
X103120804Y-109623819D01*
X103120804Y-110190485D01*
X103201757Y-110514295D01*
X103363661Y-110676200D01*
X103525566Y-110757152D01*
X105792233Y-109057152D02*
X104982709Y-109057152D01*
X104982709Y-110757152D01*
X106116042Y-110757152D02*
X107087471Y-110757152D01*
X106601757Y-109057152D02*
X106601757Y-110757152D01*
X107573185Y-109542866D02*
X108382709Y-109542866D01*
X107411280Y-109057152D02*
X107977947Y-110757152D01*
X108544614Y-109057152D01*
X110001757Y-110676200D02*
X109839852Y-110757152D01*
X109596995Y-110757152D01*
X109354138Y-110676200D01*
X109192233Y-110514295D01*
X109111280Y-110352390D01*
X109030328Y-110028580D01*
X109030328Y-109785723D01*
X109111280Y-109461914D01*
X109192233Y-109300009D01*
X109354138Y-109138104D01*
X109596995Y-109057152D01*
X109758900Y-109057152D01*
X110001757Y-109138104D01*
X110082709Y-109219057D01*
X110082709Y-109785723D01*
X109758900Y-109785723D01*
X110811280Y-109947628D02*
X111377947Y-109947628D01*
X111620804Y-109057152D02*
X110811280Y-109057152D01*
X110811280Y-110757152D01*
X111620804Y-110757152D01*
X113644614Y-109219057D02*
X113725566Y-109138104D01*
X113644614Y-109057152D01*
X113563661Y-109138104D01*
X113644614Y-109219057D01*
X113644614Y-109057152D01*
X113644614Y-109704771D02*
X113563661Y-110676200D01*
X113644614Y-110757152D01*
X113725566Y-110676200D01*
X113644614Y-109704771D01*
X113644614Y-110757152D01*
X114454138Y-109219057D02*
X114535090Y-109138104D01*
X114454138Y-109057152D01*
X114373185Y-109138104D01*
X114454138Y-109219057D01*
X114454138Y-109057152D01*
X114454138Y-109704771D02*
X114373185Y-110676200D01*
X114454138Y-110757152D01*
X114535090Y-110676200D01*
X114454138Y-109704771D01*
X114454138Y-110757152D01*
D12*
G04 #@! TO.C,J2*
X190369500Y-71123500D02*
X190369500Y-73783500D01*
X172529500Y-71123500D02*
X190369500Y-71123500D01*
X172529500Y-73783500D02*
X190369500Y-73783500D01*
X172529500Y-71123500D02*
X172529500Y-73783500D01*
X171259500Y-71123500D02*
X169929500Y-71123500D01*
X169929500Y-71123500D02*
X169929500Y-72453500D01*
G04 #@! TO.C,J1*
X218166500Y-117542000D02*
X218166500Y-120202000D01*
X200326500Y-117542000D02*
X218166500Y-117542000D01*
X200326500Y-120202000D02*
X218166500Y-120202000D01*
X200326500Y-117542000D02*
X200326500Y-120202000D01*
X199056500Y-117542000D02*
X197726500Y-117542000D01*
X197726500Y-117542000D02*
X197726500Y-118872000D01*
G04 #@! TO.C,J2*
D10*
X168381880Y-72120166D02*
X169096166Y-72120166D01*
X169239023Y-72072547D01*
X169334261Y-71977309D01*
X169381880Y-71834452D01*
X169381880Y-71739214D01*
X168477119Y-72548738D02*
X168429500Y-72596357D01*
X168381880Y-72691595D01*
X168381880Y-72929690D01*
X168429500Y-73024928D01*
X168477119Y-73072547D01*
X168572357Y-73120166D01*
X168667595Y-73120166D01*
X168810452Y-73072547D01*
X169381880Y-72501119D01*
X169381880Y-73120166D01*
G04 #@! TO.C,J1*
X196178880Y-118538666D02*
X196893166Y-118538666D01*
X197036023Y-118491047D01*
X197131261Y-118395809D01*
X197178880Y-118252952D01*
X197178880Y-118157714D01*
X197178880Y-119538666D02*
X197178880Y-118967238D01*
X197178880Y-119252952D02*
X196178880Y-119252952D01*
X196321738Y-119157714D01*
X196416976Y-119062476D01*
X196464595Y-118967238D01*
G04 #@! TD*
M02*
