G04 #@! TF.GenerationSoftware,KiCad,Pcbnew,5.1.7*
G04 #@! TF.CreationDate,2020-10-09T13:13:43+08:00*
G04 #@! TF.ProjectId,Nixie,4e697869-652e-46b6-9963-61645f706362,rev?*
G04 #@! TF.SameCoordinates,Original*
G04 #@! TF.FileFunction,Paste,Top*
G04 #@! TF.FilePolarity,Positive*
%FSLAX46Y46*%
G04 Gerber Fmt 4.6, Leading zero omitted, Abs format (unit mm)*
G04 Created by KiCad (PCBNEW 5.1.7) date 2020-10-09 13:13:43*
%MOMM*%
%LPD*%
G01*
G04 APERTURE LIST*
%ADD10R,1.550000X1.300000*%
G04 APERTURE END LIST*
G04 #@! TO.C,U3*
G36*
G01*
X192655051Y-111488788D02*
X193786422Y-112620159D01*
G75*
G02*
X193786422Y-112814613I-97227J-97227D01*
G01*
X193591967Y-113009068D01*
G75*
G02*
X193397513Y-113009068I-97227J97227D01*
G01*
X192266142Y-111877697D01*
G75*
G02*
X192266142Y-111683243I97227J97227D01*
G01*
X192460597Y-111488788D01*
G75*
G02*
X192655051Y-111488788I97227J-97227D01*
G01*
G37*
G36*
G01*
X192089366Y-112054474D02*
X193220737Y-113185845D01*
G75*
G02*
X193220737Y-113380299I-97227J-97227D01*
G01*
X193026282Y-113574754D01*
G75*
G02*
X192831828Y-113574754I-97227J97227D01*
G01*
X191700457Y-112443383D01*
G75*
G02*
X191700457Y-112248929I97227J97227D01*
G01*
X191894912Y-112054474D01*
G75*
G02*
X192089366Y-112054474I97227J-97227D01*
G01*
G37*
G36*
G01*
X191523681Y-112620159D02*
X192655052Y-113751530D01*
G75*
G02*
X192655052Y-113945984I-97227J-97227D01*
G01*
X192460597Y-114140439D01*
G75*
G02*
X192266143Y-114140439I-97227J97227D01*
G01*
X191134772Y-113009068D01*
G75*
G02*
X191134772Y-112814614I97227J97227D01*
G01*
X191329227Y-112620159D01*
G75*
G02*
X191523681Y-112620159I97227J-97227D01*
G01*
G37*
G36*
G01*
X190957995Y-113185844D02*
X192089366Y-114317215D01*
G75*
G02*
X192089366Y-114511669I-97227J-97227D01*
G01*
X191894911Y-114706124D01*
G75*
G02*
X191700457Y-114706124I-97227J97227D01*
G01*
X190569086Y-113574753D01*
G75*
G02*
X190569086Y-113380299I97227J97227D01*
G01*
X190763541Y-113185844D01*
G75*
G02*
X190957995Y-113185844I97227J-97227D01*
G01*
G37*
G36*
G01*
X190392310Y-113751530D02*
X191523681Y-114882901D01*
G75*
G02*
X191523681Y-115077355I-97227J-97227D01*
G01*
X191329226Y-115271810D01*
G75*
G02*
X191134772Y-115271810I-97227J97227D01*
G01*
X190003401Y-114140439D01*
G75*
G02*
X190003401Y-113945985I97227J97227D01*
G01*
X190197856Y-113751530D01*
G75*
G02*
X190392310Y-113751530I97227J-97227D01*
G01*
G37*
G36*
G01*
X189826624Y-114317215D02*
X190957995Y-115448586D01*
G75*
G02*
X190957995Y-115643040I-97227J-97227D01*
G01*
X190763540Y-115837495D01*
G75*
G02*
X190569086Y-115837495I-97227J97227D01*
G01*
X189437715Y-114706124D01*
G75*
G02*
X189437715Y-114511670I97227J97227D01*
G01*
X189632170Y-114317215D01*
G75*
G02*
X189826624Y-114317215I97227J-97227D01*
G01*
G37*
G36*
G01*
X189260939Y-114882901D02*
X190392310Y-116014272D01*
G75*
G02*
X190392310Y-116208726I-97227J-97227D01*
G01*
X190197855Y-116403181D01*
G75*
G02*
X190003401Y-116403181I-97227J97227D01*
G01*
X188872030Y-115271810D01*
G75*
G02*
X188872030Y-115077356I97227J97227D01*
G01*
X189066485Y-114882901D01*
G75*
G02*
X189260939Y-114882901I97227J-97227D01*
G01*
G37*
G36*
G01*
X188695253Y-115448586D02*
X189826624Y-116579957D01*
G75*
G02*
X189826624Y-116774411I-97227J-97227D01*
G01*
X189632169Y-116968866D01*
G75*
G02*
X189437715Y-116968866I-97227J97227D01*
G01*
X188306344Y-115837495D01*
G75*
G02*
X188306344Y-115643041I97227J97227D01*
G01*
X188500799Y-115448586D01*
G75*
G02*
X188695253Y-115448586I97227J-97227D01*
G01*
G37*
G36*
G01*
X188129568Y-116014272D02*
X189260939Y-117145643D01*
G75*
G02*
X189260939Y-117340097I-97227J-97227D01*
G01*
X189066484Y-117534552D01*
G75*
G02*
X188872030Y-117534552I-97227J97227D01*
G01*
X187740659Y-116403181D01*
G75*
G02*
X187740659Y-116208727I97227J97227D01*
G01*
X187935114Y-116014272D01*
G75*
G02*
X188129568Y-116014272I97227J-97227D01*
G01*
G37*
G36*
G01*
X187563883Y-116579957D02*
X188695254Y-117711328D01*
G75*
G02*
X188695254Y-117905782I-97227J-97227D01*
G01*
X188500799Y-118100237D01*
G75*
G02*
X188306345Y-118100237I-97227J97227D01*
G01*
X187174974Y-116968866D01*
G75*
G02*
X187174974Y-116774412I97227J97227D01*
G01*
X187369429Y-116579957D01*
G75*
G02*
X187563883Y-116579957I97227J-97227D01*
G01*
G37*
G36*
G01*
X186998197Y-117145642D02*
X188129568Y-118277013D01*
G75*
G02*
X188129568Y-118471467I-97227J-97227D01*
G01*
X187935113Y-118665922D01*
G75*
G02*
X187740659Y-118665922I-97227J97227D01*
G01*
X186609288Y-117534551D01*
G75*
G02*
X186609288Y-117340097I97227J97227D01*
G01*
X186803743Y-117145642D01*
G75*
G02*
X186998197Y-117145642I97227J-97227D01*
G01*
G37*
G36*
G01*
X184417257Y-117145642D02*
X184611712Y-117340097D01*
G75*
G02*
X184611712Y-117534551I-97227J-97227D01*
G01*
X183480341Y-118665922D01*
G75*
G02*
X183285887Y-118665922I-97227J97227D01*
G01*
X183091432Y-118471467D01*
G75*
G02*
X183091432Y-118277013I97227J97227D01*
G01*
X184222803Y-117145642D01*
G75*
G02*
X184417257Y-117145642I97227J-97227D01*
G01*
G37*
G36*
G01*
X183851571Y-116579957D02*
X184046026Y-116774412D01*
G75*
G02*
X184046026Y-116968866I-97227J-97227D01*
G01*
X182914655Y-118100237D01*
G75*
G02*
X182720201Y-118100237I-97227J97227D01*
G01*
X182525746Y-117905782D01*
G75*
G02*
X182525746Y-117711328I97227J97227D01*
G01*
X183657117Y-116579957D01*
G75*
G02*
X183851571Y-116579957I97227J-97227D01*
G01*
G37*
G36*
G01*
X183285886Y-116014272D02*
X183480341Y-116208727D01*
G75*
G02*
X183480341Y-116403181I-97227J-97227D01*
G01*
X182348970Y-117534552D01*
G75*
G02*
X182154516Y-117534552I-97227J97227D01*
G01*
X181960061Y-117340097D01*
G75*
G02*
X181960061Y-117145643I97227J97227D01*
G01*
X183091432Y-116014272D01*
G75*
G02*
X183285886Y-116014272I97227J-97227D01*
G01*
G37*
G36*
G01*
X182720201Y-115448586D02*
X182914656Y-115643041D01*
G75*
G02*
X182914656Y-115837495I-97227J-97227D01*
G01*
X181783285Y-116968866D01*
G75*
G02*
X181588831Y-116968866I-97227J97227D01*
G01*
X181394376Y-116774411D01*
G75*
G02*
X181394376Y-116579957I97227J97227D01*
G01*
X182525747Y-115448586D01*
G75*
G02*
X182720201Y-115448586I97227J-97227D01*
G01*
G37*
G36*
G01*
X182154515Y-114882901D02*
X182348970Y-115077356D01*
G75*
G02*
X182348970Y-115271810I-97227J-97227D01*
G01*
X181217599Y-116403181D01*
G75*
G02*
X181023145Y-116403181I-97227J97227D01*
G01*
X180828690Y-116208726D01*
G75*
G02*
X180828690Y-116014272I97227J97227D01*
G01*
X181960061Y-114882901D01*
G75*
G02*
X182154515Y-114882901I97227J-97227D01*
G01*
G37*
G36*
G01*
X181588830Y-114317215D02*
X181783285Y-114511670D01*
G75*
G02*
X181783285Y-114706124I-97227J-97227D01*
G01*
X180651914Y-115837495D01*
G75*
G02*
X180457460Y-115837495I-97227J97227D01*
G01*
X180263005Y-115643040D01*
G75*
G02*
X180263005Y-115448586I97227J97227D01*
G01*
X181394376Y-114317215D01*
G75*
G02*
X181588830Y-114317215I97227J-97227D01*
G01*
G37*
G36*
G01*
X181023144Y-113751530D02*
X181217599Y-113945985D01*
G75*
G02*
X181217599Y-114140439I-97227J-97227D01*
G01*
X180086228Y-115271810D01*
G75*
G02*
X179891774Y-115271810I-97227J97227D01*
G01*
X179697319Y-115077355D01*
G75*
G02*
X179697319Y-114882901I97227J97227D01*
G01*
X180828690Y-113751530D01*
G75*
G02*
X181023144Y-113751530I97227J-97227D01*
G01*
G37*
G36*
G01*
X180457459Y-113185844D02*
X180651914Y-113380299D01*
G75*
G02*
X180651914Y-113574753I-97227J-97227D01*
G01*
X179520543Y-114706124D01*
G75*
G02*
X179326089Y-114706124I-97227J97227D01*
G01*
X179131634Y-114511669D01*
G75*
G02*
X179131634Y-114317215I97227J97227D01*
G01*
X180263005Y-113185844D01*
G75*
G02*
X180457459Y-113185844I97227J-97227D01*
G01*
G37*
G36*
G01*
X179891773Y-112620159D02*
X180086228Y-112814614D01*
G75*
G02*
X180086228Y-113009068I-97227J-97227D01*
G01*
X178954857Y-114140439D01*
G75*
G02*
X178760403Y-114140439I-97227J97227D01*
G01*
X178565948Y-113945984D01*
G75*
G02*
X178565948Y-113751530I97227J97227D01*
G01*
X179697319Y-112620159D01*
G75*
G02*
X179891773Y-112620159I97227J-97227D01*
G01*
G37*
G36*
G01*
X179326088Y-112054474D02*
X179520543Y-112248929D01*
G75*
G02*
X179520543Y-112443383I-97227J-97227D01*
G01*
X178389172Y-113574754D01*
G75*
G02*
X178194718Y-113574754I-97227J97227D01*
G01*
X178000263Y-113380299D01*
G75*
G02*
X178000263Y-113185845I97227J97227D01*
G01*
X179131634Y-112054474D01*
G75*
G02*
X179326088Y-112054474I97227J-97227D01*
G01*
G37*
G36*
G01*
X178760403Y-111488788D02*
X178954858Y-111683243D01*
G75*
G02*
X178954858Y-111877697I-97227J-97227D01*
G01*
X177823487Y-113009068D01*
G75*
G02*
X177629033Y-113009068I-97227J97227D01*
G01*
X177434578Y-112814613D01*
G75*
G02*
X177434578Y-112620159I97227J97227D01*
G01*
X178565949Y-111488788D01*
G75*
G02*
X178760403Y-111488788I97227J-97227D01*
G01*
G37*
G36*
G01*
X177823487Y-107970932D02*
X178954858Y-109102303D01*
G75*
G02*
X178954858Y-109296757I-97227J-97227D01*
G01*
X178760403Y-109491212D01*
G75*
G02*
X178565949Y-109491212I-97227J97227D01*
G01*
X177434578Y-108359841D01*
G75*
G02*
X177434578Y-108165387I97227J97227D01*
G01*
X177629033Y-107970932D01*
G75*
G02*
X177823487Y-107970932I97227J-97227D01*
G01*
G37*
G36*
G01*
X178389172Y-107405246D02*
X179520543Y-108536617D01*
G75*
G02*
X179520543Y-108731071I-97227J-97227D01*
G01*
X179326088Y-108925526D01*
G75*
G02*
X179131634Y-108925526I-97227J97227D01*
G01*
X178000263Y-107794155D01*
G75*
G02*
X178000263Y-107599701I97227J97227D01*
G01*
X178194718Y-107405246D01*
G75*
G02*
X178389172Y-107405246I97227J-97227D01*
G01*
G37*
G36*
G01*
X178954857Y-106839561D02*
X180086228Y-107970932D01*
G75*
G02*
X180086228Y-108165386I-97227J-97227D01*
G01*
X179891773Y-108359841D01*
G75*
G02*
X179697319Y-108359841I-97227J97227D01*
G01*
X178565948Y-107228470D01*
G75*
G02*
X178565948Y-107034016I97227J97227D01*
G01*
X178760403Y-106839561D01*
G75*
G02*
X178954857Y-106839561I97227J-97227D01*
G01*
G37*
G36*
G01*
X179520543Y-106273876D02*
X180651914Y-107405247D01*
G75*
G02*
X180651914Y-107599701I-97227J-97227D01*
G01*
X180457459Y-107794156D01*
G75*
G02*
X180263005Y-107794156I-97227J97227D01*
G01*
X179131634Y-106662785D01*
G75*
G02*
X179131634Y-106468331I97227J97227D01*
G01*
X179326089Y-106273876D01*
G75*
G02*
X179520543Y-106273876I97227J-97227D01*
G01*
G37*
G36*
G01*
X180086228Y-105708190D02*
X181217599Y-106839561D01*
G75*
G02*
X181217599Y-107034015I-97227J-97227D01*
G01*
X181023144Y-107228470D01*
G75*
G02*
X180828690Y-107228470I-97227J97227D01*
G01*
X179697319Y-106097099D01*
G75*
G02*
X179697319Y-105902645I97227J97227D01*
G01*
X179891774Y-105708190D01*
G75*
G02*
X180086228Y-105708190I97227J-97227D01*
G01*
G37*
G36*
G01*
X180651914Y-105142505D02*
X181783285Y-106273876D01*
G75*
G02*
X181783285Y-106468330I-97227J-97227D01*
G01*
X181588830Y-106662785D01*
G75*
G02*
X181394376Y-106662785I-97227J97227D01*
G01*
X180263005Y-105531414D01*
G75*
G02*
X180263005Y-105336960I97227J97227D01*
G01*
X180457460Y-105142505D01*
G75*
G02*
X180651914Y-105142505I97227J-97227D01*
G01*
G37*
G36*
G01*
X181217599Y-104576819D02*
X182348970Y-105708190D01*
G75*
G02*
X182348970Y-105902644I-97227J-97227D01*
G01*
X182154515Y-106097099D01*
G75*
G02*
X181960061Y-106097099I-97227J97227D01*
G01*
X180828690Y-104965728D01*
G75*
G02*
X180828690Y-104771274I97227J97227D01*
G01*
X181023145Y-104576819D01*
G75*
G02*
X181217599Y-104576819I97227J-97227D01*
G01*
G37*
G36*
G01*
X181783285Y-104011134D02*
X182914656Y-105142505D01*
G75*
G02*
X182914656Y-105336959I-97227J-97227D01*
G01*
X182720201Y-105531414D01*
G75*
G02*
X182525747Y-105531414I-97227J97227D01*
G01*
X181394376Y-104400043D01*
G75*
G02*
X181394376Y-104205589I97227J97227D01*
G01*
X181588831Y-104011134D01*
G75*
G02*
X181783285Y-104011134I97227J-97227D01*
G01*
G37*
G36*
G01*
X182348970Y-103445448D02*
X183480341Y-104576819D01*
G75*
G02*
X183480341Y-104771273I-97227J-97227D01*
G01*
X183285886Y-104965728D01*
G75*
G02*
X183091432Y-104965728I-97227J97227D01*
G01*
X181960061Y-103834357D01*
G75*
G02*
X181960061Y-103639903I97227J97227D01*
G01*
X182154516Y-103445448D01*
G75*
G02*
X182348970Y-103445448I97227J-97227D01*
G01*
G37*
G36*
G01*
X182914655Y-102879763D02*
X184046026Y-104011134D01*
G75*
G02*
X184046026Y-104205588I-97227J-97227D01*
G01*
X183851571Y-104400043D01*
G75*
G02*
X183657117Y-104400043I-97227J97227D01*
G01*
X182525746Y-103268672D01*
G75*
G02*
X182525746Y-103074218I97227J97227D01*
G01*
X182720201Y-102879763D01*
G75*
G02*
X182914655Y-102879763I97227J-97227D01*
G01*
G37*
G36*
G01*
X183480341Y-102314078D02*
X184611712Y-103445449D01*
G75*
G02*
X184611712Y-103639903I-97227J-97227D01*
G01*
X184417257Y-103834358D01*
G75*
G02*
X184222803Y-103834358I-97227J97227D01*
G01*
X183091432Y-102702987D01*
G75*
G02*
X183091432Y-102508533I97227J97227D01*
G01*
X183285887Y-102314078D01*
G75*
G02*
X183480341Y-102314078I97227J-97227D01*
G01*
G37*
G36*
G01*
X187935113Y-102314078D02*
X188129568Y-102508533D01*
G75*
G02*
X188129568Y-102702987I-97227J-97227D01*
G01*
X186998197Y-103834358D01*
G75*
G02*
X186803743Y-103834358I-97227J97227D01*
G01*
X186609288Y-103639903D01*
G75*
G02*
X186609288Y-103445449I97227J97227D01*
G01*
X187740659Y-102314078D01*
G75*
G02*
X187935113Y-102314078I97227J-97227D01*
G01*
G37*
G36*
G01*
X188500799Y-102879763D02*
X188695254Y-103074218D01*
G75*
G02*
X188695254Y-103268672I-97227J-97227D01*
G01*
X187563883Y-104400043D01*
G75*
G02*
X187369429Y-104400043I-97227J97227D01*
G01*
X187174974Y-104205588D01*
G75*
G02*
X187174974Y-104011134I97227J97227D01*
G01*
X188306345Y-102879763D01*
G75*
G02*
X188500799Y-102879763I97227J-97227D01*
G01*
G37*
G36*
G01*
X189066484Y-103445448D02*
X189260939Y-103639903D01*
G75*
G02*
X189260939Y-103834357I-97227J-97227D01*
G01*
X188129568Y-104965728D01*
G75*
G02*
X187935114Y-104965728I-97227J97227D01*
G01*
X187740659Y-104771273D01*
G75*
G02*
X187740659Y-104576819I97227J97227D01*
G01*
X188872030Y-103445448D01*
G75*
G02*
X189066484Y-103445448I97227J-97227D01*
G01*
G37*
G36*
G01*
X189632169Y-104011134D02*
X189826624Y-104205589D01*
G75*
G02*
X189826624Y-104400043I-97227J-97227D01*
G01*
X188695253Y-105531414D01*
G75*
G02*
X188500799Y-105531414I-97227J97227D01*
G01*
X188306344Y-105336959D01*
G75*
G02*
X188306344Y-105142505I97227J97227D01*
G01*
X189437715Y-104011134D01*
G75*
G02*
X189632169Y-104011134I97227J-97227D01*
G01*
G37*
G36*
G01*
X190197855Y-104576819D02*
X190392310Y-104771274D01*
G75*
G02*
X190392310Y-104965728I-97227J-97227D01*
G01*
X189260939Y-106097099D01*
G75*
G02*
X189066485Y-106097099I-97227J97227D01*
G01*
X188872030Y-105902644D01*
G75*
G02*
X188872030Y-105708190I97227J97227D01*
G01*
X190003401Y-104576819D01*
G75*
G02*
X190197855Y-104576819I97227J-97227D01*
G01*
G37*
G36*
G01*
X190763540Y-105142505D02*
X190957995Y-105336960D01*
G75*
G02*
X190957995Y-105531414I-97227J-97227D01*
G01*
X189826624Y-106662785D01*
G75*
G02*
X189632170Y-106662785I-97227J97227D01*
G01*
X189437715Y-106468330D01*
G75*
G02*
X189437715Y-106273876I97227J97227D01*
G01*
X190569086Y-105142505D01*
G75*
G02*
X190763540Y-105142505I97227J-97227D01*
G01*
G37*
G36*
G01*
X191329226Y-105708190D02*
X191523681Y-105902645D01*
G75*
G02*
X191523681Y-106097099I-97227J-97227D01*
G01*
X190392310Y-107228470D01*
G75*
G02*
X190197856Y-107228470I-97227J97227D01*
G01*
X190003401Y-107034015D01*
G75*
G02*
X190003401Y-106839561I97227J97227D01*
G01*
X191134772Y-105708190D01*
G75*
G02*
X191329226Y-105708190I97227J-97227D01*
G01*
G37*
G36*
G01*
X191894911Y-106273876D02*
X192089366Y-106468331D01*
G75*
G02*
X192089366Y-106662785I-97227J-97227D01*
G01*
X190957995Y-107794156D01*
G75*
G02*
X190763541Y-107794156I-97227J97227D01*
G01*
X190569086Y-107599701D01*
G75*
G02*
X190569086Y-107405247I97227J97227D01*
G01*
X191700457Y-106273876D01*
G75*
G02*
X191894911Y-106273876I97227J-97227D01*
G01*
G37*
G36*
G01*
X192460597Y-106839561D02*
X192655052Y-107034016D01*
G75*
G02*
X192655052Y-107228470I-97227J-97227D01*
G01*
X191523681Y-108359841D01*
G75*
G02*
X191329227Y-108359841I-97227J97227D01*
G01*
X191134772Y-108165386D01*
G75*
G02*
X191134772Y-107970932I97227J97227D01*
G01*
X192266143Y-106839561D01*
G75*
G02*
X192460597Y-106839561I97227J-97227D01*
G01*
G37*
G36*
G01*
X193026282Y-107405246D02*
X193220737Y-107599701D01*
G75*
G02*
X193220737Y-107794155I-97227J-97227D01*
G01*
X192089366Y-108925526D01*
G75*
G02*
X191894912Y-108925526I-97227J97227D01*
G01*
X191700457Y-108731071D01*
G75*
G02*
X191700457Y-108536617I97227J97227D01*
G01*
X192831828Y-107405246D01*
G75*
G02*
X193026282Y-107405246I97227J-97227D01*
G01*
G37*
G36*
G01*
X193591967Y-107970932D02*
X193786422Y-108165387D01*
G75*
G02*
X193786422Y-108359841I-97227J-97227D01*
G01*
X192655051Y-109491212D01*
G75*
G02*
X192460597Y-109491212I-97227J97227D01*
G01*
X192266142Y-109296757D01*
G75*
G02*
X192266142Y-109102303I97227J97227D01*
G01*
X193397513Y-107970932D01*
G75*
G02*
X193591967Y-107970932I97227J-97227D01*
G01*
G37*
G04 #@! TD*
G04 #@! TO.C,U2*
G36*
G01*
X131949051Y-112885788D02*
X133080422Y-114017159D01*
G75*
G02*
X133080422Y-114211613I-97227J-97227D01*
G01*
X132885967Y-114406068D01*
G75*
G02*
X132691513Y-114406068I-97227J97227D01*
G01*
X131560142Y-113274697D01*
G75*
G02*
X131560142Y-113080243I97227J97227D01*
G01*
X131754597Y-112885788D01*
G75*
G02*
X131949051Y-112885788I97227J-97227D01*
G01*
G37*
G36*
G01*
X131383366Y-113451474D02*
X132514737Y-114582845D01*
G75*
G02*
X132514737Y-114777299I-97227J-97227D01*
G01*
X132320282Y-114971754D01*
G75*
G02*
X132125828Y-114971754I-97227J97227D01*
G01*
X130994457Y-113840383D01*
G75*
G02*
X130994457Y-113645929I97227J97227D01*
G01*
X131188912Y-113451474D01*
G75*
G02*
X131383366Y-113451474I97227J-97227D01*
G01*
G37*
G36*
G01*
X130817681Y-114017159D02*
X131949052Y-115148530D01*
G75*
G02*
X131949052Y-115342984I-97227J-97227D01*
G01*
X131754597Y-115537439D01*
G75*
G02*
X131560143Y-115537439I-97227J97227D01*
G01*
X130428772Y-114406068D01*
G75*
G02*
X130428772Y-114211614I97227J97227D01*
G01*
X130623227Y-114017159D01*
G75*
G02*
X130817681Y-114017159I97227J-97227D01*
G01*
G37*
G36*
G01*
X130251995Y-114582844D02*
X131383366Y-115714215D01*
G75*
G02*
X131383366Y-115908669I-97227J-97227D01*
G01*
X131188911Y-116103124D01*
G75*
G02*
X130994457Y-116103124I-97227J97227D01*
G01*
X129863086Y-114971753D01*
G75*
G02*
X129863086Y-114777299I97227J97227D01*
G01*
X130057541Y-114582844D01*
G75*
G02*
X130251995Y-114582844I97227J-97227D01*
G01*
G37*
G36*
G01*
X129686310Y-115148530D02*
X130817681Y-116279901D01*
G75*
G02*
X130817681Y-116474355I-97227J-97227D01*
G01*
X130623226Y-116668810D01*
G75*
G02*
X130428772Y-116668810I-97227J97227D01*
G01*
X129297401Y-115537439D01*
G75*
G02*
X129297401Y-115342985I97227J97227D01*
G01*
X129491856Y-115148530D01*
G75*
G02*
X129686310Y-115148530I97227J-97227D01*
G01*
G37*
G36*
G01*
X129120624Y-115714215D02*
X130251995Y-116845586D01*
G75*
G02*
X130251995Y-117040040I-97227J-97227D01*
G01*
X130057540Y-117234495D01*
G75*
G02*
X129863086Y-117234495I-97227J97227D01*
G01*
X128731715Y-116103124D01*
G75*
G02*
X128731715Y-115908670I97227J97227D01*
G01*
X128926170Y-115714215D01*
G75*
G02*
X129120624Y-115714215I97227J-97227D01*
G01*
G37*
G36*
G01*
X128554939Y-116279901D02*
X129686310Y-117411272D01*
G75*
G02*
X129686310Y-117605726I-97227J-97227D01*
G01*
X129491855Y-117800181D01*
G75*
G02*
X129297401Y-117800181I-97227J97227D01*
G01*
X128166030Y-116668810D01*
G75*
G02*
X128166030Y-116474356I97227J97227D01*
G01*
X128360485Y-116279901D01*
G75*
G02*
X128554939Y-116279901I97227J-97227D01*
G01*
G37*
G36*
G01*
X127989253Y-116845586D02*
X129120624Y-117976957D01*
G75*
G02*
X129120624Y-118171411I-97227J-97227D01*
G01*
X128926169Y-118365866D01*
G75*
G02*
X128731715Y-118365866I-97227J97227D01*
G01*
X127600344Y-117234495D01*
G75*
G02*
X127600344Y-117040041I97227J97227D01*
G01*
X127794799Y-116845586D01*
G75*
G02*
X127989253Y-116845586I97227J-97227D01*
G01*
G37*
G36*
G01*
X127423568Y-117411272D02*
X128554939Y-118542643D01*
G75*
G02*
X128554939Y-118737097I-97227J-97227D01*
G01*
X128360484Y-118931552D01*
G75*
G02*
X128166030Y-118931552I-97227J97227D01*
G01*
X127034659Y-117800181D01*
G75*
G02*
X127034659Y-117605727I97227J97227D01*
G01*
X127229114Y-117411272D01*
G75*
G02*
X127423568Y-117411272I97227J-97227D01*
G01*
G37*
G36*
G01*
X126857883Y-117976957D02*
X127989254Y-119108328D01*
G75*
G02*
X127989254Y-119302782I-97227J-97227D01*
G01*
X127794799Y-119497237D01*
G75*
G02*
X127600345Y-119497237I-97227J97227D01*
G01*
X126468974Y-118365866D01*
G75*
G02*
X126468974Y-118171412I97227J97227D01*
G01*
X126663429Y-117976957D01*
G75*
G02*
X126857883Y-117976957I97227J-97227D01*
G01*
G37*
G36*
G01*
X126292197Y-118542642D02*
X127423568Y-119674013D01*
G75*
G02*
X127423568Y-119868467I-97227J-97227D01*
G01*
X127229113Y-120062922D01*
G75*
G02*
X127034659Y-120062922I-97227J97227D01*
G01*
X125903288Y-118931551D01*
G75*
G02*
X125903288Y-118737097I97227J97227D01*
G01*
X126097743Y-118542642D01*
G75*
G02*
X126292197Y-118542642I97227J-97227D01*
G01*
G37*
G36*
G01*
X123711257Y-118542642D02*
X123905712Y-118737097D01*
G75*
G02*
X123905712Y-118931551I-97227J-97227D01*
G01*
X122774341Y-120062922D01*
G75*
G02*
X122579887Y-120062922I-97227J97227D01*
G01*
X122385432Y-119868467D01*
G75*
G02*
X122385432Y-119674013I97227J97227D01*
G01*
X123516803Y-118542642D01*
G75*
G02*
X123711257Y-118542642I97227J-97227D01*
G01*
G37*
G36*
G01*
X123145571Y-117976957D02*
X123340026Y-118171412D01*
G75*
G02*
X123340026Y-118365866I-97227J-97227D01*
G01*
X122208655Y-119497237D01*
G75*
G02*
X122014201Y-119497237I-97227J97227D01*
G01*
X121819746Y-119302782D01*
G75*
G02*
X121819746Y-119108328I97227J97227D01*
G01*
X122951117Y-117976957D01*
G75*
G02*
X123145571Y-117976957I97227J-97227D01*
G01*
G37*
G36*
G01*
X122579886Y-117411272D02*
X122774341Y-117605727D01*
G75*
G02*
X122774341Y-117800181I-97227J-97227D01*
G01*
X121642970Y-118931552D01*
G75*
G02*
X121448516Y-118931552I-97227J97227D01*
G01*
X121254061Y-118737097D01*
G75*
G02*
X121254061Y-118542643I97227J97227D01*
G01*
X122385432Y-117411272D01*
G75*
G02*
X122579886Y-117411272I97227J-97227D01*
G01*
G37*
G36*
G01*
X122014201Y-116845586D02*
X122208656Y-117040041D01*
G75*
G02*
X122208656Y-117234495I-97227J-97227D01*
G01*
X121077285Y-118365866D01*
G75*
G02*
X120882831Y-118365866I-97227J97227D01*
G01*
X120688376Y-118171411D01*
G75*
G02*
X120688376Y-117976957I97227J97227D01*
G01*
X121819747Y-116845586D01*
G75*
G02*
X122014201Y-116845586I97227J-97227D01*
G01*
G37*
G36*
G01*
X121448515Y-116279901D02*
X121642970Y-116474356D01*
G75*
G02*
X121642970Y-116668810I-97227J-97227D01*
G01*
X120511599Y-117800181D01*
G75*
G02*
X120317145Y-117800181I-97227J97227D01*
G01*
X120122690Y-117605726D01*
G75*
G02*
X120122690Y-117411272I97227J97227D01*
G01*
X121254061Y-116279901D01*
G75*
G02*
X121448515Y-116279901I97227J-97227D01*
G01*
G37*
G36*
G01*
X120882830Y-115714215D02*
X121077285Y-115908670D01*
G75*
G02*
X121077285Y-116103124I-97227J-97227D01*
G01*
X119945914Y-117234495D01*
G75*
G02*
X119751460Y-117234495I-97227J97227D01*
G01*
X119557005Y-117040040D01*
G75*
G02*
X119557005Y-116845586I97227J97227D01*
G01*
X120688376Y-115714215D01*
G75*
G02*
X120882830Y-115714215I97227J-97227D01*
G01*
G37*
G36*
G01*
X120317144Y-115148530D02*
X120511599Y-115342985D01*
G75*
G02*
X120511599Y-115537439I-97227J-97227D01*
G01*
X119380228Y-116668810D01*
G75*
G02*
X119185774Y-116668810I-97227J97227D01*
G01*
X118991319Y-116474355D01*
G75*
G02*
X118991319Y-116279901I97227J97227D01*
G01*
X120122690Y-115148530D01*
G75*
G02*
X120317144Y-115148530I97227J-97227D01*
G01*
G37*
G36*
G01*
X119751459Y-114582844D02*
X119945914Y-114777299D01*
G75*
G02*
X119945914Y-114971753I-97227J-97227D01*
G01*
X118814543Y-116103124D01*
G75*
G02*
X118620089Y-116103124I-97227J97227D01*
G01*
X118425634Y-115908669D01*
G75*
G02*
X118425634Y-115714215I97227J97227D01*
G01*
X119557005Y-114582844D01*
G75*
G02*
X119751459Y-114582844I97227J-97227D01*
G01*
G37*
G36*
G01*
X119185773Y-114017159D02*
X119380228Y-114211614D01*
G75*
G02*
X119380228Y-114406068I-97227J-97227D01*
G01*
X118248857Y-115537439D01*
G75*
G02*
X118054403Y-115537439I-97227J97227D01*
G01*
X117859948Y-115342984D01*
G75*
G02*
X117859948Y-115148530I97227J97227D01*
G01*
X118991319Y-114017159D01*
G75*
G02*
X119185773Y-114017159I97227J-97227D01*
G01*
G37*
G36*
G01*
X118620088Y-113451474D02*
X118814543Y-113645929D01*
G75*
G02*
X118814543Y-113840383I-97227J-97227D01*
G01*
X117683172Y-114971754D01*
G75*
G02*
X117488718Y-114971754I-97227J97227D01*
G01*
X117294263Y-114777299D01*
G75*
G02*
X117294263Y-114582845I97227J97227D01*
G01*
X118425634Y-113451474D01*
G75*
G02*
X118620088Y-113451474I97227J-97227D01*
G01*
G37*
G36*
G01*
X118054403Y-112885788D02*
X118248858Y-113080243D01*
G75*
G02*
X118248858Y-113274697I-97227J-97227D01*
G01*
X117117487Y-114406068D01*
G75*
G02*
X116923033Y-114406068I-97227J97227D01*
G01*
X116728578Y-114211613D01*
G75*
G02*
X116728578Y-114017159I97227J97227D01*
G01*
X117859949Y-112885788D01*
G75*
G02*
X118054403Y-112885788I97227J-97227D01*
G01*
G37*
G36*
G01*
X117117487Y-109367932D02*
X118248858Y-110499303D01*
G75*
G02*
X118248858Y-110693757I-97227J-97227D01*
G01*
X118054403Y-110888212D01*
G75*
G02*
X117859949Y-110888212I-97227J97227D01*
G01*
X116728578Y-109756841D01*
G75*
G02*
X116728578Y-109562387I97227J97227D01*
G01*
X116923033Y-109367932D01*
G75*
G02*
X117117487Y-109367932I97227J-97227D01*
G01*
G37*
G36*
G01*
X117683172Y-108802246D02*
X118814543Y-109933617D01*
G75*
G02*
X118814543Y-110128071I-97227J-97227D01*
G01*
X118620088Y-110322526D01*
G75*
G02*
X118425634Y-110322526I-97227J97227D01*
G01*
X117294263Y-109191155D01*
G75*
G02*
X117294263Y-108996701I97227J97227D01*
G01*
X117488718Y-108802246D01*
G75*
G02*
X117683172Y-108802246I97227J-97227D01*
G01*
G37*
G36*
G01*
X118248857Y-108236561D02*
X119380228Y-109367932D01*
G75*
G02*
X119380228Y-109562386I-97227J-97227D01*
G01*
X119185773Y-109756841D01*
G75*
G02*
X118991319Y-109756841I-97227J97227D01*
G01*
X117859948Y-108625470D01*
G75*
G02*
X117859948Y-108431016I97227J97227D01*
G01*
X118054403Y-108236561D01*
G75*
G02*
X118248857Y-108236561I97227J-97227D01*
G01*
G37*
G36*
G01*
X118814543Y-107670876D02*
X119945914Y-108802247D01*
G75*
G02*
X119945914Y-108996701I-97227J-97227D01*
G01*
X119751459Y-109191156D01*
G75*
G02*
X119557005Y-109191156I-97227J97227D01*
G01*
X118425634Y-108059785D01*
G75*
G02*
X118425634Y-107865331I97227J97227D01*
G01*
X118620089Y-107670876D01*
G75*
G02*
X118814543Y-107670876I97227J-97227D01*
G01*
G37*
G36*
G01*
X119380228Y-107105190D02*
X120511599Y-108236561D01*
G75*
G02*
X120511599Y-108431015I-97227J-97227D01*
G01*
X120317144Y-108625470D01*
G75*
G02*
X120122690Y-108625470I-97227J97227D01*
G01*
X118991319Y-107494099D01*
G75*
G02*
X118991319Y-107299645I97227J97227D01*
G01*
X119185774Y-107105190D01*
G75*
G02*
X119380228Y-107105190I97227J-97227D01*
G01*
G37*
G36*
G01*
X119945914Y-106539505D02*
X121077285Y-107670876D01*
G75*
G02*
X121077285Y-107865330I-97227J-97227D01*
G01*
X120882830Y-108059785D01*
G75*
G02*
X120688376Y-108059785I-97227J97227D01*
G01*
X119557005Y-106928414D01*
G75*
G02*
X119557005Y-106733960I97227J97227D01*
G01*
X119751460Y-106539505D01*
G75*
G02*
X119945914Y-106539505I97227J-97227D01*
G01*
G37*
G36*
G01*
X120511599Y-105973819D02*
X121642970Y-107105190D01*
G75*
G02*
X121642970Y-107299644I-97227J-97227D01*
G01*
X121448515Y-107494099D01*
G75*
G02*
X121254061Y-107494099I-97227J97227D01*
G01*
X120122690Y-106362728D01*
G75*
G02*
X120122690Y-106168274I97227J97227D01*
G01*
X120317145Y-105973819D01*
G75*
G02*
X120511599Y-105973819I97227J-97227D01*
G01*
G37*
G36*
G01*
X121077285Y-105408134D02*
X122208656Y-106539505D01*
G75*
G02*
X122208656Y-106733959I-97227J-97227D01*
G01*
X122014201Y-106928414D01*
G75*
G02*
X121819747Y-106928414I-97227J97227D01*
G01*
X120688376Y-105797043D01*
G75*
G02*
X120688376Y-105602589I97227J97227D01*
G01*
X120882831Y-105408134D01*
G75*
G02*
X121077285Y-105408134I97227J-97227D01*
G01*
G37*
G36*
G01*
X121642970Y-104842448D02*
X122774341Y-105973819D01*
G75*
G02*
X122774341Y-106168273I-97227J-97227D01*
G01*
X122579886Y-106362728D01*
G75*
G02*
X122385432Y-106362728I-97227J97227D01*
G01*
X121254061Y-105231357D01*
G75*
G02*
X121254061Y-105036903I97227J97227D01*
G01*
X121448516Y-104842448D01*
G75*
G02*
X121642970Y-104842448I97227J-97227D01*
G01*
G37*
G36*
G01*
X122208655Y-104276763D02*
X123340026Y-105408134D01*
G75*
G02*
X123340026Y-105602588I-97227J-97227D01*
G01*
X123145571Y-105797043D01*
G75*
G02*
X122951117Y-105797043I-97227J97227D01*
G01*
X121819746Y-104665672D01*
G75*
G02*
X121819746Y-104471218I97227J97227D01*
G01*
X122014201Y-104276763D01*
G75*
G02*
X122208655Y-104276763I97227J-97227D01*
G01*
G37*
G36*
G01*
X122774341Y-103711078D02*
X123905712Y-104842449D01*
G75*
G02*
X123905712Y-105036903I-97227J-97227D01*
G01*
X123711257Y-105231358D01*
G75*
G02*
X123516803Y-105231358I-97227J97227D01*
G01*
X122385432Y-104099987D01*
G75*
G02*
X122385432Y-103905533I97227J97227D01*
G01*
X122579887Y-103711078D01*
G75*
G02*
X122774341Y-103711078I97227J-97227D01*
G01*
G37*
G36*
G01*
X127229113Y-103711078D02*
X127423568Y-103905533D01*
G75*
G02*
X127423568Y-104099987I-97227J-97227D01*
G01*
X126292197Y-105231358D01*
G75*
G02*
X126097743Y-105231358I-97227J97227D01*
G01*
X125903288Y-105036903D01*
G75*
G02*
X125903288Y-104842449I97227J97227D01*
G01*
X127034659Y-103711078D01*
G75*
G02*
X127229113Y-103711078I97227J-97227D01*
G01*
G37*
G36*
G01*
X127794799Y-104276763D02*
X127989254Y-104471218D01*
G75*
G02*
X127989254Y-104665672I-97227J-97227D01*
G01*
X126857883Y-105797043D01*
G75*
G02*
X126663429Y-105797043I-97227J97227D01*
G01*
X126468974Y-105602588D01*
G75*
G02*
X126468974Y-105408134I97227J97227D01*
G01*
X127600345Y-104276763D01*
G75*
G02*
X127794799Y-104276763I97227J-97227D01*
G01*
G37*
G36*
G01*
X128360484Y-104842448D02*
X128554939Y-105036903D01*
G75*
G02*
X128554939Y-105231357I-97227J-97227D01*
G01*
X127423568Y-106362728D01*
G75*
G02*
X127229114Y-106362728I-97227J97227D01*
G01*
X127034659Y-106168273D01*
G75*
G02*
X127034659Y-105973819I97227J97227D01*
G01*
X128166030Y-104842448D01*
G75*
G02*
X128360484Y-104842448I97227J-97227D01*
G01*
G37*
G36*
G01*
X128926169Y-105408134D02*
X129120624Y-105602589D01*
G75*
G02*
X129120624Y-105797043I-97227J-97227D01*
G01*
X127989253Y-106928414D01*
G75*
G02*
X127794799Y-106928414I-97227J97227D01*
G01*
X127600344Y-106733959D01*
G75*
G02*
X127600344Y-106539505I97227J97227D01*
G01*
X128731715Y-105408134D01*
G75*
G02*
X128926169Y-105408134I97227J-97227D01*
G01*
G37*
G36*
G01*
X129491855Y-105973819D02*
X129686310Y-106168274D01*
G75*
G02*
X129686310Y-106362728I-97227J-97227D01*
G01*
X128554939Y-107494099D01*
G75*
G02*
X128360485Y-107494099I-97227J97227D01*
G01*
X128166030Y-107299644D01*
G75*
G02*
X128166030Y-107105190I97227J97227D01*
G01*
X129297401Y-105973819D01*
G75*
G02*
X129491855Y-105973819I97227J-97227D01*
G01*
G37*
G36*
G01*
X130057540Y-106539505D02*
X130251995Y-106733960D01*
G75*
G02*
X130251995Y-106928414I-97227J-97227D01*
G01*
X129120624Y-108059785D01*
G75*
G02*
X128926170Y-108059785I-97227J97227D01*
G01*
X128731715Y-107865330D01*
G75*
G02*
X128731715Y-107670876I97227J97227D01*
G01*
X129863086Y-106539505D01*
G75*
G02*
X130057540Y-106539505I97227J-97227D01*
G01*
G37*
G36*
G01*
X130623226Y-107105190D02*
X130817681Y-107299645D01*
G75*
G02*
X130817681Y-107494099I-97227J-97227D01*
G01*
X129686310Y-108625470D01*
G75*
G02*
X129491856Y-108625470I-97227J97227D01*
G01*
X129297401Y-108431015D01*
G75*
G02*
X129297401Y-108236561I97227J97227D01*
G01*
X130428772Y-107105190D01*
G75*
G02*
X130623226Y-107105190I97227J-97227D01*
G01*
G37*
G36*
G01*
X131188911Y-107670876D02*
X131383366Y-107865331D01*
G75*
G02*
X131383366Y-108059785I-97227J-97227D01*
G01*
X130251995Y-109191156D01*
G75*
G02*
X130057541Y-109191156I-97227J97227D01*
G01*
X129863086Y-108996701D01*
G75*
G02*
X129863086Y-108802247I97227J97227D01*
G01*
X130994457Y-107670876D01*
G75*
G02*
X131188911Y-107670876I97227J-97227D01*
G01*
G37*
G36*
G01*
X131754597Y-108236561D02*
X131949052Y-108431016D01*
G75*
G02*
X131949052Y-108625470I-97227J-97227D01*
G01*
X130817681Y-109756841D01*
G75*
G02*
X130623227Y-109756841I-97227J97227D01*
G01*
X130428772Y-109562386D01*
G75*
G02*
X130428772Y-109367932I97227J97227D01*
G01*
X131560143Y-108236561D01*
G75*
G02*
X131754597Y-108236561I97227J-97227D01*
G01*
G37*
G36*
G01*
X132320282Y-108802246D02*
X132514737Y-108996701D01*
G75*
G02*
X132514737Y-109191155I-97227J-97227D01*
G01*
X131383366Y-110322526D01*
G75*
G02*
X131188912Y-110322526I-97227J97227D01*
G01*
X130994457Y-110128071D01*
G75*
G02*
X130994457Y-109933617I97227J97227D01*
G01*
X132125828Y-108802246D01*
G75*
G02*
X132320282Y-108802246I97227J-97227D01*
G01*
G37*
G36*
G01*
X132885967Y-109367932D02*
X133080422Y-109562387D01*
G75*
G02*
X133080422Y-109756841I-97227J-97227D01*
G01*
X131949051Y-110888212D01*
G75*
G02*
X131754597Y-110888212I-97227J97227D01*
G01*
X131560142Y-110693757D01*
G75*
G02*
X131560142Y-110499303I97227J97227D01*
G01*
X132691513Y-109367932D01*
G75*
G02*
X132885967Y-109367932I97227J-97227D01*
G01*
G37*
G04 #@! TD*
G04 #@! TO.C,U1*
G36*
G01*
X87943551Y-111488788D02*
X89074922Y-112620159D01*
G75*
G02*
X89074922Y-112814613I-97227J-97227D01*
G01*
X88880467Y-113009068D01*
G75*
G02*
X88686013Y-113009068I-97227J97227D01*
G01*
X87554642Y-111877697D01*
G75*
G02*
X87554642Y-111683243I97227J97227D01*
G01*
X87749097Y-111488788D01*
G75*
G02*
X87943551Y-111488788I97227J-97227D01*
G01*
G37*
G36*
G01*
X87377866Y-112054474D02*
X88509237Y-113185845D01*
G75*
G02*
X88509237Y-113380299I-97227J-97227D01*
G01*
X88314782Y-113574754D01*
G75*
G02*
X88120328Y-113574754I-97227J97227D01*
G01*
X86988957Y-112443383D01*
G75*
G02*
X86988957Y-112248929I97227J97227D01*
G01*
X87183412Y-112054474D01*
G75*
G02*
X87377866Y-112054474I97227J-97227D01*
G01*
G37*
G36*
G01*
X86812181Y-112620159D02*
X87943552Y-113751530D01*
G75*
G02*
X87943552Y-113945984I-97227J-97227D01*
G01*
X87749097Y-114140439D01*
G75*
G02*
X87554643Y-114140439I-97227J97227D01*
G01*
X86423272Y-113009068D01*
G75*
G02*
X86423272Y-112814614I97227J97227D01*
G01*
X86617727Y-112620159D01*
G75*
G02*
X86812181Y-112620159I97227J-97227D01*
G01*
G37*
G36*
G01*
X86246495Y-113185844D02*
X87377866Y-114317215D01*
G75*
G02*
X87377866Y-114511669I-97227J-97227D01*
G01*
X87183411Y-114706124D01*
G75*
G02*
X86988957Y-114706124I-97227J97227D01*
G01*
X85857586Y-113574753D01*
G75*
G02*
X85857586Y-113380299I97227J97227D01*
G01*
X86052041Y-113185844D01*
G75*
G02*
X86246495Y-113185844I97227J-97227D01*
G01*
G37*
G36*
G01*
X85680810Y-113751530D02*
X86812181Y-114882901D01*
G75*
G02*
X86812181Y-115077355I-97227J-97227D01*
G01*
X86617726Y-115271810D01*
G75*
G02*
X86423272Y-115271810I-97227J97227D01*
G01*
X85291901Y-114140439D01*
G75*
G02*
X85291901Y-113945985I97227J97227D01*
G01*
X85486356Y-113751530D01*
G75*
G02*
X85680810Y-113751530I97227J-97227D01*
G01*
G37*
G36*
G01*
X85115124Y-114317215D02*
X86246495Y-115448586D01*
G75*
G02*
X86246495Y-115643040I-97227J-97227D01*
G01*
X86052040Y-115837495D01*
G75*
G02*
X85857586Y-115837495I-97227J97227D01*
G01*
X84726215Y-114706124D01*
G75*
G02*
X84726215Y-114511670I97227J97227D01*
G01*
X84920670Y-114317215D01*
G75*
G02*
X85115124Y-114317215I97227J-97227D01*
G01*
G37*
G36*
G01*
X84549439Y-114882901D02*
X85680810Y-116014272D01*
G75*
G02*
X85680810Y-116208726I-97227J-97227D01*
G01*
X85486355Y-116403181D01*
G75*
G02*
X85291901Y-116403181I-97227J97227D01*
G01*
X84160530Y-115271810D01*
G75*
G02*
X84160530Y-115077356I97227J97227D01*
G01*
X84354985Y-114882901D01*
G75*
G02*
X84549439Y-114882901I97227J-97227D01*
G01*
G37*
G36*
G01*
X83983753Y-115448586D02*
X85115124Y-116579957D01*
G75*
G02*
X85115124Y-116774411I-97227J-97227D01*
G01*
X84920669Y-116968866D01*
G75*
G02*
X84726215Y-116968866I-97227J97227D01*
G01*
X83594844Y-115837495D01*
G75*
G02*
X83594844Y-115643041I97227J97227D01*
G01*
X83789299Y-115448586D01*
G75*
G02*
X83983753Y-115448586I97227J-97227D01*
G01*
G37*
G36*
G01*
X83418068Y-116014272D02*
X84549439Y-117145643D01*
G75*
G02*
X84549439Y-117340097I-97227J-97227D01*
G01*
X84354984Y-117534552D01*
G75*
G02*
X84160530Y-117534552I-97227J97227D01*
G01*
X83029159Y-116403181D01*
G75*
G02*
X83029159Y-116208727I97227J97227D01*
G01*
X83223614Y-116014272D01*
G75*
G02*
X83418068Y-116014272I97227J-97227D01*
G01*
G37*
G36*
G01*
X82852383Y-116579957D02*
X83983754Y-117711328D01*
G75*
G02*
X83983754Y-117905782I-97227J-97227D01*
G01*
X83789299Y-118100237D01*
G75*
G02*
X83594845Y-118100237I-97227J97227D01*
G01*
X82463474Y-116968866D01*
G75*
G02*
X82463474Y-116774412I97227J97227D01*
G01*
X82657929Y-116579957D01*
G75*
G02*
X82852383Y-116579957I97227J-97227D01*
G01*
G37*
G36*
G01*
X82286697Y-117145642D02*
X83418068Y-118277013D01*
G75*
G02*
X83418068Y-118471467I-97227J-97227D01*
G01*
X83223613Y-118665922D01*
G75*
G02*
X83029159Y-118665922I-97227J97227D01*
G01*
X81897788Y-117534551D01*
G75*
G02*
X81897788Y-117340097I97227J97227D01*
G01*
X82092243Y-117145642D01*
G75*
G02*
X82286697Y-117145642I97227J-97227D01*
G01*
G37*
G36*
G01*
X79705757Y-117145642D02*
X79900212Y-117340097D01*
G75*
G02*
X79900212Y-117534551I-97227J-97227D01*
G01*
X78768841Y-118665922D01*
G75*
G02*
X78574387Y-118665922I-97227J97227D01*
G01*
X78379932Y-118471467D01*
G75*
G02*
X78379932Y-118277013I97227J97227D01*
G01*
X79511303Y-117145642D01*
G75*
G02*
X79705757Y-117145642I97227J-97227D01*
G01*
G37*
G36*
G01*
X79140071Y-116579957D02*
X79334526Y-116774412D01*
G75*
G02*
X79334526Y-116968866I-97227J-97227D01*
G01*
X78203155Y-118100237D01*
G75*
G02*
X78008701Y-118100237I-97227J97227D01*
G01*
X77814246Y-117905782D01*
G75*
G02*
X77814246Y-117711328I97227J97227D01*
G01*
X78945617Y-116579957D01*
G75*
G02*
X79140071Y-116579957I97227J-97227D01*
G01*
G37*
G36*
G01*
X78574386Y-116014272D02*
X78768841Y-116208727D01*
G75*
G02*
X78768841Y-116403181I-97227J-97227D01*
G01*
X77637470Y-117534552D01*
G75*
G02*
X77443016Y-117534552I-97227J97227D01*
G01*
X77248561Y-117340097D01*
G75*
G02*
X77248561Y-117145643I97227J97227D01*
G01*
X78379932Y-116014272D01*
G75*
G02*
X78574386Y-116014272I97227J-97227D01*
G01*
G37*
G36*
G01*
X78008701Y-115448586D02*
X78203156Y-115643041D01*
G75*
G02*
X78203156Y-115837495I-97227J-97227D01*
G01*
X77071785Y-116968866D01*
G75*
G02*
X76877331Y-116968866I-97227J97227D01*
G01*
X76682876Y-116774411D01*
G75*
G02*
X76682876Y-116579957I97227J97227D01*
G01*
X77814247Y-115448586D01*
G75*
G02*
X78008701Y-115448586I97227J-97227D01*
G01*
G37*
G36*
G01*
X77443015Y-114882901D02*
X77637470Y-115077356D01*
G75*
G02*
X77637470Y-115271810I-97227J-97227D01*
G01*
X76506099Y-116403181D01*
G75*
G02*
X76311645Y-116403181I-97227J97227D01*
G01*
X76117190Y-116208726D01*
G75*
G02*
X76117190Y-116014272I97227J97227D01*
G01*
X77248561Y-114882901D01*
G75*
G02*
X77443015Y-114882901I97227J-97227D01*
G01*
G37*
G36*
G01*
X76877330Y-114317215D02*
X77071785Y-114511670D01*
G75*
G02*
X77071785Y-114706124I-97227J-97227D01*
G01*
X75940414Y-115837495D01*
G75*
G02*
X75745960Y-115837495I-97227J97227D01*
G01*
X75551505Y-115643040D01*
G75*
G02*
X75551505Y-115448586I97227J97227D01*
G01*
X76682876Y-114317215D01*
G75*
G02*
X76877330Y-114317215I97227J-97227D01*
G01*
G37*
G36*
G01*
X76311644Y-113751530D02*
X76506099Y-113945985D01*
G75*
G02*
X76506099Y-114140439I-97227J-97227D01*
G01*
X75374728Y-115271810D01*
G75*
G02*
X75180274Y-115271810I-97227J97227D01*
G01*
X74985819Y-115077355D01*
G75*
G02*
X74985819Y-114882901I97227J97227D01*
G01*
X76117190Y-113751530D01*
G75*
G02*
X76311644Y-113751530I97227J-97227D01*
G01*
G37*
G36*
G01*
X75745959Y-113185844D02*
X75940414Y-113380299D01*
G75*
G02*
X75940414Y-113574753I-97227J-97227D01*
G01*
X74809043Y-114706124D01*
G75*
G02*
X74614589Y-114706124I-97227J97227D01*
G01*
X74420134Y-114511669D01*
G75*
G02*
X74420134Y-114317215I97227J97227D01*
G01*
X75551505Y-113185844D01*
G75*
G02*
X75745959Y-113185844I97227J-97227D01*
G01*
G37*
G36*
G01*
X75180273Y-112620159D02*
X75374728Y-112814614D01*
G75*
G02*
X75374728Y-113009068I-97227J-97227D01*
G01*
X74243357Y-114140439D01*
G75*
G02*
X74048903Y-114140439I-97227J97227D01*
G01*
X73854448Y-113945984D01*
G75*
G02*
X73854448Y-113751530I97227J97227D01*
G01*
X74985819Y-112620159D01*
G75*
G02*
X75180273Y-112620159I97227J-97227D01*
G01*
G37*
G36*
G01*
X74614588Y-112054474D02*
X74809043Y-112248929D01*
G75*
G02*
X74809043Y-112443383I-97227J-97227D01*
G01*
X73677672Y-113574754D01*
G75*
G02*
X73483218Y-113574754I-97227J97227D01*
G01*
X73288763Y-113380299D01*
G75*
G02*
X73288763Y-113185845I97227J97227D01*
G01*
X74420134Y-112054474D01*
G75*
G02*
X74614588Y-112054474I97227J-97227D01*
G01*
G37*
G36*
G01*
X74048903Y-111488788D02*
X74243358Y-111683243D01*
G75*
G02*
X74243358Y-111877697I-97227J-97227D01*
G01*
X73111987Y-113009068D01*
G75*
G02*
X72917533Y-113009068I-97227J97227D01*
G01*
X72723078Y-112814613D01*
G75*
G02*
X72723078Y-112620159I97227J97227D01*
G01*
X73854449Y-111488788D01*
G75*
G02*
X74048903Y-111488788I97227J-97227D01*
G01*
G37*
G36*
G01*
X73111987Y-107970932D02*
X74243358Y-109102303D01*
G75*
G02*
X74243358Y-109296757I-97227J-97227D01*
G01*
X74048903Y-109491212D01*
G75*
G02*
X73854449Y-109491212I-97227J97227D01*
G01*
X72723078Y-108359841D01*
G75*
G02*
X72723078Y-108165387I97227J97227D01*
G01*
X72917533Y-107970932D01*
G75*
G02*
X73111987Y-107970932I97227J-97227D01*
G01*
G37*
G36*
G01*
X73677672Y-107405246D02*
X74809043Y-108536617D01*
G75*
G02*
X74809043Y-108731071I-97227J-97227D01*
G01*
X74614588Y-108925526D01*
G75*
G02*
X74420134Y-108925526I-97227J97227D01*
G01*
X73288763Y-107794155D01*
G75*
G02*
X73288763Y-107599701I97227J97227D01*
G01*
X73483218Y-107405246D01*
G75*
G02*
X73677672Y-107405246I97227J-97227D01*
G01*
G37*
G36*
G01*
X74243357Y-106839561D02*
X75374728Y-107970932D01*
G75*
G02*
X75374728Y-108165386I-97227J-97227D01*
G01*
X75180273Y-108359841D01*
G75*
G02*
X74985819Y-108359841I-97227J97227D01*
G01*
X73854448Y-107228470D01*
G75*
G02*
X73854448Y-107034016I97227J97227D01*
G01*
X74048903Y-106839561D01*
G75*
G02*
X74243357Y-106839561I97227J-97227D01*
G01*
G37*
G36*
G01*
X74809043Y-106273876D02*
X75940414Y-107405247D01*
G75*
G02*
X75940414Y-107599701I-97227J-97227D01*
G01*
X75745959Y-107794156D01*
G75*
G02*
X75551505Y-107794156I-97227J97227D01*
G01*
X74420134Y-106662785D01*
G75*
G02*
X74420134Y-106468331I97227J97227D01*
G01*
X74614589Y-106273876D01*
G75*
G02*
X74809043Y-106273876I97227J-97227D01*
G01*
G37*
G36*
G01*
X75374728Y-105708190D02*
X76506099Y-106839561D01*
G75*
G02*
X76506099Y-107034015I-97227J-97227D01*
G01*
X76311644Y-107228470D01*
G75*
G02*
X76117190Y-107228470I-97227J97227D01*
G01*
X74985819Y-106097099D01*
G75*
G02*
X74985819Y-105902645I97227J97227D01*
G01*
X75180274Y-105708190D01*
G75*
G02*
X75374728Y-105708190I97227J-97227D01*
G01*
G37*
G36*
G01*
X75940414Y-105142505D02*
X77071785Y-106273876D01*
G75*
G02*
X77071785Y-106468330I-97227J-97227D01*
G01*
X76877330Y-106662785D01*
G75*
G02*
X76682876Y-106662785I-97227J97227D01*
G01*
X75551505Y-105531414D01*
G75*
G02*
X75551505Y-105336960I97227J97227D01*
G01*
X75745960Y-105142505D01*
G75*
G02*
X75940414Y-105142505I97227J-97227D01*
G01*
G37*
G36*
G01*
X76506099Y-104576819D02*
X77637470Y-105708190D01*
G75*
G02*
X77637470Y-105902644I-97227J-97227D01*
G01*
X77443015Y-106097099D01*
G75*
G02*
X77248561Y-106097099I-97227J97227D01*
G01*
X76117190Y-104965728D01*
G75*
G02*
X76117190Y-104771274I97227J97227D01*
G01*
X76311645Y-104576819D01*
G75*
G02*
X76506099Y-104576819I97227J-97227D01*
G01*
G37*
G36*
G01*
X77071785Y-104011134D02*
X78203156Y-105142505D01*
G75*
G02*
X78203156Y-105336959I-97227J-97227D01*
G01*
X78008701Y-105531414D01*
G75*
G02*
X77814247Y-105531414I-97227J97227D01*
G01*
X76682876Y-104400043D01*
G75*
G02*
X76682876Y-104205589I97227J97227D01*
G01*
X76877331Y-104011134D01*
G75*
G02*
X77071785Y-104011134I97227J-97227D01*
G01*
G37*
G36*
G01*
X77637470Y-103445448D02*
X78768841Y-104576819D01*
G75*
G02*
X78768841Y-104771273I-97227J-97227D01*
G01*
X78574386Y-104965728D01*
G75*
G02*
X78379932Y-104965728I-97227J97227D01*
G01*
X77248561Y-103834357D01*
G75*
G02*
X77248561Y-103639903I97227J97227D01*
G01*
X77443016Y-103445448D01*
G75*
G02*
X77637470Y-103445448I97227J-97227D01*
G01*
G37*
G36*
G01*
X78203155Y-102879763D02*
X79334526Y-104011134D01*
G75*
G02*
X79334526Y-104205588I-97227J-97227D01*
G01*
X79140071Y-104400043D01*
G75*
G02*
X78945617Y-104400043I-97227J97227D01*
G01*
X77814246Y-103268672D01*
G75*
G02*
X77814246Y-103074218I97227J97227D01*
G01*
X78008701Y-102879763D01*
G75*
G02*
X78203155Y-102879763I97227J-97227D01*
G01*
G37*
G36*
G01*
X78768841Y-102314078D02*
X79900212Y-103445449D01*
G75*
G02*
X79900212Y-103639903I-97227J-97227D01*
G01*
X79705757Y-103834358D01*
G75*
G02*
X79511303Y-103834358I-97227J97227D01*
G01*
X78379932Y-102702987D01*
G75*
G02*
X78379932Y-102508533I97227J97227D01*
G01*
X78574387Y-102314078D01*
G75*
G02*
X78768841Y-102314078I97227J-97227D01*
G01*
G37*
G36*
G01*
X83223613Y-102314078D02*
X83418068Y-102508533D01*
G75*
G02*
X83418068Y-102702987I-97227J-97227D01*
G01*
X82286697Y-103834358D01*
G75*
G02*
X82092243Y-103834358I-97227J97227D01*
G01*
X81897788Y-103639903D01*
G75*
G02*
X81897788Y-103445449I97227J97227D01*
G01*
X83029159Y-102314078D01*
G75*
G02*
X83223613Y-102314078I97227J-97227D01*
G01*
G37*
G36*
G01*
X83789299Y-102879763D02*
X83983754Y-103074218D01*
G75*
G02*
X83983754Y-103268672I-97227J-97227D01*
G01*
X82852383Y-104400043D01*
G75*
G02*
X82657929Y-104400043I-97227J97227D01*
G01*
X82463474Y-104205588D01*
G75*
G02*
X82463474Y-104011134I97227J97227D01*
G01*
X83594845Y-102879763D01*
G75*
G02*
X83789299Y-102879763I97227J-97227D01*
G01*
G37*
G36*
G01*
X84354984Y-103445448D02*
X84549439Y-103639903D01*
G75*
G02*
X84549439Y-103834357I-97227J-97227D01*
G01*
X83418068Y-104965728D01*
G75*
G02*
X83223614Y-104965728I-97227J97227D01*
G01*
X83029159Y-104771273D01*
G75*
G02*
X83029159Y-104576819I97227J97227D01*
G01*
X84160530Y-103445448D01*
G75*
G02*
X84354984Y-103445448I97227J-97227D01*
G01*
G37*
G36*
G01*
X84920669Y-104011134D02*
X85115124Y-104205589D01*
G75*
G02*
X85115124Y-104400043I-97227J-97227D01*
G01*
X83983753Y-105531414D01*
G75*
G02*
X83789299Y-105531414I-97227J97227D01*
G01*
X83594844Y-105336959D01*
G75*
G02*
X83594844Y-105142505I97227J97227D01*
G01*
X84726215Y-104011134D01*
G75*
G02*
X84920669Y-104011134I97227J-97227D01*
G01*
G37*
G36*
G01*
X85486355Y-104576819D02*
X85680810Y-104771274D01*
G75*
G02*
X85680810Y-104965728I-97227J-97227D01*
G01*
X84549439Y-106097099D01*
G75*
G02*
X84354985Y-106097099I-97227J97227D01*
G01*
X84160530Y-105902644D01*
G75*
G02*
X84160530Y-105708190I97227J97227D01*
G01*
X85291901Y-104576819D01*
G75*
G02*
X85486355Y-104576819I97227J-97227D01*
G01*
G37*
G36*
G01*
X86052040Y-105142505D02*
X86246495Y-105336960D01*
G75*
G02*
X86246495Y-105531414I-97227J-97227D01*
G01*
X85115124Y-106662785D01*
G75*
G02*
X84920670Y-106662785I-97227J97227D01*
G01*
X84726215Y-106468330D01*
G75*
G02*
X84726215Y-106273876I97227J97227D01*
G01*
X85857586Y-105142505D01*
G75*
G02*
X86052040Y-105142505I97227J-97227D01*
G01*
G37*
G36*
G01*
X86617726Y-105708190D02*
X86812181Y-105902645D01*
G75*
G02*
X86812181Y-106097099I-97227J-97227D01*
G01*
X85680810Y-107228470D01*
G75*
G02*
X85486356Y-107228470I-97227J97227D01*
G01*
X85291901Y-107034015D01*
G75*
G02*
X85291901Y-106839561I97227J97227D01*
G01*
X86423272Y-105708190D01*
G75*
G02*
X86617726Y-105708190I97227J-97227D01*
G01*
G37*
G36*
G01*
X87183411Y-106273876D02*
X87377866Y-106468331D01*
G75*
G02*
X87377866Y-106662785I-97227J-97227D01*
G01*
X86246495Y-107794156D01*
G75*
G02*
X86052041Y-107794156I-97227J97227D01*
G01*
X85857586Y-107599701D01*
G75*
G02*
X85857586Y-107405247I97227J97227D01*
G01*
X86988957Y-106273876D01*
G75*
G02*
X87183411Y-106273876I97227J-97227D01*
G01*
G37*
G36*
G01*
X87749097Y-106839561D02*
X87943552Y-107034016D01*
G75*
G02*
X87943552Y-107228470I-97227J-97227D01*
G01*
X86812181Y-108359841D01*
G75*
G02*
X86617727Y-108359841I-97227J97227D01*
G01*
X86423272Y-108165386D01*
G75*
G02*
X86423272Y-107970932I97227J97227D01*
G01*
X87554643Y-106839561D01*
G75*
G02*
X87749097Y-106839561I97227J-97227D01*
G01*
G37*
G36*
G01*
X88314782Y-107405246D02*
X88509237Y-107599701D01*
G75*
G02*
X88509237Y-107794155I-97227J-97227D01*
G01*
X87377866Y-108925526D01*
G75*
G02*
X87183412Y-108925526I-97227J97227D01*
G01*
X86988957Y-108731071D01*
G75*
G02*
X86988957Y-108536617I97227J97227D01*
G01*
X88120328Y-107405246D01*
G75*
G02*
X88314782Y-107405246I97227J-97227D01*
G01*
G37*
G36*
G01*
X88880467Y-107970932D02*
X89074922Y-108165387D01*
G75*
G02*
X89074922Y-108359841I-97227J-97227D01*
G01*
X87943551Y-109491212D01*
G75*
G02*
X87749097Y-109491212I-97227J97227D01*
G01*
X87554642Y-109296757D01*
G75*
G02*
X87554642Y-109102303I97227J97227D01*
G01*
X88686013Y-107970932D01*
G75*
G02*
X88880467Y-107970932I97227J-97227D01*
G01*
G37*
G04 #@! TD*
G04 #@! TO.C,R15*
G36*
G01*
X163264001Y-73464000D02*
X162363999Y-73464000D01*
G75*
G02*
X162114000Y-73214001I0J249999D01*
G01*
X162114000Y-72563999D01*
G75*
G02*
X162363999Y-72314000I249999J0D01*
G01*
X163264001Y-72314000D01*
G75*
G02*
X163514000Y-72563999I0J-249999D01*
G01*
X163514000Y-73214001D01*
G75*
G02*
X163264001Y-73464000I-249999J0D01*
G01*
G37*
G36*
G01*
X163264001Y-75514000D02*
X162363999Y-75514000D01*
G75*
G02*
X162114000Y-75264001I0J249999D01*
G01*
X162114000Y-74613999D01*
G75*
G02*
X162363999Y-74364000I249999J0D01*
G01*
X163264001Y-74364000D01*
G75*
G02*
X163514000Y-74613999I0J-249999D01*
G01*
X163514000Y-75264001D01*
G75*
G02*
X163264001Y-75514000I-249999J0D01*
G01*
G37*
G04 #@! TD*
G04 #@! TO.C,R14*
G36*
G01*
X165931001Y-74607000D02*
X165030999Y-74607000D01*
G75*
G02*
X164781000Y-74357001I0J249999D01*
G01*
X164781000Y-73706999D01*
G75*
G02*
X165030999Y-73457000I249999J0D01*
G01*
X165931001Y-73457000D01*
G75*
G02*
X166181000Y-73706999I0J-249999D01*
G01*
X166181000Y-74357001D01*
G75*
G02*
X165931001Y-74607000I-249999J0D01*
G01*
G37*
G36*
G01*
X165931001Y-76657000D02*
X165030999Y-76657000D01*
G75*
G02*
X164781000Y-76407001I0J249999D01*
G01*
X164781000Y-75756999D01*
G75*
G02*
X165030999Y-75507000I249999J0D01*
G01*
X165931001Y-75507000D01*
G75*
G02*
X166181000Y-75756999I0J-249999D01*
G01*
X166181000Y-76407001D01*
G75*
G02*
X165931001Y-76657000I-249999J0D01*
G01*
G37*
G04 #@! TD*
G04 #@! TO.C,R13*
G36*
G01*
X175465000Y-77539001D02*
X175465000Y-76638999D01*
G75*
G02*
X175714999Y-76389000I249999J0D01*
G01*
X176365001Y-76389000D01*
G75*
G02*
X176615000Y-76638999I0J-249999D01*
G01*
X176615000Y-77539001D01*
G75*
G02*
X176365001Y-77789000I-249999J0D01*
G01*
X175714999Y-77789000D01*
G75*
G02*
X175465000Y-77539001I0J249999D01*
G01*
G37*
G36*
G01*
X173415000Y-77539001D02*
X173415000Y-76638999D01*
G75*
G02*
X173664999Y-76389000I249999J0D01*
G01*
X174315001Y-76389000D01*
G75*
G02*
X174565000Y-76638999I0J-249999D01*
G01*
X174565000Y-77539001D01*
G75*
G02*
X174315001Y-77789000I-249999J0D01*
G01*
X173664999Y-77789000D01*
G75*
G02*
X173415000Y-77539001I0J249999D01*
G01*
G37*
G04 #@! TD*
G04 #@! TO.C,R12*
G36*
G01*
X179638000Y-77539001D02*
X179638000Y-76638999D01*
G75*
G02*
X179887999Y-76389000I249999J0D01*
G01*
X180538001Y-76389000D01*
G75*
G02*
X180788000Y-76638999I0J-249999D01*
G01*
X180788000Y-77539001D01*
G75*
G02*
X180538001Y-77789000I-249999J0D01*
G01*
X179887999Y-77789000D01*
G75*
G02*
X179638000Y-77539001I0J249999D01*
G01*
G37*
G36*
G01*
X177588000Y-77539001D02*
X177588000Y-76638999D01*
G75*
G02*
X177837999Y-76389000I249999J0D01*
G01*
X178488001Y-76389000D01*
G75*
G02*
X178738000Y-76638999I0J-249999D01*
G01*
X178738000Y-77539001D01*
G75*
G02*
X178488001Y-77789000I-249999J0D01*
G01*
X177837999Y-77789000D01*
G75*
G02*
X177588000Y-77539001I0J249999D01*
G01*
G37*
G04 #@! TD*
G04 #@! TO.C,R11*
G36*
G01*
X183965000Y-77539001D02*
X183965000Y-76638999D01*
G75*
G02*
X184214999Y-76389000I249999J0D01*
G01*
X184865001Y-76389000D01*
G75*
G02*
X185115000Y-76638999I0J-249999D01*
G01*
X185115000Y-77539001D01*
G75*
G02*
X184865001Y-77789000I-249999J0D01*
G01*
X184214999Y-77789000D01*
G75*
G02*
X183965000Y-77539001I0J249999D01*
G01*
G37*
G36*
G01*
X181915000Y-77539001D02*
X181915000Y-76638999D01*
G75*
G02*
X182164999Y-76389000I249999J0D01*
G01*
X182815001Y-76389000D01*
G75*
G02*
X183065000Y-76638999I0J-249999D01*
G01*
X183065000Y-77539001D01*
G75*
G02*
X182815001Y-77789000I-249999J0D01*
G01*
X182164999Y-77789000D01*
G75*
G02*
X181915000Y-77539001I0J249999D01*
G01*
G37*
G04 #@! TD*
D10*
G04 #@! TO.C,SW5*
X149944000Y-74839000D03*
X149944000Y-79339000D03*
X157904000Y-79339000D03*
X157904000Y-74839000D03*
G04 #@! TD*
G04 #@! TO.C,SW4*
X129116000Y-74839000D03*
X129116000Y-79339000D03*
X137076000Y-79339000D03*
X137076000Y-74839000D03*
G04 #@! TD*
G04 #@! TO.C,SW3*
X108542000Y-74839000D03*
X108542000Y-79339000D03*
X116502000Y-79339000D03*
X116502000Y-74839000D03*
G04 #@! TD*
G04 #@! TO.C,SW2*
X87678000Y-74839000D03*
X87678000Y-79339000D03*
X95638000Y-79339000D03*
X95638000Y-74839000D03*
G04 #@! TD*
G04 #@! TO.C,SW1*
X66505000Y-74839000D03*
X66505000Y-79339000D03*
X74465000Y-79339000D03*
X74465000Y-74839000D03*
G04 #@! TD*
G04 #@! TO.C,R2*
G36*
G01*
X188283000Y-77539001D02*
X188283000Y-76638999D01*
G75*
G02*
X188532999Y-76389000I249999J0D01*
G01*
X189183001Y-76389000D01*
G75*
G02*
X189433000Y-76638999I0J-249999D01*
G01*
X189433000Y-77539001D01*
G75*
G02*
X189183001Y-77789000I-249999J0D01*
G01*
X188532999Y-77789000D01*
G75*
G02*
X188283000Y-77539001I0J249999D01*
G01*
G37*
G36*
G01*
X186233000Y-77539001D02*
X186233000Y-76638999D01*
G75*
G02*
X186482999Y-76389000I249999J0D01*
G01*
X187133001Y-76389000D01*
G75*
G02*
X187383000Y-76638999I0J-249999D01*
G01*
X187383000Y-77539001D01*
G75*
G02*
X187133001Y-77789000I-249999J0D01*
G01*
X186482999Y-77789000D01*
G75*
G02*
X186233000Y-77539001I0J249999D01*
G01*
G37*
G04 #@! TD*
G04 #@! TO.C,C3*
G36*
G01*
X178790500Y-118940001D02*
X178790500Y-118039999D01*
G75*
G02*
X179040499Y-117790000I249999J0D01*
G01*
X179690501Y-117790000D01*
G75*
G02*
X179940500Y-118039999I0J-249999D01*
G01*
X179940500Y-118940001D01*
G75*
G02*
X179690501Y-119190000I-249999J0D01*
G01*
X179040499Y-119190000D01*
G75*
G02*
X178790500Y-118940001I0J249999D01*
G01*
G37*
G36*
G01*
X176740500Y-118940001D02*
X176740500Y-118039999D01*
G75*
G02*
X176990499Y-117790000I249999J0D01*
G01*
X177640501Y-117790000D01*
G75*
G02*
X177890500Y-118039999I0J-249999D01*
G01*
X177890500Y-118940001D01*
G75*
G02*
X177640501Y-119190000I-249999J0D01*
G01*
X176990499Y-119190000D01*
G75*
G02*
X176740500Y-118940001I0J249999D01*
G01*
G37*
G04 #@! TD*
G04 #@! TO.C,C2*
G36*
G01*
X118052000Y-119576001D02*
X118052000Y-118675999D01*
G75*
G02*
X118301999Y-118426000I249999J0D01*
G01*
X118952001Y-118426000D01*
G75*
G02*
X119202000Y-118675999I0J-249999D01*
G01*
X119202000Y-119576001D01*
G75*
G02*
X118952001Y-119826000I-249999J0D01*
G01*
X118301999Y-119826000D01*
G75*
G02*
X118052000Y-119576001I0J249999D01*
G01*
G37*
G36*
G01*
X116002000Y-119576001D02*
X116002000Y-118675999D01*
G75*
G02*
X116251999Y-118426000I249999J0D01*
G01*
X116902001Y-118426000D01*
G75*
G02*
X117152000Y-118675999I0J-249999D01*
G01*
X117152000Y-119576001D01*
G75*
G02*
X116902001Y-119826000I-249999J0D01*
G01*
X116251999Y-119826000D01*
G75*
G02*
X116002000Y-119576001I0J249999D01*
G01*
G37*
G04 #@! TD*
G04 #@! TO.C,C1*
G36*
G01*
X74079000Y-118940001D02*
X74079000Y-118039999D01*
G75*
G02*
X74328999Y-117790000I249999J0D01*
G01*
X74979001Y-117790000D01*
G75*
G02*
X75229000Y-118039999I0J-249999D01*
G01*
X75229000Y-118940001D01*
G75*
G02*
X74979001Y-119190000I-249999J0D01*
G01*
X74328999Y-119190000D01*
G75*
G02*
X74079000Y-118940001I0J249999D01*
G01*
G37*
G36*
G01*
X72029000Y-118940001D02*
X72029000Y-118039999D01*
G75*
G02*
X72278999Y-117790000I249999J0D01*
G01*
X72929001Y-117790000D01*
G75*
G02*
X73179000Y-118039999I0J-249999D01*
G01*
X73179000Y-118940001D01*
G75*
G02*
X72929001Y-119190000I-249999J0D01*
G01*
X72278999Y-119190000D01*
G75*
G02*
X72029000Y-118940001I0J249999D01*
G01*
G37*
G04 #@! TD*
M02*
