G04 #@! TF.GenerationSoftware,KiCad,Pcbnew,5.1.7*
G04 #@! TF.CreationDate,2020-10-09T13:13:43+08:00*
G04 #@! TF.ProjectId,Nixie,4e697869-652e-46b6-9963-61645f706362,rev?*
G04 #@! TF.SameCoordinates,Original*
G04 #@! TF.FileFunction,Legend,Top*
G04 #@! TF.FilePolarity,Positive*
%FSLAX46Y46*%
G04 Gerber Fmt 4.6, Leading zero omitted, Abs format (unit mm)*
G04 Created by KiCad (PCBNEW 5.1.7) date 2020-10-09 13:13:43*
%MOMM*%
%LPD*%
G01*
G04 APERTURE LIST*
%ADD10C,0.150000*%
%ADD11C,0.200000*%
%ADD12C,0.010000*%
%ADD13C,0.120000*%
%ADD14C,0.381000*%
%ADD15C,0.152400*%
G04 APERTURE END LIST*
D10*
X193016142Y-74636095D02*
X193063761Y-74683714D01*
X193111380Y-74826571D01*
X193111380Y-74921809D01*
X193063761Y-75064666D01*
X192968523Y-75159904D01*
X192873285Y-75207523D01*
X192682809Y-75255142D01*
X192539952Y-75255142D01*
X192349476Y-75207523D01*
X192254238Y-75159904D01*
X192159000Y-75064666D01*
X192111380Y-74921809D01*
X192111380Y-74826571D01*
X192159000Y-74683714D01*
X192206619Y-74636095D01*
X192111380Y-74017047D02*
X192111380Y-73826571D01*
X192159000Y-73731333D01*
X192254238Y-73636095D01*
X192444714Y-73588476D01*
X192778047Y-73588476D01*
X192968523Y-73636095D01*
X193063761Y-73731333D01*
X193111380Y-73826571D01*
X193111380Y-74017047D01*
X193063761Y-74112285D01*
X192968523Y-74207523D01*
X192778047Y-74255142D01*
X192444714Y-74255142D01*
X192254238Y-74207523D01*
X192159000Y-74112285D01*
X192111380Y-74017047D01*
X193111380Y-73159904D02*
X192111380Y-73159904D01*
X193111380Y-72588476D01*
X192111380Y-72588476D01*
X193111380Y-72112285D02*
X192111380Y-72112285D01*
X193111380Y-71540857D01*
X192111380Y-71540857D01*
X192206619Y-71112285D02*
X192159000Y-71064666D01*
X192111380Y-70969428D01*
X192111380Y-70731333D01*
X192159000Y-70636095D01*
X192206619Y-70588476D01*
X192301857Y-70540857D01*
X192397095Y-70540857D01*
X192539952Y-70588476D01*
X193111380Y-71159904D01*
X193111380Y-70540857D01*
X219876642Y-120356095D02*
X219924261Y-120403714D01*
X219971880Y-120546571D01*
X219971880Y-120641809D01*
X219924261Y-120784666D01*
X219829023Y-120879904D01*
X219733785Y-120927523D01*
X219543309Y-120975142D01*
X219400452Y-120975142D01*
X219209976Y-120927523D01*
X219114738Y-120879904D01*
X219019500Y-120784666D01*
X218971880Y-120641809D01*
X218971880Y-120546571D01*
X219019500Y-120403714D01*
X219067119Y-120356095D01*
X218971880Y-119737047D02*
X218971880Y-119546571D01*
X219019500Y-119451333D01*
X219114738Y-119356095D01*
X219305214Y-119308476D01*
X219638547Y-119308476D01*
X219829023Y-119356095D01*
X219924261Y-119451333D01*
X219971880Y-119546571D01*
X219971880Y-119737047D01*
X219924261Y-119832285D01*
X219829023Y-119927523D01*
X219638547Y-119975142D01*
X219305214Y-119975142D01*
X219114738Y-119927523D01*
X219019500Y-119832285D01*
X218971880Y-119737047D01*
X219971880Y-118879904D02*
X218971880Y-118879904D01*
X219971880Y-118308476D01*
X218971880Y-118308476D01*
X219971880Y-117832285D02*
X218971880Y-117832285D01*
X219971880Y-117260857D01*
X218971880Y-117260857D01*
X219971880Y-116260857D02*
X219971880Y-116832285D01*
X219971880Y-116546571D02*
X218971880Y-116546571D01*
X219114738Y-116641809D01*
X219209976Y-116737047D01*
X219257595Y-116832285D01*
X217304880Y-116792285D02*
X216304880Y-116792285D01*
X216781071Y-116792285D02*
X216781071Y-116220857D01*
X217304880Y-116220857D02*
X216304880Y-116220857D01*
X216304880Y-115887523D02*
X217304880Y-115554190D01*
X216304880Y-115220857D01*
X214764880Y-116816023D02*
X213764880Y-116816023D01*
X214764880Y-116244595D01*
X213764880Y-116244595D01*
X213717261Y-115054119D02*
X215002976Y-115911261D01*
X214669642Y-114149357D02*
X214717261Y-114196976D01*
X214764880Y-114339833D01*
X214764880Y-114435071D01*
X214717261Y-114577928D01*
X214622023Y-114673166D01*
X214526785Y-114720785D01*
X214336309Y-114768404D01*
X214193452Y-114768404D01*
X214002976Y-114720785D01*
X213907738Y-114673166D01*
X213812500Y-114577928D01*
X213764880Y-114435071D01*
X213764880Y-114339833D01*
X213812500Y-114196976D01*
X213860119Y-114149357D01*
X212224880Y-116252547D02*
X212224880Y-116823976D01*
X212224880Y-116538261D02*
X211224880Y-116538261D01*
X211367738Y-116633500D01*
X211462976Y-116728738D01*
X211510595Y-116823976D01*
X211320119Y-115871595D02*
X211272500Y-115823976D01*
X211224880Y-115728738D01*
X211224880Y-115490642D01*
X211272500Y-115395404D01*
X211320119Y-115347785D01*
X211415357Y-115300166D01*
X211510595Y-115300166D01*
X211653452Y-115347785D01*
X212224880Y-115919214D01*
X212224880Y-115300166D01*
X211224880Y-115014452D02*
X212224880Y-114681119D01*
X211224880Y-114347785D01*
X209672180Y-116758909D02*
X208672180Y-116758909D01*
X208672180Y-116520814D01*
X208719800Y-116377957D01*
X208815038Y-116282719D01*
X208910276Y-116235100D01*
X209100752Y-116187480D01*
X209243609Y-116187480D01*
X209434085Y-116235100D01*
X209529323Y-116282719D01*
X209624561Y-116377957D01*
X209672180Y-116520814D01*
X209672180Y-116758909D01*
X209672180Y-115758909D02*
X208672180Y-115758909D01*
X209672180Y-115282719D02*
X208672180Y-115282719D01*
X209672180Y-114711290D01*
X208672180Y-114711290D01*
X207049642Y-116165238D02*
X207097261Y-116212857D01*
X207144880Y-116355714D01*
X207144880Y-116450952D01*
X207097261Y-116593809D01*
X207002023Y-116689047D01*
X206906785Y-116736666D01*
X206716309Y-116784285D01*
X206573452Y-116784285D01*
X206382976Y-116736666D01*
X206287738Y-116689047D01*
X206192500Y-116593809D01*
X206144880Y-116450952D01*
X206144880Y-116355714D01*
X206192500Y-116212857D01*
X206240119Y-116165238D01*
X207144880Y-115260476D02*
X207144880Y-115736666D01*
X206144880Y-115736666D01*
X207144880Y-114927142D02*
X206144880Y-114927142D01*
X207144880Y-114355714D02*
X206573452Y-114784285D01*
X206144880Y-114355714D02*
X206716309Y-114927142D01*
X203174000Y-116808142D02*
X203174000Y-115998619D01*
X204541380Y-116093857D02*
X204541380Y-116570047D01*
X203541380Y-116570047D01*
X203174000Y-115998619D02*
X203174000Y-115093857D01*
X204017571Y-115760523D02*
X204017571Y-115427190D01*
X204541380Y-115284333D02*
X204541380Y-115760523D01*
X203541380Y-115760523D01*
X203541380Y-115284333D01*
X200761000Y-116792261D02*
X200761000Y-115792261D01*
X201604571Y-116220833D02*
X201652190Y-116077976D01*
X201699809Y-116030357D01*
X201795047Y-115982738D01*
X201937904Y-115982738D01*
X202033142Y-116030357D01*
X202080761Y-116077976D01*
X202128380Y-116173214D01*
X202128380Y-116554166D01*
X201128380Y-116554166D01*
X201128380Y-116220833D01*
X201176000Y-116125595D01*
X201223619Y-116077976D01*
X201318857Y-116030357D01*
X201414095Y-116030357D01*
X201509333Y-116077976D01*
X201556952Y-116125595D01*
X201604571Y-116220833D01*
X201604571Y-116554166D01*
X200761000Y-115792261D02*
X200761000Y-114982738D01*
X202128380Y-115077976D02*
X202128380Y-115554166D01*
X201128380Y-115554166D01*
X198572500Y-116268404D02*
X198524880Y-116363642D01*
X198524880Y-116506500D01*
X198572500Y-116649357D01*
X198667738Y-116744595D01*
X198762976Y-116792214D01*
X198953452Y-116839833D01*
X199096309Y-116839833D01*
X199286785Y-116792214D01*
X199382023Y-116744595D01*
X199477261Y-116649357D01*
X199524880Y-116506500D01*
X199524880Y-116411261D01*
X199477261Y-116268404D01*
X199429642Y-116220785D01*
X199096309Y-116220785D01*
X199096309Y-116411261D01*
X199524880Y-115792214D02*
X198524880Y-115792214D01*
X199524880Y-115220785D01*
X198524880Y-115220785D01*
X199524880Y-114744595D02*
X198524880Y-114744595D01*
X198524880Y-114506500D01*
X198572500Y-114363642D01*
X198667738Y-114268404D01*
X198762976Y-114220785D01*
X198953452Y-114173166D01*
X199096309Y-114173166D01*
X199286785Y-114220785D01*
X199382023Y-114268404D01*
X199477261Y-114363642D01*
X199524880Y-114506500D01*
X199524880Y-114744595D01*
X188626904Y-70064380D02*
X189245952Y-70064380D01*
X188912619Y-70445333D01*
X189055476Y-70445333D01*
X189150714Y-70492952D01*
X189198333Y-70540571D01*
X189245952Y-70635809D01*
X189245952Y-70873904D01*
X189198333Y-70969142D01*
X189150714Y-71016761D01*
X189055476Y-71064380D01*
X188769761Y-71064380D01*
X188674523Y-71016761D01*
X188626904Y-70969142D01*
X189531666Y-70064380D02*
X189865000Y-71064380D01*
X190198333Y-70064380D01*
X190436428Y-70064380D02*
X191055476Y-70064380D01*
X190722142Y-70445333D01*
X190865000Y-70445333D01*
X190960238Y-70492952D01*
X191007857Y-70540571D01*
X191055476Y-70635809D01*
X191055476Y-70873904D01*
X191007857Y-70969142D01*
X190960238Y-71016761D01*
X190865000Y-71064380D01*
X190579285Y-71064380D01*
X190484047Y-71016761D01*
X190436428Y-70969142D01*
X185999523Y-71064380D02*
X185523333Y-71064380D01*
X185523333Y-70064380D01*
X186332857Y-71064380D02*
X186332857Y-70064380D01*
X186570952Y-70064380D01*
X186713809Y-70112000D01*
X186809047Y-70207238D01*
X186856666Y-70302476D01*
X186904285Y-70492952D01*
X186904285Y-70635809D01*
X186856666Y-70826285D01*
X186809047Y-70921523D01*
X186713809Y-71016761D01*
X186570952Y-71064380D01*
X186332857Y-71064380D01*
X187904285Y-71064380D02*
X187570952Y-70588190D01*
X187332857Y-71064380D02*
X187332857Y-70064380D01*
X187713809Y-70064380D01*
X187809047Y-70112000D01*
X187856666Y-70159619D01*
X187904285Y-70254857D01*
X187904285Y-70397714D01*
X187856666Y-70492952D01*
X187809047Y-70540571D01*
X187713809Y-70588190D01*
X187332857Y-70588190D01*
X183618238Y-70540571D02*
X183761095Y-70588190D01*
X183808714Y-70635809D01*
X183856333Y-70731047D01*
X183856333Y-70873904D01*
X183808714Y-70969142D01*
X183761095Y-71016761D01*
X183665857Y-71064380D01*
X183284904Y-71064380D01*
X183284904Y-70064380D01*
X183618238Y-70064380D01*
X183713476Y-70112000D01*
X183761095Y-70159619D01*
X183808714Y-70254857D01*
X183808714Y-70350095D01*
X183761095Y-70445333D01*
X183713476Y-70492952D01*
X183618238Y-70540571D01*
X183284904Y-70540571D01*
X184761095Y-70064380D02*
X184284904Y-70064380D01*
X184237285Y-70540571D01*
X184284904Y-70492952D01*
X184380142Y-70445333D01*
X184618238Y-70445333D01*
X184713476Y-70492952D01*
X184761095Y-70540571D01*
X184808714Y-70635809D01*
X184808714Y-70873904D01*
X184761095Y-70969142D01*
X184713476Y-71016761D01*
X184618238Y-71064380D01*
X184380142Y-71064380D01*
X184284904Y-71016761D01*
X184237285Y-70969142D01*
X181078238Y-70540571D02*
X181221095Y-70588190D01*
X181268714Y-70635809D01*
X181316333Y-70731047D01*
X181316333Y-70873904D01*
X181268714Y-70969142D01*
X181221095Y-71016761D01*
X181125857Y-71064380D01*
X180744904Y-71064380D01*
X180744904Y-70064380D01*
X181078238Y-70064380D01*
X181173476Y-70112000D01*
X181221095Y-70159619D01*
X181268714Y-70254857D01*
X181268714Y-70350095D01*
X181221095Y-70445333D01*
X181173476Y-70492952D01*
X181078238Y-70540571D01*
X180744904Y-70540571D01*
X182173476Y-70397714D02*
X182173476Y-71064380D01*
X181935380Y-70016761D02*
X181697285Y-70731047D01*
X182316333Y-70731047D01*
X178538238Y-70540571D02*
X178681095Y-70588190D01*
X178728714Y-70635809D01*
X178776333Y-70731047D01*
X178776333Y-70873904D01*
X178728714Y-70969142D01*
X178681095Y-71016761D01*
X178585857Y-71064380D01*
X178204904Y-71064380D01*
X178204904Y-70064380D01*
X178538238Y-70064380D01*
X178633476Y-70112000D01*
X178681095Y-70159619D01*
X178728714Y-70254857D01*
X178728714Y-70350095D01*
X178681095Y-70445333D01*
X178633476Y-70492952D01*
X178538238Y-70540571D01*
X178204904Y-70540571D01*
X179109666Y-70064380D02*
X179728714Y-70064380D01*
X179395380Y-70445333D01*
X179538238Y-70445333D01*
X179633476Y-70492952D01*
X179681095Y-70540571D01*
X179728714Y-70635809D01*
X179728714Y-70873904D01*
X179681095Y-70969142D01*
X179633476Y-71016761D01*
X179538238Y-71064380D01*
X179252523Y-71064380D01*
X179157285Y-71016761D01*
X179109666Y-70969142D01*
X175998238Y-70540571D02*
X176141095Y-70588190D01*
X176188714Y-70635809D01*
X176236333Y-70731047D01*
X176236333Y-70873904D01*
X176188714Y-70969142D01*
X176141095Y-71016761D01*
X176045857Y-71064380D01*
X175664904Y-71064380D01*
X175664904Y-70064380D01*
X175998238Y-70064380D01*
X176093476Y-70112000D01*
X176141095Y-70159619D01*
X176188714Y-70254857D01*
X176188714Y-70350095D01*
X176141095Y-70445333D01*
X176093476Y-70492952D01*
X175998238Y-70540571D01*
X175664904Y-70540571D01*
X176617285Y-70159619D02*
X176664904Y-70112000D01*
X176760142Y-70064380D01*
X176998238Y-70064380D01*
X177093476Y-70112000D01*
X177141095Y-70159619D01*
X177188714Y-70254857D01*
X177188714Y-70350095D01*
X177141095Y-70492952D01*
X176569666Y-71064380D01*
X177188714Y-71064380D01*
X173458238Y-70540571D02*
X173601095Y-70588190D01*
X173648714Y-70635809D01*
X173696333Y-70731047D01*
X173696333Y-70873904D01*
X173648714Y-70969142D01*
X173601095Y-71016761D01*
X173505857Y-71064380D01*
X173124904Y-71064380D01*
X173124904Y-70064380D01*
X173458238Y-70064380D01*
X173553476Y-70112000D01*
X173601095Y-70159619D01*
X173648714Y-70254857D01*
X173648714Y-70350095D01*
X173601095Y-70445333D01*
X173553476Y-70492952D01*
X173458238Y-70540571D01*
X173124904Y-70540571D01*
X174648714Y-71064380D02*
X174077285Y-71064380D01*
X174363000Y-71064380D02*
X174363000Y-70064380D01*
X174267761Y-70207238D01*
X174172523Y-70302476D01*
X174077285Y-70350095D01*
X170053095Y-70112000D02*
X169957857Y-70064380D01*
X169815000Y-70064380D01*
X169672142Y-70112000D01*
X169576904Y-70207238D01*
X169529285Y-70302476D01*
X169481666Y-70492952D01*
X169481666Y-70635809D01*
X169529285Y-70826285D01*
X169576904Y-70921523D01*
X169672142Y-71016761D01*
X169815000Y-71064380D01*
X169910238Y-71064380D01*
X170053095Y-71016761D01*
X170100714Y-70969142D01*
X170100714Y-70635809D01*
X169910238Y-70635809D01*
X170529285Y-71064380D02*
X170529285Y-70064380D01*
X171100714Y-71064380D01*
X171100714Y-70064380D01*
X171576904Y-71064380D02*
X171576904Y-70064380D01*
X171815000Y-70064380D01*
X171957857Y-70112000D01*
X172053095Y-70207238D01*
X172100714Y-70302476D01*
X172148333Y-70492952D01*
X172148333Y-70635809D01*
X172100714Y-70826285D01*
X172053095Y-70921523D01*
X171957857Y-71016761D01*
X171815000Y-71064380D01*
X171576904Y-71064380D01*
X136945409Y-109851180D02*
X136945409Y-108851180D01*
X137183504Y-108851180D01*
X137326361Y-108898800D01*
X137421600Y-108994038D01*
X137469219Y-109089276D01*
X137516838Y-109279752D01*
X137516838Y-109422609D01*
X137469219Y-109613085D01*
X137421600Y-109708323D01*
X137326361Y-109803561D01*
X137183504Y-109851180D01*
X136945409Y-109851180D01*
X137945409Y-109851180D02*
X137945409Y-109184514D01*
X137945409Y-108851180D02*
X137897790Y-108898800D01*
X137945409Y-108946419D01*
X137993028Y-108898800D01*
X137945409Y-108851180D01*
X137945409Y-108946419D01*
X138326361Y-109184514D02*
X138564457Y-109851180D01*
X138802552Y-109184514D01*
X139564457Y-109803561D02*
X139469219Y-109851180D01*
X139278742Y-109851180D01*
X139183504Y-109803561D01*
X139135885Y-109708323D01*
X139135885Y-109327371D01*
X139183504Y-109232133D01*
X139278742Y-109184514D01*
X139469219Y-109184514D01*
X139564457Y-109232133D01*
X139612076Y-109327371D01*
X139612076Y-109422609D01*
X139135885Y-109517847D01*
X140040647Y-109851180D02*
X140040647Y-109184514D01*
X140040647Y-109374990D02*
X140088266Y-109279752D01*
X140135885Y-109232133D01*
X140231123Y-109184514D01*
X140326361Y-109184514D01*
X141088266Y-109184514D02*
X141088266Y-109994038D01*
X141040647Y-110089276D01*
X140993028Y-110136895D01*
X140897790Y-110184514D01*
X140754933Y-110184514D01*
X140659695Y-110136895D01*
X141088266Y-109803561D02*
X140993028Y-109851180D01*
X140802552Y-109851180D01*
X140707314Y-109803561D01*
X140659695Y-109755942D01*
X140612076Y-109660704D01*
X140612076Y-109374990D01*
X140659695Y-109279752D01*
X140707314Y-109232133D01*
X140802552Y-109184514D01*
X140993028Y-109184514D01*
X141088266Y-109232133D01*
X141945409Y-109803561D02*
X141850171Y-109851180D01*
X141659695Y-109851180D01*
X141564457Y-109803561D01*
X141516838Y-109708323D01*
X141516838Y-109327371D01*
X141564457Y-109232133D01*
X141659695Y-109184514D01*
X141850171Y-109184514D01*
X141945409Y-109232133D01*
X141993028Y-109327371D01*
X141993028Y-109422609D01*
X141516838Y-109517847D01*
X142421600Y-109184514D02*
X142421600Y-109851180D01*
X142421600Y-109279752D02*
X142469219Y-109232133D01*
X142564457Y-109184514D01*
X142707314Y-109184514D01*
X142802552Y-109232133D01*
X142850171Y-109327371D01*
X142850171Y-109851180D01*
X143754933Y-109803561D02*
X143659695Y-109851180D01*
X143469219Y-109851180D01*
X143373980Y-109803561D01*
X143326361Y-109755942D01*
X143278742Y-109660704D01*
X143278742Y-109374990D01*
X143326361Y-109279752D01*
X143373980Y-109232133D01*
X143469219Y-109184514D01*
X143659695Y-109184514D01*
X143754933Y-109232133D01*
X144564457Y-109803561D02*
X144469219Y-109851180D01*
X144278742Y-109851180D01*
X144183504Y-109803561D01*
X144135885Y-109708323D01*
X144135885Y-109327371D01*
X144183504Y-109232133D01*
X144278742Y-109184514D01*
X144469219Y-109184514D01*
X144564457Y-109232133D01*
X144612076Y-109327371D01*
X144612076Y-109422609D01*
X144135885Y-109517847D01*
X145802552Y-109851180D02*
X145802552Y-108851180D01*
X146135885Y-109565466D01*
X146469219Y-108851180D01*
X146469219Y-109851180D01*
X147326361Y-109803561D02*
X147231123Y-109851180D01*
X147040647Y-109851180D01*
X146945409Y-109803561D01*
X146897790Y-109708323D01*
X146897790Y-109327371D01*
X146945409Y-109232133D01*
X147040647Y-109184514D01*
X147231123Y-109184514D01*
X147326361Y-109232133D01*
X147373980Y-109327371D01*
X147373980Y-109422609D01*
X146897790Y-109517847D01*
X147659695Y-109184514D02*
X148040647Y-109184514D01*
X147802552Y-108851180D02*
X147802552Y-109708323D01*
X147850171Y-109803561D01*
X147945409Y-109851180D01*
X148040647Y-109851180D01*
X148754933Y-109803561D02*
X148659695Y-109851180D01*
X148469219Y-109851180D01*
X148373980Y-109803561D01*
X148326361Y-109708323D01*
X148326361Y-109327371D01*
X148373980Y-109232133D01*
X148469219Y-109184514D01*
X148659695Y-109184514D01*
X148754933Y-109232133D01*
X148802552Y-109327371D01*
X148802552Y-109422609D01*
X148326361Y-109517847D01*
X149231123Y-109851180D02*
X149231123Y-109184514D01*
X149231123Y-109374990D02*
X149278742Y-109279752D01*
X149326361Y-109232133D01*
X149421600Y-109184514D01*
X149516838Y-109184514D01*
X150612076Y-109851180D02*
X150612076Y-108851180D01*
X150993028Y-108851180D01*
X151088266Y-108898800D01*
X151135885Y-108946419D01*
X151183504Y-109041657D01*
X151183504Y-109184514D01*
X151135885Y-109279752D01*
X151088266Y-109327371D01*
X150993028Y-109374990D01*
X150612076Y-109374990D01*
X151612076Y-109851180D02*
X151612076Y-109184514D01*
X151612076Y-109374990D02*
X151659695Y-109279752D01*
X151707314Y-109232133D01*
X151802552Y-109184514D01*
X151897790Y-109184514D01*
X152373980Y-109851180D02*
X152278742Y-109803561D01*
X152231123Y-109755942D01*
X152183504Y-109660704D01*
X152183504Y-109374990D01*
X152231123Y-109279752D01*
X152278742Y-109232133D01*
X152373980Y-109184514D01*
X152516838Y-109184514D01*
X152612076Y-109232133D01*
X152659695Y-109279752D01*
X152707314Y-109374990D01*
X152707314Y-109660704D01*
X152659695Y-109755942D01*
X152612076Y-109803561D01*
X152516838Y-109851180D01*
X152373980Y-109851180D01*
X153135885Y-109184514D02*
X153135885Y-110041657D01*
X153088266Y-110136895D01*
X152993028Y-110184514D01*
X152945409Y-110184514D01*
X153135885Y-108851180D02*
X153088266Y-108898800D01*
X153135885Y-108946419D01*
X153183504Y-108898800D01*
X153135885Y-108851180D01*
X153135885Y-108946419D01*
X153993028Y-109803561D02*
X153897790Y-109851180D01*
X153707314Y-109851180D01*
X153612076Y-109803561D01*
X153564457Y-109708323D01*
X153564457Y-109327371D01*
X153612076Y-109232133D01*
X153707314Y-109184514D01*
X153897790Y-109184514D01*
X153993028Y-109232133D01*
X154040647Y-109327371D01*
X154040647Y-109422609D01*
X153564457Y-109517847D01*
X154897790Y-109803561D02*
X154802552Y-109851180D01*
X154612076Y-109851180D01*
X154516838Y-109803561D01*
X154469219Y-109755942D01*
X154421600Y-109660704D01*
X154421600Y-109374990D01*
X154469219Y-109279752D01*
X154516838Y-109232133D01*
X154612076Y-109184514D01*
X154802552Y-109184514D01*
X154897790Y-109232133D01*
X155183504Y-109184514D02*
X155564457Y-109184514D01*
X155326361Y-108851180D02*
X155326361Y-109708323D01*
X155373980Y-109803561D01*
X155469219Y-109851180D01*
X155564457Y-109851180D01*
X156564457Y-109184514D02*
X156802552Y-109851180D01*
X157040647Y-109184514D01*
X157373980Y-108946419D02*
X157421600Y-108898800D01*
X157516838Y-108851180D01*
X157754933Y-108851180D01*
X157850171Y-108898800D01*
X157897790Y-108946419D01*
X157945409Y-109041657D01*
X157945409Y-109136895D01*
X157897790Y-109279752D01*
X157326361Y-109851180D01*
X157945409Y-109851180D01*
X143278742Y-111501180D02*
X143278742Y-110501180D01*
X143850171Y-111501180D01*
X143850171Y-110501180D01*
X144326361Y-111501180D02*
X144326361Y-110834514D01*
X144326361Y-110501180D02*
X144278742Y-110548800D01*
X144326361Y-110596419D01*
X144373980Y-110548800D01*
X144326361Y-110501180D01*
X144326361Y-110596419D01*
X144707314Y-111501180D02*
X145231123Y-110834514D01*
X144707314Y-110834514D02*
X145231123Y-111501180D01*
X145612076Y-111501180D02*
X145612076Y-110834514D01*
X145612076Y-110501180D02*
X145564457Y-110548800D01*
X145612076Y-110596419D01*
X145659695Y-110548800D01*
X145612076Y-110501180D01*
X145612076Y-110596419D01*
X146469219Y-111453561D02*
X146373980Y-111501180D01*
X146183504Y-111501180D01*
X146088266Y-111453561D01*
X146040647Y-111358323D01*
X146040647Y-110977371D01*
X146088266Y-110882133D01*
X146183504Y-110834514D01*
X146373980Y-110834514D01*
X146469219Y-110882133D01*
X146516838Y-110977371D01*
X146516838Y-111072609D01*
X146040647Y-111167847D01*
X148040647Y-110977371D02*
X148183504Y-111024990D01*
X148231123Y-111072609D01*
X148278742Y-111167847D01*
X148278742Y-111310704D01*
X148231123Y-111405942D01*
X148183504Y-111453561D01*
X148088266Y-111501180D01*
X147707314Y-111501180D01*
X147707314Y-110501180D01*
X148040647Y-110501180D01*
X148135885Y-110548800D01*
X148183504Y-110596419D01*
X148231123Y-110691657D01*
X148231123Y-110786895D01*
X148183504Y-110882133D01*
X148135885Y-110929752D01*
X148040647Y-110977371D01*
X147707314Y-110977371D01*
X148850171Y-111501180D02*
X148754933Y-111453561D01*
X148707314Y-111405942D01*
X148659695Y-111310704D01*
X148659695Y-111024990D01*
X148707314Y-110929752D01*
X148754933Y-110882133D01*
X148850171Y-110834514D01*
X148993028Y-110834514D01*
X149088266Y-110882133D01*
X149135885Y-110929752D01*
X149183504Y-111024990D01*
X149183504Y-111310704D01*
X149135885Y-111405942D01*
X149088266Y-111453561D01*
X148993028Y-111501180D01*
X148850171Y-111501180D01*
X150040647Y-111501180D02*
X150040647Y-110977371D01*
X149993028Y-110882133D01*
X149897790Y-110834514D01*
X149707314Y-110834514D01*
X149612076Y-110882133D01*
X150040647Y-111453561D02*
X149945409Y-111501180D01*
X149707314Y-111501180D01*
X149612076Y-111453561D01*
X149564457Y-111358323D01*
X149564457Y-111263085D01*
X149612076Y-111167847D01*
X149707314Y-111120228D01*
X149945409Y-111120228D01*
X150040647Y-111072609D01*
X150516838Y-111501180D02*
X150516838Y-110834514D01*
X150516838Y-111024990D02*
X150564457Y-110929752D01*
X150612076Y-110882133D01*
X150707314Y-110834514D01*
X150802552Y-110834514D01*
X151564457Y-111501180D02*
X151564457Y-110501180D01*
X151564457Y-111453561D02*
X151469219Y-111501180D01*
X151278742Y-111501180D01*
X151183504Y-111453561D01*
X151135885Y-111405942D01*
X151088266Y-111310704D01*
X151088266Y-111024990D01*
X151135885Y-110929752D01*
X151183504Y-110882133D01*
X151278742Y-110834514D01*
X151469219Y-110834514D01*
X151564457Y-110882133D01*
X138945409Y-113151180D02*
X138945409Y-112151180D01*
X139183504Y-112151180D01*
X139326361Y-112198800D01*
X139421600Y-112294038D01*
X139469219Y-112389276D01*
X139516838Y-112579752D01*
X139516838Y-112722609D01*
X139469219Y-112913085D01*
X139421600Y-113008323D01*
X139326361Y-113103561D01*
X139183504Y-113151180D01*
X138945409Y-113151180D01*
X140326361Y-113103561D02*
X140231123Y-113151180D01*
X140040647Y-113151180D01*
X139945409Y-113103561D01*
X139897790Y-113008323D01*
X139897790Y-112627371D01*
X139945409Y-112532133D01*
X140040647Y-112484514D01*
X140231123Y-112484514D01*
X140326361Y-112532133D01*
X140373980Y-112627371D01*
X140373980Y-112722609D01*
X139897790Y-112817847D01*
X140754933Y-113103561D02*
X140850171Y-113151180D01*
X141040647Y-113151180D01*
X141135885Y-113103561D01*
X141183504Y-113008323D01*
X141183504Y-112960704D01*
X141135885Y-112865466D01*
X141040647Y-112817847D01*
X140897790Y-112817847D01*
X140802552Y-112770228D01*
X140754933Y-112674990D01*
X140754933Y-112627371D01*
X140802552Y-112532133D01*
X140897790Y-112484514D01*
X141040647Y-112484514D01*
X141135885Y-112532133D01*
X141612076Y-113151180D02*
X141612076Y-112484514D01*
X141612076Y-112151180D02*
X141564457Y-112198800D01*
X141612076Y-112246419D01*
X141659695Y-112198800D01*
X141612076Y-112151180D01*
X141612076Y-112246419D01*
X142516838Y-112484514D02*
X142516838Y-113294038D01*
X142469219Y-113389276D01*
X142421600Y-113436895D01*
X142326361Y-113484514D01*
X142183504Y-113484514D01*
X142088266Y-113436895D01*
X142516838Y-113103561D02*
X142421600Y-113151180D01*
X142231123Y-113151180D01*
X142135885Y-113103561D01*
X142088266Y-113055942D01*
X142040647Y-112960704D01*
X142040647Y-112674990D01*
X142088266Y-112579752D01*
X142135885Y-112532133D01*
X142231123Y-112484514D01*
X142421600Y-112484514D01*
X142516838Y-112532133D01*
X142993028Y-112484514D02*
X142993028Y-113151180D01*
X142993028Y-112579752D02*
X143040647Y-112532133D01*
X143135885Y-112484514D01*
X143278742Y-112484514D01*
X143373980Y-112532133D01*
X143421600Y-112627371D01*
X143421600Y-113151180D01*
X144278742Y-113103561D02*
X144183504Y-113151180D01*
X143993028Y-113151180D01*
X143897790Y-113103561D01*
X143850171Y-113008323D01*
X143850171Y-112627371D01*
X143897790Y-112532133D01*
X143993028Y-112484514D01*
X144183504Y-112484514D01*
X144278742Y-112532133D01*
X144326361Y-112627371D01*
X144326361Y-112722609D01*
X143850171Y-112817847D01*
X145183504Y-113151180D02*
X145183504Y-112151180D01*
X145183504Y-113103561D02*
X145088266Y-113151180D01*
X144897790Y-113151180D01*
X144802552Y-113103561D01*
X144754933Y-113055942D01*
X144707314Y-112960704D01*
X144707314Y-112674990D01*
X144754933Y-112579752D01*
X144802552Y-112532133D01*
X144897790Y-112484514D01*
X145088266Y-112484514D01*
X145183504Y-112532133D01*
X146421600Y-113151180D02*
X146421600Y-112151180D01*
X146421600Y-112532133D02*
X146516838Y-112484514D01*
X146707314Y-112484514D01*
X146802552Y-112532133D01*
X146850171Y-112579752D01*
X146897790Y-112674990D01*
X146897790Y-112960704D01*
X146850171Y-113055942D01*
X146802552Y-113103561D01*
X146707314Y-113151180D01*
X146516838Y-113151180D01*
X146421600Y-113103561D01*
X147231123Y-112484514D02*
X147469219Y-113151180D01*
X147707314Y-112484514D02*
X147469219Y-113151180D01*
X147373980Y-113389276D01*
X147326361Y-113436895D01*
X147231123Y-113484514D01*
X148754933Y-112484514D02*
X148945409Y-113151180D01*
X149135885Y-112674990D01*
X149326361Y-113151180D01*
X149516838Y-112484514D01*
X150326361Y-113151180D02*
X150326361Y-112627371D01*
X150278742Y-112532133D01*
X150183504Y-112484514D01*
X149993028Y-112484514D01*
X149897790Y-112532133D01*
X150326361Y-113103561D02*
X150231123Y-113151180D01*
X149993028Y-113151180D01*
X149897790Y-113103561D01*
X149850171Y-113008323D01*
X149850171Y-112913085D01*
X149897790Y-112817847D01*
X149993028Y-112770228D01*
X150231123Y-112770228D01*
X150326361Y-112722609D01*
X150802552Y-113151180D02*
X150802552Y-112484514D01*
X150802552Y-112151180D02*
X150754933Y-112198800D01*
X150802552Y-112246419D01*
X150850171Y-112198800D01*
X150802552Y-112151180D01*
X150802552Y-112246419D01*
X151707314Y-113103561D02*
X151612076Y-113151180D01*
X151421600Y-113151180D01*
X151326361Y-113103561D01*
X151278742Y-113055942D01*
X151231123Y-112960704D01*
X151231123Y-112674990D01*
X151278742Y-112579752D01*
X151326361Y-112532133D01*
X151421600Y-112484514D01*
X151612076Y-112484514D01*
X151707314Y-112532133D01*
X152278742Y-113151180D02*
X152183504Y-113103561D01*
X152135885Y-113055942D01*
X152088266Y-112960704D01*
X152088266Y-112674990D01*
X152135885Y-112579752D01*
X152183504Y-112532133D01*
X152278742Y-112484514D01*
X152421600Y-112484514D01*
X152516838Y-112532133D01*
X152564457Y-112579752D01*
X152612076Y-112674990D01*
X152612076Y-112960704D01*
X152564457Y-113055942D01*
X152516838Y-113103561D01*
X152421600Y-113151180D01*
X152278742Y-113151180D01*
X153183504Y-113151180D02*
X153088266Y-113103561D01*
X153040647Y-113055942D01*
X152993028Y-112960704D01*
X152993028Y-112674990D01*
X153040647Y-112579752D01*
X153088266Y-112532133D01*
X153183504Y-112484514D01*
X153326361Y-112484514D01*
X153421600Y-112532133D01*
X153469219Y-112579752D01*
X153516838Y-112674990D01*
X153516838Y-112960704D01*
X153469219Y-113055942D01*
X153421600Y-113103561D01*
X153326361Y-113151180D01*
X153183504Y-113151180D01*
X154088266Y-113151180D02*
X153993028Y-113103561D01*
X153945409Y-113008323D01*
X153945409Y-112151180D01*
X154421600Y-112246419D02*
X154469219Y-112198800D01*
X154564457Y-112151180D01*
X154802552Y-112151180D01*
X154897790Y-112198800D01*
X154945409Y-112246419D01*
X154993028Y-112341657D01*
X154993028Y-112436895D01*
X154945409Y-112579752D01*
X154373980Y-113151180D01*
X154993028Y-113151180D01*
X155612076Y-112151180D02*
X155707314Y-112151180D01*
X155802552Y-112198800D01*
X155850171Y-112246419D01*
X155897790Y-112341657D01*
X155945409Y-112532133D01*
X155945409Y-112770228D01*
X155897790Y-112960704D01*
X155850171Y-113055942D01*
X155802552Y-113103561D01*
X155707314Y-113151180D01*
X155612076Y-113151180D01*
X155516838Y-113103561D01*
X155469219Y-113055942D01*
X155421600Y-112960704D01*
X155373980Y-112770228D01*
X155373980Y-112532133D01*
X155421600Y-112341657D01*
X155469219Y-112246419D01*
X155516838Y-112198800D01*
X155612076Y-112151180D01*
D11*
X94927161Y-110547842D02*
X95008114Y-110628795D01*
X94927161Y-110709747D01*
X94846209Y-110628795D01*
X94927161Y-110547842D01*
X94927161Y-110709747D01*
X94927161Y-110062128D02*
X94846209Y-109090700D01*
X94927161Y-109009747D01*
X95008114Y-109090700D01*
X94927161Y-110062128D01*
X94927161Y-109009747D01*
X95736685Y-110547842D02*
X95817638Y-110628795D01*
X95736685Y-110709747D01*
X95655733Y-110628795D01*
X95736685Y-110547842D01*
X95736685Y-110709747D01*
X95736685Y-110062128D02*
X95655733Y-109090700D01*
X95736685Y-109009747D01*
X95817638Y-109090700D01*
X95736685Y-110062128D01*
X95736685Y-109009747D01*
X97679542Y-109009747D02*
X98084304Y-110709747D01*
X98408114Y-109495461D01*
X98731923Y-110709747D01*
X99136685Y-109009747D01*
X99703352Y-110224033D02*
X100512876Y-110224033D01*
X99541447Y-110709747D02*
X100108114Y-109009747D01*
X100674780Y-110709747D01*
X102212876Y-110709747D02*
X101646209Y-109900223D01*
X101241447Y-110709747D02*
X101241447Y-109009747D01*
X101889066Y-109009747D01*
X102050971Y-109090700D01*
X102131923Y-109171652D01*
X102212876Y-109333557D01*
X102212876Y-109576414D01*
X102131923Y-109738319D01*
X102050971Y-109819271D01*
X101889066Y-109900223D01*
X101241447Y-109900223D01*
X102941447Y-110709747D02*
X102941447Y-109009747D01*
X103912876Y-110709747D01*
X103912876Y-109009747D01*
X104722400Y-110709747D02*
X104722400Y-109009747D01*
X105531923Y-110709747D02*
X105531923Y-109009747D01*
X106503352Y-110709747D01*
X106503352Y-109009747D01*
X108203352Y-109090700D02*
X108041447Y-109009747D01*
X107798590Y-109009747D01*
X107555733Y-109090700D01*
X107393828Y-109252604D01*
X107312876Y-109414509D01*
X107231923Y-109738319D01*
X107231923Y-109981176D01*
X107312876Y-110304985D01*
X107393828Y-110466890D01*
X107555733Y-110628795D01*
X107798590Y-110709747D01*
X107960495Y-110709747D01*
X108203352Y-110628795D01*
X108284304Y-110547842D01*
X108284304Y-109981176D01*
X107960495Y-109981176D01*
X110308114Y-110547842D02*
X110389066Y-110628795D01*
X110308114Y-110709747D01*
X110227161Y-110628795D01*
X110308114Y-110547842D01*
X110308114Y-110709747D01*
X110308114Y-110062128D02*
X110227161Y-109090700D01*
X110308114Y-109009747D01*
X110389066Y-109090700D01*
X110308114Y-110062128D01*
X110308114Y-109009747D01*
X111117638Y-110547842D02*
X111198590Y-110628795D01*
X111117638Y-110709747D01*
X111036685Y-110628795D01*
X111117638Y-110547842D01*
X111117638Y-110709747D01*
X111117638Y-110062128D02*
X111036685Y-109090700D01*
X111117638Y-109009747D01*
X111198590Y-109090700D01*
X111117638Y-110062128D01*
X111117638Y-109009747D01*
X91527161Y-113297842D02*
X91608114Y-113378795D01*
X91527161Y-113459747D01*
X91446209Y-113378795D01*
X91527161Y-113297842D01*
X91527161Y-113459747D01*
X91527161Y-112812128D02*
X91446209Y-111840700D01*
X91527161Y-111759747D01*
X91608114Y-111840700D01*
X91527161Y-112812128D01*
X91527161Y-111759747D01*
X92336685Y-113297842D02*
X92417638Y-113378795D01*
X92336685Y-113459747D01*
X92255733Y-113378795D01*
X92336685Y-113297842D01*
X92336685Y-113459747D01*
X92336685Y-112812128D02*
X92255733Y-111840700D01*
X92336685Y-111759747D01*
X92417638Y-111840700D01*
X92336685Y-112812128D01*
X92336685Y-111759747D01*
X94441447Y-113459747D02*
X94441447Y-111759747D01*
X94441447Y-112569271D02*
X95412876Y-112569271D01*
X95412876Y-113459747D02*
X95412876Y-111759747D01*
X96222400Y-113459747D02*
X96222400Y-111759747D01*
X97922400Y-111840700D02*
X97760495Y-111759747D01*
X97517638Y-111759747D01*
X97274780Y-111840700D01*
X97112876Y-112002604D01*
X97031923Y-112164509D01*
X96950971Y-112488319D01*
X96950971Y-112731176D01*
X97031923Y-113054985D01*
X97112876Y-113216890D01*
X97274780Y-113378795D01*
X97517638Y-113459747D01*
X97679542Y-113459747D01*
X97922400Y-113378795D01*
X98003352Y-113297842D01*
X98003352Y-112731176D01*
X97679542Y-112731176D01*
X98731923Y-113459747D02*
X98731923Y-111759747D01*
X98731923Y-112569271D02*
X99703352Y-112569271D01*
X99703352Y-113459747D02*
X99703352Y-111759747D01*
X101565257Y-111759747D02*
X102131923Y-113459747D01*
X102698590Y-111759747D01*
X103589066Y-111759747D02*
X103912876Y-111759747D01*
X104074780Y-111840700D01*
X104236685Y-112002604D01*
X104317638Y-112326414D01*
X104317638Y-112893080D01*
X104236685Y-113216890D01*
X104074780Y-113378795D01*
X103912876Y-113459747D01*
X103589066Y-113459747D01*
X103427161Y-113378795D01*
X103265257Y-113216890D01*
X103184304Y-112893080D01*
X103184304Y-112326414D01*
X103265257Y-112002604D01*
X103427161Y-111840700D01*
X103589066Y-111759747D01*
X105855733Y-113459747D02*
X105046209Y-113459747D01*
X105046209Y-111759747D01*
X106179542Y-111759747D02*
X107150971Y-111759747D01*
X106665257Y-113459747D02*
X106665257Y-111759747D01*
X107636685Y-112974033D02*
X108446209Y-112974033D01*
X107474780Y-113459747D02*
X108041447Y-111759747D01*
X108608114Y-113459747D01*
X110065257Y-111840700D02*
X109903352Y-111759747D01*
X109660495Y-111759747D01*
X109417638Y-111840700D01*
X109255733Y-112002604D01*
X109174780Y-112164509D01*
X109093828Y-112488319D01*
X109093828Y-112731176D01*
X109174780Y-113054985D01*
X109255733Y-113216890D01*
X109417638Y-113378795D01*
X109660495Y-113459747D01*
X109822400Y-113459747D01*
X110065257Y-113378795D01*
X110146209Y-113297842D01*
X110146209Y-112731176D01*
X109822400Y-112731176D01*
X110874780Y-112569271D02*
X111441447Y-112569271D01*
X111684304Y-113459747D02*
X110874780Y-113459747D01*
X110874780Y-111759747D01*
X111684304Y-111759747D01*
X113708114Y-113297842D02*
X113789066Y-113378795D01*
X113708114Y-113459747D01*
X113627161Y-113378795D01*
X113708114Y-113297842D01*
X113708114Y-113459747D01*
X113708114Y-112812128D02*
X113627161Y-111840700D01*
X113708114Y-111759747D01*
X113789066Y-111840700D01*
X113708114Y-112812128D01*
X113708114Y-111759747D01*
X114517638Y-113297842D02*
X114598590Y-113378795D01*
X114517638Y-113459747D01*
X114436685Y-113378795D01*
X114517638Y-113297842D01*
X114517638Y-113459747D01*
X114517638Y-112812128D02*
X114436685Y-111840700D01*
X114517638Y-111759747D01*
X114598590Y-111840700D01*
X114517638Y-112812128D01*
X114517638Y-111759747D01*
D12*
G04 #@! TO.C,G\u002A\u002A\u002A*
G36*
X153969888Y-115768882D02*
G01*
X154531452Y-115769707D01*
X155081484Y-115771166D01*
X155613569Y-115773258D01*
X156121295Y-115775987D01*
X156598249Y-115779351D01*
X157038018Y-115783349D01*
X157434188Y-115787982D01*
X157780347Y-115793250D01*
X158070080Y-115799153D01*
X158296976Y-115805691D01*
X158454621Y-115812863D01*
X158536601Y-115820671D01*
X158546800Y-115824000D01*
X158560334Y-115860781D01*
X158571497Y-115945265D01*
X158580448Y-116082978D01*
X158587344Y-116279447D01*
X158592343Y-116540196D01*
X158595602Y-116870754D01*
X158597281Y-117276645D01*
X158597600Y-117602000D01*
X158597600Y-119329200D01*
X148437600Y-119329200D01*
X148437600Y-117602000D01*
X148438283Y-117141154D01*
X148438429Y-117115166D01*
X148522266Y-117115166D01*
X148522266Y-118270866D01*
X148704645Y-118270866D01*
X148825541Y-118279552D01*
X148908234Y-118318667D01*
X148989802Y-118407798D01*
X149007283Y-118430741D01*
X149248303Y-118684828D01*
X149531419Y-118870906D01*
X149844716Y-118986166D01*
X150176277Y-119027798D01*
X150514186Y-118992992D01*
X150846526Y-118878940D01*
X150866800Y-118869136D01*
X150948318Y-118821200D01*
X153263600Y-118821200D01*
X153263600Y-119117533D01*
X153414549Y-119117533D01*
X153541493Y-119105350D01*
X153643277Y-119075815D01*
X153647383Y-119073710D01*
X153709118Y-119007606D01*
X153729401Y-118920654D01*
X153700537Y-118851614D01*
X153692610Y-118845875D01*
X153671951Y-118792049D01*
X153676231Y-118717149D01*
X153674397Y-118631941D01*
X153623415Y-118589156D01*
X153793306Y-118589156D01*
X153839221Y-118695384D01*
X153851018Y-118715978D01*
X153909620Y-118845588D01*
X153939825Y-118971576D01*
X153940933Y-118992953D01*
X153960172Y-119091995D01*
X154004433Y-119117533D01*
X154055432Y-119080615D01*
X154067933Y-119009503D01*
X154088952Y-118905265D01*
X154141448Y-118776454D01*
X154162492Y-118737173D01*
X154184942Y-118688108D01*
X155634266Y-118688108D01*
X155666467Y-118785278D01*
X155768548Y-118852813D01*
X155856516Y-118879669D01*
X155940717Y-118913119D01*
X155972933Y-118950335D01*
X155940506Y-119004831D01*
X155865519Y-119018091D01*
X155781414Y-118986192D01*
X155766939Y-118974500D01*
X155682524Y-118913435D01*
X155640525Y-118923229D01*
X155634266Y-118960900D01*
X155669903Y-119047580D01*
X155758481Y-119101635D01*
X155872502Y-119116855D01*
X155916317Y-119105185D01*
X156117058Y-119105185D01*
X156154374Y-119117533D01*
X156223812Y-119083306D01*
X156242242Y-119054033D01*
X156300299Y-119001623D01*
X156391484Y-118995847D01*
X156478815Y-119035873D01*
X156501124Y-119059858D01*
X156561628Y-119109552D01*
X156596538Y-119112775D01*
X156607233Y-119068537D01*
X156588326Y-118972338D01*
X156548719Y-118847623D01*
X156497314Y-118717838D01*
X156443010Y-118606427D01*
X156394710Y-118536835D01*
X156373335Y-118524866D01*
X156329096Y-118561328D01*
X156273300Y-118655401D01*
X156233621Y-118747116D01*
X156181329Y-118884762D01*
X156137756Y-118998407D01*
X156120216Y-119043450D01*
X156117058Y-119105185D01*
X155916317Y-119105185D01*
X155984469Y-119087033D01*
X156033409Y-119051009D01*
X156087509Y-118991764D01*
X156094484Y-118946236D01*
X156075023Y-118890209D01*
X156020789Y-118834494D01*
X155920425Y-118782865D01*
X155903497Y-118776907D01*
X155821630Y-118734136D01*
X155778475Y-118684279D01*
X155782095Y-118647462D01*
X155840555Y-118643810D01*
X155851225Y-118646444D01*
X155943345Y-118671853D01*
X155983516Y-118683131D01*
X156046073Y-118683539D01*
X156052865Y-118646820D01*
X156009373Y-118594308D01*
X155951766Y-118559497D01*
X155834652Y-118537541D01*
X155724581Y-118565230D01*
X155650089Y-118631005D01*
X155634266Y-118688108D01*
X154184942Y-118688108D01*
X154215169Y-118622047D01*
X154223738Y-118550704D01*
X154194219Y-118534187D01*
X154132631Y-118583541D01*
X154100677Y-118623773D01*
X154013322Y-118743693D01*
X153917422Y-118623696D01*
X153838818Y-118544403D01*
X153795308Y-118535859D01*
X153793306Y-118589156D01*
X153623415Y-118589156D01*
X153612927Y-118580355D01*
X153583131Y-118567972D01*
X153458848Y-118534873D01*
X153366677Y-118524866D01*
X153312809Y-118529566D01*
X153281977Y-118555954D01*
X153267770Y-118622463D01*
X153263775Y-118747527D01*
X153263600Y-118821200D01*
X150948318Y-118821200D01*
X151010136Y-118784849D01*
X151159704Y-118674785D01*
X151298410Y-118554466D01*
X151409159Y-118439415D01*
X151474858Y-118345154D01*
X151485600Y-118307239D01*
X151526896Y-118301678D01*
X151646638Y-118296375D01*
X151838604Y-118291397D01*
X152096574Y-118286806D01*
X152414326Y-118282667D01*
X152785639Y-118279045D01*
X153204293Y-118276005D01*
X153664067Y-118273610D01*
X154158739Y-118271925D01*
X154682088Y-118271014D01*
X154999266Y-118270866D01*
X158512933Y-118270866D01*
X158512933Y-117115166D01*
X158511759Y-116738355D01*
X158508067Y-116440058D01*
X158501597Y-116214150D01*
X158492093Y-116054509D01*
X158479296Y-115955011D01*
X158462949Y-115909533D01*
X158462133Y-115908666D01*
X158412426Y-115900536D01*
X158284524Y-115893052D01*
X158084895Y-115886213D01*
X157820010Y-115880021D01*
X157496337Y-115874474D01*
X157120344Y-115869574D01*
X156698502Y-115865319D01*
X156237279Y-115861710D01*
X155743144Y-115858747D01*
X155222566Y-115856430D01*
X154682014Y-115854758D01*
X154127958Y-115853733D01*
X153566866Y-115853353D01*
X153005207Y-115853620D01*
X152449451Y-115854532D01*
X151906067Y-115856090D01*
X151381522Y-115858294D01*
X150882288Y-115861144D01*
X150414832Y-115864640D01*
X149985623Y-115868782D01*
X149601132Y-115873569D01*
X149267826Y-115879003D01*
X148992175Y-115885082D01*
X148780647Y-115891807D01*
X148639713Y-115899178D01*
X148575840Y-115907195D01*
X148573066Y-115908666D01*
X148556555Y-115951877D01*
X148543605Y-116048835D01*
X148533959Y-116205663D01*
X148527360Y-116428485D01*
X148523549Y-116723423D01*
X148522268Y-117096602D01*
X148522266Y-117115166D01*
X148438429Y-117115166D01*
X148440440Y-116759439D01*
X148444227Y-116451328D01*
X148449803Y-116211294D01*
X148457325Y-116033812D01*
X148466951Y-115913356D01*
X148478840Y-115844398D01*
X148488399Y-115824000D01*
X148538044Y-115815936D01*
X148665939Y-115808508D01*
X148865672Y-115801714D01*
X149130830Y-115795555D01*
X149455000Y-115790031D01*
X149831768Y-115785142D01*
X150254722Y-115780887D01*
X150717449Y-115777267D01*
X151213534Y-115774283D01*
X151736565Y-115771934D01*
X152280129Y-115770219D01*
X152837813Y-115769138D01*
X153403204Y-115768693D01*
X153969888Y-115768882D01*
G37*
X153969888Y-115768882D02*
X154531452Y-115769707D01*
X155081484Y-115771166D01*
X155613569Y-115773258D01*
X156121295Y-115775987D01*
X156598249Y-115779351D01*
X157038018Y-115783349D01*
X157434188Y-115787982D01*
X157780347Y-115793250D01*
X158070080Y-115799153D01*
X158296976Y-115805691D01*
X158454621Y-115812863D01*
X158536601Y-115820671D01*
X158546800Y-115824000D01*
X158560334Y-115860781D01*
X158571497Y-115945265D01*
X158580448Y-116082978D01*
X158587344Y-116279447D01*
X158592343Y-116540196D01*
X158595602Y-116870754D01*
X158597281Y-117276645D01*
X158597600Y-117602000D01*
X158597600Y-119329200D01*
X148437600Y-119329200D01*
X148437600Y-117602000D01*
X148438283Y-117141154D01*
X148438429Y-117115166D01*
X148522266Y-117115166D01*
X148522266Y-118270866D01*
X148704645Y-118270866D01*
X148825541Y-118279552D01*
X148908234Y-118318667D01*
X148989802Y-118407798D01*
X149007283Y-118430741D01*
X149248303Y-118684828D01*
X149531419Y-118870906D01*
X149844716Y-118986166D01*
X150176277Y-119027798D01*
X150514186Y-118992992D01*
X150846526Y-118878940D01*
X150866800Y-118869136D01*
X150948318Y-118821200D01*
X153263600Y-118821200D01*
X153263600Y-119117533D01*
X153414549Y-119117533D01*
X153541493Y-119105350D01*
X153643277Y-119075815D01*
X153647383Y-119073710D01*
X153709118Y-119007606D01*
X153729401Y-118920654D01*
X153700537Y-118851614D01*
X153692610Y-118845875D01*
X153671951Y-118792049D01*
X153676231Y-118717149D01*
X153674397Y-118631941D01*
X153623415Y-118589156D01*
X153793306Y-118589156D01*
X153839221Y-118695384D01*
X153851018Y-118715978D01*
X153909620Y-118845588D01*
X153939825Y-118971576D01*
X153940933Y-118992953D01*
X153960172Y-119091995D01*
X154004433Y-119117533D01*
X154055432Y-119080615D01*
X154067933Y-119009503D01*
X154088952Y-118905265D01*
X154141448Y-118776454D01*
X154162492Y-118737173D01*
X154184942Y-118688108D01*
X155634266Y-118688108D01*
X155666467Y-118785278D01*
X155768548Y-118852813D01*
X155856516Y-118879669D01*
X155940717Y-118913119D01*
X155972933Y-118950335D01*
X155940506Y-119004831D01*
X155865519Y-119018091D01*
X155781414Y-118986192D01*
X155766939Y-118974500D01*
X155682524Y-118913435D01*
X155640525Y-118923229D01*
X155634266Y-118960900D01*
X155669903Y-119047580D01*
X155758481Y-119101635D01*
X155872502Y-119116855D01*
X155916317Y-119105185D01*
X156117058Y-119105185D01*
X156154374Y-119117533D01*
X156223812Y-119083306D01*
X156242242Y-119054033D01*
X156300299Y-119001623D01*
X156391484Y-118995847D01*
X156478815Y-119035873D01*
X156501124Y-119059858D01*
X156561628Y-119109552D01*
X156596538Y-119112775D01*
X156607233Y-119068537D01*
X156588326Y-118972338D01*
X156548719Y-118847623D01*
X156497314Y-118717838D01*
X156443010Y-118606427D01*
X156394710Y-118536835D01*
X156373335Y-118524866D01*
X156329096Y-118561328D01*
X156273300Y-118655401D01*
X156233621Y-118747116D01*
X156181329Y-118884762D01*
X156137756Y-118998407D01*
X156120216Y-119043450D01*
X156117058Y-119105185D01*
X155916317Y-119105185D01*
X155984469Y-119087033D01*
X156033409Y-119051009D01*
X156087509Y-118991764D01*
X156094484Y-118946236D01*
X156075023Y-118890209D01*
X156020789Y-118834494D01*
X155920425Y-118782865D01*
X155903497Y-118776907D01*
X155821630Y-118734136D01*
X155778475Y-118684279D01*
X155782095Y-118647462D01*
X155840555Y-118643810D01*
X155851225Y-118646444D01*
X155943345Y-118671853D01*
X155983516Y-118683131D01*
X156046073Y-118683539D01*
X156052865Y-118646820D01*
X156009373Y-118594308D01*
X155951766Y-118559497D01*
X155834652Y-118537541D01*
X155724581Y-118565230D01*
X155650089Y-118631005D01*
X155634266Y-118688108D01*
X154184942Y-118688108D01*
X154215169Y-118622047D01*
X154223738Y-118550704D01*
X154194219Y-118534187D01*
X154132631Y-118583541D01*
X154100677Y-118623773D01*
X154013322Y-118743693D01*
X153917422Y-118623696D01*
X153838818Y-118544403D01*
X153795308Y-118535859D01*
X153793306Y-118589156D01*
X153623415Y-118589156D01*
X153612927Y-118580355D01*
X153583131Y-118567972D01*
X153458848Y-118534873D01*
X153366677Y-118524866D01*
X153312809Y-118529566D01*
X153281977Y-118555954D01*
X153267770Y-118622463D01*
X153263775Y-118747527D01*
X153263600Y-118821200D01*
X150948318Y-118821200D01*
X151010136Y-118784849D01*
X151159704Y-118674785D01*
X151298410Y-118554466D01*
X151409159Y-118439415D01*
X151474858Y-118345154D01*
X151485600Y-118307239D01*
X151526896Y-118301678D01*
X151646638Y-118296375D01*
X151838604Y-118291397D01*
X152096574Y-118286806D01*
X152414326Y-118282667D01*
X152785639Y-118279045D01*
X153204293Y-118276005D01*
X153664067Y-118273610D01*
X154158739Y-118271925D01*
X154682088Y-118271014D01*
X154999266Y-118270866D01*
X158512933Y-118270866D01*
X158512933Y-117115166D01*
X158511759Y-116738355D01*
X158508067Y-116440058D01*
X158501597Y-116214150D01*
X158492093Y-116054509D01*
X158479296Y-115955011D01*
X158462949Y-115909533D01*
X158462133Y-115908666D01*
X158412426Y-115900536D01*
X158284524Y-115893052D01*
X158084895Y-115886213D01*
X157820010Y-115880021D01*
X157496337Y-115874474D01*
X157120344Y-115869574D01*
X156698502Y-115865319D01*
X156237279Y-115861710D01*
X155743144Y-115858747D01*
X155222566Y-115856430D01*
X154682014Y-115854758D01*
X154127958Y-115853733D01*
X153566866Y-115853353D01*
X153005207Y-115853620D01*
X152449451Y-115854532D01*
X151906067Y-115856090D01*
X151381522Y-115858294D01*
X150882288Y-115861144D01*
X150414832Y-115864640D01*
X149985623Y-115868782D01*
X149601132Y-115873569D01*
X149267826Y-115879003D01*
X148992175Y-115885082D01*
X148780647Y-115891807D01*
X148639713Y-115899178D01*
X148575840Y-115907195D01*
X148573066Y-115908666D01*
X148556555Y-115951877D01*
X148543605Y-116048835D01*
X148533959Y-116205663D01*
X148527360Y-116428485D01*
X148523549Y-116723423D01*
X148522268Y-117096602D01*
X148522266Y-117115166D01*
X148438429Y-117115166D01*
X148440440Y-116759439D01*
X148444227Y-116451328D01*
X148449803Y-116211294D01*
X148457325Y-116033812D01*
X148466951Y-115913356D01*
X148478840Y-115844398D01*
X148488399Y-115824000D01*
X148538044Y-115815936D01*
X148665939Y-115808508D01*
X148865672Y-115801714D01*
X149130830Y-115795555D01*
X149455000Y-115790031D01*
X149831768Y-115785142D01*
X150254722Y-115780887D01*
X150717449Y-115777267D01*
X151213534Y-115774283D01*
X151736565Y-115771934D01*
X152280129Y-115770219D01*
X152837813Y-115769138D01*
X153403204Y-115768693D01*
X153969888Y-115768882D01*
G36*
X153567716Y-118902977D02*
G01*
X153591687Y-118948630D01*
X153550938Y-118984088D01*
X153499961Y-118990533D01*
X153411193Y-118968347D01*
X153390600Y-118924089D01*
X153422657Y-118873604D01*
X153482534Y-118871172D01*
X153567716Y-118902977D01*
G37*
X153567716Y-118902977D02*
X153591687Y-118948630D01*
X153550938Y-118984088D01*
X153499961Y-118990533D01*
X153411193Y-118968347D01*
X153390600Y-118924089D01*
X153422657Y-118873604D01*
X153482534Y-118871172D01*
X153567716Y-118902977D01*
G36*
X153544218Y-118678336D02*
G01*
X153559933Y-118715366D01*
X153524640Y-118767080D01*
X153475266Y-118778866D01*
X153406314Y-118752396D01*
X153390600Y-118715366D01*
X153425893Y-118663652D01*
X153475266Y-118651866D01*
X153544218Y-118678336D01*
G37*
X153544218Y-118678336D02*
X153559933Y-118715366D01*
X153524640Y-118767080D01*
X153475266Y-118778866D01*
X153406314Y-118752396D01*
X153390600Y-118715366D01*
X153425893Y-118663652D01*
X153475266Y-118651866D01*
X153544218Y-118678336D01*
G36*
X156395618Y-118722487D02*
G01*
X156410607Y-118804426D01*
X156421962Y-118838904D01*
X156418032Y-118895503D01*
X156379629Y-118905866D01*
X156320901Y-118879137D01*
X156312248Y-118852950D01*
X156326383Y-118792041D01*
X156356215Y-118733721D01*
X156384845Y-118704436D01*
X156395618Y-118722487D01*
G37*
X156395618Y-118722487D02*
X156410607Y-118804426D01*
X156421962Y-118838904D01*
X156418032Y-118895503D01*
X156379629Y-118905866D01*
X156320901Y-118879137D01*
X156312248Y-118852950D01*
X156326383Y-118792041D01*
X156356215Y-118733721D01*
X156384845Y-118704436D01*
X156395618Y-118722487D01*
G36*
X150246709Y-116119246D02*
G01*
X150274371Y-116120722D01*
X150560466Y-116155600D01*
X150794239Y-116232848D01*
X151002338Y-116364298D01*
X151170308Y-116518566D01*
X151356684Y-116768907D01*
X151478357Y-117061736D01*
X151527132Y-117376492D01*
X151527697Y-117415204D01*
X151509643Y-117680425D01*
X151448785Y-117905704D01*
X151334204Y-118129530D01*
X151317481Y-118156300D01*
X151119501Y-118392735D01*
X150867203Y-118576519D01*
X150577632Y-118700561D01*
X150267832Y-118757771D01*
X149954848Y-118741060D01*
X149925479Y-118735351D01*
X149655642Y-118639476D01*
X149399923Y-118474476D01*
X149176715Y-118255787D01*
X149004410Y-117998841D01*
X148974558Y-117937381D01*
X148899933Y-117683232D01*
X148881940Y-117397975D01*
X148893924Y-117307437D01*
X149131033Y-117307437D01*
X149135365Y-117570624D01*
X149211735Y-117831084D01*
X149348863Y-118071053D01*
X149535468Y-118272763D01*
X149760270Y-118418449D01*
X149861696Y-118458129D01*
X150089894Y-118500627D01*
X150335065Y-118497351D01*
X150560554Y-118450439D01*
X150653162Y-118411960D01*
X150919310Y-118237506D01*
X151109931Y-118025787D01*
X151226946Y-117773750D01*
X151272276Y-117478342D01*
X151273003Y-117426471D01*
X151244651Y-117145561D01*
X151155809Y-116910587D01*
X150997671Y-116700423D01*
X150950896Y-116653683D01*
X150738671Y-116490073D01*
X150508707Y-116397296D01*
X150237104Y-116365997D01*
X150215599Y-116365866D01*
X149913794Y-116404704D01*
X149646851Y-116515658D01*
X149424379Y-116690388D01*
X149255984Y-116920553D01*
X149151274Y-117197812D01*
X149131033Y-117307437D01*
X148893924Y-117307437D01*
X148919708Y-117112647D01*
X149004393Y-116873866D01*
X149185140Y-116588288D01*
X149412266Y-116369430D01*
X149676365Y-116216126D01*
X149818376Y-116157417D01*
X149938088Y-116125319D01*
X150069525Y-116114405D01*
X150246709Y-116119246D01*
G37*
X150246709Y-116119246D02*
X150274371Y-116120722D01*
X150560466Y-116155600D01*
X150794239Y-116232848D01*
X151002338Y-116364298D01*
X151170308Y-116518566D01*
X151356684Y-116768907D01*
X151478357Y-117061736D01*
X151527132Y-117376492D01*
X151527697Y-117415204D01*
X151509643Y-117680425D01*
X151448785Y-117905704D01*
X151334204Y-118129530D01*
X151317481Y-118156300D01*
X151119501Y-118392735D01*
X150867203Y-118576519D01*
X150577632Y-118700561D01*
X150267832Y-118757771D01*
X149954848Y-118741060D01*
X149925479Y-118735351D01*
X149655642Y-118639476D01*
X149399923Y-118474476D01*
X149176715Y-118255787D01*
X149004410Y-117998841D01*
X148974558Y-117937381D01*
X148899933Y-117683232D01*
X148881940Y-117397975D01*
X148893924Y-117307437D01*
X149131033Y-117307437D01*
X149135365Y-117570624D01*
X149211735Y-117831084D01*
X149348863Y-118071053D01*
X149535468Y-118272763D01*
X149760270Y-118418449D01*
X149861696Y-118458129D01*
X150089894Y-118500627D01*
X150335065Y-118497351D01*
X150560554Y-118450439D01*
X150653162Y-118411960D01*
X150919310Y-118237506D01*
X151109931Y-118025787D01*
X151226946Y-117773750D01*
X151272276Y-117478342D01*
X151273003Y-117426471D01*
X151244651Y-117145561D01*
X151155809Y-116910587D01*
X150997671Y-116700423D01*
X150950896Y-116653683D01*
X150738671Y-116490073D01*
X150508707Y-116397296D01*
X150237104Y-116365997D01*
X150215599Y-116365866D01*
X149913794Y-116404704D01*
X149646851Y-116515658D01*
X149424379Y-116690388D01*
X149255984Y-116920553D01*
X149151274Y-117197812D01*
X149131033Y-117307437D01*
X148893924Y-117307437D01*
X148919708Y-117112647D01*
X149004393Y-116873866D01*
X149185140Y-116588288D01*
X149412266Y-116369430D01*
X149676365Y-116216126D01*
X149818376Y-116157417D01*
X149938088Y-116125319D01*
X150069525Y-116114405D01*
X150246709Y-116119246D01*
G36*
X154159326Y-116119567D02*
G01*
X154219965Y-116146202D01*
X154456733Y-116309751D01*
X154632447Y-116516947D01*
X154744288Y-116754272D01*
X154789439Y-117008208D01*
X154765081Y-117265238D01*
X154668395Y-117511844D01*
X154541366Y-117687812D01*
X154321599Y-117873363D01*
X154070777Y-117985625D01*
X153802665Y-118022342D01*
X153531030Y-117981255D01*
X153316571Y-117888644D01*
X153094126Y-117717404D01*
X152936486Y-117505107D01*
X152844052Y-117265655D01*
X152819293Y-117032423D01*
X153009600Y-117032423D01*
X153028792Y-117241179D01*
X153095377Y-117412103D01*
X153222871Y-117575531D01*
X153274538Y-117627175D01*
X153481962Y-117772230D01*
X153714379Y-117839114D01*
X153959933Y-117825884D01*
X154133184Y-117767960D01*
X154327525Y-117638880D01*
X154483319Y-117456428D01*
X154585114Y-117243713D01*
X154617794Y-117043200D01*
X154591077Y-116879977D01*
X154522125Y-116699025D01*
X154427739Y-116543307D01*
X154417307Y-116530490D01*
X154232204Y-116367017D01*
X154022745Y-116273568D01*
X153802571Y-116245281D01*
X153585322Y-116277292D01*
X153384637Y-116364737D01*
X153214156Y-116502753D01*
X153087520Y-116686477D01*
X153018369Y-116911044D01*
X153009600Y-117032423D01*
X152819293Y-117032423D01*
X152817226Y-117012952D01*
X152856408Y-116760901D01*
X152962000Y-116523405D01*
X153134403Y-116314367D01*
X153268101Y-116209695D01*
X153465851Y-116119490D01*
X153701436Y-116072991D01*
X153943160Y-116072311D01*
X154159326Y-116119567D01*
G37*
X154159326Y-116119567D02*
X154219965Y-116146202D01*
X154456733Y-116309751D01*
X154632447Y-116516947D01*
X154744288Y-116754272D01*
X154789439Y-117008208D01*
X154765081Y-117265238D01*
X154668395Y-117511844D01*
X154541366Y-117687812D01*
X154321599Y-117873363D01*
X154070777Y-117985625D01*
X153802665Y-118022342D01*
X153531030Y-117981255D01*
X153316571Y-117888644D01*
X153094126Y-117717404D01*
X152936486Y-117505107D01*
X152844052Y-117265655D01*
X152819293Y-117032423D01*
X153009600Y-117032423D01*
X153028792Y-117241179D01*
X153095377Y-117412103D01*
X153222871Y-117575531D01*
X153274538Y-117627175D01*
X153481962Y-117772230D01*
X153714379Y-117839114D01*
X153959933Y-117825884D01*
X154133184Y-117767960D01*
X154327525Y-117638880D01*
X154483319Y-117456428D01*
X154585114Y-117243713D01*
X154617794Y-117043200D01*
X154591077Y-116879977D01*
X154522125Y-116699025D01*
X154427739Y-116543307D01*
X154417307Y-116530490D01*
X154232204Y-116367017D01*
X154022745Y-116273568D01*
X153802571Y-116245281D01*
X153585322Y-116277292D01*
X153384637Y-116364737D01*
X153214156Y-116502753D01*
X153087520Y-116686477D01*
X153018369Y-116911044D01*
X153009600Y-117032423D01*
X152819293Y-117032423D01*
X152817226Y-117012952D01*
X152856408Y-116760901D01*
X152962000Y-116523405D01*
X153134403Y-116314367D01*
X153268101Y-116209695D01*
X153465851Y-116119490D01*
X153701436Y-116072991D01*
X153943160Y-116072311D01*
X154159326Y-116119567D01*
G36*
X156508303Y-116104726D02*
G01*
X156631462Y-116149379D01*
X156858734Y-116295395D01*
X157029804Y-116492355D01*
X157141404Y-116725123D01*
X157190267Y-116978564D01*
X157173123Y-117237541D01*
X157086704Y-117486919D01*
X156960856Y-117674799D01*
X156755283Y-117854831D01*
X156511139Y-117971539D01*
X156246879Y-118021189D01*
X155980959Y-118000044D01*
X155757341Y-117918392D01*
X155531409Y-117755522D01*
X155366363Y-117546604D01*
X155264235Y-117306297D01*
X155227800Y-117054392D01*
X155422600Y-117054392D01*
X155460307Y-117300643D01*
X155564569Y-117510455D01*
X155722095Y-117675551D01*
X155919594Y-117787656D01*
X156143775Y-117838492D01*
X156381349Y-117819784D01*
X156553385Y-117758533D01*
X156756285Y-117620669D01*
X156895803Y-117444107D01*
X156974927Y-117242257D01*
X156996646Y-117028527D01*
X156963946Y-116816327D01*
X156879815Y-116619066D01*
X156747241Y-116450152D01*
X156569213Y-116322995D01*
X156348717Y-116251003D01*
X156214990Y-116239796D01*
X155961319Y-116276423D01*
X155745876Y-116382989D01*
X155578071Y-116549819D01*
X155467314Y-116767241D01*
X155423013Y-117025582D01*
X155422600Y-117054392D01*
X155227800Y-117054392D01*
X155227058Y-117049264D01*
X155256864Y-116790165D01*
X155355684Y-116543661D01*
X155525551Y-116324414D01*
X155535139Y-116315195D01*
X155738401Y-116176616D01*
X155984666Y-116092876D01*
X156249458Y-116067679D01*
X156508303Y-116104726D01*
G37*
X156508303Y-116104726D02*
X156631462Y-116149379D01*
X156858734Y-116295395D01*
X157029804Y-116492355D01*
X157141404Y-116725123D01*
X157190267Y-116978564D01*
X157173123Y-117237541D01*
X157086704Y-117486919D01*
X156960856Y-117674799D01*
X156755283Y-117854831D01*
X156511139Y-117971539D01*
X156246879Y-118021189D01*
X155980959Y-118000044D01*
X155757341Y-117918392D01*
X155531409Y-117755522D01*
X155366363Y-117546604D01*
X155264235Y-117306297D01*
X155227800Y-117054392D01*
X155422600Y-117054392D01*
X155460307Y-117300643D01*
X155564569Y-117510455D01*
X155722095Y-117675551D01*
X155919594Y-117787656D01*
X156143775Y-117838492D01*
X156381349Y-117819784D01*
X156553385Y-117758533D01*
X156756285Y-117620669D01*
X156895803Y-117444107D01*
X156974927Y-117242257D01*
X156996646Y-117028527D01*
X156963946Y-116816327D01*
X156879815Y-116619066D01*
X156747241Y-116450152D01*
X156569213Y-116322995D01*
X156348717Y-116251003D01*
X156214990Y-116239796D01*
X155961319Y-116276423D01*
X155745876Y-116382989D01*
X155578071Y-116549819D01*
X155467314Y-116767241D01*
X155423013Y-117025582D01*
X155422600Y-117054392D01*
X155227800Y-117054392D01*
X155227058Y-117049264D01*
X155256864Y-116790165D01*
X155355684Y-116543661D01*
X155525551Y-116324414D01*
X155535139Y-116315195D01*
X155738401Y-116176616D01*
X155984666Y-116092876D01*
X156249458Y-116067679D01*
X156508303Y-116104726D01*
G36*
X150013131Y-117062262D02*
G01*
X150101988Y-117121770D01*
X150154242Y-117175874D01*
X150140761Y-117214290D01*
X150105461Y-117242082D01*
X150024251Y-117272602D01*
X149977986Y-117250899D01*
X149895335Y-117220536D01*
X149826346Y-117219866D01*
X149759037Y-117245736D01*
X149726053Y-117314524D01*
X149715451Y-117395404D01*
X149725207Y-117544836D01*
X149775028Y-117641999D01*
X149853191Y-117677040D01*
X149947969Y-117640108D01*
X149976597Y-117614821D01*
X150046777Y-117580033D01*
X150124153Y-117581338D01*
X150170414Y-117615807D01*
X150172618Y-117629812D01*
X150134131Y-117709355D01*
X150042122Y-117784206D01*
X149926389Y-117834629D01*
X149847966Y-117844849D01*
X149745371Y-117826766D01*
X149680379Y-117805556D01*
X149558039Y-117715292D01*
X149475847Y-117576004D01*
X149453600Y-117455011D01*
X149487415Y-117276853D01*
X149577427Y-117139683D01*
X149706485Y-117052318D01*
X149857437Y-117023573D01*
X150013131Y-117062262D01*
G37*
X150013131Y-117062262D02*
X150101988Y-117121770D01*
X150154242Y-117175874D01*
X150140761Y-117214290D01*
X150105461Y-117242082D01*
X150024251Y-117272602D01*
X149977986Y-117250899D01*
X149895335Y-117220536D01*
X149826346Y-117219866D01*
X149759037Y-117245736D01*
X149726053Y-117314524D01*
X149715451Y-117395404D01*
X149725207Y-117544836D01*
X149775028Y-117641999D01*
X149853191Y-117677040D01*
X149947969Y-117640108D01*
X149976597Y-117614821D01*
X150046777Y-117580033D01*
X150124153Y-117581338D01*
X150170414Y-117615807D01*
X150172618Y-117629812D01*
X150134131Y-117709355D01*
X150042122Y-117784206D01*
X149926389Y-117834629D01*
X149847966Y-117844849D01*
X149745371Y-117826766D01*
X149680379Y-117805556D01*
X149558039Y-117715292D01*
X149475847Y-117576004D01*
X149453600Y-117455011D01*
X149487415Y-117276853D01*
X149577427Y-117139683D01*
X149706485Y-117052318D01*
X149857437Y-117023573D01*
X150013131Y-117062262D01*
G36*
X150824427Y-117087203D02*
G01*
X150857660Y-117113089D01*
X150913420Y-117171743D01*
X150906094Y-117210589D01*
X150867461Y-117242082D01*
X150786251Y-117272602D01*
X150739986Y-117250899D01*
X150657335Y-117220536D01*
X150588346Y-117219866D01*
X150511198Y-117265814D01*
X150474334Y-117358452D01*
X150474602Y-117471799D01*
X150508845Y-117579874D01*
X150573908Y-117656692D01*
X150644000Y-117678200D01*
X150696029Y-117651567D01*
X150738597Y-117614821D01*
X150817667Y-117575758D01*
X150894657Y-117590080D01*
X150934614Y-117649674D01*
X150935266Y-117660475D01*
X150899366Y-117718564D01*
X150811940Y-117780574D01*
X150703404Y-117829112D01*
X150609285Y-117846909D01*
X150514264Y-117827686D01*
X150428100Y-117793158D01*
X150299655Y-117685052D01*
X150231614Y-117533115D01*
X150229242Y-117357763D01*
X150278635Y-117213431D01*
X150379291Y-117102202D01*
X150523000Y-117040762D01*
X150680976Y-117034099D01*
X150824427Y-117087203D01*
G37*
X150824427Y-117087203D02*
X150857660Y-117113089D01*
X150913420Y-117171743D01*
X150906094Y-117210589D01*
X150867461Y-117242082D01*
X150786251Y-117272602D01*
X150739986Y-117250899D01*
X150657335Y-117220536D01*
X150588346Y-117219866D01*
X150511198Y-117265814D01*
X150474334Y-117358452D01*
X150474602Y-117471799D01*
X150508845Y-117579874D01*
X150573908Y-117656692D01*
X150644000Y-117678200D01*
X150696029Y-117651567D01*
X150738597Y-117614821D01*
X150817667Y-117575758D01*
X150894657Y-117590080D01*
X150934614Y-117649674D01*
X150935266Y-117660475D01*
X150899366Y-117718564D01*
X150811940Y-117780574D01*
X150703404Y-117829112D01*
X150609285Y-117846909D01*
X150514264Y-117827686D01*
X150428100Y-117793158D01*
X150299655Y-117685052D01*
X150231614Y-117533115D01*
X150229242Y-117357763D01*
X150278635Y-117213431D01*
X150379291Y-117102202D01*
X150523000Y-117040762D01*
X150680976Y-117034099D01*
X150824427Y-117087203D01*
G36*
X154067933Y-116977679D02*
G01*
X154062321Y-117118777D01*
X154042606Y-117191739D01*
X154004474Y-117212533D01*
X154004433Y-117212533D01*
X153966139Y-117233436D01*
X153946423Y-117306784D01*
X153940933Y-117445366D01*
X153940933Y-117678200D01*
X153644600Y-117678200D01*
X153644600Y-117449895D01*
X153636597Y-117301571D01*
X153609845Y-117220793D01*
X153578762Y-117196327D01*
X153537394Y-117155551D01*
X153522988Y-117063724D01*
X153525846Y-116969548D01*
X153538766Y-116768033D01*
X153803350Y-116755429D01*
X154067933Y-116742826D01*
X154067933Y-116977679D01*
G37*
X154067933Y-116977679D02*
X154062321Y-117118777D01*
X154042606Y-117191739D01*
X154004474Y-117212533D01*
X154004433Y-117212533D01*
X153966139Y-117233436D01*
X153946423Y-117306784D01*
X153940933Y-117445366D01*
X153940933Y-117678200D01*
X153644600Y-117678200D01*
X153644600Y-117449895D01*
X153636597Y-117301571D01*
X153609845Y-117220793D01*
X153578762Y-117196327D01*
X153537394Y-117155551D01*
X153522988Y-117063724D01*
X153525846Y-116969548D01*
X153538766Y-116768033D01*
X153803350Y-116755429D01*
X154067933Y-116742826D01*
X154067933Y-116977679D01*
G36*
X153871753Y-116449268D02*
G01*
X153886504Y-116462628D01*
X153931253Y-116549364D01*
X153903547Y-116623734D01*
X153814725Y-116661249D01*
X153794095Y-116662200D01*
X153712949Y-116645298D01*
X153687531Y-116577914D01*
X153686933Y-116555038D01*
X153715631Y-116456838D01*
X153785401Y-116417802D01*
X153871753Y-116449268D01*
G37*
X153871753Y-116449268D02*
X153886504Y-116462628D01*
X153931253Y-116549364D01*
X153903547Y-116623734D01*
X153814725Y-116661249D01*
X153794095Y-116662200D01*
X153712949Y-116645298D01*
X153687531Y-116577914D01*
X153686933Y-116555038D01*
X153715631Y-116456838D01*
X153785401Y-116417802D01*
X153871753Y-116449268D01*
G36*
X156357573Y-116548481D02*
G01*
X156460712Y-116600477D01*
X156548666Y-116679133D01*
X156641095Y-116785669D01*
X156682953Y-116886748D01*
X156692600Y-117021851D01*
X156664264Y-117226354D01*
X156586047Y-117395584D01*
X156481213Y-117498867D01*
X156353082Y-117549522D01*
X156198570Y-117572734D01*
X156061828Y-117563145D01*
X156031696Y-117553421D01*
X155950252Y-117498434D01*
X155861308Y-117410454D01*
X155789952Y-117317708D01*
X155761266Y-117249157D01*
X155794273Y-117215565D01*
X155873467Y-117214614D01*
X155969107Y-117241480D01*
X156051451Y-117291344D01*
X156057600Y-117297200D01*
X156173422Y-117372201D01*
X156281098Y-117370674D01*
X156368795Y-117300675D01*
X156424680Y-117170263D01*
X156438600Y-117037749D01*
X156422173Y-116877837D01*
X156367126Y-116785403D01*
X156264809Y-116748740D01*
X156223650Y-116746866D01*
X156122263Y-116769291D01*
X156047693Y-116823036D01*
X156024004Y-116887803D01*
X156031790Y-116908687D01*
X156021970Y-116961947D01*
X155971935Y-117022936D01*
X155905597Y-117073697D01*
X155855055Y-117064996D01*
X155805301Y-117023573D01*
X155755485Y-116972995D01*
X155744410Y-116926038D01*
X155772092Y-116852047D01*
X155805439Y-116785594D01*
X155898944Y-116642819D01*
X156012759Y-116564858D01*
X156172763Y-116536389D01*
X156228383Y-116535200D01*
X156357573Y-116548481D01*
G37*
X156357573Y-116548481D02*
X156460712Y-116600477D01*
X156548666Y-116679133D01*
X156641095Y-116785669D01*
X156682953Y-116886748D01*
X156692600Y-117021851D01*
X156664264Y-117226354D01*
X156586047Y-117395584D01*
X156481213Y-117498867D01*
X156353082Y-117549522D01*
X156198570Y-117572734D01*
X156061828Y-117563145D01*
X156031696Y-117553421D01*
X155950252Y-117498434D01*
X155861308Y-117410454D01*
X155789952Y-117317708D01*
X155761266Y-117249157D01*
X155794273Y-117215565D01*
X155873467Y-117214614D01*
X155969107Y-117241480D01*
X156051451Y-117291344D01*
X156057600Y-117297200D01*
X156173422Y-117372201D01*
X156281098Y-117370674D01*
X156368795Y-117300675D01*
X156424680Y-117170263D01*
X156438600Y-117037749D01*
X156422173Y-116877837D01*
X156367126Y-116785403D01*
X156264809Y-116748740D01*
X156223650Y-116746866D01*
X156122263Y-116769291D01*
X156047693Y-116823036D01*
X156024004Y-116887803D01*
X156031790Y-116908687D01*
X156021970Y-116961947D01*
X155971935Y-117022936D01*
X155905597Y-117073697D01*
X155855055Y-117064996D01*
X155805301Y-117023573D01*
X155755485Y-116972995D01*
X155744410Y-116926038D01*
X155772092Y-116852047D01*
X155805439Y-116785594D01*
X155898944Y-116642819D01*
X156012759Y-116564858D01*
X156172763Y-116536389D01*
X156228383Y-116535200D01*
X156357573Y-116548481D01*
G36*
X172840073Y-119296873D02*
G01*
X161017528Y-119296873D01*
X161017528Y-116133418D01*
X162172073Y-116133418D01*
X162172073Y-118142328D01*
X164180982Y-118142328D01*
X164180982Y-116713038D01*
X164479761Y-116713038D01*
X164492709Y-117276418D01*
X164625482Y-117283343D01*
X164758255Y-117290269D01*
X164758255Y-117565055D01*
X164481164Y-117565055D01*
X164481164Y-118142328D01*
X165335528Y-118142328D01*
X165335528Y-117565055D01*
X165635709Y-117565055D01*
X165635709Y-118142890D01*
X166495846Y-118136836D01*
X167355982Y-118130782D01*
X167362886Y-117998729D01*
X167369789Y-117866676D01*
X167085795Y-117860184D01*
X166801800Y-117853691D01*
X166795518Y-117420737D01*
X166789236Y-116987782D01*
X167065924Y-116987782D01*
X167072408Y-117270646D01*
X167078891Y-117553509D01*
X167355982Y-117553509D01*
X167362907Y-117420737D01*
X167369832Y-117287964D01*
X167643577Y-117287964D01*
X167649870Y-117709373D01*
X167656164Y-118130782D01*
X167933255Y-118130782D01*
X167941720Y-117565055D01*
X168519869Y-117565055D01*
X168526744Y-117709373D01*
X168533618Y-117853691D01*
X168799164Y-117867541D01*
X168799164Y-118142328D01*
X169376437Y-118142328D01*
X169376437Y-117865237D01*
X168799164Y-117865237D01*
X168799164Y-117565055D01*
X168519869Y-117565055D01*
X167941720Y-117565055D01*
X167945833Y-117290238D01*
X168078089Y-117283328D01*
X168210346Y-117276418D01*
X168223294Y-116713038D01*
X167956346Y-116699146D01*
X167943396Y-116135586D01*
X167799780Y-116128729D01*
X167656164Y-116121873D01*
X167649289Y-115977555D01*
X167642415Y-115833237D01*
X167643197Y-115833237D01*
X168221891Y-115833237D01*
X168221891Y-115556146D01*
X167947004Y-115556146D01*
X167940129Y-115411828D01*
X167933255Y-115267509D01*
X167656164Y-115267509D01*
X167649680Y-115550373D01*
X167643197Y-115833237D01*
X167642415Y-115833237D01*
X167067346Y-115833237D01*
X167067346Y-115558349D01*
X167211664Y-115551475D01*
X167355982Y-115544600D01*
X167355982Y-115267509D01*
X167211664Y-115260635D01*
X167067346Y-115253760D01*
X167067346Y-114981077D01*
X168221891Y-114981077D01*
X168221891Y-115255964D01*
X168796960Y-115255964D01*
X168803835Y-115400282D01*
X168810709Y-115544600D01*
X169100749Y-115558386D01*
X169094275Y-115840129D01*
X169087800Y-116121873D01*
X168810709Y-116121873D01*
X168803835Y-115977555D01*
X168796960Y-115833237D01*
X168521415Y-115833237D01*
X168527517Y-116554828D01*
X168533618Y-117276418D01*
X168666391Y-117283343D01*
X168799164Y-117290269D01*
X168799164Y-117565055D01*
X169376437Y-117565055D01*
X169676618Y-117565055D01*
X169676618Y-118142328D01*
X169953709Y-118142328D01*
X169953709Y-117565055D01*
X169676618Y-117565055D01*
X169376437Y-117565055D01*
X169376437Y-117290168D01*
X169665073Y-117276418D01*
X169671948Y-117132100D01*
X169678822Y-116987782D01*
X170530982Y-116987782D01*
X170530982Y-117287964D01*
X170253891Y-117287964D01*
X170253891Y-117565055D01*
X170533186Y-117565055D01*
X170526311Y-117709373D01*
X170519437Y-117853691D01*
X170253891Y-117867541D01*
X170253891Y-118143749D01*
X170536755Y-118137265D01*
X170819618Y-118130782D01*
X170833438Y-117866270D01*
X171253710Y-117859980D01*
X171673982Y-117853691D01*
X171680264Y-117420737D01*
X171686547Y-116987782D01*
X171110458Y-116987782D01*
X171103584Y-117132100D01*
X171096709Y-117276418D01*
X170963937Y-117283343D01*
X170831164Y-117290269D01*
X170831164Y-116712996D01*
X170963937Y-116706071D01*
X171096709Y-116699146D01*
X171103584Y-116554828D01*
X171110458Y-116410509D01*
X171408437Y-116410509D01*
X171408437Y-116712996D01*
X171541209Y-116706071D01*
X171673982Y-116699146D01*
X171680857Y-116554828D01*
X171687731Y-116410509D01*
X171408437Y-116410509D01*
X171110458Y-116410509D01*
X170831164Y-116410509D01*
X170831164Y-116134840D01*
X171114028Y-116128356D01*
X171396891Y-116121873D01*
X171396891Y-115567691D01*
X171252573Y-115560817D01*
X171108255Y-115553942D01*
X171108255Y-115255964D01*
X171685528Y-115255964D01*
X171685528Y-114978873D01*
X171410640Y-114978873D01*
X171403766Y-114834555D01*
X171396891Y-114690237D01*
X171119800Y-114690237D01*
X171113317Y-114973100D01*
X171106833Y-115255964D01*
X170831164Y-115255964D01*
X170831164Y-115557165D01*
X170398209Y-115550882D01*
X169965255Y-115544600D01*
X169958410Y-115401412D01*
X169951564Y-115258223D01*
X170096955Y-115251321D01*
X170242346Y-115244418D01*
X170256154Y-114980276D01*
X170819618Y-114967328D01*
X170819618Y-114690237D01*
X169965255Y-114690237D01*
X169958771Y-114973100D01*
X169952288Y-115255964D01*
X169676618Y-115255964D01*
X169676618Y-114978873D01*
X169376437Y-114978873D01*
X169376437Y-115255964D01*
X169099346Y-115255964D01*
X169099346Y-114680113D01*
X169382209Y-114673629D01*
X169665073Y-114667146D01*
X169671977Y-114535075D01*
X169678881Y-114403003D01*
X169960613Y-114396529D01*
X170242346Y-114390055D01*
X170249220Y-114245737D01*
X170256095Y-114101418D01*
X169676618Y-114101418D01*
X169676618Y-114403804D01*
X169532300Y-114396929D01*
X169387982Y-114390055D01*
X169381107Y-114245737D01*
X169374233Y-114101418D01*
X169099346Y-114101418D01*
X169099346Y-113824328D01*
X168797742Y-113824328D01*
X168804226Y-114107191D01*
X168810709Y-114390055D01*
X168955028Y-114396929D01*
X169099346Y-114403804D01*
X169099346Y-114678691D01*
X168524277Y-114678691D01*
X168517402Y-114823009D01*
X168510528Y-114967328D01*
X168366209Y-114974202D01*
X168221891Y-114981077D01*
X167067346Y-114981077D01*
X167067346Y-114979892D01*
X167500300Y-114973610D01*
X167933255Y-114967328D01*
X167939356Y-114245737D01*
X167945458Y-113524146D01*
X168221891Y-113524146D01*
X168221891Y-113247055D01*
X168522073Y-113247055D01*
X168522073Y-113524146D01*
X168799164Y-113524146D01*
X168799164Y-113247055D01*
X168522073Y-113247055D01*
X168221891Y-113247055D01*
X167644618Y-113247055D01*
X167644618Y-113824328D01*
X167369731Y-113824328D01*
X167362857Y-113680009D01*
X167355982Y-113535691D01*
X167211664Y-113528817D01*
X167067346Y-113521942D01*
X167067346Y-112669782D01*
X167367528Y-112669782D01*
X167367528Y-113247055D01*
X167642415Y-113247055D01*
X167649289Y-113102737D01*
X167656164Y-112958418D01*
X168799164Y-112946066D01*
X168799164Y-113247055D01*
X169099346Y-113247055D01*
X169099346Y-113522724D01*
X169382209Y-113529208D01*
X169665073Y-113535691D01*
X169671929Y-113679307D01*
X169678786Y-113822923D01*
X170242346Y-113835873D01*
X170249271Y-113968646D01*
X170256196Y-114101418D01*
X170529561Y-114101418D01*
X170536044Y-113818555D01*
X170542528Y-113535691D01*
X170681073Y-113524146D01*
X170819618Y-113512600D01*
X170826543Y-113379828D01*
X170833469Y-113247055D01*
X171106833Y-113247055D01*
X171113317Y-113529918D01*
X171119800Y-113812782D01*
X171258346Y-113824328D01*
X171396891Y-113835873D01*
X171396891Y-114089873D01*
X171114028Y-114096356D01*
X170831164Y-114102840D01*
X170831164Y-114402642D01*
X171252573Y-114396348D01*
X171673982Y-114390055D01*
X171673982Y-112958418D01*
X171410698Y-112944636D01*
X171403795Y-113090073D01*
X171396891Y-113235509D01*
X171253703Y-113242355D01*
X171110514Y-113249200D01*
X171103612Y-113103809D01*
X171096709Y-112958418D01*
X170963937Y-112951493D01*
X170831164Y-112944568D01*
X170831164Y-113249258D01*
X170686846Y-113242384D01*
X170542528Y-113235509D01*
X170530982Y-113096964D01*
X170519437Y-112958418D01*
X170387783Y-112951527D01*
X170256129Y-112944635D01*
X170249237Y-112812981D01*
X170242346Y-112681328D01*
X169959482Y-112674844D01*
X169676618Y-112668361D01*
X169676618Y-112371022D01*
X169959482Y-112364538D01*
X170242346Y-112358055D01*
X170248829Y-112075191D01*
X170255313Y-111792328D01*
X170392045Y-111792327D01*
X170528778Y-111792327D01*
X170535653Y-111936646D01*
X170542528Y-112080964D01*
X170825391Y-112087447D01*
X171108255Y-112093931D01*
X171108255Y-112369600D01*
X171685528Y-112369600D01*
X171685528Y-112092509D01*
X171108255Y-112092509D01*
X171108255Y-111792328D01*
X170532403Y-111792328D01*
X170519437Y-111226600D01*
X170236573Y-111220117D01*
X170015744Y-111215055D01*
X170831164Y-111215055D01*
X170831164Y-111515237D01*
X171108255Y-111515237D01*
X171108255Y-111792328D01*
X171685528Y-111792328D01*
X171685528Y-111515237D01*
X171408437Y-111515237D01*
X171408437Y-111215055D01*
X170831164Y-111215055D01*
X170015744Y-111215055D01*
X169953709Y-111213633D01*
X169953709Y-110937964D01*
X171408437Y-110937964D01*
X171408437Y-111215055D01*
X171685528Y-111215055D01*
X171685528Y-110937964D01*
X171408437Y-110937964D01*
X169953709Y-110937964D01*
X169676618Y-110937964D01*
X169676618Y-111215055D01*
X169953709Y-111215055D01*
X169953709Y-111515237D01*
X169678923Y-111515237D01*
X169671998Y-111648009D01*
X169665073Y-111780782D01*
X169526528Y-111792328D01*
X169387982Y-111803873D01*
X169381107Y-111948191D01*
X169374233Y-112092509D01*
X169099346Y-112092509D01*
X169099346Y-112367397D01*
X168955028Y-112374271D01*
X168810709Y-112381146D01*
X168803835Y-112525464D01*
X168796960Y-112669782D01*
X168524277Y-112669782D01*
X168517402Y-112525464D01*
X168510528Y-112381146D01*
X168366209Y-112374271D01*
X168221891Y-112367397D01*
X168221891Y-111792328D01*
X167944800Y-111792328D01*
X167944800Y-112367397D01*
X167800482Y-112374271D01*
X167656164Y-112381146D01*
X167649289Y-112525464D01*
X167642415Y-112669782D01*
X167367528Y-112669782D01*
X167067346Y-112669782D01*
X166212982Y-112669782D01*
X166212982Y-112946873D01*
X165637913Y-112946873D01*
X165631038Y-113091191D01*
X165624164Y-113235509D01*
X165347073Y-113235509D01*
X165340198Y-113091191D01*
X165333324Y-112946873D01*
X165057779Y-112946873D01*
X165063880Y-113668464D01*
X165069982Y-114390055D01*
X165201636Y-114396946D01*
X165333290Y-114403838D01*
X165340181Y-114535492D01*
X165347073Y-114667146D01*
X165491391Y-114674020D01*
X165635709Y-114680895D01*
X165635709Y-114978873D01*
X165335528Y-114978873D01*
X165335528Y-115255964D01*
X165059858Y-115255964D01*
X165053375Y-114973100D01*
X165046891Y-114690237D01*
X164908346Y-114678691D01*
X164769800Y-114667146D01*
X164755950Y-114401600D01*
X164480357Y-114401600D01*
X164492709Y-115544600D01*
X164758255Y-115558450D01*
X164758255Y-115833237D01*
X165058437Y-115833237D01*
X165058437Y-115556146D01*
X165333223Y-115556146D01*
X165340148Y-115688918D01*
X165347073Y-115821691D01*
X165914967Y-115834675D01*
X165901255Y-116121873D01*
X165618391Y-116128356D01*
X165335528Y-116134840D01*
X165335528Y-116409088D01*
X165052664Y-116415571D01*
X164769800Y-116422055D01*
X164758255Y-116560600D01*
X164746709Y-116699146D01*
X164479761Y-116713038D01*
X164180982Y-116713038D01*
X164180982Y-116133418D01*
X162172073Y-116133418D01*
X161017528Y-116133418D01*
X161017528Y-115833237D01*
X162171511Y-115833237D01*
X162749346Y-115833237D01*
X162749346Y-115558349D01*
X162605028Y-115551475D01*
X162460709Y-115544600D01*
X162460709Y-114978873D01*
X162749346Y-114978873D01*
X162749346Y-115255964D01*
X163024233Y-115255964D01*
X163031107Y-115400282D01*
X163037982Y-115544600D01*
X163182300Y-115551475D01*
X163326618Y-115558349D01*
X163326618Y-115833237D01*
X164180982Y-115833237D01*
X164478960Y-115833237D01*
X164485835Y-115977555D01*
X164492709Y-116121873D01*
X164758255Y-116135723D01*
X164758255Y-115833237D01*
X164478960Y-115833237D01*
X164180982Y-115833237D01*
X164180982Y-115556146D01*
X163328822Y-115556146D01*
X163321948Y-115411828D01*
X163315073Y-115267509D01*
X163170755Y-115260635D01*
X163026437Y-115253760D01*
X163026437Y-114978873D01*
X162749346Y-114978873D01*
X162460709Y-114978873D01*
X162460709Y-114413146D01*
X162599255Y-114401600D01*
X162737800Y-114390055D01*
X162744675Y-114245737D01*
X162751549Y-114101418D01*
X163026437Y-114101418D01*
X163026437Y-114978873D01*
X163601405Y-114978873D01*
X163608330Y-115111646D01*
X163615255Y-115244418D01*
X163898118Y-115250902D01*
X164180982Y-115257385D01*
X164180982Y-114981178D01*
X164048209Y-114974253D01*
X163915437Y-114967328D01*
X163908562Y-114823009D01*
X163901787Y-114680795D01*
X163857622Y-114678691D01*
X163901687Y-114678691D01*
X163901787Y-114680795D01*
X163903891Y-114680895D01*
X163903891Y-114678691D01*
X163901687Y-114678691D01*
X163857622Y-114678691D01*
X163759573Y-114674020D01*
X163615255Y-114667146D01*
X163601471Y-114403838D01*
X163558721Y-114401600D01*
X163903891Y-114401600D01*
X163903891Y-114678691D01*
X164180982Y-114678691D01*
X164180982Y-114401600D01*
X163903891Y-114401600D01*
X163558721Y-114401600D01*
X163469818Y-114396946D01*
X163338164Y-114390055D01*
X163326618Y-114251509D01*
X163315073Y-114112964D01*
X163170755Y-114106089D01*
X163026437Y-114099215D01*
X163026437Y-113826531D01*
X163170755Y-113819657D01*
X163315073Y-113812782D01*
X163315073Y-113535691D01*
X163170755Y-113528817D01*
X163026437Y-113521942D01*
X163026437Y-113247055D01*
X163602288Y-113247055D01*
X163608771Y-113529918D01*
X163615255Y-113812782D01*
X163759573Y-113819657D01*
X163903891Y-113826531D01*
X163903891Y-114101418D01*
X164758255Y-114101418D01*
X164758255Y-113824328D01*
X163903891Y-113824328D01*
X163903891Y-113524146D01*
X164180982Y-113524146D01*
X164180982Y-113247055D01*
X164481164Y-113247055D01*
X164481164Y-113524146D01*
X164758255Y-113524146D01*
X164758255Y-113247055D01*
X164481164Y-113247055D01*
X164180982Y-113247055D01*
X163603709Y-113247055D01*
X163603709Y-112946873D01*
X164180982Y-112946873D01*
X164180982Y-112669782D01*
X164481164Y-112669782D01*
X164481164Y-112946873D01*
X164758255Y-112946873D01*
X164758255Y-112367397D01*
X164902573Y-112374271D01*
X165046891Y-112381146D01*
X165053766Y-112525464D01*
X165060640Y-112669782D01*
X165335528Y-112669782D01*
X165335528Y-112369600D01*
X165635709Y-112369600D01*
X165635709Y-112669782D01*
X165912800Y-112669782D01*
X165912800Y-112369600D01*
X165635709Y-112369600D01*
X165335528Y-112369600D01*
X165335528Y-112091088D01*
X165052664Y-112097571D01*
X164769800Y-112104055D01*
X164762875Y-112236828D01*
X164755950Y-112369600D01*
X164180982Y-112369600D01*
X164180982Y-112094713D01*
X164325300Y-112087838D01*
X164469618Y-112080964D01*
X164476102Y-111798100D01*
X164482585Y-111515237D01*
X164758255Y-111515237D01*
X164758255Y-111792328D01*
X165058437Y-111792328D01*
X165058437Y-111515237D01*
X165335528Y-111515237D01*
X165635709Y-111515237D01*
X165635709Y-111792328D01*
X165912800Y-111792328D01*
X165912800Y-111515237D01*
X165635709Y-111515237D01*
X165335528Y-111515237D01*
X165335528Y-111215055D01*
X165058437Y-111215055D01*
X165058437Y-110637782D01*
X165335528Y-110637782D01*
X165335528Y-110360691D01*
X165635709Y-110360691D01*
X165635709Y-111213633D01*
X165918573Y-111220117D01*
X166201437Y-111226600D01*
X166201437Y-112080964D01*
X166057118Y-112087838D01*
X165912800Y-112094713D01*
X165912800Y-112369600D01*
X166490073Y-112369600D01*
X166490073Y-112092509D01*
X166790255Y-112092509D01*
X166790255Y-112369600D01*
X167367528Y-112369600D01*
X167367528Y-111516658D01*
X167650391Y-111510175D01*
X167933255Y-111503691D01*
X167939537Y-111070737D01*
X167945819Y-110637782D01*
X168221891Y-110637782D01*
X168221891Y-110360691D01*
X168522073Y-110360691D01*
X168522073Y-110937964D01*
X168221891Y-110937964D01*
X168221891Y-111215055D01*
X168524277Y-111215055D01*
X168517402Y-111359373D01*
X168510528Y-111503691D01*
X168366209Y-111510566D01*
X168221891Y-111517440D01*
X168221891Y-111790124D01*
X168366209Y-111796998D01*
X168510528Y-111803873D01*
X168517402Y-111948191D01*
X168524277Y-112092509D01*
X168796960Y-112092509D01*
X168803835Y-111948191D01*
X168810709Y-111803873D01*
X168955028Y-111796998D01*
X169099346Y-111790124D01*
X169099346Y-111215055D01*
X169376437Y-111215055D01*
X169376437Y-110937964D01*
X168799164Y-110937964D01*
X168799164Y-110358487D01*
X169087800Y-110372237D01*
X169094725Y-110505009D01*
X169101650Y-110637782D01*
X169376437Y-110637782D01*
X169376437Y-109783418D01*
X169099346Y-109783418D01*
X169099346Y-110058306D01*
X168955028Y-110065180D01*
X168810709Y-110072055D01*
X168803835Y-110216373D01*
X168796960Y-110360691D01*
X168524277Y-110360691D01*
X168517402Y-110216373D01*
X168510528Y-110072055D01*
X168228795Y-110065580D01*
X167947063Y-110059106D01*
X167933255Y-109794964D01*
X167788937Y-109788089D01*
X167644618Y-109781215D01*
X167644618Y-110060509D01*
X167368949Y-110060509D01*
X167362465Y-109777646D01*
X167355982Y-109494782D01*
X167078891Y-109494782D01*
X167072408Y-109777646D01*
X167065924Y-110060509D01*
X167368547Y-110060509D01*
X167362264Y-110493464D01*
X167355982Y-110926418D01*
X166501618Y-110926418D01*
X166495336Y-110493464D01*
X166493410Y-110360691D01*
X166790255Y-110360691D01*
X166790255Y-110637782D01*
X167067346Y-110637782D01*
X167067346Y-110360691D01*
X166790255Y-110360691D01*
X166493410Y-110360691D01*
X166489054Y-110060509D01*
X166791676Y-110060509D01*
X166785193Y-109777646D01*
X166778709Y-109494782D01*
X166633273Y-109487878D01*
X166505534Y-109481815D01*
X167644618Y-109481815D01*
X167927482Y-109488299D01*
X168210346Y-109494782D01*
X168216801Y-109610237D01*
X168221047Y-109681486D01*
X168229500Y-109729940D01*
X168249842Y-109759982D01*
X168289753Y-109775995D01*
X168356913Y-109782363D01*
X168459003Y-109783469D01*
X168520246Y-109783418D01*
X168796960Y-109783418D01*
X168803835Y-109639100D01*
X168810709Y-109494782D01*
X169093573Y-109488299D01*
X169376437Y-109481815D01*
X169376437Y-108628873D01*
X169676618Y-108628873D01*
X169676618Y-110637782D01*
X171685528Y-110637782D01*
X171685528Y-108628873D01*
X169676618Y-108628873D01*
X169376437Y-108628873D01*
X169100767Y-108628873D01*
X169094284Y-108911737D01*
X169087800Y-109194600D01*
X168233437Y-109194600D01*
X168219687Y-108905964D01*
X168221891Y-108905964D01*
X168524378Y-108905964D01*
X168510528Y-108640418D01*
X168366209Y-108633544D01*
X168221891Y-108626669D01*
X168221891Y-108905964D01*
X168219687Y-108905964D01*
X167644618Y-108905964D01*
X167644618Y-109481815D01*
X166505534Y-109481815D01*
X166487836Y-109480975D01*
X166501618Y-109217691D01*
X166640164Y-109206146D01*
X166778709Y-109194600D01*
X166778709Y-108905964D01*
X167065041Y-108905964D01*
X167644618Y-108905964D01*
X167644618Y-108627452D01*
X167361755Y-108633935D01*
X167078891Y-108640418D01*
X167065041Y-108905964D01*
X166778709Y-108905964D01*
X166778709Y-108640418D01*
X165924346Y-108640418D01*
X165910496Y-108905964D01*
X165635709Y-108905964D01*
X165635709Y-108628873D01*
X164481164Y-108628873D01*
X164481164Y-108904922D01*
X164902573Y-108911216D01*
X165323982Y-108917509D01*
X165330465Y-109200373D01*
X165336949Y-109483237D01*
X165058437Y-109483237D01*
X165058437Y-110058306D01*
X164914118Y-110065180D01*
X164769800Y-110072055D01*
X164762926Y-110216373D01*
X164756051Y-110360691D01*
X164481164Y-110360691D01*
X164481164Y-110937964D01*
X164758255Y-110937964D01*
X164758255Y-111212750D01*
X164492709Y-111226600D01*
X164485835Y-111370918D01*
X164478960Y-111515237D01*
X163903891Y-111515237D01*
X163903891Y-111790124D01*
X163759573Y-111796998D01*
X163615255Y-111803873D01*
X163609080Y-112374665D01*
X163602906Y-112945458D01*
X163037982Y-112958418D01*
X163031078Y-113103855D01*
X163024175Y-113249292D01*
X162892533Y-113242401D01*
X162760891Y-113235509D01*
X162754408Y-112952646D01*
X162747924Y-112669782D01*
X163026437Y-112669782D01*
X163026437Y-112367296D01*
X162760891Y-112381146D01*
X162753989Y-112526536D01*
X162747086Y-112671927D01*
X162603898Y-112665082D01*
X162460709Y-112658237D01*
X162460709Y-112104055D01*
X162743573Y-112097571D01*
X163026437Y-112091088D01*
X163026437Y-111515237D01*
X163603709Y-111515237D01*
X163603709Y-110937964D01*
X163903891Y-110937964D01*
X163903891Y-111215055D01*
X164180982Y-111215055D01*
X164180982Y-110937964D01*
X163903891Y-110937964D01*
X163603709Y-110937964D01*
X163603709Y-110936542D01*
X163320846Y-110943026D01*
X163037982Y-110949509D01*
X163031499Y-111232373D01*
X163025015Y-111515237D01*
X162749346Y-111515237D01*
X162749346Y-110937964D01*
X162171642Y-110937964D01*
X162177630Y-112086737D01*
X162183618Y-113235509D01*
X162315690Y-113242413D01*
X162447761Y-113249318D01*
X162460709Y-113812782D01*
X162605028Y-113819657D01*
X162749346Y-113826531D01*
X162749346Y-114099997D01*
X162466482Y-114106480D01*
X162183618Y-114112964D01*
X162177565Y-114973100D01*
X162171511Y-115833237D01*
X161017528Y-115833237D01*
X161017528Y-108628873D01*
X162172073Y-108628873D01*
X162172073Y-110637782D01*
X164180982Y-110637782D01*
X164180982Y-109483237D01*
X164755950Y-109483237D01*
X165058437Y-109483237D01*
X165058437Y-109203942D01*
X164914118Y-109210817D01*
X164769800Y-109217691D01*
X164755950Y-109483237D01*
X164180982Y-109483237D01*
X164180982Y-108628873D01*
X162172073Y-108628873D01*
X161017528Y-108628873D01*
X161017528Y-107474328D01*
X172840073Y-107474328D01*
X172840073Y-119296873D01*
G37*
X172840073Y-119296873D02*
X161017528Y-119296873D01*
X161017528Y-116133418D01*
X162172073Y-116133418D01*
X162172073Y-118142328D01*
X164180982Y-118142328D01*
X164180982Y-116713038D01*
X164479761Y-116713038D01*
X164492709Y-117276418D01*
X164625482Y-117283343D01*
X164758255Y-117290269D01*
X164758255Y-117565055D01*
X164481164Y-117565055D01*
X164481164Y-118142328D01*
X165335528Y-118142328D01*
X165335528Y-117565055D01*
X165635709Y-117565055D01*
X165635709Y-118142890D01*
X166495846Y-118136836D01*
X167355982Y-118130782D01*
X167362886Y-117998729D01*
X167369789Y-117866676D01*
X167085795Y-117860184D01*
X166801800Y-117853691D01*
X166795518Y-117420737D01*
X166789236Y-116987782D01*
X167065924Y-116987782D01*
X167072408Y-117270646D01*
X167078891Y-117553509D01*
X167355982Y-117553509D01*
X167362907Y-117420737D01*
X167369832Y-117287964D01*
X167643577Y-117287964D01*
X167649870Y-117709373D01*
X167656164Y-118130782D01*
X167933255Y-118130782D01*
X167941720Y-117565055D01*
X168519869Y-117565055D01*
X168526744Y-117709373D01*
X168533618Y-117853691D01*
X168799164Y-117867541D01*
X168799164Y-118142328D01*
X169376437Y-118142328D01*
X169376437Y-117865237D01*
X168799164Y-117865237D01*
X168799164Y-117565055D01*
X168519869Y-117565055D01*
X167941720Y-117565055D01*
X167945833Y-117290238D01*
X168078089Y-117283328D01*
X168210346Y-117276418D01*
X168223294Y-116713038D01*
X167956346Y-116699146D01*
X167943396Y-116135586D01*
X167799780Y-116128729D01*
X167656164Y-116121873D01*
X167649289Y-115977555D01*
X167642415Y-115833237D01*
X167643197Y-115833237D01*
X168221891Y-115833237D01*
X168221891Y-115556146D01*
X167947004Y-115556146D01*
X167940129Y-115411828D01*
X167933255Y-115267509D01*
X167656164Y-115267509D01*
X167649680Y-115550373D01*
X167643197Y-115833237D01*
X167642415Y-115833237D01*
X167067346Y-115833237D01*
X167067346Y-115558349D01*
X167211664Y-115551475D01*
X167355982Y-115544600D01*
X167355982Y-115267509D01*
X167211664Y-115260635D01*
X167067346Y-115253760D01*
X167067346Y-114981077D01*
X168221891Y-114981077D01*
X168221891Y-115255964D01*
X168796960Y-115255964D01*
X168803835Y-115400282D01*
X168810709Y-115544600D01*
X169100749Y-115558386D01*
X169094275Y-115840129D01*
X169087800Y-116121873D01*
X168810709Y-116121873D01*
X168803835Y-115977555D01*
X168796960Y-115833237D01*
X168521415Y-115833237D01*
X168527517Y-116554828D01*
X168533618Y-117276418D01*
X168666391Y-117283343D01*
X168799164Y-117290269D01*
X168799164Y-117565055D01*
X169376437Y-117565055D01*
X169676618Y-117565055D01*
X169676618Y-118142328D01*
X169953709Y-118142328D01*
X169953709Y-117565055D01*
X169676618Y-117565055D01*
X169376437Y-117565055D01*
X169376437Y-117290168D01*
X169665073Y-117276418D01*
X169671948Y-117132100D01*
X169678822Y-116987782D01*
X170530982Y-116987782D01*
X170530982Y-117287964D01*
X170253891Y-117287964D01*
X170253891Y-117565055D01*
X170533186Y-117565055D01*
X170526311Y-117709373D01*
X170519437Y-117853691D01*
X170253891Y-117867541D01*
X170253891Y-118143749D01*
X170536755Y-118137265D01*
X170819618Y-118130782D01*
X170833438Y-117866270D01*
X171253710Y-117859980D01*
X171673982Y-117853691D01*
X171680264Y-117420737D01*
X171686547Y-116987782D01*
X171110458Y-116987782D01*
X171103584Y-117132100D01*
X171096709Y-117276418D01*
X170963937Y-117283343D01*
X170831164Y-117290269D01*
X170831164Y-116712996D01*
X170963937Y-116706071D01*
X171096709Y-116699146D01*
X171103584Y-116554828D01*
X171110458Y-116410509D01*
X171408437Y-116410509D01*
X171408437Y-116712996D01*
X171541209Y-116706071D01*
X171673982Y-116699146D01*
X171680857Y-116554828D01*
X171687731Y-116410509D01*
X171408437Y-116410509D01*
X171110458Y-116410509D01*
X170831164Y-116410509D01*
X170831164Y-116134840D01*
X171114028Y-116128356D01*
X171396891Y-116121873D01*
X171396891Y-115567691D01*
X171252573Y-115560817D01*
X171108255Y-115553942D01*
X171108255Y-115255964D01*
X171685528Y-115255964D01*
X171685528Y-114978873D01*
X171410640Y-114978873D01*
X171403766Y-114834555D01*
X171396891Y-114690237D01*
X171119800Y-114690237D01*
X171113317Y-114973100D01*
X171106833Y-115255964D01*
X170831164Y-115255964D01*
X170831164Y-115557165D01*
X170398209Y-115550882D01*
X169965255Y-115544600D01*
X169958410Y-115401412D01*
X169951564Y-115258223D01*
X170096955Y-115251321D01*
X170242346Y-115244418D01*
X170256154Y-114980276D01*
X170819618Y-114967328D01*
X170819618Y-114690237D01*
X169965255Y-114690237D01*
X169958771Y-114973100D01*
X169952288Y-115255964D01*
X169676618Y-115255964D01*
X169676618Y-114978873D01*
X169376437Y-114978873D01*
X169376437Y-115255964D01*
X169099346Y-115255964D01*
X169099346Y-114680113D01*
X169382209Y-114673629D01*
X169665073Y-114667146D01*
X169671977Y-114535075D01*
X169678881Y-114403003D01*
X169960613Y-114396529D01*
X170242346Y-114390055D01*
X170249220Y-114245737D01*
X170256095Y-114101418D01*
X169676618Y-114101418D01*
X169676618Y-114403804D01*
X169532300Y-114396929D01*
X169387982Y-114390055D01*
X169381107Y-114245737D01*
X169374233Y-114101418D01*
X169099346Y-114101418D01*
X169099346Y-113824328D01*
X168797742Y-113824328D01*
X168804226Y-114107191D01*
X168810709Y-114390055D01*
X168955028Y-114396929D01*
X169099346Y-114403804D01*
X169099346Y-114678691D01*
X168524277Y-114678691D01*
X168517402Y-114823009D01*
X168510528Y-114967328D01*
X168366209Y-114974202D01*
X168221891Y-114981077D01*
X167067346Y-114981077D01*
X167067346Y-114979892D01*
X167500300Y-114973610D01*
X167933255Y-114967328D01*
X167939356Y-114245737D01*
X167945458Y-113524146D01*
X168221891Y-113524146D01*
X168221891Y-113247055D01*
X168522073Y-113247055D01*
X168522073Y-113524146D01*
X168799164Y-113524146D01*
X168799164Y-113247055D01*
X168522073Y-113247055D01*
X168221891Y-113247055D01*
X167644618Y-113247055D01*
X167644618Y-113824328D01*
X167369731Y-113824328D01*
X167362857Y-113680009D01*
X167355982Y-113535691D01*
X167211664Y-113528817D01*
X167067346Y-113521942D01*
X167067346Y-112669782D01*
X167367528Y-112669782D01*
X167367528Y-113247055D01*
X167642415Y-113247055D01*
X167649289Y-113102737D01*
X167656164Y-112958418D01*
X168799164Y-112946066D01*
X168799164Y-113247055D01*
X169099346Y-113247055D01*
X169099346Y-113522724D01*
X169382209Y-113529208D01*
X169665073Y-113535691D01*
X169671929Y-113679307D01*
X169678786Y-113822923D01*
X170242346Y-113835873D01*
X170249271Y-113968646D01*
X170256196Y-114101418D01*
X170529561Y-114101418D01*
X170536044Y-113818555D01*
X170542528Y-113535691D01*
X170681073Y-113524146D01*
X170819618Y-113512600D01*
X170826543Y-113379828D01*
X170833469Y-113247055D01*
X171106833Y-113247055D01*
X171113317Y-113529918D01*
X171119800Y-113812782D01*
X171258346Y-113824328D01*
X171396891Y-113835873D01*
X171396891Y-114089873D01*
X171114028Y-114096356D01*
X170831164Y-114102840D01*
X170831164Y-114402642D01*
X171252573Y-114396348D01*
X171673982Y-114390055D01*
X171673982Y-112958418D01*
X171410698Y-112944636D01*
X171403795Y-113090073D01*
X171396891Y-113235509D01*
X171253703Y-113242355D01*
X171110514Y-113249200D01*
X171103612Y-113103809D01*
X171096709Y-112958418D01*
X170963937Y-112951493D01*
X170831164Y-112944568D01*
X170831164Y-113249258D01*
X170686846Y-113242384D01*
X170542528Y-113235509D01*
X170530982Y-113096964D01*
X170519437Y-112958418D01*
X170387783Y-112951527D01*
X170256129Y-112944635D01*
X170249237Y-112812981D01*
X170242346Y-112681328D01*
X169959482Y-112674844D01*
X169676618Y-112668361D01*
X169676618Y-112371022D01*
X169959482Y-112364538D01*
X170242346Y-112358055D01*
X170248829Y-112075191D01*
X170255313Y-111792328D01*
X170392045Y-111792327D01*
X170528778Y-111792327D01*
X170535653Y-111936646D01*
X170542528Y-112080964D01*
X170825391Y-112087447D01*
X171108255Y-112093931D01*
X171108255Y-112369600D01*
X171685528Y-112369600D01*
X171685528Y-112092509D01*
X171108255Y-112092509D01*
X171108255Y-111792328D01*
X170532403Y-111792328D01*
X170519437Y-111226600D01*
X170236573Y-111220117D01*
X170015744Y-111215055D01*
X170831164Y-111215055D01*
X170831164Y-111515237D01*
X171108255Y-111515237D01*
X171108255Y-111792328D01*
X171685528Y-111792328D01*
X171685528Y-111515237D01*
X171408437Y-111515237D01*
X171408437Y-111215055D01*
X170831164Y-111215055D01*
X170015744Y-111215055D01*
X169953709Y-111213633D01*
X169953709Y-110937964D01*
X171408437Y-110937964D01*
X171408437Y-111215055D01*
X171685528Y-111215055D01*
X171685528Y-110937964D01*
X171408437Y-110937964D01*
X169953709Y-110937964D01*
X169676618Y-110937964D01*
X169676618Y-111215055D01*
X169953709Y-111215055D01*
X169953709Y-111515237D01*
X169678923Y-111515237D01*
X169671998Y-111648009D01*
X169665073Y-111780782D01*
X169526528Y-111792328D01*
X169387982Y-111803873D01*
X169381107Y-111948191D01*
X169374233Y-112092509D01*
X169099346Y-112092509D01*
X169099346Y-112367397D01*
X168955028Y-112374271D01*
X168810709Y-112381146D01*
X168803835Y-112525464D01*
X168796960Y-112669782D01*
X168524277Y-112669782D01*
X168517402Y-112525464D01*
X168510528Y-112381146D01*
X168366209Y-112374271D01*
X168221891Y-112367397D01*
X168221891Y-111792328D01*
X167944800Y-111792328D01*
X167944800Y-112367397D01*
X167800482Y-112374271D01*
X167656164Y-112381146D01*
X167649289Y-112525464D01*
X167642415Y-112669782D01*
X167367528Y-112669782D01*
X167067346Y-112669782D01*
X166212982Y-112669782D01*
X166212982Y-112946873D01*
X165637913Y-112946873D01*
X165631038Y-113091191D01*
X165624164Y-113235509D01*
X165347073Y-113235509D01*
X165340198Y-113091191D01*
X165333324Y-112946873D01*
X165057779Y-112946873D01*
X165063880Y-113668464D01*
X165069982Y-114390055D01*
X165201636Y-114396946D01*
X165333290Y-114403838D01*
X165340181Y-114535492D01*
X165347073Y-114667146D01*
X165491391Y-114674020D01*
X165635709Y-114680895D01*
X165635709Y-114978873D01*
X165335528Y-114978873D01*
X165335528Y-115255964D01*
X165059858Y-115255964D01*
X165053375Y-114973100D01*
X165046891Y-114690237D01*
X164908346Y-114678691D01*
X164769800Y-114667146D01*
X164755950Y-114401600D01*
X164480357Y-114401600D01*
X164492709Y-115544600D01*
X164758255Y-115558450D01*
X164758255Y-115833237D01*
X165058437Y-115833237D01*
X165058437Y-115556146D01*
X165333223Y-115556146D01*
X165340148Y-115688918D01*
X165347073Y-115821691D01*
X165914967Y-115834675D01*
X165901255Y-116121873D01*
X165618391Y-116128356D01*
X165335528Y-116134840D01*
X165335528Y-116409088D01*
X165052664Y-116415571D01*
X164769800Y-116422055D01*
X164758255Y-116560600D01*
X164746709Y-116699146D01*
X164479761Y-116713038D01*
X164180982Y-116713038D01*
X164180982Y-116133418D01*
X162172073Y-116133418D01*
X161017528Y-116133418D01*
X161017528Y-115833237D01*
X162171511Y-115833237D01*
X162749346Y-115833237D01*
X162749346Y-115558349D01*
X162605028Y-115551475D01*
X162460709Y-115544600D01*
X162460709Y-114978873D01*
X162749346Y-114978873D01*
X162749346Y-115255964D01*
X163024233Y-115255964D01*
X163031107Y-115400282D01*
X163037982Y-115544600D01*
X163182300Y-115551475D01*
X163326618Y-115558349D01*
X163326618Y-115833237D01*
X164180982Y-115833237D01*
X164478960Y-115833237D01*
X164485835Y-115977555D01*
X164492709Y-116121873D01*
X164758255Y-116135723D01*
X164758255Y-115833237D01*
X164478960Y-115833237D01*
X164180982Y-115833237D01*
X164180982Y-115556146D01*
X163328822Y-115556146D01*
X163321948Y-115411828D01*
X163315073Y-115267509D01*
X163170755Y-115260635D01*
X163026437Y-115253760D01*
X163026437Y-114978873D01*
X162749346Y-114978873D01*
X162460709Y-114978873D01*
X162460709Y-114413146D01*
X162599255Y-114401600D01*
X162737800Y-114390055D01*
X162744675Y-114245737D01*
X162751549Y-114101418D01*
X163026437Y-114101418D01*
X163026437Y-114978873D01*
X163601405Y-114978873D01*
X163608330Y-115111646D01*
X163615255Y-115244418D01*
X163898118Y-115250902D01*
X164180982Y-115257385D01*
X164180982Y-114981178D01*
X164048209Y-114974253D01*
X163915437Y-114967328D01*
X163908562Y-114823009D01*
X163901787Y-114680795D01*
X163857622Y-114678691D01*
X163901687Y-114678691D01*
X163901787Y-114680795D01*
X163903891Y-114680895D01*
X163903891Y-114678691D01*
X163901687Y-114678691D01*
X163857622Y-114678691D01*
X163759573Y-114674020D01*
X163615255Y-114667146D01*
X163601471Y-114403838D01*
X163558721Y-114401600D01*
X163903891Y-114401600D01*
X163903891Y-114678691D01*
X164180982Y-114678691D01*
X164180982Y-114401600D01*
X163903891Y-114401600D01*
X163558721Y-114401600D01*
X163469818Y-114396946D01*
X163338164Y-114390055D01*
X163326618Y-114251509D01*
X163315073Y-114112964D01*
X163170755Y-114106089D01*
X163026437Y-114099215D01*
X163026437Y-113826531D01*
X163170755Y-113819657D01*
X163315073Y-113812782D01*
X163315073Y-113535691D01*
X163170755Y-113528817D01*
X163026437Y-113521942D01*
X163026437Y-113247055D01*
X163602288Y-113247055D01*
X163608771Y-113529918D01*
X163615255Y-113812782D01*
X163759573Y-113819657D01*
X163903891Y-113826531D01*
X163903891Y-114101418D01*
X164758255Y-114101418D01*
X164758255Y-113824328D01*
X163903891Y-113824328D01*
X163903891Y-113524146D01*
X164180982Y-113524146D01*
X164180982Y-113247055D01*
X164481164Y-113247055D01*
X164481164Y-113524146D01*
X164758255Y-113524146D01*
X164758255Y-113247055D01*
X164481164Y-113247055D01*
X164180982Y-113247055D01*
X163603709Y-113247055D01*
X163603709Y-112946873D01*
X164180982Y-112946873D01*
X164180982Y-112669782D01*
X164481164Y-112669782D01*
X164481164Y-112946873D01*
X164758255Y-112946873D01*
X164758255Y-112367397D01*
X164902573Y-112374271D01*
X165046891Y-112381146D01*
X165053766Y-112525464D01*
X165060640Y-112669782D01*
X165335528Y-112669782D01*
X165335528Y-112369600D01*
X165635709Y-112369600D01*
X165635709Y-112669782D01*
X165912800Y-112669782D01*
X165912800Y-112369600D01*
X165635709Y-112369600D01*
X165335528Y-112369600D01*
X165335528Y-112091088D01*
X165052664Y-112097571D01*
X164769800Y-112104055D01*
X164762875Y-112236828D01*
X164755950Y-112369600D01*
X164180982Y-112369600D01*
X164180982Y-112094713D01*
X164325300Y-112087838D01*
X164469618Y-112080964D01*
X164476102Y-111798100D01*
X164482585Y-111515237D01*
X164758255Y-111515237D01*
X164758255Y-111792328D01*
X165058437Y-111792328D01*
X165058437Y-111515237D01*
X165335528Y-111515237D01*
X165635709Y-111515237D01*
X165635709Y-111792328D01*
X165912800Y-111792328D01*
X165912800Y-111515237D01*
X165635709Y-111515237D01*
X165335528Y-111515237D01*
X165335528Y-111215055D01*
X165058437Y-111215055D01*
X165058437Y-110637782D01*
X165335528Y-110637782D01*
X165335528Y-110360691D01*
X165635709Y-110360691D01*
X165635709Y-111213633D01*
X165918573Y-111220117D01*
X166201437Y-111226600D01*
X166201437Y-112080964D01*
X166057118Y-112087838D01*
X165912800Y-112094713D01*
X165912800Y-112369600D01*
X166490073Y-112369600D01*
X166490073Y-112092509D01*
X166790255Y-112092509D01*
X166790255Y-112369600D01*
X167367528Y-112369600D01*
X167367528Y-111516658D01*
X167650391Y-111510175D01*
X167933255Y-111503691D01*
X167939537Y-111070737D01*
X167945819Y-110637782D01*
X168221891Y-110637782D01*
X168221891Y-110360691D01*
X168522073Y-110360691D01*
X168522073Y-110937964D01*
X168221891Y-110937964D01*
X168221891Y-111215055D01*
X168524277Y-111215055D01*
X168517402Y-111359373D01*
X168510528Y-111503691D01*
X168366209Y-111510566D01*
X168221891Y-111517440D01*
X168221891Y-111790124D01*
X168366209Y-111796998D01*
X168510528Y-111803873D01*
X168517402Y-111948191D01*
X168524277Y-112092509D01*
X168796960Y-112092509D01*
X168803835Y-111948191D01*
X168810709Y-111803873D01*
X168955028Y-111796998D01*
X169099346Y-111790124D01*
X169099346Y-111215055D01*
X169376437Y-111215055D01*
X169376437Y-110937964D01*
X168799164Y-110937964D01*
X168799164Y-110358487D01*
X169087800Y-110372237D01*
X169094725Y-110505009D01*
X169101650Y-110637782D01*
X169376437Y-110637782D01*
X169376437Y-109783418D01*
X169099346Y-109783418D01*
X169099346Y-110058306D01*
X168955028Y-110065180D01*
X168810709Y-110072055D01*
X168803835Y-110216373D01*
X168796960Y-110360691D01*
X168524277Y-110360691D01*
X168517402Y-110216373D01*
X168510528Y-110072055D01*
X168228795Y-110065580D01*
X167947063Y-110059106D01*
X167933255Y-109794964D01*
X167788937Y-109788089D01*
X167644618Y-109781215D01*
X167644618Y-110060509D01*
X167368949Y-110060509D01*
X167362465Y-109777646D01*
X167355982Y-109494782D01*
X167078891Y-109494782D01*
X167072408Y-109777646D01*
X167065924Y-110060509D01*
X167368547Y-110060509D01*
X167362264Y-110493464D01*
X167355982Y-110926418D01*
X166501618Y-110926418D01*
X166495336Y-110493464D01*
X166493410Y-110360691D01*
X166790255Y-110360691D01*
X166790255Y-110637782D01*
X167067346Y-110637782D01*
X167067346Y-110360691D01*
X166790255Y-110360691D01*
X166493410Y-110360691D01*
X166489054Y-110060509D01*
X166791676Y-110060509D01*
X166785193Y-109777646D01*
X166778709Y-109494782D01*
X166633273Y-109487878D01*
X166505534Y-109481815D01*
X167644618Y-109481815D01*
X167927482Y-109488299D01*
X168210346Y-109494782D01*
X168216801Y-109610237D01*
X168221047Y-109681486D01*
X168229500Y-109729940D01*
X168249842Y-109759982D01*
X168289753Y-109775995D01*
X168356913Y-109782363D01*
X168459003Y-109783469D01*
X168520246Y-109783418D01*
X168796960Y-109783418D01*
X168803835Y-109639100D01*
X168810709Y-109494782D01*
X169093573Y-109488299D01*
X169376437Y-109481815D01*
X169376437Y-108628873D01*
X169676618Y-108628873D01*
X169676618Y-110637782D01*
X171685528Y-110637782D01*
X171685528Y-108628873D01*
X169676618Y-108628873D01*
X169376437Y-108628873D01*
X169100767Y-108628873D01*
X169094284Y-108911737D01*
X169087800Y-109194600D01*
X168233437Y-109194600D01*
X168219687Y-108905964D01*
X168221891Y-108905964D01*
X168524378Y-108905964D01*
X168510528Y-108640418D01*
X168366209Y-108633544D01*
X168221891Y-108626669D01*
X168221891Y-108905964D01*
X168219687Y-108905964D01*
X167644618Y-108905964D01*
X167644618Y-109481815D01*
X166505534Y-109481815D01*
X166487836Y-109480975D01*
X166501618Y-109217691D01*
X166640164Y-109206146D01*
X166778709Y-109194600D01*
X166778709Y-108905964D01*
X167065041Y-108905964D01*
X167644618Y-108905964D01*
X167644618Y-108627452D01*
X167361755Y-108633935D01*
X167078891Y-108640418D01*
X167065041Y-108905964D01*
X166778709Y-108905964D01*
X166778709Y-108640418D01*
X165924346Y-108640418D01*
X165910496Y-108905964D01*
X165635709Y-108905964D01*
X165635709Y-108628873D01*
X164481164Y-108628873D01*
X164481164Y-108904922D01*
X164902573Y-108911216D01*
X165323982Y-108917509D01*
X165330465Y-109200373D01*
X165336949Y-109483237D01*
X165058437Y-109483237D01*
X165058437Y-110058306D01*
X164914118Y-110065180D01*
X164769800Y-110072055D01*
X164762926Y-110216373D01*
X164756051Y-110360691D01*
X164481164Y-110360691D01*
X164481164Y-110937964D01*
X164758255Y-110937964D01*
X164758255Y-111212750D01*
X164492709Y-111226600D01*
X164485835Y-111370918D01*
X164478960Y-111515237D01*
X163903891Y-111515237D01*
X163903891Y-111790124D01*
X163759573Y-111796998D01*
X163615255Y-111803873D01*
X163609080Y-112374665D01*
X163602906Y-112945458D01*
X163037982Y-112958418D01*
X163031078Y-113103855D01*
X163024175Y-113249292D01*
X162892533Y-113242401D01*
X162760891Y-113235509D01*
X162754408Y-112952646D01*
X162747924Y-112669782D01*
X163026437Y-112669782D01*
X163026437Y-112367296D01*
X162760891Y-112381146D01*
X162753989Y-112526536D01*
X162747086Y-112671927D01*
X162603898Y-112665082D01*
X162460709Y-112658237D01*
X162460709Y-112104055D01*
X162743573Y-112097571D01*
X163026437Y-112091088D01*
X163026437Y-111515237D01*
X163603709Y-111515237D01*
X163603709Y-110937964D01*
X163903891Y-110937964D01*
X163903891Y-111215055D01*
X164180982Y-111215055D01*
X164180982Y-110937964D01*
X163903891Y-110937964D01*
X163603709Y-110937964D01*
X163603709Y-110936542D01*
X163320846Y-110943026D01*
X163037982Y-110949509D01*
X163031499Y-111232373D01*
X163025015Y-111515237D01*
X162749346Y-111515237D01*
X162749346Y-110937964D01*
X162171642Y-110937964D01*
X162177630Y-112086737D01*
X162183618Y-113235509D01*
X162315690Y-113242413D01*
X162447761Y-113249318D01*
X162460709Y-113812782D01*
X162605028Y-113819657D01*
X162749346Y-113826531D01*
X162749346Y-114099997D01*
X162466482Y-114106480D01*
X162183618Y-114112964D01*
X162177565Y-114973100D01*
X162171511Y-115833237D01*
X161017528Y-115833237D01*
X161017528Y-108628873D01*
X162172073Y-108628873D01*
X162172073Y-110637782D01*
X164180982Y-110637782D01*
X164180982Y-109483237D01*
X164755950Y-109483237D01*
X165058437Y-109483237D01*
X165058437Y-109203942D01*
X164914118Y-109210817D01*
X164769800Y-109217691D01*
X164755950Y-109483237D01*
X164180982Y-109483237D01*
X164180982Y-108628873D01*
X162172073Y-108628873D01*
X161017528Y-108628873D01*
X161017528Y-107474328D01*
X172840073Y-107474328D01*
X172840073Y-119296873D01*
G36*
X163892346Y-117853691D02*
G01*
X163199618Y-117859302D01*
X163024366Y-117860109D01*
X162863471Y-117859680D01*
X162722900Y-117858124D01*
X162608616Y-117855549D01*
X162526585Y-117852063D01*
X162482771Y-117847775D01*
X162477683Y-117846180D01*
X162469094Y-117830644D01*
X162462477Y-117793662D01*
X162457701Y-117731176D01*
X162454638Y-117639125D01*
X162453156Y-117513446D01*
X162453127Y-117350081D01*
X162454419Y-117144967D01*
X162454592Y-117124752D01*
X162458196Y-116710691D01*
X162749346Y-116710691D01*
X162749346Y-117565055D01*
X163603709Y-117565055D01*
X163603709Y-116710691D01*
X162749346Y-116710691D01*
X162458196Y-116710691D01*
X162460709Y-116422055D01*
X163892346Y-116422055D01*
X163892346Y-117853691D01*
G37*
X163892346Y-117853691D02*
X163199618Y-117859302D01*
X163024366Y-117860109D01*
X162863471Y-117859680D01*
X162722900Y-117858124D01*
X162608616Y-117855549D01*
X162526585Y-117852063D01*
X162482771Y-117847775D01*
X162477683Y-117846180D01*
X162469094Y-117830644D01*
X162462477Y-117793662D01*
X162457701Y-117731176D01*
X162454638Y-117639125D01*
X162453156Y-117513446D01*
X162453127Y-117350081D01*
X162454419Y-117144967D01*
X162454592Y-117124752D01*
X162458196Y-116710691D01*
X162749346Y-116710691D01*
X162749346Y-117565055D01*
X163603709Y-117565055D01*
X163603709Y-116710691D01*
X162749346Y-116710691D01*
X162458196Y-116710691D01*
X162460709Y-116422055D01*
X163892346Y-116422055D01*
X163892346Y-117853691D01*
G36*
X166501618Y-116398964D02*
G01*
X166928800Y-116410509D01*
X167355982Y-116422055D01*
X167367528Y-116560600D01*
X167379073Y-116699146D01*
X167511846Y-116706071D01*
X167644618Y-116712996D01*
X167644618Y-116987782D01*
X167067346Y-116987782D01*
X167067346Y-116710691D01*
X166212982Y-116710691D01*
X166212982Y-116986763D01*
X165780028Y-116993045D01*
X165347073Y-116999328D01*
X165340590Y-117282191D01*
X165334106Y-117565055D01*
X165060640Y-117565055D01*
X165053766Y-117709373D01*
X165046891Y-117853691D01*
X164918974Y-117860471D01*
X164845601Y-117861470D01*
X164792074Y-117856863D01*
X164774656Y-117850850D01*
X164765794Y-117820485D01*
X164759838Y-117758909D01*
X164758255Y-117699752D01*
X164758255Y-117565055D01*
X165058437Y-117565055D01*
X165058437Y-116712113D01*
X165341300Y-116705629D01*
X165624164Y-116699146D01*
X165631038Y-116554828D01*
X165637913Y-116410509D01*
X166212982Y-116410509D01*
X166212982Y-116133418D01*
X166487768Y-116133418D01*
X166501618Y-116398964D01*
G37*
X166501618Y-116398964D02*
X166928800Y-116410509D01*
X167355982Y-116422055D01*
X167367528Y-116560600D01*
X167379073Y-116699146D01*
X167511846Y-116706071D01*
X167644618Y-116712996D01*
X167644618Y-116987782D01*
X167067346Y-116987782D01*
X167067346Y-116710691D01*
X166212982Y-116710691D01*
X166212982Y-116986763D01*
X165780028Y-116993045D01*
X165347073Y-116999328D01*
X165340590Y-117282191D01*
X165334106Y-117565055D01*
X165060640Y-117565055D01*
X165053766Y-117709373D01*
X165046891Y-117853691D01*
X164918974Y-117860471D01*
X164845601Y-117861470D01*
X164792074Y-117856863D01*
X164774656Y-117850850D01*
X164765794Y-117820485D01*
X164759838Y-117758909D01*
X164758255Y-117699752D01*
X164758255Y-117565055D01*
X165058437Y-117565055D01*
X165058437Y-116712113D01*
X165341300Y-116705629D01*
X165624164Y-116699146D01*
X165631038Y-116554828D01*
X165637913Y-116410509D01*
X166212982Y-116410509D01*
X166212982Y-116133418D01*
X166487768Y-116133418D01*
X166501618Y-116398964D01*
G36*
X166490073Y-117565055D02*
G01*
X166215186Y-117565055D01*
X166208311Y-117709373D01*
X166201437Y-117853691D01*
X166073520Y-117860471D01*
X166000146Y-117861470D01*
X165946620Y-117856863D01*
X165929202Y-117850850D01*
X165920339Y-117820485D01*
X165914384Y-117758909D01*
X165912800Y-117699752D01*
X165912800Y-117565055D01*
X165635709Y-117565055D01*
X165635709Y-117287964D01*
X166490073Y-117287964D01*
X166490073Y-117565055D01*
G37*
X166490073Y-117565055D02*
X166215186Y-117565055D01*
X166208311Y-117709373D01*
X166201437Y-117853691D01*
X166073520Y-117860471D01*
X166000146Y-117861470D01*
X165946620Y-117856863D01*
X165929202Y-117850850D01*
X165920339Y-117820485D01*
X165914384Y-117758909D01*
X165912800Y-117699752D01*
X165912800Y-117565055D01*
X165635709Y-117565055D01*
X165635709Y-117287964D01*
X166490073Y-117287964D01*
X166490073Y-117565055D01*
G36*
X170826543Y-117420737D02*
G01*
X170819618Y-117553509D01*
X170675300Y-117560384D01*
X170530982Y-117567258D01*
X170530982Y-117287964D01*
X170833469Y-117287964D01*
X170826543Y-117420737D01*
G37*
X170826543Y-117420737D02*
X170819618Y-117553509D01*
X170675300Y-117560384D01*
X170530982Y-117567258D01*
X170530982Y-117287964D01*
X170833469Y-117287964D01*
X170826543Y-117420737D01*
G36*
X169087800Y-117276418D02*
G01*
X168942351Y-117283322D01*
X168796901Y-117290226D01*
X168810709Y-116999328D01*
X169087800Y-116999328D01*
X169087800Y-117276418D01*
G37*
X169087800Y-117276418D02*
X168942351Y-117283322D01*
X168796901Y-117290226D01*
X168810709Y-116999328D01*
X169087800Y-116999328D01*
X169087800Y-117276418D01*
G36*
X170242346Y-116699146D02*
G01*
X169820413Y-116705441D01*
X169663875Y-116707076D01*
X169548133Y-116706449D01*
X169467845Y-116703266D01*
X169417667Y-116697233D01*
X169392255Y-116688055D01*
X169386891Y-116681539D01*
X169383456Y-116649466D01*
X169381158Y-116579373D01*
X169380095Y-116479413D01*
X169380365Y-116357734D01*
X169381643Y-116248062D01*
X169383445Y-116133418D01*
X169676618Y-116133418D01*
X169676618Y-116410509D01*
X169953709Y-116410509D01*
X169953709Y-116133418D01*
X169676618Y-116133418D01*
X169383445Y-116133418D01*
X169387982Y-115844782D01*
X170242346Y-115844782D01*
X170242346Y-116699146D01*
G37*
X170242346Y-116699146D02*
X169820413Y-116705441D01*
X169663875Y-116707076D01*
X169548133Y-116706449D01*
X169467845Y-116703266D01*
X169417667Y-116697233D01*
X169392255Y-116688055D01*
X169386891Y-116681539D01*
X169383456Y-116649466D01*
X169381158Y-116579373D01*
X169380095Y-116479413D01*
X169380365Y-116357734D01*
X169381643Y-116248062D01*
X169383445Y-116133418D01*
X169676618Y-116133418D01*
X169676618Y-116410509D01*
X169953709Y-116410509D01*
X169953709Y-116133418D01*
X169676618Y-116133418D01*
X169383445Y-116133418D01*
X169387982Y-115844782D01*
X170242346Y-115844782D01*
X170242346Y-116699146D01*
G36*
X167069549Y-115833237D02*
G01*
X167062675Y-115977555D01*
X167055800Y-116121873D01*
X166939459Y-116128683D01*
X166869484Y-116129588D01*
X166819737Y-116124357D01*
X166806686Y-116119062D01*
X166797807Y-116088680D01*
X166791841Y-116027091D01*
X166790255Y-115967934D01*
X166790255Y-115833237D01*
X167069549Y-115833237D01*
G37*
X167069549Y-115833237D02*
X167062675Y-115977555D01*
X167055800Y-116121873D01*
X166939459Y-116128683D01*
X166869484Y-116129588D01*
X166819737Y-116124357D01*
X166806686Y-116119062D01*
X166797807Y-116088680D01*
X166791841Y-116027091D01*
X166790255Y-115967934D01*
X166790255Y-115833237D01*
X167069549Y-115833237D01*
G36*
X166212982Y-115833237D02*
G01*
X166212982Y-114101418D01*
X166490073Y-114101418D01*
X166490073Y-115255964D01*
X167067346Y-115255964D01*
X167067346Y-115556146D01*
X166790255Y-115556146D01*
X166790255Y-115833237D01*
X166212982Y-115833237D01*
G37*
X166212982Y-115833237D02*
X166212982Y-114101418D01*
X166490073Y-114101418D01*
X166490073Y-115255964D01*
X167067346Y-115255964D01*
X167067346Y-115556146D01*
X166790255Y-115556146D01*
X166790255Y-115833237D01*
X166212982Y-115833237D01*
G36*
X171108255Y-115833237D02*
G01*
X170831164Y-115833237D01*
X170831164Y-115556146D01*
X171108255Y-115556146D01*
X171108255Y-115833237D01*
G37*
X171108255Y-115833237D02*
X170831164Y-115833237D01*
X170831164Y-115556146D01*
X171108255Y-115556146D01*
X171108255Y-115833237D01*
G36*
X165058437Y-115556146D02*
G01*
X164756051Y-115556146D01*
X164762926Y-115411828D01*
X164769800Y-115267509D01*
X164914118Y-115260635D01*
X165058437Y-115253760D01*
X165058437Y-115556146D01*
G37*
X165058437Y-115556146D02*
X164756051Y-115556146D01*
X164762926Y-115411828D01*
X164769800Y-115267509D01*
X164914118Y-115260635D01*
X165058437Y-115253760D01*
X165058437Y-115556146D01*
G36*
X165912800Y-115255964D02*
G01*
X165635709Y-115255964D01*
X165635709Y-114978873D01*
X165912800Y-114978873D01*
X165912800Y-115255964D01*
G37*
X165912800Y-115255964D02*
X165635709Y-115255964D01*
X165635709Y-114978873D01*
X165912800Y-114978873D01*
X165912800Y-115255964D01*
G36*
X167067346Y-114978873D02*
G01*
X166790255Y-114978873D01*
X166790255Y-114401600D01*
X167067346Y-114401600D01*
X167067346Y-114978873D01*
G37*
X167067346Y-114978873D02*
X166790255Y-114978873D01*
X166790255Y-114401600D01*
X167067346Y-114401600D01*
X167067346Y-114978873D01*
G36*
X167644618Y-114678691D02*
G01*
X167367528Y-114678691D01*
X167367528Y-114401600D01*
X167644618Y-114401600D01*
X167644618Y-114678691D01*
G37*
X167644618Y-114678691D02*
X167367528Y-114678691D01*
X167367528Y-114401600D01*
X167644618Y-114401600D01*
X167644618Y-114678691D01*
G36*
X167067346Y-113824328D02*
G01*
X167367528Y-113824328D01*
X167367528Y-114401600D01*
X167067346Y-114401600D01*
X167067346Y-113824328D01*
G37*
X167067346Y-113824328D02*
X167367528Y-113824328D01*
X167367528Y-114401600D01*
X167067346Y-114401600D01*
X167067346Y-113824328D01*
G36*
X165635709Y-114101418D02*
G01*
X165912800Y-114101418D01*
X165912800Y-114678691D01*
X165635709Y-114678691D01*
X165635709Y-114103622D01*
X165491391Y-114096748D01*
X165347073Y-114089873D01*
X165340148Y-113957100D01*
X165333223Y-113824328D01*
X165635709Y-113824328D01*
X165635709Y-114101418D01*
G37*
X165635709Y-114101418D02*
X165912800Y-114101418D01*
X165912800Y-114678691D01*
X165635709Y-114678691D01*
X165635709Y-114103622D01*
X165491391Y-114096748D01*
X165347073Y-114089873D01*
X165340148Y-113957100D01*
X165333223Y-113824328D01*
X165635709Y-113824328D01*
X165635709Y-114101418D01*
G36*
X165635709Y-113524146D02*
G01*
X165912800Y-113524146D01*
X165912800Y-113247055D01*
X166490073Y-113247055D01*
X166490073Y-113824328D01*
X165635709Y-113824328D01*
X165635709Y-113524146D01*
G37*
X165635709Y-113524146D02*
X165912800Y-113524146D01*
X165912800Y-113247055D01*
X166490073Y-113247055D01*
X166490073Y-113824328D01*
X165635709Y-113824328D01*
X165635709Y-113524146D01*
G36*
X163026437Y-113824328D02*
G01*
X162747142Y-113824328D01*
X162754017Y-113680009D01*
X162760891Y-113535691D01*
X163026437Y-113521841D01*
X163026437Y-113824328D01*
G37*
X163026437Y-113824328D02*
X162747142Y-113824328D01*
X162754017Y-113680009D01*
X162760891Y-113535691D01*
X163026437Y-113521841D01*
X163026437Y-113824328D01*
G36*
X170249220Y-113091191D02*
G01*
X170242346Y-113235509D01*
X169959482Y-113241993D01*
X169676618Y-113248476D01*
X169676618Y-112946873D01*
X170256095Y-112946873D01*
X170249220Y-113091191D01*
G37*
X170249220Y-113091191D02*
X170242346Y-113235509D01*
X169959482Y-113241993D01*
X169676618Y-113248476D01*
X169676618Y-112946873D01*
X170256095Y-112946873D01*
X170249220Y-113091191D01*
G36*
X169381107Y-112513918D02*
G01*
X169387982Y-112658237D01*
X169532300Y-112665111D01*
X169676618Y-112671986D01*
X169676618Y-112944669D01*
X169532300Y-112951544D01*
X169387982Y-112958418D01*
X169381107Y-113102737D01*
X169374233Y-113247055D01*
X169101549Y-113247055D01*
X169094675Y-113102737D01*
X169087800Y-112958418D01*
X168943482Y-112951544D01*
X168799164Y-112944669D01*
X168799164Y-112671986D01*
X168943482Y-112665111D01*
X169087800Y-112658237D01*
X169094675Y-112513918D01*
X169101549Y-112369600D01*
X169374233Y-112369600D01*
X169381107Y-112513918D01*
G37*
X169381107Y-112513918D02*
X169387982Y-112658237D01*
X169532300Y-112665111D01*
X169676618Y-112671986D01*
X169676618Y-112944669D01*
X169532300Y-112951544D01*
X169387982Y-112958418D01*
X169381107Y-113102737D01*
X169374233Y-113247055D01*
X169101549Y-113247055D01*
X169094675Y-113102737D01*
X169087800Y-112958418D01*
X168943482Y-112951544D01*
X168799164Y-112944669D01*
X168799164Y-112671986D01*
X168943482Y-112665111D01*
X169087800Y-112658237D01*
X169094675Y-112513918D01*
X169101549Y-112369600D01*
X169374233Y-112369600D01*
X169381107Y-112513918D01*
G36*
X169520755Y-112097180D02*
G01*
X169665073Y-112104055D01*
X169671998Y-112236828D01*
X169678923Y-112369600D01*
X169376437Y-112369600D01*
X169376437Y-112090306D01*
X169520755Y-112097180D01*
G37*
X169520755Y-112097180D02*
X169665073Y-112104055D01*
X169671998Y-112236828D01*
X169678923Y-112369600D01*
X169376437Y-112369600D01*
X169376437Y-112090306D01*
X169520755Y-112097180D01*
G36*
X164180982Y-112669782D02*
G01*
X163901687Y-112669782D01*
X163915437Y-112381146D01*
X164048209Y-112374221D01*
X164180982Y-112367296D01*
X164180982Y-112669782D01*
G37*
X164180982Y-112669782D02*
X163901687Y-112669782D01*
X163915437Y-112381146D01*
X164048209Y-112374221D01*
X164180982Y-112367296D01*
X164180982Y-112669782D01*
G36*
X168221891Y-112669782D02*
G01*
X167944800Y-112669782D01*
X167944800Y-112369600D01*
X168221891Y-112369600D01*
X168221891Y-112669782D01*
G37*
X168221891Y-112669782D02*
X167944800Y-112669782D01*
X167944800Y-112369600D01*
X168221891Y-112369600D01*
X168221891Y-112669782D01*
G36*
X164180982Y-112092509D02*
G01*
X163903891Y-112092509D01*
X163903891Y-111792328D01*
X164180982Y-111792328D01*
X164180982Y-112092509D01*
G37*
X164180982Y-112092509D02*
X163903891Y-112092509D01*
X163903891Y-111792328D01*
X164180982Y-111792328D01*
X164180982Y-112092509D01*
G36*
X167062082Y-111659555D02*
G01*
X167068365Y-112092509D01*
X166792458Y-112092509D01*
X166785584Y-111948191D01*
X166778709Y-111803873D01*
X166633689Y-111796980D01*
X166488670Y-111790087D01*
X166495144Y-111508344D01*
X166501618Y-111226600D01*
X167055800Y-111226600D01*
X167062082Y-111659555D01*
G37*
X167062082Y-111659555D02*
X167068365Y-112092509D01*
X166792458Y-112092509D01*
X166785584Y-111948191D01*
X166778709Y-111803873D01*
X166633689Y-111796980D01*
X166488670Y-111790087D01*
X166495144Y-111508344D01*
X166501618Y-111226600D01*
X167055800Y-111226600D01*
X167062082Y-111659555D01*
G36*
X165058437Y-111515237D02*
G01*
X164758255Y-111515237D01*
X164758255Y-111215055D01*
X165058437Y-111215055D01*
X165058437Y-111515237D01*
G37*
X165058437Y-111515237D02*
X164758255Y-111515237D01*
X164758255Y-111215055D01*
X165058437Y-111215055D01*
X165058437Y-111515237D01*
G36*
X168799164Y-111215055D02*
G01*
X168522073Y-111215055D01*
X168522073Y-110937964D01*
X168799164Y-110937964D01*
X168799164Y-111215055D01*
G37*
X168799164Y-111215055D02*
X168522073Y-111215055D01*
X168522073Y-110937964D01*
X168799164Y-110937964D01*
X168799164Y-111215055D01*
G36*
X165908129Y-110216373D02*
G01*
X165915004Y-110360691D01*
X166214403Y-110360691D01*
X166207920Y-110643555D01*
X166201437Y-110926418D01*
X166073520Y-110933199D01*
X166000146Y-110934197D01*
X165946620Y-110929590D01*
X165929202Y-110923577D01*
X165922789Y-110895292D01*
X165917552Y-110830548D01*
X165914039Y-110739064D01*
X165912800Y-110633934D01*
X165912800Y-110360691D01*
X165633506Y-110360691D01*
X165640380Y-110216373D01*
X165647255Y-110072055D01*
X165901255Y-110072055D01*
X165908129Y-110216373D01*
G37*
X165908129Y-110216373D02*
X165915004Y-110360691D01*
X166214403Y-110360691D01*
X166207920Y-110643555D01*
X166201437Y-110926418D01*
X166073520Y-110933199D01*
X166000146Y-110934197D01*
X165946620Y-110929590D01*
X165929202Y-110923577D01*
X165922789Y-110895292D01*
X165917552Y-110830548D01*
X165914039Y-110739064D01*
X165912800Y-110633934D01*
X165912800Y-110360691D01*
X165633506Y-110360691D01*
X165640380Y-110216373D01*
X165647255Y-110072055D01*
X165901255Y-110072055D01*
X165908129Y-110216373D01*
G36*
X165058437Y-110637782D02*
G01*
X164758255Y-110637782D01*
X164758255Y-110360691D01*
X165058437Y-110360691D01*
X165058437Y-110637782D01*
G37*
X165058437Y-110637782D02*
X164758255Y-110637782D01*
X164758255Y-110360691D01*
X165058437Y-110360691D01*
X165058437Y-110637782D01*
G36*
X165058437Y-110058205D02*
G01*
X165191209Y-110065130D01*
X165323982Y-110072055D01*
X165330857Y-110216373D01*
X165337731Y-110360691D01*
X165058437Y-110360691D01*
X165058437Y-110058205D01*
G37*
X165058437Y-110058205D02*
X165191209Y-110065130D01*
X165323982Y-110072055D01*
X165330857Y-110216373D01*
X165337731Y-110360691D01*
X165058437Y-110360691D01*
X165058437Y-110058205D01*
G36*
X167944800Y-110637782D02*
G01*
X167644618Y-110637782D01*
X167644618Y-110060509D01*
X167944800Y-110060509D01*
X167944800Y-110637782D01*
G37*
X167944800Y-110637782D02*
X167644618Y-110637782D01*
X167644618Y-110060509D01*
X167944800Y-110060509D01*
X167944800Y-110637782D01*
G36*
X165912800Y-109481033D02*
G01*
X166057118Y-109487907D01*
X166201437Y-109494782D01*
X166208311Y-109639100D01*
X166215186Y-109783418D01*
X166490073Y-109783418D01*
X166490073Y-110060509D01*
X166212982Y-110060509D01*
X166212982Y-109783418D01*
X165635709Y-109783418D01*
X165635709Y-109206146D01*
X165912800Y-109206146D01*
X165912800Y-109481033D01*
G37*
X165912800Y-109481033D02*
X166057118Y-109487907D01*
X166201437Y-109494782D01*
X166208311Y-109639100D01*
X166215186Y-109783418D01*
X166490073Y-109783418D01*
X166490073Y-110060509D01*
X166212982Y-110060509D01*
X166212982Y-109783418D01*
X165635709Y-109783418D01*
X165635709Y-109206146D01*
X165912800Y-109206146D01*
X165912800Y-109481033D01*
G36*
X163015169Y-108909669D02*
G01*
X163186677Y-108910709D01*
X163222709Y-108911038D01*
X163892346Y-108917509D01*
X163892346Y-110349146D01*
X163186476Y-110355246D01*
X163010333Y-110356268D01*
X162849226Y-110356244D01*
X162708914Y-110355251D01*
X162595155Y-110353366D01*
X162513706Y-110350665D01*
X162470325Y-110347225D01*
X162464885Y-110345625D01*
X162460957Y-110319433D01*
X162457388Y-110252844D01*
X162454304Y-110151642D01*
X162451833Y-110021611D01*
X162450102Y-109868535D01*
X162449238Y-109698198D01*
X162449164Y-109629919D01*
X162449164Y-109206146D01*
X162749346Y-109206146D01*
X162749346Y-110060509D01*
X163603709Y-110060509D01*
X163603709Y-109206146D01*
X162749346Y-109206146D01*
X162449164Y-109206146D01*
X162449164Y-108929935D01*
X162501118Y-108917251D01*
X162536969Y-108914212D01*
X162612647Y-108911880D01*
X162721806Y-108910309D01*
X162858096Y-108909553D01*
X163015169Y-108909669D01*
G37*
X163015169Y-108909669D02*
X163186677Y-108910709D01*
X163222709Y-108911038D01*
X163892346Y-108917509D01*
X163892346Y-110349146D01*
X163186476Y-110355246D01*
X163010333Y-110356268D01*
X162849226Y-110356244D01*
X162708914Y-110355251D01*
X162595155Y-110353366D01*
X162513706Y-110350665D01*
X162470325Y-110347225D01*
X162464885Y-110345625D01*
X162460957Y-110319433D01*
X162457388Y-110252844D01*
X162454304Y-110151642D01*
X162451833Y-110021611D01*
X162450102Y-109868535D01*
X162449238Y-109698198D01*
X162449164Y-109629919D01*
X162449164Y-109206146D01*
X162749346Y-109206146D01*
X162749346Y-110060509D01*
X163603709Y-110060509D01*
X163603709Y-109206146D01*
X162749346Y-109206146D01*
X162449164Y-109206146D01*
X162449164Y-108929935D01*
X162501118Y-108917251D01*
X162536969Y-108914212D01*
X162612647Y-108911880D01*
X162721806Y-108910309D01*
X162858096Y-108909553D01*
X163015169Y-108909669D01*
G36*
X171152194Y-108910759D02*
G01*
X171245168Y-108913346D01*
X171310371Y-108917610D01*
X171352404Y-108923714D01*
X171375867Y-108931824D01*
X171382589Y-108937279D01*
X171390851Y-108963505D01*
X171397082Y-109021619D01*
X171401361Y-109114402D01*
X171403767Y-109244636D01*
X171404378Y-109415103D01*
X171403274Y-109628585D01*
X171403012Y-109659204D01*
X171396891Y-110349146D01*
X170686249Y-110355253D01*
X170477521Y-110356660D01*
X170310875Y-110356822D01*
X170182223Y-110355606D01*
X170087478Y-110352880D01*
X170022554Y-110348511D01*
X169983364Y-110342368D01*
X169965821Y-110334319D01*
X169964306Y-110331910D01*
X169961660Y-110302142D01*
X169959637Y-110232166D01*
X169958282Y-110127949D01*
X169957636Y-109995461D01*
X169957743Y-109840671D01*
X169958646Y-109669548D01*
X169959130Y-109609984D01*
X169962701Y-109206146D01*
X170253891Y-109206146D01*
X170253891Y-110060509D01*
X171108255Y-110060509D01*
X171108255Y-109206146D01*
X170253891Y-109206146D01*
X169962701Y-109206146D01*
X169965255Y-108917509D01*
X170660650Y-108911403D01*
X170864536Y-108909952D01*
X171026850Y-108909682D01*
X171152194Y-108910759D01*
G37*
X171152194Y-108910759D02*
X171245168Y-108913346D01*
X171310371Y-108917610D01*
X171352404Y-108923714D01*
X171375867Y-108931824D01*
X171382589Y-108937279D01*
X171390851Y-108963505D01*
X171397082Y-109021619D01*
X171401361Y-109114402D01*
X171403767Y-109244636D01*
X171404378Y-109415103D01*
X171403274Y-109628585D01*
X171403012Y-109659204D01*
X171396891Y-110349146D01*
X170686249Y-110355253D01*
X170477521Y-110356660D01*
X170310875Y-110356822D01*
X170182223Y-110355606D01*
X170087478Y-110352880D01*
X170022554Y-110348511D01*
X169983364Y-110342368D01*
X169965821Y-110334319D01*
X169964306Y-110331910D01*
X169961660Y-110302142D01*
X169959637Y-110232166D01*
X169958282Y-110127949D01*
X169957636Y-109995461D01*
X169957743Y-109840671D01*
X169958646Y-109669548D01*
X169959130Y-109609984D01*
X169962701Y-109206146D01*
X170253891Y-109206146D01*
X170253891Y-110060509D01*
X171108255Y-110060509D01*
X171108255Y-109206146D01*
X170253891Y-109206146D01*
X169962701Y-109206146D01*
X169965255Y-108917509D01*
X170660650Y-108911403D01*
X170864536Y-108909952D01*
X171026850Y-108909682D01*
X171152194Y-108910759D01*
D13*
G04 #@! TO.C,U3*
X192430545Y-110083414D02*
X194067497Y-108446461D01*
X192837131Y-110490000D02*
X192430545Y-110083414D01*
X192430545Y-110896586D02*
X192837131Y-110490000D01*
X185610500Y-117716631D02*
X185203914Y-117310045D01*
X186017086Y-117310045D02*
X185610500Y-117716631D01*
X185610500Y-103263369D02*
X186017086Y-103669955D01*
X185203914Y-103669955D02*
X185610500Y-103263369D01*
X178383869Y-110490000D02*
X178790455Y-110896586D01*
X178790455Y-110083414D02*
X178383869Y-110490000D01*
G04 #@! TO.C,U2*
X131724545Y-111480414D02*
X133361497Y-109843461D01*
X132131131Y-111887000D02*
X131724545Y-111480414D01*
X131724545Y-112293586D02*
X132131131Y-111887000D01*
X124904500Y-119113631D02*
X124497914Y-118707045D01*
X125311086Y-118707045D02*
X124904500Y-119113631D01*
X124904500Y-104660369D02*
X125311086Y-105066955D01*
X124497914Y-105066955D02*
X124904500Y-104660369D01*
X117677869Y-111887000D02*
X118084455Y-112293586D01*
X118084455Y-111480414D02*
X117677869Y-111887000D01*
G04 #@! TO.C,U1*
X87719045Y-110083414D02*
X89355997Y-108446461D01*
X88125631Y-110490000D02*
X87719045Y-110083414D01*
X87719045Y-110896586D02*
X88125631Y-110490000D01*
X80899000Y-117716631D02*
X80492414Y-117310045D01*
X81305586Y-117310045D02*
X80899000Y-117716631D01*
X80899000Y-103263369D02*
X81305586Y-103669955D01*
X80492414Y-103669955D02*
X80899000Y-103263369D01*
X73672369Y-110490000D02*
X74078955Y-110896586D01*
X74078955Y-110083414D02*
X73672369Y-110490000D01*
D14*
G04 #@! TO.C,RV1*
X83185000Y-80518000D02*
X83192500Y-87510500D01*
X83121500Y-80510500D02*
X76192500Y-80510500D01*
X83192500Y-87510500D02*
X76192500Y-87510500D01*
X76192500Y-87510500D02*
X76192500Y-80510500D01*
G04 #@! TO.C,RV8*
X208915000Y-72390000D02*
X208922500Y-79382500D01*
X208851500Y-72382500D02*
X201922500Y-72382500D01*
X208922500Y-79382500D02*
X201922500Y-79382500D01*
X201922500Y-79382500D02*
X201922500Y-72382500D01*
G04 #@! TO.C,RV7*
X208915000Y-80518000D02*
X208922500Y-87510500D01*
X208851500Y-80510500D02*
X201922500Y-80510500D01*
X208922500Y-87510500D02*
X201922500Y-87510500D01*
X201922500Y-87510500D02*
X201922500Y-80510500D01*
G04 #@! TO.C,RV6*
X187960000Y-80518000D02*
X187967500Y-87510500D01*
X187896500Y-80510500D02*
X180967500Y-80510500D01*
X187967500Y-87510500D02*
X180967500Y-87510500D01*
X180967500Y-87510500D02*
X180967500Y-80510500D01*
G04 #@! TO.C,RV5*
X167005000Y-80518000D02*
X167012500Y-87510500D01*
X166941500Y-80510500D02*
X160012500Y-80510500D01*
X167012500Y-87510500D02*
X160012500Y-87510500D01*
X160012500Y-87510500D02*
X160012500Y-80510500D01*
G04 #@! TO.C,RV4*
X146050000Y-80518000D02*
X146057500Y-87510500D01*
X145986500Y-80510500D02*
X139057500Y-80510500D01*
X146057500Y-87510500D02*
X139057500Y-87510500D01*
X139057500Y-87510500D02*
X139057500Y-80510500D01*
G04 #@! TO.C,RV3*
X125095000Y-80518000D02*
X125102500Y-87510500D01*
X125031500Y-80510500D02*
X118102500Y-80510500D01*
X125102500Y-87510500D02*
X118102500Y-87510500D01*
X118102500Y-87510500D02*
X118102500Y-80510500D01*
G04 #@! TO.C,RV2*
X104140000Y-80518000D02*
X104147500Y-87510500D01*
X104076500Y-80510500D02*
X97147500Y-80510500D01*
X104147500Y-87510500D02*
X97147500Y-87510500D01*
X97147500Y-87510500D02*
X97147500Y-80510500D01*
D13*
G04 #@! TO.C,R15*
X162104000Y-74175252D02*
X162104000Y-73652748D01*
X163524000Y-74175252D02*
X163524000Y-73652748D01*
G04 #@! TO.C,R14*
X164771000Y-75318252D02*
X164771000Y-74795748D01*
X166191000Y-75318252D02*
X166191000Y-74795748D01*
G04 #@! TO.C,R13*
X174753748Y-76379000D02*
X175276252Y-76379000D01*
X174753748Y-77799000D02*
X175276252Y-77799000D01*
G04 #@! TO.C,R12*
X178926748Y-76379000D02*
X179449252Y-76379000D01*
X178926748Y-77799000D02*
X179449252Y-77799000D01*
G04 #@! TO.C,R11*
X183253748Y-76379000D02*
X183776252Y-76379000D01*
X183253748Y-77799000D02*
X183776252Y-77799000D01*
D10*
G04 #@! TO.C,N1*
X78585000Y-95631000D02*
X77597000Y-95631000D01*
X62385000Y-95631000D02*
X63373000Y-95631000D01*
D13*
X79855000Y-95631000D02*
G75*
G03*
X79855000Y-95631000I-9370000J0D01*
G01*
D10*
X70485000Y-97663000D02*
X70485000Y-93345000D01*
X70485000Y-93345000D02*
X69469000Y-94615000D01*
X70485000Y-93345000D02*
X71501000Y-94615000D01*
X62385000Y-95631000D02*
G75*
G02*
X78585000Y-95631000I8100000J0D01*
G01*
D13*
G04 #@! TO.C,SW5*
X150694000Y-80319000D02*
X150694000Y-80289000D01*
X150694000Y-73859000D02*
X150694000Y-73889000D01*
X157154000Y-73859000D02*
X157154000Y-73889000D01*
X157154000Y-80289000D02*
X157154000Y-80319000D01*
X150694000Y-78389000D02*
X150694000Y-75789000D01*
X157154000Y-80319000D02*
X150694000Y-80319000D01*
X157154000Y-78389000D02*
X157154000Y-75789000D01*
X157154000Y-73859000D02*
X150694000Y-73859000D01*
G04 #@! TO.C,SW4*
X129866000Y-80319000D02*
X129866000Y-80289000D01*
X129866000Y-73859000D02*
X129866000Y-73889000D01*
X136326000Y-73859000D02*
X136326000Y-73889000D01*
X136326000Y-80289000D02*
X136326000Y-80319000D01*
X129866000Y-78389000D02*
X129866000Y-75789000D01*
X136326000Y-80319000D02*
X129866000Y-80319000D01*
X136326000Y-78389000D02*
X136326000Y-75789000D01*
X136326000Y-73859000D02*
X129866000Y-73859000D01*
G04 #@! TO.C,SW3*
X109292000Y-80319000D02*
X109292000Y-80289000D01*
X109292000Y-73859000D02*
X109292000Y-73889000D01*
X115752000Y-73859000D02*
X115752000Y-73889000D01*
X115752000Y-80289000D02*
X115752000Y-80319000D01*
X109292000Y-78389000D02*
X109292000Y-75789000D01*
X115752000Y-80319000D02*
X109292000Y-80319000D01*
X115752000Y-78389000D02*
X115752000Y-75789000D01*
X115752000Y-73859000D02*
X109292000Y-73859000D01*
G04 #@! TO.C,SW2*
X88428000Y-80319000D02*
X88428000Y-80289000D01*
X88428000Y-73859000D02*
X88428000Y-73889000D01*
X94888000Y-73859000D02*
X94888000Y-73889000D01*
X94888000Y-80289000D02*
X94888000Y-80319000D01*
X88428000Y-78389000D02*
X88428000Y-75789000D01*
X94888000Y-80319000D02*
X88428000Y-80319000D01*
X94888000Y-78389000D02*
X94888000Y-75789000D01*
X94888000Y-73859000D02*
X88428000Y-73859000D01*
G04 #@! TO.C,SW1*
X67255000Y-80319000D02*
X67255000Y-80289000D01*
X67255000Y-73859000D02*
X67255000Y-73889000D01*
X73715000Y-73859000D02*
X73715000Y-73889000D01*
X73715000Y-80289000D02*
X73715000Y-80319000D01*
X67255000Y-78389000D02*
X67255000Y-75789000D01*
X73715000Y-80319000D02*
X67255000Y-80319000D01*
X73715000Y-78389000D02*
X73715000Y-75789000D01*
X73715000Y-73859000D02*
X67255000Y-73859000D01*
G04 #@! TO.C,R3*
X93186000Y-85380500D02*
X93186000Y-82640500D01*
X93186000Y-82640500D02*
X86646000Y-82640500D01*
X86646000Y-82640500D02*
X86646000Y-85380500D01*
X86646000Y-85380500D02*
X93186000Y-85380500D01*
X93956000Y-84010500D02*
X93186000Y-84010500D01*
X85876000Y-84010500D02*
X86646000Y-84010500D01*
G04 #@! TO.C,R4*
X114225666Y-85380500D02*
X114225666Y-82640500D01*
X114225666Y-82640500D02*
X107685666Y-82640500D01*
X107685666Y-82640500D02*
X107685666Y-85380500D01*
X107685666Y-85380500D02*
X114225666Y-85380500D01*
X114995666Y-84010500D02*
X114225666Y-84010500D01*
X106915666Y-84010500D02*
X107685666Y-84010500D01*
G04 #@! TO.C,R5*
X135265332Y-85380500D02*
X135265332Y-82640500D01*
X135265332Y-82640500D02*
X128725332Y-82640500D01*
X128725332Y-82640500D02*
X128725332Y-85380500D01*
X128725332Y-85380500D02*
X135265332Y-85380500D01*
X136035332Y-84010500D02*
X135265332Y-84010500D01*
X127955332Y-84010500D02*
X128725332Y-84010500D01*
G04 #@! TO.C,R6*
X156304998Y-85380500D02*
X156304998Y-82640500D01*
X156304998Y-82640500D02*
X149764998Y-82640500D01*
X149764998Y-82640500D02*
X149764998Y-85380500D01*
X149764998Y-85380500D02*
X156304998Y-85380500D01*
X157074998Y-84010500D02*
X156304998Y-84010500D01*
X148994998Y-84010500D02*
X149764998Y-84010500D01*
G04 #@! TO.C,R7*
X177344664Y-85380500D02*
X177344664Y-82640500D01*
X177344664Y-82640500D02*
X170804664Y-82640500D01*
X170804664Y-82640500D02*
X170804664Y-85380500D01*
X170804664Y-85380500D02*
X177344664Y-85380500D01*
X178114664Y-84010500D02*
X177344664Y-84010500D01*
X170034664Y-84010500D02*
X170804664Y-84010500D01*
G04 #@! TO.C,R8*
X198384330Y-85380500D02*
X198384330Y-82640500D01*
X198384330Y-82640500D02*
X191844330Y-82640500D01*
X191844330Y-82640500D02*
X191844330Y-85380500D01*
X191844330Y-85380500D02*
X198384330Y-85380500D01*
X199154330Y-84010500D02*
X198384330Y-84010500D01*
X191074330Y-84010500D02*
X191844330Y-84010500D01*
G04 #@! TO.C,R9*
X219424000Y-85380500D02*
X219424000Y-82640500D01*
X219424000Y-82640500D02*
X212884000Y-82640500D01*
X212884000Y-82640500D02*
X212884000Y-85380500D01*
X212884000Y-85380500D02*
X219424000Y-85380500D01*
X220194000Y-84010500D02*
X219424000Y-84010500D01*
X212114000Y-84010500D02*
X212884000Y-84010500D01*
G04 #@! TO.C,R10*
X219424000Y-77316000D02*
X219424000Y-74576000D01*
X219424000Y-74576000D02*
X212884000Y-74576000D01*
X212884000Y-74576000D02*
X212884000Y-77316000D01*
X212884000Y-77316000D02*
X219424000Y-77316000D01*
X220194000Y-75946000D02*
X219424000Y-75946000D01*
X212114000Y-75946000D02*
X212884000Y-75946000D01*
G04 #@! TO.C,R2*
X187571748Y-76379000D02*
X188094252Y-76379000D01*
X187571748Y-77799000D02*
X188094252Y-77799000D01*
G04 #@! TO.C,R1*
X64631500Y-78432000D02*
X64631500Y-83132000D01*
X58431500Y-78432000D02*
X58431500Y-83132000D01*
X58425647Y-83124090D02*
G75*
G03*
X64631500Y-83132000I3105853J2292090D01*
G01*
X64652061Y-78458796D02*
G75*
G03*
X58431500Y-78432000I-3120561J-2373204D01*
G01*
D10*
G04 #@! TO.C,N2*
X99521857Y-95631000D02*
X98533857Y-95631000D01*
X83321857Y-95631000D02*
X84309857Y-95631000D01*
D13*
X100791857Y-95631000D02*
G75*
G03*
X100791857Y-95631000I-9370000J0D01*
G01*
D10*
X91421857Y-97663000D02*
X91421857Y-93345000D01*
X91421857Y-93345000D02*
X90405857Y-94615000D01*
X91421857Y-93345000D02*
X92437857Y-94615000D01*
X83321857Y-95631000D02*
G75*
G02*
X99521857Y-95631000I8100000J0D01*
G01*
G04 #@! TO.C,N3*
X120458714Y-95631000D02*
X119470714Y-95631000D01*
X104258714Y-95631000D02*
X105246714Y-95631000D01*
D13*
X121728714Y-95631000D02*
G75*
G03*
X121728714Y-95631000I-9370000J0D01*
G01*
D10*
X112358714Y-97663000D02*
X112358714Y-93345000D01*
X112358714Y-93345000D02*
X111342714Y-94615000D01*
X112358714Y-93345000D02*
X113374714Y-94615000D01*
X104258714Y-95631000D02*
G75*
G02*
X120458714Y-95631000I8100000J0D01*
G01*
G04 #@! TO.C,N4*
X141395571Y-95631000D02*
X140407571Y-95631000D01*
X125195571Y-95631000D02*
X126183571Y-95631000D01*
D13*
X142665571Y-95631000D02*
G75*
G03*
X142665571Y-95631000I-9370000J0D01*
G01*
D10*
X133295571Y-97663000D02*
X133295571Y-93345000D01*
X133295571Y-93345000D02*
X132279571Y-94615000D01*
X133295571Y-93345000D02*
X134311571Y-94615000D01*
X125195571Y-95631000D02*
G75*
G02*
X141395571Y-95631000I8100000J0D01*
G01*
G04 #@! TO.C,N5*
X162332428Y-95631000D02*
X161344428Y-95631000D01*
X146132428Y-95631000D02*
X147120428Y-95631000D01*
D13*
X163602428Y-95631000D02*
G75*
G03*
X163602428Y-95631000I-9370000J0D01*
G01*
D10*
X154232428Y-97663000D02*
X154232428Y-93345000D01*
X154232428Y-93345000D02*
X153216428Y-94615000D01*
X154232428Y-93345000D02*
X155248428Y-94615000D01*
X146132428Y-95631000D02*
G75*
G02*
X162332428Y-95631000I8100000J0D01*
G01*
G04 #@! TO.C,N6*
X183269285Y-95631000D02*
X182281285Y-95631000D01*
X167069285Y-95631000D02*
X168057285Y-95631000D01*
D13*
X184539285Y-95631000D02*
G75*
G03*
X184539285Y-95631000I-9370000J0D01*
G01*
D10*
X175169285Y-97663000D02*
X175169285Y-93345000D01*
X175169285Y-93345000D02*
X174153285Y-94615000D01*
X175169285Y-93345000D02*
X176185285Y-94615000D01*
X167069285Y-95631000D02*
G75*
G02*
X183269285Y-95631000I8100000J0D01*
G01*
G04 #@! TO.C,N7*
X204206142Y-95631000D02*
X203218142Y-95631000D01*
X188006142Y-95631000D02*
X188994142Y-95631000D01*
D13*
X205476142Y-95631000D02*
G75*
G03*
X205476142Y-95631000I-9370000J0D01*
G01*
D10*
X196106142Y-97663000D02*
X196106142Y-93345000D01*
X196106142Y-93345000D02*
X195090142Y-94615000D01*
X196106142Y-93345000D02*
X197122142Y-94615000D01*
X188006142Y-95631000D02*
G75*
G02*
X204206142Y-95631000I8100000J0D01*
G01*
G04 #@! TO.C,N8*
X225143000Y-95631000D02*
X224155000Y-95631000D01*
X208943000Y-95631000D02*
X209931000Y-95631000D01*
D13*
X226413000Y-95631000D02*
G75*
G03*
X226413000Y-95631000I-9370000J0D01*
G01*
D10*
X217043000Y-97663000D02*
X217043000Y-93345000D01*
X217043000Y-93345000D02*
X216027000Y-94615000D01*
X217043000Y-93345000D02*
X218059000Y-94615000D01*
X208943000Y-95631000D02*
G75*
G02*
X225143000Y-95631000I8100000J0D01*
G01*
D13*
G04 #@! TO.C,C3*
X178079248Y-117780000D02*
X178601752Y-117780000D01*
X178079248Y-119200000D02*
X178601752Y-119200000D01*
G04 #@! TO.C,C2*
X117340748Y-118416000D02*
X117863252Y-118416000D01*
X117340748Y-119836000D02*
X117863252Y-119836000D01*
G04 #@! TO.C,C1*
X73367748Y-117780000D02*
X73890252Y-117780000D01*
X73367748Y-119200000D02*
X73890252Y-119200000D01*
G04 #@! TO.C,U3*
D10*
X190610081Y-116567077D02*
X191182501Y-117139497D01*
X191283516Y-117173169D01*
X191350860Y-117173169D01*
X191451875Y-117139497D01*
X191586562Y-117004810D01*
X191620234Y-116903795D01*
X191620234Y-116836451D01*
X191586562Y-116735436D01*
X191014142Y-116163016D01*
X191283516Y-115893642D02*
X191721249Y-115455910D01*
X191754921Y-115960986D01*
X191855936Y-115859971D01*
X191956951Y-115826299D01*
X192024295Y-115826299D01*
X192125310Y-115859971D01*
X192293669Y-116028329D01*
X192327341Y-116129345D01*
X192327341Y-116196688D01*
X192293669Y-116297703D01*
X192091638Y-116499734D01*
X191990623Y-116533406D01*
X191923280Y-116533406D01*
G04 #@! TO.C,U2*
X129904081Y-117964077D02*
X130476501Y-118536497D01*
X130577516Y-118570169D01*
X130644860Y-118570169D01*
X130745875Y-118536497D01*
X130880562Y-118401810D01*
X130914234Y-118300795D01*
X130914234Y-118233451D01*
X130880562Y-118132436D01*
X130308142Y-117560016D01*
X130678532Y-117324314D02*
X130678532Y-117256971D01*
X130712203Y-117155955D01*
X130880562Y-116987597D01*
X130981577Y-116953925D01*
X131048921Y-116953925D01*
X131149936Y-116987597D01*
X131217280Y-117054940D01*
X131284623Y-117189627D01*
X131284623Y-117997749D01*
X131722356Y-117560016D01*
G04 #@! TO.C,U1*
X85898581Y-116567077D02*
X86471001Y-117139497D01*
X86572016Y-117173169D01*
X86639360Y-117173169D01*
X86740375Y-117139497D01*
X86875062Y-117004810D01*
X86908734Y-116903795D01*
X86908734Y-116836451D01*
X86875062Y-116735436D01*
X86302642Y-116163016D01*
X87716856Y-116163016D02*
X87312795Y-116567077D01*
X87514825Y-116365047D02*
X86807719Y-115657940D01*
X86841390Y-115826299D01*
X86841390Y-115960986D01*
X86807719Y-116062001D01*
G04 #@! TO.C,RV1*
D15*
X79238928Y-79275214D02*
X78984928Y-78912357D01*
X78803500Y-79275214D02*
X78803500Y-78513214D01*
X79093785Y-78513214D01*
X79166357Y-78549500D01*
X79202642Y-78585785D01*
X79238928Y-78658357D01*
X79238928Y-78767214D01*
X79202642Y-78839785D01*
X79166357Y-78876071D01*
X79093785Y-78912357D01*
X78803500Y-78912357D01*
X79456642Y-78513214D02*
X79710642Y-79275214D01*
X79964642Y-78513214D01*
X80617785Y-79275214D02*
X80182357Y-79275214D01*
X80400071Y-79275214D02*
X80400071Y-78513214D01*
X80327500Y-78622071D01*
X80254928Y-78694642D01*
X80182357Y-78730928D01*
G04 #@! TO.C,RV8*
X204968928Y-71147214D02*
X204714928Y-70784357D01*
X204533500Y-71147214D02*
X204533500Y-70385214D01*
X204823785Y-70385214D01*
X204896357Y-70421500D01*
X204932642Y-70457785D01*
X204968928Y-70530357D01*
X204968928Y-70639214D01*
X204932642Y-70711785D01*
X204896357Y-70748071D01*
X204823785Y-70784357D01*
X204533500Y-70784357D01*
X205186642Y-70385214D02*
X205440642Y-71147214D01*
X205694642Y-70385214D01*
X206057500Y-70711785D02*
X205984928Y-70675500D01*
X205948642Y-70639214D01*
X205912357Y-70566642D01*
X205912357Y-70530357D01*
X205948642Y-70457785D01*
X205984928Y-70421500D01*
X206057500Y-70385214D01*
X206202642Y-70385214D01*
X206275214Y-70421500D01*
X206311500Y-70457785D01*
X206347785Y-70530357D01*
X206347785Y-70566642D01*
X206311500Y-70639214D01*
X206275214Y-70675500D01*
X206202642Y-70711785D01*
X206057500Y-70711785D01*
X205984928Y-70748071D01*
X205948642Y-70784357D01*
X205912357Y-70856928D01*
X205912357Y-71002071D01*
X205948642Y-71074642D01*
X205984928Y-71110928D01*
X206057500Y-71147214D01*
X206202642Y-71147214D01*
X206275214Y-71110928D01*
X206311500Y-71074642D01*
X206347785Y-71002071D01*
X206347785Y-70856928D01*
X206311500Y-70784357D01*
X206275214Y-70748071D01*
X206202642Y-70711785D01*
G04 #@! TO.C,RV7*
X209921928Y-81180214D02*
X209667928Y-80817357D01*
X209486500Y-81180214D02*
X209486500Y-80418214D01*
X209776785Y-80418214D01*
X209849357Y-80454500D01*
X209885642Y-80490785D01*
X209921928Y-80563357D01*
X209921928Y-80672214D01*
X209885642Y-80744785D01*
X209849357Y-80781071D01*
X209776785Y-80817357D01*
X209486500Y-80817357D01*
X210139642Y-80418214D02*
X210393642Y-81180214D01*
X210647642Y-80418214D01*
X210829071Y-80418214D02*
X211337071Y-80418214D01*
X211010500Y-81180214D01*
G04 #@! TO.C,RV6*
X184013928Y-79275214D02*
X183759928Y-78912357D01*
X183578500Y-79275214D02*
X183578500Y-78513214D01*
X183868785Y-78513214D01*
X183941357Y-78549500D01*
X183977642Y-78585785D01*
X184013928Y-78658357D01*
X184013928Y-78767214D01*
X183977642Y-78839785D01*
X183941357Y-78876071D01*
X183868785Y-78912357D01*
X183578500Y-78912357D01*
X184231642Y-78513214D02*
X184485642Y-79275214D01*
X184739642Y-78513214D01*
X185320214Y-78513214D02*
X185175071Y-78513214D01*
X185102500Y-78549500D01*
X185066214Y-78585785D01*
X184993642Y-78694642D01*
X184957357Y-78839785D01*
X184957357Y-79130071D01*
X184993642Y-79202642D01*
X185029928Y-79238928D01*
X185102500Y-79275214D01*
X185247642Y-79275214D01*
X185320214Y-79238928D01*
X185356500Y-79202642D01*
X185392785Y-79130071D01*
X185392785Y-78948642D01*
X185356500Y-78876071D01*
X185320214Y-78839785D01*
X185247642Y-78803500D01*
X185102500Y-78803500D01*
X185029928Y-78839785D01*
X184993642Y-78876071D01*
X184957357Y-78948642D01*
G04 #@! TO.C,RV5*
X163058928Y-79275214D02*
X162804928Y-78912357D01*
X162623500Y-79275214D02*
X162623500Y-78513214D01*
X162913785Y-78513214D01*
X162986357Y-78549500D01*
X163022642Y-78585785D01*
X163058928Y-78658357D01*
X163058928Y-78767214D01*
X163022642Y-78839785D01*
X162986357Y-78876071D01*
X162913785Y-78912357D01*
X162623500Y-78912357D01*
X163276642Y-78513214D02*
X163530642Y-79275214D01*
X163784642Y-78513214D01*
X164401500Y-78513214D02*
X164038642Y-78513214D01*
X164002357Y-78876071D01*
X164038642Y-78839785D01*
X164111214Y-78803500D01*
X164292642Y-78803500D01*
X164365214Y-78839785D01*
X164401500Y-78876071D01*
X164437785Y-78948642D01*
X164437785Y-79130071D01*
X164401500Y-79202642D01*
X164365214Y-79238928D01*
X164292642Y-79275214D01*
X164111214Y-79275214D01*
X164038642Y-79238928D01*
X164002357Y-79202642D01*
G04 #@! TO.C,RV4*
X142103928Y-79275214D02*
X141849928Y-78912357D01*
X141668500Y-79275214D02*
X141668500Y-78513214D01*
X141958785Y-78513214D01*
X142031357Y-78549500D01*
X142067642Y-78585785D01*
X142103928Y-78658357D01*
X142103928Y-78767214D01*
X142067642Y-78839785D01*
X142031357Y-78876071D01*
X141958785Y-78912357D01*
X141668500Y-78912357D01*
X142321642Y-78513214D02*
X142575642Y-79275214D01*
X142829642Y-78513214D01*
X143410214Y-78767214D02*
X143410214Y-79275214D01*
X143228785Y-78476928D02*
X143047357Y-79021214D01*
X143519071Y-79021214D01*
G04 #@! TO.C,RV3*
X121148928Y-79275214D02*
X120894928Y-78912357D01*
X120713500Y-79275214D02*
X120713500Y-78513214D01*
X121003785Y-78513214D01*
X121076357Y-78549500D01*
X121112642Y-78585785D01*
X121148928Y-78658357D01*
X121148928Y-78767214D01*
X121112642Y-78839785D01*
X121076357Y-78876071D01*
X121003785Y-78912357D01*
X120713500Y-78912357D01*
X121366642Y-78513214D02*
X121620642Y-79275214D01*
X121874642Y-78513214D01*
X122056071Y-78513214D02*
X122527785Y-78513214D01*
X122273785Y-78803500D01*
X122382642Y-78803500D01*
X122455214Y-78839785D01*
X122491500Y-78876071D01*
X122527785Y-78948642D01*
X122527785Y-79130071D01*
X122491500Y-79202642D01*
X122455214Y-79238928D01*
X122382642Y-79275214D01*
X122164928Y-79275214D01*
X122092357Y-79238928D01*
X122056071Y-79202642D01*
G04 #@! TO.C,RV2*
X100193928Y-79275214D02*
X99939928Y-78912357D01*
X99758500Y-79275214D02*
X99758500Y-78513214D01*
X100048785Y-78513214D01*
X100121357Y-78549500D01*
X100157642Y-78585785D01*
X100193928Y-78658357D01*
X100193928Y-78767214D01*
X100157642Y-78839785D01*
X100121357Y-78876071D01*
X100048785Y-78912357D01*
X99758500Y-78912357D01*
X100411642Y-78513214D02*
X100665642Y-79275214D01*
X100919642Y-78513214D01*
X101137357Y-78585785D02*
X101173642Y-78549500D01*
X101246214Y-78513214D01*
X101427642Y-78513214D01*
X101500214Y-78549500D01*
X101536500Y-78585785D01*
X101572785Y-78658357D01*
X101572785Y-78730928D01*
X101536500Y-78839785D01*
X101101071Y-79275214D01*
X101572785Y-79275214D01*
G04 #@! TO.C,R15*
D10*
X162171142Y-71826380D02*
X161837809Y-71350190D01*
X161599714Y-71826380D02*
X161599714Y-70826380D01*
X161980666Y-70826380D01*
X162075904Y-70874000D01*
X162123523Y-70921619D01*
X162171142Y-71016857D01*
X162171142Y-71159714D01*
X162123523Y-71254952D01*
X162075904Y-71302571D01*
X161980666Y-71350190D01*
X161599714Y-71350190D01*
X163123523Y-71826380D02*
X162552095Y-71826380D01*
X162837809Y-71826380D02*
X162837809Y-70826380D01*
X162742571Y-70969238D01*
X162647333Y-71064476D01*
X162552095Y-71112095D01*
X164028285Y-70826380D02*
X163552095Y-70826380D01*
X163504476Y-71302571D01*
X163552095Y-71254952D01*
X163647333Y-71207333D01*
X163885428Y-71207333D01*
X163980666Y-71254952D01*
X164028285Y-71302571D01*
X164075904Y-71397809D01*
X164075904Y-71635904D01*
X164028285Y-71731142D01*
X163980666Y-71778761D01*
X163885428Y-71826380D01*
X163647333Y-71826380D01*
X163552095Y-71778761D01*
X163504476Y-71731142D01*
G04 #@! TO.C,R14*
X165092142Y-72969380D02*
X164758809Y-72493190D01*
X164520714Y-72969380D02*
X164520714Y-71969380D01*
X164901666Y-71969380D01*
X164996904Y-72017000D01*
X165044523Y-72064619D01*
X165092142Y-72159857D01*
X165092142Y-72302714D01*
X165044523Y-72397952D01*
X164996904Y-72445571D01*
X164901666Y-72493190D01*
X164520714Y-72493190D01*
X166044523Y-72969380D02*
X165473095Y-72969380D01*
X165758809Y-72969380D02*
X165758809Y-71969380D01*
X165663571Y-72112238D01*
X165568333Y-72207476D01*
X165473095Y-72255095D01*
X166901666Y-72302714D02*
X166901666Y-72969380D01*
X166663571Y-71921761D02*
X166425476Y-72636047D01*
X167044523Y-72636047D01*
G04 #@! TO.C,R13*
X174372142Y-75891380D02*
X174038809Y-75415190D01*
X173800714Y-75891380D02*
X173800714Y-74891380D01*
X174181666Y-74891380D01*
X174276904Y-74939000D01*
X174324523Y-74986619D01*
X174372142Y-75081857D01*
X174372142Y-75224714D01*
X174324523Y-75319952D01*
X174276904Y-75367571D01*
X174181666Y-75415190D01*
X173800714Y-75415190D01*
X175324523Y-75891380D02*
X174753095Y-75891380D01*
X175038809Y-75891380D02*
X175038809Y-74891380D01*
X174943571Y-75034238D01*
X174848333Y-75129476D01*
X174753095Y-75177095D01*
X175657857Y-74891380D02*
X176276904Y-74891380D01*
X175943571Y-75272333D01*
X176086428Y-75272333D01*
X176181666Y-75319952D01*
X176229285Y-75367571D01*
X176276904Y-75462809D01*
X176276904Y-75700904D01*
X176229285Y-75796142D01*
X176181666Y-75843761D01*
X176086428Y-75891380D01*
X175800714Y-75891380D01*
X175705476Y-75843761D01*
X175657857Y-75796142D01*
G04 #@! TO.C,R12*
X178545142Y-75891380D02*
X178211809Y-75415190D01*
X177973714Y-75891380D02*
X177973714Y-74891380D01*
X178354666Y-74891380D01*
X178449904Y-74939000D01*
X178497523Y-74986619D01*
X178545142Y-75081857D01*
X178545142Y-75224714D01*
X178497523Y-75319952D01*
X178449904Y-75367571D01*
X178354666Y-75415190D01*
X177973714Y-75415190D01*
X179497523Y-75891380D02*
X178926095Y-75891380D01*
X179211809Y-75891380D02*
X179211809Y-74891380D01*
X179116571Y-75034238D01*
X179021333Y-75129476D01*
X178926095Y-75177095D01*
X179878476Y-74986619D02*
X179926095Y-74939000D01*
X180021333Y-74891380D01*
X180259428Y-74891380D01*
X180354666Y-74939000D01*
X180402285Y-74986619D01*
X180449904Y-75081857D01*
X180449904Y-75177095D01*
X180402285Y-75319952D01*
X179830857Y-75891380D01*
X180449904Y-75891380D01*
G04 #@! TO.C,R11*
X182872142Y-75891380D02*
X182538809Y-75415190D01*
X182300714Y-75891380D02*
X182300714Y-74891380D01*
X182681666Y-74891380D01*
X182776904Y-74939000D01*
X182824523Y-74986619D01*
X182872142Y-75081857D01*
X182872142Y-75224714D01*
X182824523Y-75319952D01*
X182776904Y-75367571D01*
X182681666Y-75415190D01*
X182300714Y-75415190D01*
X183824523Y-75891380D02*
X183253095Y-75891380D01*
X183538809Y-75891380D02*
X183538809Y-74891380D01*
X183443571Y-75034238D01*
X183348333Y-75129476D01*
X183253095Y-75177095D01*
X184776904Y-75891380D02*
X184205476Y-75891380D01*
X184491190Y-75891380D02*
X184491190Y-74891380D01*
X184395952Y-75034238D01*
X184300714Y-75129476D01*
X184205476Y-75177095D01*
G04 #@! TO.C,H6*
X138938095Y-120899180D02*
X138938095Y-119899180D01*
X138938095Y-120375371D02*
X139509523Y-120375371D01*
X139509523Y-120899180D02*
X139509523Y-119899180D01*
X140414285Y-119899180D02*
X140223809Y-119899180D01*
X140128571Y-119946800D01*
X140080952Y-119994419D01*
X139985714Y-120137276D01*
X139938095Y-120327752D01*
X139938095Y-120708704D01*
X139985714Y-120803942D01*
X140033333Y-120851561D01*
X140128571Y-120899180D01*
X140319047Y-120899180D01*
X140414285Y-120851561D01*
X140461904Y-120803942D01*
X140509523Y-120708704D01*
X140509523Y-120470609D01*
X140461904Y-120375371D01*
X140414285Y-120327752D01*
X140319047Y-120280133D01*
X140128571Y-120280133D01*
X140033333Y-120327752D01*
X139985714Y-120375371D01*
X139938095Y-120470609D01*
G04 #@! TO.C,H5*
X146913695Y-71064380D02*
X146913695Y-70064380D01*
X146913695Y-70540571D02*
X147485123Y-70540571D01*
X147485123Y-71064380D02*
X147485123Y-70064380D01*
X148437504Y-70064380D02*
X147961314Y-70064380D01*
X147913695Y-70540571D01*
X147961314Y-70492952D01*
X148056552Y-70445333D01*
X148294647Y-70445333D01*
X148389885Y-70492952D01*
X148437504Y-70540571D01*
X148485123Y-70635809D01*
X148485123Y-70873904D01*
X148437504Y-70969142D01*
X148389885Y-71016761D01*
X148294647Y-71064380D01*
X148056552Y-71064380D01*
X147961314Y-71016761D01*
X147913695Y-70969142D01*
G04 #@! TO.C,H4*
X225996595Y-114966380D02*
X225996595Y-113966380D01*
X225996595Y-114442571D02*
X226568023Y-114442571D01*
X226568023Y-114966380D02*
X226568023Y-113966380D01*
X227472785Y-114299714D02*
X227472785Y-114966380D01*
X227234690Y-113918761D02*
X226996595Y-114633047D01*
X227615642Y-114633047D01*
G04 #@! TO.C,H3*
X60325095Y-115029880D02*
X60325095Y-114029880D01*
X60325095Y-114506071D02*
X60896523Y-114506071D01*
X60896523Y-115029880D02*
X60896523Y-114029880D01*
X61277476Y-114029880D02*
X61896523Y-114029880D01*
X61563190Y-114410833D01*
X61706047Y-114410833D01*
X61801285Y-114458452D01*
X61848904Y-114506071D01*
X61896523Y-114601309D01*
X61896523Y-114839404D01*
X61848904Y-114934642D01*
X61801285Y-114982261D01*
X61706047Y-115029880D01*
X61420333Y-115029880D01*
X61325095Y-114982261D01*
X61277476Y-114934642D01*
G04 #@! TO.C,H2*
X225996595Y-77414380D02*
X225996595Y-76414380D01*
X225996595Y-76890571D02*
X226568023Y-76890571D01*
X226568023Y-77414380D02*
X226568023Y-76414380D01*
X226996595Y-76509619D02*
X227044214Y-76462000D01*
X227139452Y-76414380D01*
X227377547Y-76414380D01*
X227472785Y-76462000D01*
X227520404Y-76509619D01*
X227568023Y-76604857D01*
X227568023Y-76700095D01*
X227520404Y-76842952D01*
X226948976Y-77414380D01*
X227568023Y-77414380D01*
G04 #@! TO.C,H1*
X64262095Y-71254880D02*
X64262095Y-70254880D01*
X64262095Y-70731071D02*
X64833523Y-70731071D01*
X64833523Y-71254880D02*
X64833523Y-70254880D01*
X65833523Y-71254880D02*
X65262095Y-71254880D01*
X65547809Y-71254880D02*
X65547809Y-70254880D01*
X65452571Y-70397738D01*
X65357333Y-70492976D01*
X65262095Y-70540595D01*
G04 #@! TO.C,N1*
X69723095Y-106624380D02*
X69723095Y-105624380D01*
X70294523Y-106624380D01*
X70294523Y-105624380D01*
X71294523Y-106624380D02*
X70723095Y-106624380D01*
X71008809Y-106624380D02*
X71008809Y-105624380D01*
X70913571Y-105767238D01*
X70818333Y-105862476D01*
X70723095Y-105910095D01*
G04 #@! TO.C,SW5*
X152590666Y-81543761D02*
X152733523Y-81591380D01*
X152971619Y-81591380D01*
X153066857Y-81543761D01*
X153114476Y-81496142D01*
X153162095Y-81400904D01*
X153162095Y-81305666D01*
X153114476Y-81210428D01*
X153066857Y-81162809D01*
X152971619Y-81115190D01*
X152781142Y-81067571D01*
X152685904Y-81019952D01*
X152638285Y-80972333D01*
X152590666Y-80877095D01*
X152590666Y-80781857D01*
X152638285Y-80686619D01*
X152685904Y-80639000D01*
X152781142Y-80591380D01*
X153019238Y-80591380D01*
X153162095Y-80639000D01*
X153495428Y-80591380D02*
X153733523Y-81591380D01*
X153924000Y-80877095D01*
X154114476Y-81591380D01*
X154352571Y-80591380D01*
X155209714Y-80591380D02*
X154733523Y-80591380D01*
X154685904Y-81067571D01*
X154733523Y-81019952D01*
X154828761Y-80972333D01*
X155066857Y-80972333D01*
X155162095Y-81019952D01*
X155209714Y-81067571D01*
X155257333Y-81162809D01*
X155257333Y-81400904D01*
X155209714Y-81496142D01*
X155162095Y-81543761D01*
X155066857Y-81591380D01*
X154828761Y-81591380D01*
X154733523Y-81543761D01*
X154685904Y-81496142D01*
G04 #@! TO.C,SW4*
X131762666Y-81543761D02*
X131905523Y-81591380D01*
X132143619Y-81591380D01*
X132238857Y-81543761D01*
X132286476Y-81496142D01*
X132334095Y-81400904D01*
X132334095Y-81305666D01*
X132286476Y-81210428D01*
X132238857Y-81162809D01*
X132143619Y-81115190D01*
X131953142Y-81067571D01*
X131857904Y-81019952D01*
X131810285Y-80972333D01*
X131762666Y-80877095D01*
X131762666Y-80781857D01*
X131810285Y-80686619D01*
X131857904Y-80639000D01*
X131953142Y-80591380D01*
X132191238Y-80591380D01*
X132334095Y-80639000D01*
X132667428Y-80591380D02*
X132905523Y-81591380D01*
X133096000Y-80877095D01*
X133286476Y-81591380D01*
X133524571Y-80591380D01*
X134334095Y-80924714D02*
X134334095Y-81591380D01*
X134096000Y-80543761D02*
X133857904Y-81258047D01*
X134476952Y-81258047D01*
G04 #@! TO.C,SW3*
X111188666Y-81543761D02*
X111331523Y-81591380D01*
X111569619Y-81591380D01*
X111664857Y-81543761D01*
X111712476Y-81496142D01*
X111760095Y-81400904D01*
X111760095Y-81305666D01*
X111712476Y-81210428D01*
X111664857Y-81162809D01*
X111569619Y-81115190D01*
X111379142Y-81067571D01*
X111283904Y-81019952D01*
X111236285Y-80972333D01*
X111188666Y-80877095D01*
X111188666Y-80781857D01*
X111236285Y-80686619D01*
X111283904Y-80639000D01*
X111379142Y-80591380D01*
X111617238Y-80591380D01*
X111760095Y-80639000D01*
X112093428Y-80591380D02*
X112331523Y-81591380D01*
X112522000Y-80877095D01*
X112712476Y-81591380D01*
X112950571Y-80591380D01*
X113236285Y-80591380D02*
X113855333Y-80591380D01*
X113522000Y-80972333D01*
X113664857Y-80972333D01*
X113760095Y-81019952D01*
X113807714Y-81067571D01*
X113855333Y-81162809D01*
X113855333Y-81400904D01*
X113807714Y-81496142D01*
X113760095Y-81543761D01*
X113664857Y-81591380D01*
X113379142Y-81591380D01*
X113283904Y-81543761D01*
X113236285Y-81496142D01*
G04 #@! TO.C,SW2*
X90324666Y-81543761D02*
X90467523Y-81591380D01*
X90705619Y-81591380D01*
X90800857Y-81543761D01*
X90848476Y-81496142D01*
X90896095Y-81400904D01*
X90896095Y-81305666D01*
X90848476Y-81210428D01*
X90800857Y-81162809D01*
X90705619Y-81115190D01*
X90515142Y-81067571D01*
X90419904Y-81019952D01*
X90372285Y-80972333D01*
X90324666Y-80877095D01*
X90324666Y-80781857D01*
X90372285Y-80686619D01*
X90419904Y-80639000D01*
X90515142Y-80591380D01*
X90753238Y-80591380D01*
X90896095Y-80639000D01*
X91229428Y-80591380D02*
X91467523Y-81591380D01*
X91658000Y-80877095D01*
X91848476Y-81591380D01*
X92086571Y-80591380D01*
X92419904Y-80686619D02*
X92467523Y-80639000D01*
X92562761Y-80591380D01*
X92800857Y-80591380D01*
X92896095Y-80639000D01*
X92943714Y-80686619D01*
X92991333Y-80781857D01*
X92991333Y-80877095D01*
X92943714Y-81019952D01*
X92372285Y-81591380D01*
X92991333Y-81591380D01*
G04 #@! TO.C,SW1*
X69151666Y-81543761D02*
X69294523Y-81591380D01*
X69532619Y-81591380D01*
X69627857Y-81543761D01*
X69675476Y-81496142D01*
X69723095Y-81400904D01*
X69723095Y-81305666D01*
X69675476Y-81210428D01*
X69627857Y-81162809D01*
X69532619Y-81115190D01*
X69342142Y-81067571D01*
X69246904Y-81019952D01*
X69199285Y-80972333D01*
X69151666Y-80877095D01*
X69151666Y-80781857D01*
X69199285Y-80686619D01*
X69246904Y-80639000D01*
X69342142Y-80591380D01*
X69580238Y-80591380D01*
X69723095Y-80639000D01*
X70056428Y-80591380D02*
X70294523Y-81591380D01*
X70485000Y-80877095D01*
X70675476Y-81591380D01*
X70913571Y-80591380D01*
X71818333Y-81591380D02*
X71246904Y-81591380D01*
X71532619Y-81591380D02*
X71532619Y-80591380D01*
X71437380Y-80734238D01*
X71342142Y-80829476D01*
X71246904Y-80877095D01*
G04 #@! TO.C,R3*
X89749333Y-86832880D02*
X89416000Y-86356690D01*
X89177904Y-86832880D02*
X89177904Y-85832880D01*
X89558857Y-85832880D01*
X89654095Y-85880500D01*
X89701714Y-85928119D01*
X89749333Y-86023357D01*
X89749333Y-86166214D01*
X89701714Y-86261452D01*
X89654095Y-86309071D01*
X89558857Y-86356690D01*
X89177904Y-86356690D01*
X90082666Y-85832880D02*
X90701714Y-85832880D01*
X90368380Y-86213833D01*
X90511238Y-86213833D01*
X90606476Y-86261452D01*
X90654095Y-86309071D01*
X90701714Y-86404309D01*
X90701714Y-86642404D01*
X90654095Y-86737642D01*
X90606476Y-86785261D01*
X90511238Y-86832880D01*
X90225523Y-86832880D01*
X90130285Y-86785261D01*
X90082666Y-86737642D01*
G04 #@! TO.C,R4*
X110788999Y-86832880D02*
X110455666Y-86356690D01*
X110217570Y-86832880D02*
X110217570Y-85832880D01*
X110598523Y-85832880D01*
X110693761Y-85880500D01*
X110741380Y-85928119D01*
X110788999Y-86023357D01*
X110788999Y-86166214D01*
X110741380Y-86261452D01*
X110693761Y-86309071D01*
X110598523Y-86356690D01*
X110217570Y-86356690D01*
X111646142Y-86166214D02*
X111646142Y-86832880D01*
X111408046Y-85785261D02*
X111169951Y-86499547D01*
X111788999Y-86499547D01*
G04 #@! TO.C,R5*
X131828665Y-86832880D02*
X131495332Y-86356690D01*
X131257236Y-86832880D02*
X131257236Y-85832880D01*
X131638189Y-85832880D01*
X131733427Y-85880500D01*
X131781046Y-85928119D01*
X131828665Y-86023357D01*
X131828665Y-86166214D01*
X131781046Y-86261452D01*
X131733427Y-86309071D01*
X131638189Y-86356690D01*
X131257236Y-86356690D01*
X132733427Y-85832880D02*
X132257236Y-85832880D01*
X132209617Y-86309071D01*
X132257236Y-86261452D01*
X132352474Y-86213833D01*
X132590570Y-86213833D01*
X132685808Y-86261452D01*
X132733427Y-86309071D01*
X132781046Y-86404309D01*
X132781046Y-86642404D01*
X132733427Y-86737642D01*
X132685808Y-86785261D01*
X132590570Y-86832880D01*
X132352474Y-86832880D01*
X132257236Y-86785261D01*
X132209617Y-86737642D01*
G04 #@! TO.C,R6*
X152868331Y-86832880D02*
X152534998Y-86356690D01*
X152296902Y-86832880D02*
X152296902Y-85832880D01*
X152677855Y-85832880D01*
X152773093Y-85880500D01*
X152820712Y-85928119D01*
X152868331Y-86023357D01*
X152868331Y-86166214D01*
X152820712Y-86261452D01*
X152773093Y-86309071D01*
X152677855Y-86356690D01*
X152296902Y-86356690D01*
X153725474Y-85832880D02*
X153534998Y-85832880D01*
X153439759Y-85880500D01*
X153392140Y-85928119D01*
X153296902Y-86070976D01*
X153249283Y-86261452D01*
X153249283Y-86642404D01*
X153296902Y-86737642D01*
X153344521Y-86785261D01*
X153439759Y-86832880D01*
X153630236Y-86832880D01*
X153725474Y-86785261D01*
X153773093Y-86737642D01*
X153820712Y-86642404D01*
X153820712Y-86404309D01*
X153773093Y-86309071D01*
X153725474Y-86261452D01*
X153630236Y-86213833D01*
X153439759Y-86213833D01*
X153344521Y-86261452D01*
X153296902Y-86309071D01*
X153249283Y-86404309D01*
G04 #@! TO.C,R7*
X173907997Y-86832880D02*
X173574664Y-86356690D01*
X173336568Y-86832880D02*
X173336568Y-85832880D01*
X173717521Y-85832880D01*
X173812759Y-85880500D01*
X173860378Y-85928119D01*
X173907997Y-86023357D01*
X173907997Y-86166214D01*
X173860378Y-86261452D01*
X173812759Y-86309071D01*
X173717521Y-86356690D01*
X173336568Y-86356690D01*
X174241330Y-85832880D02*
X174907997Y-85832880D01*
X174479425Y-86832880D01*
G04 #@! TO.C,R8*
X194947663Y-86832880D02*
X194614330Y-86356690D01*
X194376234Y-86832880D02*
X194376234Y-85832880D01*
X194757187Y-85832880D01*
X194852425Y-85880500D01*
X194900044Y-85928119D01*
X194947663Y-86023357D01*
X194947663Y-86166214D01*
X194900044Y-86261452D01*
X194852425Y-86309071D01*
X194757187Y-86356690D01*
X194376234Y-86356690D01*
X195519091Y-86261452D02*
X195423853Y-86213833D01*
X195376234Y-86166214D01*
X195328615Y-86070976D01*
X195328615Y-86023357D01*
X195376234Y-85928119D01*
X195423853Y-85880500D01*
X195519091Y-85832880D01*
X195709568Y-85832880D01*
X195804806Y-85880500D01*
X195852425Y-85928119D01*
X195900044Y-86023357D01*
X195900044Y-86070976D01*
X195852425Y-86166214D01*
X195804806Y-86213833D01*
X195709568Y-86261452D01*
X195519091Y-86261452D01*
X195423853Y-86309071D01*
X195376234Y-86356690D01*
X195328615Y-86451928D01*
X195328615Y-86642404D01*
X195376234Y-86737642D01*
X195423853Y-86785261D01*
X195519091Y-86832880D01*
X195709568Y-86832880D01*
X195804806Y-86785261D01*
X195852425Y-86737642D01*
X195900044Y-86642404D01*
X195900044Y-86451928D01*
X195852425Y-86356690D01*
X195804806Y-86309071D01*
X195709568Y-86261452D01*
G04 #@! TO.C,R9*
X215987333Y-86832880D02*
X215654000Y-86356690D01*
X215415904Y-86832880D02*
X215415904Y-85832880D01*
X215796857Y-85832880D01*
X215892095Y-85880500D01*
X215939714Y-85928119D01*
X215987333Y-86023357D01*
X215987333Y-86166214D01*
X215939714Y-86261452D01*
X215892095Y-86309071D01*
X215796857Y-86356690D01*
X215415904Y-86356690D01*
X216463523Y-86832880D02*
X216654000Y-86832880D01*
X216749238Y-86785261D01*
X216796857Y-86737642D01*
X216892095Y-86594785D01*
X216939714Y-86404309D01*
X216939714Y-86023357D01*
X216892095Y-85928119D01*
X216844476Y-85880500D01*
X216749238Y-85832880D01*
X216558761Y-85832880D01*
X216463523Y-85880500D01*
X216415904Y-85928119D01*
X216368285Y-86023357D01*
X216368285Y-86261452D01*
X216415904Y-86356690D01*
X216463523Y-86404309D01*
X216558761Y-86451928D01*
X216749238Y-86451928D01*
X216844476Y-86404309D01*
X216892095Y-86356690D01*
X216939714Y-86261452D01*
G04 #@! TO.C,R10*
X215511142Y-78768380D02*
X215177809Y-78292190D01*
X214939714Y-78768380D02*
X214939714Y-77768380D01*
X215320666Y-77768380D01*
X215415904Y-77816000D01*
X215463523Y-77863619D01*
X215511142Y-77958857D01*
X215511142Y-78101714D01*
X215463523Y-78196952D01*
X215415904Y-78244571D01*
X215320666Y-78292190D01*
X214939714Y-78292190D01*
X216463523Y-78768380D02*
X215892095Y-78768380D01*
X216177809Y-78768380D02*
X216177809Y-77768380D01*
X216082571Y-77911238D01*
X215987333Y-78006476D01*
X215892095Y-78054095D01*
X217082571Y-77768380D02*
X217177809Y-77768380D01*
X217273047Y-77816000D01*
X217320666Y-77863619D01*
X217368285Y-77958857D01*
X217415904Y-78149333D01*
X217415904Y-78387428D01*
X217368285Y-78577904D01*
X217320666Y-78673142D01*
X217273047Y-78720761D01*
X217177809Y-78768380D01*
X217082571Y-78768380D01*
X216987333Y-78720761D01*
X216939714Y-78673142D01*
X216892095Y-78577904D01*
X216844476Y-78387428D01*
X216844476Y-78149333D01*
X216892095Y-77958857D01*
X216939714Y-77863619D01*
X216987333Y-77816000D01*
X217082571Y-77768380D01*
G04 #@! TO.C,R2*
X187666333Y-75890380D02*
X187333000Y-75414190D01*
X187094904Y-75890380D02*
X187094904Y-74890380D01*
X187475857Y-74890380D01*
X187571095Y-74938000D01*
X187618714Y-74985619D01*
X187666333Y-75080857D01*
X187666333Y-75223714D01*
X187618714Y-75318952D01*
X187571095Y-75366571D01*
X187475857Y-75414190D01*
X187094904Y-75414190D01*
X188047285Y-74985619D02*
X188094904Y-74938000D01*
X188190142Y-74890380D01*
X188428238Y-74890380D01*
X188523476Y-74938000D01*
X188571095Y-74985619D01*
X188618714Y-75080857D01*
X188618714Y-75176095D01*
X188571095Y-75318952D01*
X187999666Y-75890380D01*
X188618714Y-75890380D01*
G04 #@! TO.C,R1*
X59078833Y-86304380D02*
X58745500Y-85828190D01*
X58507404Y-86304380D02*
X58507404Y-85304380D01*
X58888357Y-85304380D01*
X58983595Y-85352000D01*
X59031214Y-85399619D01*
X59078833Y-85494857D01*
X59078833Y-85637714D01*
X59031214Y-85732952D01*
X58983595Y-85780571D01*
X58888357Y-85828190D01*
X58507404Y-85828190D01*
X60031214Y-86304380D02*
X59459785Y-86304380D01*
X59745500Y-86304380D02*
X59745500Y-85304380D01*
X59650261Y-85447238D01*
X59555023Y-85542476D01*
X59459785Y-85590095D01*
G04 #@! TO.C,N2*
X90659952Y-106624380D02*
X90659952Y-105624380D01*
X91231380Y-106624380D01*
X91231380Y-105624380D01*
X91659952Y-105719619D02*
X91707571Y-105672000D01*
X91802809Y-105624380D01*
X92040904Y-105624380D01*
X92136142Y-105672000D01*
X92183761Y-105719619D01*
X92231380Y-105814857D01*
X92231380Y-105910095D01*
X92183761Y-106052952D01*
X91612333Y-106624380D01*
X92231380Y-106624380D01*
G04 #@! TO.C,N3*
X111506095Y-106624380D02*
X111506095Y-105624380D01*
X112077523Y-106624380D01*
X112077523Y-105624380D01*
X112458476Y-105624380D02*
X113077523Y-105624380D01*
X112744190Y-106005333D01*
X112887047Y-106005333D01*
X112982285Y-106052952D01*
X113029904Y-106100571D01*
X113077523Y-106195809D01*
X113077523Y-106433904D01*
X113029904Y-106529142D01*
X112982285Y-106576761D01*
X112887047Y-106624380D01*
X112601333Y-106624380D01*
X112506095Y-106576761D01*
X112458476Y-106529142D01*
G04 #@! TO.C,N4*
X132533666Y-106624380D02*
X132533666Y-105624380D01*
X133105094Y-106624380D01*
X133105094Y-105624380D01*
X134009856Y-105957714D02*
X134009856Y-106624380D01*
X133771761Y-105576761D02*
X133533666Y-106291047D01*
X134152713Y-106291047D01*
G04 #@! TO.C,N5*
X153470523Y-106624380D02*
X153470523Y-105624380D01*
X154041951Y-106624380D01*
X154041951Y-105624380D01*
X154994332Y-105624380D02*
X154518142Y-105624380D01*
X154470523Y-106100571D01*
X154518142Y-106052952D01*
X154613380Y-106005333D01*
X154851475Y-106005333D01*
X154946713Y-106052952D01*
X154994332Y-106100571D01*
X155041951Y-106195809D01*
X155041951Y-106433904D01*
X154994332Y-106529142D01*
X154946713Y-106576761D01*
X154851475Y-106624380D01*
X154613380Y-106624380D01*
X154518142Y-106576761D01*
X154470523Y-106529142D01*
G04 #@! TO.C,N6*
X174407380Y-106624380D02*
X174407380Y-105624380D01*
X174978808Y-106624380D01*
X174978808Y-105624380D01*
X175883570Y-105624380D02*
X175693094Y-105624380D01*
X175597856Y-105672000D01*
X175550237Y-105719619D01*
X175454999Y-105862476D01*
X175407380Y-106052952D01*
X175407380Y-106433904D01*
X175454999Y-106529142D01*
X175502618Y-106576761D01*
X175597856Y-106624380D01*
X175788332Y-106624380D01*
X175883570Y-106576761D01*
X175931189Y-106529142D01*
X175978808Y-106433904D01*
X175978808Y-106195809D01*
X175931189Y-106100571D01*
X175883570Y-106052952D01*
X175788332Y-106005333D01*
X175597856Y-106005333D01*
X175502618Y-106052952D01*
X175454999Y-106100571D01*
X175407380Y-106195809D01*
G04 #@! TO.C,N7*
X195344237Y-106624380D02*
X195344237Y-105624380D01*
X195915665Y-106624380D01*
X195915665Y-105624380D01*
X196296618Y-105624380D02*
X196963284Y-105624380D01*
X196534713Y-106624380D01*
G04 #@! TO.C,N8*
X216281095Y-106624380D02*
X216281095Y-105624380D01*
X216852523Y-106624380D01*
X216852523Y-105624380D01*
X217471571Y-106052952D02*
X217376333Y-106005333D01*
X217328714Y-105957714D01*
X217281095Y-105862476D01*
X217281095Y-105814857D01*
X217328714Y-105719619D01*
X217376333Y-105672000D01*
X217471571Y-105624380D01*
X217662047Y-105624380D01*
X217757285Y-105672000D01*
X217804904Y-105719619D01*
X217852523Y-105814857D01*
X217852523Y-105862476D01*
X217804904Y-105957714D01*
X217757285Y-106005333D01*
X217662047Y-106052952D01*
X217471571Y-106052952D01*
X217376333Y-106100571D01*
X217328714Y-106148190D01*
X217281095Y-106243428D01*
X217281095Y-106433904D01*
X217328714Y-106529142D01*
X217376333Y-106576761D01*
X217471571Y-106624380D01*
X217662047Y-106624380D01*
X217757285Y-106576761D01*
X217804904Y-106529142D01*
X217852523Y-106433904D01*
X217852523Y-106243428D01*
X217804904Y-106148190D01*
X217757285Y-106100571D01*
X217662047Y-106052952D01*
G04 #@! TO.C,C3*
X178173833Y-117197142D02*
X178126214Y-117244761D01*
X177983357Y-117292380D01*
X177888119Y-117292380D01*
X177745261Y-117244761D01*
X177650023Y-117149523D01*
X177602404Y-117054285D01*
X177554785Y-116863809D01*
X177554785Y-116720952D01*
X177602404Y-116530476D01*
X177650023Y-116435238D01*
X177745261Y-116340000D01*
X177888119Y-116292380D01*
X177983357Y-116292380D01*
X178126214Y-116340000D01*
X178173833Y-116387619D01*
X178507166Y-116292380D02*
X179126214Y-116292380D01*
X178792880Y-116673333D01*
X178935738Y-116673333D01*
X179030976Y-116720952D01*
X179078595Y-116768571D01*
X179126214Y-116863809D01*
X179126214Y-117101904D01*
X179078595Y-117197142D01*
X179030976Y-117244761D01*
X178935738Y-117292380D01*
X178650023Y-117292380D01*
X178554785Y-117244761D01*
X178507166Y-117197142D01*
G04 #@! TO.C,C2*
X117435333Y-117833142D02*
X117387714Y-117880761D01*
X117244857Y-117928380D01*
X117149619Y-117928380D01*
X117006761Y-117880761D01*
X116911523Y-117785523D01*
X116863904Y-117690285D01*
X116816285Y-117499809D01*
X116816285Y-117356952D01*
X116863904Y-117166476D01*
X116911523Y-117071238D01*
X117006761Y-116976000D01*
X117149619Y-116928380D01*
X117244857Y-116928380D01*
X117387714Y-116976000D01*
X117435333Y-117023619D01*
X117816285Y-117023619D02*
X117863904Y-116976000D01*
X117959142Y-116928380D01*
X118197238Y-116928380D01*
X118292476Y-116976000D01*
X118340095Y-117023619D01*
X118387714Y-117118857D01*
X118387714Y-117214095D01*
X118340095Y-117356952D01*
X117768666Y-117928380D01*
X118387714Y-117928380D01*
G04 #@! TO.C,C1*
X73462333Y-117197142D02*
X73414714Y-117244761D01*
X73271857Y-117292380D01*
X73176619Y-117292380D01*
X73033761Y-117244761D01*
X72938523Y-117149523D01*
X72890904Y-117054285D01*
X72843285Y-116863809D01*
X72843285Y-116720952D01*
X72890904Y-116530476D01*
X72938523Y-116435238D01*
X73033761Y-116340000D01*
X73176619Y-116292380D01*
X73271857Y-116292380D01*
X73414714Y-116340000D01*
X73462333Y-116387619D01*
X74414714Y-117292380D02*
X73843285Y-117292380D01*
X74129000Y-117292380D02*
X74129000Y-116292380D01*
X74033761Y-116435238D01*
X73938523Y-116530476D01*
X73843285Y-116578095D01*
G04 #@! TD*
M02*
