M48
INCH,TZ
T1C0.0157
T2C0.0197
T3C0.0276
T4C0.0315
T5C0.0394
T6C0.0551
T7C0.1260
%
G90
G05
T1
X28625Y-47200
X29773Y-46023
X30050Y-44000
X30125Y-47475
X30750Y-45050
X31025Y-44275
X31475Y-46750
X31975Y-44675
X33775Y-43675
X45900Y-47475
X47148Y-46523
X47450Y-47475
X47700Y-45025
X48050Y-45625
X49025Y-47000
X49075Y-46075
X49350Y-43975
X49927Y-44623
X69775Y-47525
X69850Y-29650
X70998Y-46023
X71500Y-47525
X71850Y-29600
X71950Y-45100
X72600Y-43975
X72825Y-46625
X72900Y-29650
X73025Y-45550
X73446Y-44446
T2
X54400Y-28900
X58700Y-28900
T3
X55125Y-33075
X56125Y-34075
X57125Y-33075
X63375Y-33075
X64375Y-34075
X65375Y-33075
X30375Y-33075
X31375Y-34075
X32375Y-33075
X38625Y-33075
X39625Y-34075
X40625Y-33075
X79875Y-33075
X80875Y-34075
X81875Y-33075
X71625Y-33075
X72625Y-34075
X73625Y-33075
X46875Y-33075
X47875Y-34075
X48875Y-33075
X79875Y-29875
X80875Y-30875
X81875Y-29875
T4
X83100Y-33075
X87100Y-33075
X41683Y-33075
X45683Y-33075
X83100Y-29900
X87100Y-29900
X58250Y-33075
X62250Y-33075
X24225Y-30800
X24225Y-32800
X49967Y-33075
X53967Y-33075
X74817Y-33075
X78817Y-33075
X66533Y-33075
X70533Y-33075
X33400Y-33075
X37400Y-33075
T5
X67425Y-28525
X68425Y-28525
X69425Y-28525
X70425Y-28525
X71425Y-28525
X72425Y-28525
X73425Y-28525
X74425Y-28525
X78369Y-46800
X79369Y-46800
X80369Y-46800
X81369Y-46800
X82369Y-46800
X83369Y-46800
X84369Y-46800
X85369Y-46800
T6
X42086Y-37389
X42211Y-38418
X42454Y-36420
X42800Y-39271
X43229Y-35733
X43718Y-39752
X44236Y-35485
X44754Y-39752
X45242Y-35733
X45672Y-39271
X46018Y-36420
X46260Y-38418
X46385Y-37389
X33843Y-37389
X33968Y-38418
X34211Y-36420
X34557Y-39271
X34987Y-35733
X35475Y-39752
X35993Y-35485
X36511Y-39752
X36999Y-35733
X37429Y-39271
X37775Y-36420
X38017Y-38418
X38142Y-37389
X58572Y-37389
X58697Y-38418
X58939Y-36420
X59286Y-39271
X59715Y-35733
X60203Y-39752
X60721Y-35485
X61240Y-39752
X61728Y-35733
X62157Y-39271
X62503Y-36420
X62746Y-38418
X62871Y-37389
X75058Y-37389
X75183Y-38418
X75425Y-36420
X75771Y-39271
X76201Y-35733
X76689Y-39752
X77207Y-35485
X77725Y-39752
X78213Y-35733
X78643Y-39271
X78989Y-36420
X79232Y-38418
X79357Y-37389
X25600Y-37389
X25725Y-38418
X25968Y-36420
X26314Y-39271
X26744Y-35733
X27232Y-39752
X27750Y-35485
X28268Y-39752
X28756Y-35733
X29186Y-39271
X29532Y-36420
X29775Y-38418
X29900Y-37389
X50329Y-37389
X50454Y-38418
X50697Y-36420
X51043Y-39271
X51472Y-35733
X51960Y-39752
X52479Y-35485
X52997Y-39752
X53485Y-35733
X53914Y-39271
X54261Y-36420
X54503Y-38418
X54628Y-37389
X66815Y-37389
X66940Y-38418
X67182Y-36420
X67528Y-39271
X67958Y-35733
X68446Y-39752
X68964Y-35485
X69482Y-39752
X69971Y-35733
X70400Y-39271
X70746Y-36420
X70989Y-38418
X71114Y-37389
X83300Y-37389
X83425Y-38418
X83668Y-36420
X84014Y-39271
X84444Y-35733
X84932Y-39752
X85450Y-35485
X85968Y-39752
X86456Y-35733
X86886Y-39271
X87232Y-36420
X87475Y-38418
X87600Y-37389
T7
X56675Y-28700
X24075Y-28700
X89275Y-46600
X89275Y-28700
X24050Y-46625
X56675Y-46625
T0
M30
